<svg width="32" height="15" viewBox="0 0 32 15" fill="none" xmlns="http://www.w3.org/2000/svg">
    <path d="M6.048 2.68293C6.424 2.21226 6.68 1.57893 6.61334 0.933594C6.06134 0.96026 5.388 1.29626 4.99867 1.76826C4.64934 2.17226 4.33867 2.83093 4.42 3.45093C5.03867 3.50426 5.65734 3.14159 6.048 2.68293Z" fill="black"/>
    <path d="M6.60535 3.57192C5.70668 3.51858 4.94135 4.08258 4.51201 4.08258C4.08268 4.08258 3.42535 3.59992 2.71335 3.61192C1.78801 3.62525 0.929347 4.14925 0.45868 4.98125C-0.507986 6.64658 0.204014 9.11592 1.14268 10.4719C1.59868 11.1426 2.14935 11.8813 2.87335 11.8546C3.55735 11.8279 3.82668 11.4119 4.65868 11.4119C5.49068 11.4119 5.73201 11.8546 6.45601 11.8412C7.20801 11.8279 7.67735 11.1706 8.13335 10.4986C8.65735 9.73325 8.87068 8.99592 8.88401 8.95458C8.87068 8.94125 7.43468 8.39058 7.42135 6.73992C7.40801 5.35725 8.54801 4.69992 8.60268 4.65858C7.96135 3.70658 6.95468 3.59858 6.60535 3.57192Z" fill="black"/>
    <path d="M14.4347 1.70117C16.3894 1.70117 17.7494 3.04784 17.7494 5.00917C17.7494 6.97717 16.36 8.33184 14.3854 8.33184H12.2214V11.7732H10.6587V1.70117H14.4347ZM12.2214 7.01984H14.0147C15.376 7.01984 16.1507 6.2865 16.1507 5.01717C16.1507 3.74651 15.376 3.02117 14.0227 3.02117H12.2227L12.2214 7.01984Z" fill="black"/>
    <path d="M18.1573 9.68683C18.1573 8.40283 19.1413 7.6135 20.8867 7.51616L22.896 7.3975V6.83216C22.896 6.01616 22.344 5.52683 21.424 5.52683C20.552 5.52683 20.0067 5.9455 19.8747 6.6015H18.4507C18.5347 5.27483 19.6653 4.29883 21.48 4.29883C23.26 4.29883 24.3973 5.2415 24.3973 6.7135V11.7735H22.952V10.5655H22.9173C22.492 11.3815 21.564 11.8988 20.6 11.8988C19.1627 11.8988 18.1573 11.0055 18.1573 9.68683ZM22.896 9.02283V8.44416L21.088 8.55616C20.188 8.61883 19.6787 9.01616 19.6787 9.6455C19.6787 10.2868 20.2093 10.7068 21.0187 10.7068C22.0733 10.7055 22.896 9.97883 22.896 9.02283Z" fill="black"/>
    <path d="M25.7613 14.4724V13.251C25.8733 13.279 26.124 13.279 26.2493 13.279C26.9467 13.279 27.324 12.9857 27.5547 12.2324C27.5547 12.219 27.688 11.7857 27.688 11.779L25.036 4.42969H26.6693L28.5253 10.4044H28.5533L30.4093 4.42969H32L29.2507 12.155C28.6227 13.935 27.8973 14.507 26.376 14.507C26.2493 14.507 25.872 14.4937 25.7613 14.4724Z" fill="black"/>
</svg>
