<svg width="18" height="19" viewBox="0 0 18 19" fill="none" xmlns="http://www.w3.org/2000/svg">
<mask id="path-1-inside-1_1690_214" fill="white">
<path d="M17.0099 1.49219C16.5359 1.01897 15.8941 0.752207 15.2243 0.75H15.1946C14.8701 0.752441 14.5494 0.820289 14.2517 0.949488C13.9539 1.07869 13.6853 1.26659 13.4618 1.50195C13.4469 1.51732 13.4329 1.53363 13.42 1.55078L11.3107 4.27578C11.0911 4.55313 10.813 4.61484 10.6552 4.45703L10.581 4.38281C10.2291 4.03099 9.75197 3.83333 9.25441 3.83333C8.75686 3.83333 8.27968 4.03099 7.92785 4.38281C7.57602 4.73464 7.37837 5.21182 7.37837 5.70938C7.37837 6.20693 7.57602 6.68411 7.92785 7.03594L8.31496 7.42305C8.32222 7.4303 8.32799 7.43892 8.33192 7.4484C8.33585 7.45789 8.33787 7.46805 8.33787 7.47832C8.33787 7.48859 8.33585 7.49875 8.33192 7.50824C8.32799 7.51772 8.32222 7.52634 8.31496 7.53359L1.29308 14.5539C1.10949 14.7363 0.832147 15.1191 0.517694 16.3359C0.3591 16.9496 0.263397 17.4945 0.259491 17.5172C0.243759 17.607 0.247878 17.6992 0.27156 17.7873C0.295241 17.8754 0.337912 17.9572 0.396577 18.027C0.455241 18.0969 0.528478 18.153 0.611147 18.1915C0.693815 18.23 0.783913 18.25 0.875116 18.25C0.909672 18.25 0.94417 18.2472 0.978241 18.2414C1.0009 18.2375 1.5423 18.1465 2.15519 17.9898C3.36887 17.6797 3.75871 17.3945 3.94621 17.2086L10.9685 10.1855C10.9831 10.171 11.0029 10.1628 11.0236 10.1628C11.0442 10.1628 11.064 10.171 11.0786 10.1855L11.4661 10.573C11.818 10.9249 12.2952 11.1225 12.7928 11.1225C13.2904 11.1224 13.7676 10.9247 14.1195 10.5729C14.4713 10.221 14.6689 9.74374 14.6689 9.24615C14.6688 8.74856 14.4711 8.27136 14.1193 7.91953L14.0571 7.85938C13.8618 7.66406 13.9587 7.38633 14.2259 7.18984L16.9505 5.08281C16.9706 5.0667 16.9898 5.04949 17.0079 5.03125C17.2421 4.80215 17.4283 4.52873 17.5557 4.22695C17.6831 3.92516 17.7492 3.60102 17.7501 3.27344C17.7511 2.94227 17.6862 2.61421 17.5591 2.30839C17.432 2.00258 17.2453 1.72512 17.0099 1.49219ZM8.79621 10.5898C8.68215 10.7039 8.16418 10.8992 7.88254 10.6176C7.6009 10.3359 7.79504 9.81992 7.90949 9.70547L9.19855 8.41641C9.20581 8.40914 9.21443 8.40338 9.22391 8.39945C9.23339 8.39552 9.24356 8.39349 9.25383 8.39349C9.26409 8.39349 9.27426 8.39552 9.28374 8.39945C9.29323 8.40338 9.30184 8.40914 9.3091 8.41641L10.0841 9.19102C10.0914 9.19827 10.0971 9.20689 10.1011 9.21637C10.105 9.22586 10.107 9.23602 10.107 9.24629C10.107 9.25656 10.105 9.26672 10.1011 9.27621C10.0971 9.28569 10.0914 9.29431 10.0841 9.30156L8.79621 10.5898Z"/>
</mask>
<path d="M17.0099 1.49219C16.5359 1.01897 15.8941 0.752207 15.2243 0.75H15.1946C14.8701 0.752441 14.5494 0.820289 14.2517 0.949488C13.9539 1.07869 13.6853 1.26659 13.4618 1.50195C13.4469 1.51732 13.4329 1.53363 13.42 1.55078L11.3107 4.27578C11.0911 4.55313 10.813 4.61484 10.6552 4.45703L10.581 4.38281C10.2291 4.03099 9.75197 3.83333 9.25441 3.83333C8.75686 3.83333 8.27968 4.03099 7.92785 4.38281C7.57602 4.73464 7.37837 5.21182 7.37837 5.70938C7.37837 6.20693 7.57602 6.68411 7.92785 7.03594L8.31496 7.42305C8.32222 7.4303 8.32799 7.43892 8.33192 7.4484C8.33585 7.45789 8.33787 7.46805 8.33787 7.47832C8.33787 7.48859 8.33585 7.49875 8.33192 7.50824C8.32799 7.51772 8.32222 7.52634 8.31496 7.53359L1.29308 14.5539C1.10949 14.7363 0.832147 15.1191 0.517694 16.3359C0.3591 16.9496 0.263397 17.4945 0.259491 17.5172C0.243759 17.607 0.247878 17.6992 0.27156 17.7873C0.295241 17.8754 0.337912 17.9572 0.396577 18.027C0.455241 18.0969 0.528478 18.153 0.611147 18.1915C0.693815 18.23 0.783913 18.25 0.875116 18.25C0.909672 18.25 0.94417 18.2472 0.978241 18.2414C1.0009 18.2375 1.5423 18.1465 2.15519 17.9898C3.36887 17.6797 3.75871 17.3945 3.94621 17.2086L10.9685 10.1855C10.9831 10.171 11.0029 10.1628 11.0236 10.1628C11.0442 10.1628 11.064 10.171 11.0786 10.1855L11.4661 10.573C11.818 10.9249 12.2952 11.1225 12.7928 11.1225C13.2904 11.1224 13.7676 10.9247 14.1195 10.5729C14.4713 10.221 14.6689 9.74374 14.6689 9.24615C14.6688 8.74856 14.4711 8.27136 14.1193 7.91953L14.0571 7.85938C13.8618 7.66406 13.9587 7.38633 14.2259 7.18984L16.9505 5.08281C16.9706 5.0667 16.9898 5.04949 17.0079 5.03125C17.2421 4.80215 17.4283 4.52873 17.5557 4.22695C17.6831 3.92516 17.7492 3.60102 17.7501 3.27344C17.7511 2.94227 17.6862 2.61421 17.5591 2.30839C17.432 2.00258 17.2453 1.72512 17.0099 1.49219ZM8.79621 10.5898C8.68215 10.7039 8.16418 10.8992 7.88254 10.6176C7.6009 10.3359 7.79504 9.81992 7.90949 9.70547L9.19855 8.41641C9.20581 8.40914 9.21443 8.40338 9.22391 8.39945C9.23339 8.39552 9.24356 8.39349 9.25383 8.39349C9.26409 8.39349 9.27426 8.39552 9.28374 8.39945C9.29323 8.40338 9.30184 8.40914 9.3091 8.41641L10.0841 9.19102C10.0914 9.19827 10.0971 9.20689 10.1011 9.21637C10.105 9.22586 10.107 9.23602 10.107 9.24629C10.107 9.25656 10.105 9.26672 10.1011 9.27621C10.0971 9.28569 10.0914 9.29431 10.0841 9.30156L8.79621 10.5898Z" fill="#373737"/>
<path d="M15.2243 0.75L15.2276 -0.25H15.2243V0.75ZM15.1946 0.75V-0.250028L15.1871 -0.249972L15.1946 0.75ZM13.4618 1.50195L14.1782 2.19975L14.187 2.19049L13.4618 1.50195ZM13.42 1.55078L14.2108 2.1629L14.2154 2.15695L14.2199 2.15094L13.42 1.55078ZM11.3107 4.27578L12.0948 4.89646L12.1014 4.8879L11.3107 4.27578ZM10.6552 4.45703L9.94808 5.16414L9.94809 5.16414L10.6552 4.45703ZM10.581 4.38281L11.2881 3.67571L11.2881 3.67571L10.581 4.38281ZM9.25441 3.83333V2.83333V3.83333ZM7.37837 5.70938H8.37837H7.37837ZM8.31496 7.42305L7.60785 8.13015L7.60825 8.13055L8.31496 7.42305ZM8.31496 7.53359L7.60825 6.82609L7.60793 6.82641L8.31496 7.53359ZM1.29308 14.5539L1.99793 15.2633L2.00011 15.2611L1.29308 14.5539ZM0.517694 16.3359L1.48588 16.5862L1.48589 16.5861L0.517694 16.3359ZM0.259491 17.5172L1.2445 17.6897L1.24495 17.6871L0.259491 17.5172ZM0.875116 18.25L0.876551 17.25H0.875126L0.875116 18.25ZM0.978241 18.2414L1.14517 19.2274L1.14815 19.2269L0.978241 18.2414ZM2.15519 17.9898L1.9076 17.021L1.90758 17.021L2.15519 17.9898ZM3.94621 17.2086L4.65036 17.9187L4.65336 17.9157L3.94621 17.2086ZM10.9685 10.1855L10.2635 9.47634L10.2613 9.47848L10.9685 10.1855ZM11.0786 10.1855L11.7857 9.47844L11.7836 9.47634L11.0786 10.1855ZM11.4661 10.573L10.759 11.2802L10.7591 11.2802L11.4661 10.573ZM14.1193 7.91953L14.8263 7.21237L14.8207 7.20675L14.815 7.20122L14.1193 7.91953ZM14.0571 7.85938L13.35 8.56648L13.3557 8.57213L13.3614 8.57769L14.0571 7.85938ZM14.2259 7.18984L14.8183 7.99546L14.8281 7.9883L14.8376 7.9809L14.2259 7.18984ZM16.9505 5.08281L17.5623 5.87387L17.5694 5.86837L17.5764 5.86275L16.9505 5.08281ZM17.0079 5.03125L16.3085 4.31643L16.2996 4.32538L17.0079 5.03125ZM17.7501 3.27344L16.7501 3.27045V3.2707L17.7501 3.27344ZM8.79621 10.5898L9.50332 11.297L9.50342 11.2968L8.79621 10.5898ZM7.90949 9.70547L8.6166 10.4126L7.90949 9.70547ZM9.19855 8.41641L9.90566 9.12351L9.90605 9.12312L9.19855 8.41641ZM9.25383 8.39349V7.39349V8.39349ZM9.3091 8.41641L8.6016 9.12312L8.60217 9.12369L9.3091 8.41641ZM10.0841 9.19102L9.37717 9.8983L9.37739 9.89852L10.0841 9.19102ZM10.0841 9.30156L9.37739 8.59406L9.37689 8.59456L10.0841 9.30156ZM17.7164 0.784501C17.0557 0.124909 16.1612 -0.246918 15.2276 -0.249995L15.221 1.74999C15.627 1.75133 16.016 1.91303 16.3034 2.19987L17.7164 0.784501ZM15.2243 -0.25H15.1946V1.75H15.2243V-0.25ZM15.1871 -0.249972C14.7282 -0.24652 14.2746 -0.150571 13.8536 0.0321387L14.6497 1.86684C14.8242 1.79115 15.012 1.7514 15.2022 1.74997L15.1871 -0.249972ZM13.8536 0.0321387C13.4325 0.214849 13.0526 0.48057 12.7366 0.81342L14.187 2.19049C14.318 2.0526 14.4753 1.94253 14.6497 1.86684L13.8536 0.0321387ZM12.7455 0.804215C12.7006 0.850277 12.6588 0.89918 12.6202 0.950623L14.2199 2.15094C14.2071 2.16807 14.1931 2.18436 14.1782 2.19969L12.7455 0.804215ZM12.6293 0.938663L10.5199 3.66366L12.1014 4.8879L14.2108 2.1629L12.6293 0.938663ZM10.5266 3.65513C10.5137 3.67133 10.5618 3.59986 10.7079 3.56183C10.7851 3.54175 10.8943 3.53097 11.0207 3.56049C11.1511 3.59095 11.2702 3.65783 11.3623 3.74992L9.94809 5.16414C10.3157 5.5317 10.8068 5.6027 11.2116 5.49735C11.5912 5.39857 11.888 5.15757 12.0948 4.89643L10.5266 3.65513ZM11.3623 3.74993L11.2881 3.67571L9.87387 5.08992L9.94808 5.16414L11.3623 3.74993ZM11.2881 3.67571C10.7487 3.13634 10.0172 2.83333 9.25441 2.83333V4.83333C9.48675 4.83333 9.70958 4.92563 9.87387 5.08992L11.2881 3.67571ZM9.25441 2.83333C8.49164 2.83333 7.76011 3.13634 7.22074 3.67571L8.63496 5.08992C8.79925 4.92563 9.02207 4.83333 9.25441 4.83333V2.83333ZM7.22074 3.67571C6.68138 4.21507 6.37837 4.9466 6.37837 5.70938H8.37837C8.37837 5.47703 8.47067 5.25421 8.63496 5.08992L7.22074 3.67571ZM6.37837 5.70938C6.37837 6.47215 6.68138 7.20368 7.22074 7.74304L8.63496 6.32883C8.47067 6.16454 8.37837 5.94172 8.37837 5.70938H6.37837ZM7.22074 7.74304L7.60785 8.13015L9.02207 6.71594L8.63496 6.32883L7.22074 7.74304ZM7.60825 8.13055C7.52252 8.04491 7.45453 7.94324 7.40814 7.83134L9.25569 7.06546C9.20144 6.9346 9.12193 6.81569 9.02167 6.71555L7.60825 8.13055ZM7.40814 7.83134C7.36175 7.71943 7.33787 7.59947 7.33787 7.47832H9.33787C9.33787 7.33664 9.30995 7.19635 9.25569 7.06546L7.40814 7.83134ZM7.33787 7.47832C7.33787 7.35718 7.36175 7.23722 7.40814 7.1253L9.25569 7.89118C9.30995 7.76029 9.33787 7.61999 9.33787 7.47832H7.33787ZM7.40814 7.1253C7.45453 7.0134 7.52252 6.91173 7.60825 6.82609L9.02167 8.24109C9.12193 8.14095 9.20144 8.02204 9.25569 7.89118L7.40814 7.1253ZM7.60793 6.82641L0.586057 13.8467L2.00011 15.2611L9.02199 8.24078L7.60793 6.82641ZM0.588246 13.8445C0.218739 14.2117 -0.117572 14.7975 -0.450498 16.0857L1.48589 16.5861C1.63286 16.0174 1.76072 15.6857 1.85377 15.4944C1.9405 15.316 1.99235 15.2688 1.99792 15.2633L0.588246 13.8445ZM-0.450496 16.0857C-0.618774 16.7369 -0.719838 17.3117 -0.725969 17.3473L1.24495 17.6871C1.24486 17.6877 1.24628 17.6794 1.24927 17.6629C1.25217 17.6468 1.25643 17.6236 1.26198 17.594C1.27309 17.5349 1.28932 17.4509 1.31021 17.349C1.35217 17.1444 1.41201 16.872 1.48588 16.5862L-0.450496 16.0857ZM-0.725518 17.3447C-0.766423 17.5783 -0.755713 17.818 -0.69414 18.0469L1.23726 17.5276C1.25147 17.5805 1.25394 17.6358 1.2445 17.6897L-0.725518 17.3447ZM-0.69414 18.0469C-0.632567 18.2759 -0.521624 18.4887 -0.369096 18.6702L1.16225 17.3838C1.19745 17.4257 1.22305 17.4748 1.23726 17.5276L-0.69414 18.0469ZM-0.369096 18.6702C-0.216567 18.8518 -0.0261513 18.9978 0.188786 19.0979L1.03351 17.2851C1.08311 17.3082 1.12705 17.3419 1.16225 17.3838L-0.369096 18.6702ZM0.188786 19.0979C0.403723 19.1981 0.637977 19.25 0.875107 19.25L0.875126 17.25C0.92985 17.25 0.983908 17.262 1.03351 17.2851L0.188786 19.0979ZM0.873681 19.25C0.964656 19.2501 1.05548 19.2426 1.14517 19.2274L0.811309 17.2554C0.832863 17.2518 0.854688 17.25 0.876551 17.25L0.873681 19.25ZM1.14815 19.2269C1.14704 19.2271 1.16303 19.2243 1.18197 19.221C1.2022 19.2175 1.22988 19.2126 1.2641 19.2064C1.3325 19.194 1.42714 19.1763 1.5409 19.1536C1.76744 19.1084 2.07425 19.0427 2.40281 18.9587L1.90758 17.021C1.33501 17.1673 0.825985 17.2529 0.808334 17.2559L1.14815 19.2269ZM2.40279 18.9587C3.69835 18.6276 4.28339 18.2826 4.65035 17.9187L3.24207 16.4985C3.23403 16.5065 3.03938 16.7318 1.9076 17.021L2.40279 18.9587ZM4.65336 17.9157L11.6756 10.8926L10.2613 9.47848L3.23906 16.5015L4.65336 17.9157ZM11.6735 10.8948C11.5007 11.0665 11.2671 11.1628 11.0236 11.1628V9.16283C10.7387 9.16283 10.4655 9.27554 10.2635 9.47634L11.6735 10.8948ZM11.0236 11.1628C10.78 11.1628 10.5464 11.0665 10.3736 10.8948L11.7836 9.47634C11.5816 9.27553 11.3084 9.16283 11.0236 9.16283V11.1628ZM10.3715 10.8927L10.759 11.2802L12.1732 9.86594L11.7857 9.47844L10.3715 10.8927ZM10.7591 11.2802C11.2985 11.8196 12.0301 12.1225 12.7929 12.1225L12.7928 10.1225C12.5604 10.1225 12.3375 10.0302 12.1732 9.86589L10.7591 11.2802ZM12.7929 12.1225C13.5557 12.1224 14.2873 11.8193 14.8266 11.2799L13.4123 9.8658C13.248 10.0301 13.0251 10.1225 12.7928 10.1225L12.7929 12.1225ZM14.8266 11.2799C15.366 10.7405 15.6689 10.0089 15.6689 9.24608L13.6689 9.24622C13.6689 9.4786 13.5766 9.70147 13.4123 9.8658L14.8266 11.2799ZM15.6689 9.24608C15.6688 8.48327 15.3657 7.75172 14.8263 7.21237L13.4122 8.62669C13.5765 8.79099 13.6689 9.01385 13.6689 9.24622L15.6689 9.24608ZM14.815 7.20122L14.7529 7.14106L13.3614 8.57769L13.4235 8.63784L14.815 7.20122ZM14.7643 7.15227C14.832 7.22003 14.8998 7.32267 14.9334 7.4564C14.9665 7.5881 14.9557 7.70694 14.9309 7.79505C14.9073 7.87953 14.8721 7.93339 14.8522 7.95936C14.8415 7.97322 14.8327 7.98241 14.8272 7.98769C14.8217 7.99302 14.8185 7.99537 14.8183 7.99546L13.6335 6.38423C13.3814 6.56956 13.1164 6.85844 13.0052 7.25505C12.8786 7.70655 12.9861 8.20251 13.35 8.56648L14.7643 7.15227ZM14.8376 7.9809L17.5623 5.87387L16.3388 4.29176L13.6141 6.39879L14.8376 7.9809ZM17.5764 5.86275C17.6253 5.8235 17.672 5.78156 17.7163 5.73712L16.2996 4.32538C16.3075 4.31742 16.3159 4.3099 16.3247 4.30287L17.5764 5.86275ZM17.7073 5.74602C18.0363 5.42411 18.2979 5.03995 18.477 4.61592L16.6345 3.83797C16.5587 4.01752 16.4479 4.18018 16.3086 4.31648L17.7073 5.74602ZM18.477 4.61592C18.656 4.19188 18.7488 3.73646 18.7501 3.27618L16.7501 3.2707C16.7496 3.46559 16.7103 3.65843 16.6345 3.83797L18.477 4.61592ZM18.7501 3.27643C18.7515 2.81254 18.6605 2.35301 18.4825 1.92464L16.6356 2.69215C16.7118 2.87541 16.7507 3.07199 16.7501 3.27045L18.7501 3.27643ZM18.4825 1.92464C18.3045 1.49627 18.043 1.10761 17.7132 0.781339L16.3065 2.20304C16.4476 2.34262 16.5595 2.50889 16.6356 2.69215L18.4825 1.92464ZM8.0891 9.88274C8.14948 9.82236 8.19952 9.79111 8.21323 9.78271C8.23287 9.77067 8.24456 9.76555 8.24677 9.76459C8.24959 9.76336 8.24719 9.76419 8.24827 9.76402C8.25025 9.76371 8.25817 9.76258 8.27189 9.76267C8.28556 9.76276 8.30903 9.7641 8.34008 9.77083C8.40665 9.78527 8.50354 9.82436 8.58964 9.91047L7.17543 11.3247C7.63865 11.7879 8.22701 11.7915 8.55616 11.7402C8.73619 11.7121 8.90228 11.6603 9.0431 11.5992C9.16063 11.5482 9.34595 11.4543 9.50332 11.297L8.0891 9.88274ZM8.58964 9.91047C8.67505 9.99588 8.7142 10.0921 8.72878 10.1589C8.74169 10.2179 8.73572 10.2518 8.73571 10.2518C8.73545 10.2534 8.73611 10.2516 8.7347 10.2548C8.73364 10.2573 8.72843 10.2691 8.71632 10.2889C8.70777 10.3028 8.67662 10.3526 8.6166 10.4126L7.20238 8.99836C7.04523 9.15551 6.95133 9.34042 6.90008 9.45849C6.83887 9.59949 6.78714 9.7657 6.75925 9.94584C6.70813 10.2761 6.71335 10.8626 7.17543 11.3247L8.58964 9.91047ZM8.6166 10.4126L9.90566 9.12351L8.49145 7.7093L7.20238 8.99836L8.6166 10.4126ZM9.90605 9.12312C9.8204 9.20886 9.71872 9.27685 9.60685 9.32322L8.84097 7.47568C8.71013 7.52991 8.59121 7.60942 8.49105 7.70969L9.90605 9.12312ZM9.60685 9.32322C9.49493 9.36962 9.37497 9.39349 9.25383 9.39349V7.39349C9.11215 7.39349 8.97185 7.42142 8.84097 7.47568L9.60685 9.32322ZM9.25383 9.39349C9.1327 9.39349 9.01273 9.36962 8.9008 9.32322L9.66668 7.47568C9.53579 7.42141 9.39549 7.39349 9.25383 7.39349V9.39349ZM8.9008 9.32322C8.78889 9.27683 8.68722 9.20883 8.6016 9.12312L10.0166 7.70969C9.91647 7.60945 9.79757 7.52993 9.66668 7.47568L8.9008 9.32322ZM8.60217 9.12369L9.37717 9.8983L10.791 8.48373L10.016 7.70912L8.60217 9.12369ZM9.37739 9.89852C9.29166 9.81288 9.22367 9.71121 9.17728 9.59931L11.0248 8.83343C10.9706 8.70257 10.8911 8.58366 10.7908 8.48352L9.37739 9.89852ZM9.17728 9.59931C9.1309 9.48742 9.10701 9.36747 9.10701 9.24629H11.107C11.107 9.10458 11.0791 8.96429 11.0248 8.83343L9.17728 9.59931ZM9.10701 9.24629C9.10701 9.1251 9.13091 9.00515 9.17728 8.89327L11.0248 9.65915C11.0791 9.5283 11.107 9.38801 11.107 9.24629H9.10701ZM9.17728 8.89327C9.22367 8.78137 9.29166 8.6797 9.37739 8.59406L10.7908 10.0091C10.8911 9.90892 10.9706 9.79001 11.0248 9.65915L9.17728 8.89327ZM9.37689 8.59456L8.08899 9.88284L9.50342 11.2968L10.7913 10.0086L9.37689 8.59456Z" fill="#353533" mask="url(#path-1-inside-1_1690_214)"/>
</svg>
