<svg width="143" height="29" viewBox="0 0 143 29" fill="none" xmlns="http://www.w3.org/2000/svg">
    <path d="M0 0H143L130.542 15L143 29H0L11 15L0 0Z" fill="#CC1728"/>
    <path d="M17.98 20V9.92H21.088C21.1907 9.92 21.3703 9.92233 21.627 9.927C21.8837 9.93167 22.1287 9.95033 22.362 9.983C23.1413 10.0857 23.7923 10.3703 24.315 10.837C24.8423 11.299 25.239 11.887 25.505 12.601C25.771 13.315 25.904 14.1013 25.904 14.96C25.904 15.8187 25.771 16.605 25.505 17.319C25.239 18.033 24.8423 18.6233 24.315 19.09C23.7923 19.552 23.1413 19.8343 22.362 19.937C22.1287 19.965 21.8813 19.9837 21.62 19.993C21.3633 19.9977 21.186 20 21.088 20H17.98ZM19.261 18.81H21.088C21.2653 18.81 21.4637 18.8053 21.683 18.796C21.9023 18.782 22.0937 18.761 22.257 18.733C22.8077 18.6303 23.2533 18.3993 23.594 18.04C23.9347 17.6807 24.1843 17.2327 24.343 16.696C24.5017 16.1593 24.581 15.5807 24.581 14.96C24.581 14.3253 24.4993 13.7397 24.336 13.203C24.1773 12.6663 23.9277 12.2207 23.587 11.866C23.2463 11.5113 22.803 11.285 22.257 11.187C22.0937 11.1543 21.9 11.1333 21.676 11.124C21.452 11.1147 21.256 11.11 21.088 11.11H19.261V18.81ZM30.9853 20.21C30.2433 20.21 29.5946 20.0467 29.0393 19.72C28.4886 19.3887 28.0593 18.929 27.7513 18.341C27.4433 17.7483 27.2893 17.0577 27.2893 16.269C27.2893 15.443 27.441 14.729 27.7443 14.127C28.0476 13.5203 28.47 13.0537 29.0113 12.727C29.5573 12.3957 30.1966 12.23 30.9293 12.23C31.69 12.23 32.3363 12.405 32.8683 12.755C33.405 13.105 33.8063 13.6043 34.0723 14.253C34.343 14.9017 34.4596 15.674 34.4223 16.57H33.1623V16.122C33.1483 15.1933 32.9593 14.5003 32.5953 14.043C32.2313 13.581 31.69 13.35 30.9713 13.35C30.2013 13.35 29.6156 13.5973 29.2143 14.092C28.813 14.5867 28.6123 15.296 28.6123 16.22C28.6123 17.1113 28.813 17.802 29.2143 18.292C29.6156 18.782 30.1873 19.027 30.9293 19.027C31.4286 19.027 31.8626 18.9127 32.2313 18.684C32.6 18.4553 32.8893 18.1263 33.0993 17.697L34.2963 18.11C34.0023 18.7773 33.559 19.2953 32.9663 19.664C32.3783 20.028 31.718 20.21 30.9853 20.21ZM28.1923 16.57V15.569H33.7783V16.57H28.1923ZM38.1931 20.21C37.6284 20.21 37.1547 20.1073 36.7721 19.902C36.3941 19.692 36.1071 19.4167 35.9111 19.076C35.7197 18.7353 35.6241 18.362 35.6241 17.956C35.6241 17.5593 35.6987 17.2163 35.8481 16.927C36.0021 16.633 36.2167 16.3903 36.4921 16.199C36.7674 16.003 37.0964 15.849 37.4791 15.737C37.8384 15.639 38.2397 15.555 38.6831 15.485C39.1311 15.4103 39.5837 15.3427 40.0411 15.282C40.4984 15.2213 40.9254 15.163 41.3221 15.107L40.8741 15.366C40.8881 14.694 40.7527 14.197 40.4681 13.875C40.1881 13.553 39.7027 13.392 39.0121 13.392C38.5547 13.392 38.1534 13.497 37.8081 13.707C37.4674 13.9123 37.2271 14.2483 37.0871 14.715L35.9041 14.358C36.0861 13.6953 36.4384 13.175 36.9611 12.797C37.4837 12.419 38.1721 12.23 39.0261 12.23C39.7121 12.23 40.3001 12.3537 40.7901 12.601C41.2847 12.8437 41.6394 13.2123 41.8541 13.707C41.9614 13.9403 42.0291 14.1947 42.0571 14.47C42.0851 14.7407 42.0991 15.0253 42.0991 15.324V20H40.9931V18.187L41.2521 18.355C40.9674 18.9663 40.5684 19.4283 40.0551 19.741C39.5464 20.0537 38.9257 20.21 38.1931 20.21ZM38.3821 19.167C38.8301 19.167 39.2174 19.0877 39.5441 18.929C39.8754 18.7657 40.1414 18.5533 40.3421 18.292C40.5427 18.026 40.6734 17.7367 40.7341 17.424C40.8041 17.1907 40.8414 16.9317 40.8461 16.647C40.8554 16.3577 40.8601 16.136 40.8601 15.982L41.2941 16.171C40.8881 16.227 40.4891 16.2807 40.0971 16.332C39.7051 16.3833 39.3341 16.4393 38.9841 16.5C38.6341 16.556 38.3191 16.6237 38.0391 16.703C37.8337 16.7683 37.6401 16.8523 37.4581 16.955C37.2807 17.0577 37.1361 17.1907 37.0241 17.354C36.9167 17.5127 36.8631 17.711 36.8631 17.949C36.8631 18.1543 36.9144 18.3503 37.0171 18.537C37.1244 18.7237 37.2877 18.8753 37.5071 18.992C37.7311 19.1087 38.0227 19.167 38.3821 19.167ZM44.2591 20V9.71H45.5051V20H44.2591ZM54.0281 20.21C53.2768 20.21 52.6281 20.0397 52.0821 19.699C51.5408 19.3583 51.1231 18.887 50.8291 18.285C50.5351 17.683 50.3881 16.9923 50.3881 16.213C50.3881 15.4197 50.5375 14.7243 50.8361 14.127C51.1348 13.5297 51.5571 13.0653 52.1031 12.734C52.6491 12.398 53.2908 12.23 54.0281 12.23C54.7841 12.23 55.4351 12.4003 55.9811 12.741C56.5271 13.077 56.9448 13.546 57.2341 14.148C57.5281 14.7453 57.6751 15.4337 57.6751 16.213C57.6751 17.0017 57.5281 17.697 57.2341 18.299C56.9401 18.8963 56.5201 19.3653 55.9741 19.706C55.4281 20.042 54.7795 20.21 54.0281 20.21ZM54.0281 19.027C54.8121 19.027 55.3955 18.7657 55.7781 18.243C56.1608 17.7203 56.3521 17.0437 56.3521 16.213C56.3521 15.359 56.1585 14.68 55.7711 14.176C55.3838 13.6673 54.8028 13.413 54.0281 13.413C53.5008 13.413 53.0668 13.532 52.7261 13.77C52.3855 14.008 52.1311 14.337 51.9631 14.757C51.7951 15.177 51.7111 15.6623 51.7111 16.213C51.7111 17.0623 51.9071 17.7437 52.2991 18.257C52.6911 18.7703 53.2675 19.027 54.0281 19.027ZM60.1373 20V12.027C60.1373 11.831 60.1467 11.6327 60.1653 11.432C60.184 11.2267 60.226 11.0283 60.2913 10.837C60.3567 10.641 60.464 10.4613 60.6133 10.298C60.786 10.1067 60.975 9.97133 61.1803 9.892C61.3857 9.808 61.5933 9.75667 61.8033 9.738C62.018 9.71933 62.221 9.71 62.4123 9.71H63.3713V10.746H62.4823C62.1137 10.746 61.8383 10.837 61.6563 11.019C61.4743 11.1963 61.3833 11.467 61.3833 11.831V20H60.1373ZM58.8563 13.469V12.44H63.3713V13.469H58.8563ZM71.9123 20C71.4643 20.0887 71.021 20.1237 70.5823 20.105C70.1483 20.091 69.761 20.0047 69.4203 19.846C69.0797 19.6827 68.8207 19.4307 68.6433 19.09C68.494 18.7913 68.4123 18.4903 68.3983 18.187C68.389 17.879 68.3843 17.5313 68.3843 17.144V10.34H69.6303V17.088C69.6303 17.396 69.6327 17.6597 69.6373 17.879C69.6467 18.0983 69.6957 18.2873 69.7843 18.446C69.9523 18.7447 70.2183 18.9197 70.5823 18.971C70.951 19.0223 71.3943 19.0083 71.9123 18.929V20ZM66.8513 13.469V12.44H71.9123V13.469H66.8513ZM79.0302 20V16.213C79.0302 15.8537 78.9975 15.5083 78.9322 15.177C78.8715 14.8457 78.7619 14.5493 78.6032 14.288C78.4492 14.022 78.2392 13.812 77.9732 13.658C77.7119 13.504 77.3805 13.427 76.9792 13.427C76.6665 13.427 76.3819 13.4807 76.1252 13.588C75.8732 13.6907 75.6562 13.8493 75.4742 14.064C75.2922 14.2787 75.1499 14.5493 75.0472 14.876C74.9492 15.198 74.9002 15.5783 74.9002 16.017L74.0812 15.765C74.0812 15.0323 74.2119 14.4047 74.4732 13.882C74.7392 13.3547 75.1102 12.951 75.5862 12.671C76.0669 12.3863 76.6315 12.244 77.2802 12.244C77.7702 12.244 78.1879 12.321 78.5332 12.475C78.8785 12.629 79.1655 12.8343 79.3942 13.091C79.6229 13.343 79.8025 13.6277 79.9332 13.945C80.0639 14.2577 80.1549 14.5773 80.2062 14.904C80.2622 15.226 80.2902 15.5317 80.2902 15.821V20H79.0302ZM73.6402 20V9.92H74.7602V15.485H74.9002V20H73.6402ZM85.5861 20.21C84.8441 20.21 84.1954 20.0467 83.6401 19.72C83.0894 19.3887 82.6601 18.929 82.3521 18.341C82.0441 17.7483 81.8901 17.0577 81.8901 16.269C81.8901 15.443 82.0417 14.729 82.3451 14.127C82.6484 13.5203 83.0707 13.0537 83.6121 12.727C84.1581 12.3957 84.7974 12.23 85.5301 12.23C86.2907 12.23 86.9371 12.405 87.4691 12.755C88.0057 13.105 88.4071 13.6043 88.6731 14.253C88.9437 14.9017 89.0604 15.674 89.0231 16.57H87.7631V16.122C87.7491 15.1933 87.5601 14.5003 87.1961 14.043C86.8321 13.581 86.2907 13.35 85.5721 13.35C84.8021 13.35 84.2164 13.5973 83.8151 14.092C83.4137 14.5867 83.2131 15.296 83.2131 16.22C83.2131 17.1113 83.4137 17.802 83.8151 18.292C84.2164 18.782 84.7881 19.027 85.5301 19.027C86.0294 19.027 86.4634 18.9127 86.8321 18.684C87.2007 18.4553 87.4901 18.1263 87.7001 17.697L88.8971 18.11C88.6031 18.7773 88.1597 19.2953 87.5671 19.664C86.9791 20.028 86.3187 20.21 85.5861 20.21ZM82.7931 16.57V15.569H88.3791V16.57H82.7931ZM96.7523 20.21C96.0476 20.21 95.4433 20.035 94.9393 19.685C94.4353 19.3303 94.0456 18.852 93.7703 18.25C93.4996 17.648 93.3643 16.969 93.3643 16.213C93.3643 15.457 93.4996 14.778 93.7703 14.176C94.0456 13.574 94.4353 13.1003 94.9393 12.755C95.4433 12.405 96.0453 12.23 96.7453 12.23C97.4593 12.23 98.059 12.4027 98.5443 12.748C99.0296 13.0933 99.396 13.567 99.6433 14.169C99.8953 14.771 100.021 15.4523 100.021 16.213C100.021 16.9643 99.8953 17.6433 99.6433 18.25C99.396 18.852 99.0296 19.3303 98.5443 19.685C98.059 20.035 97.4616 20.21 96.7523 20.21ZM96.9063 19.069C97.415 19.069 97.8326 18.9477 98.1593 18.705C98.486 18.4577 98.7263 18.1193 98.8803 17.69C99.039 17.256 99.1183 16.7637 99.1183 16.213C99.1183 15.653 99.039 15.1607 98.8803 14.736C98.7263 14.3067 98.4883 13.973 98.1663 13.735C97.8443 13.4923 97.436 13.371 96.9413 13.371C96.428 13.371 96.0033 13.497 95.6673 13.749C95.336 14.001 95.0886 14.3417 94.9253 14.771C94.7666 15.2003 94.6873 15.681 94.6873 16.213C94.6873 16.7497 94.769 17.235 94.9323 17.669C95.0956 18.0983 95.3406 18.439 95.6673 18.691C95.9986 18.943 96.4116 19.069 96.9063 19.069ZM99.1183 20V14.435H98.9783V9.92H100.231V20H99.1183ZM104.541 20.21C103.977 20.21 103.503 20.1073 103.12 19.902C102.742 19.692 102.455 19.4167 102.259 19.076C102.068 18.7353 101.972 18.362 101.972 17.956C101.972 17.5593 102.047 17.2163 102.196 16.927C102.35 16.633 102.565 16.3903 102.84 16.199C103.116 16.003 103.445 15.849 103.827 15.737C104.187 15.639 104.588 15.555 105.031 15.485C105.479 15.4103 105.932 15.3427 106.389 15.282C106.847 15.2213 107.274 15.163 107.67 15.107L107.222 15.366C107.236 14.694 107.101 14.197 106.816 13.875C106.536 13.553 106.051 13.392 105.36 13.392C104.903 13.392 104.502 13.497 104.156 13.707C103.816 13.9123 103.575 14.2483 103.435 14.715L102.252 14.358C102.434 13.6953 102.787 13.175 103.309 12.797C103.832 12.419 104.52 12.23 105.374 12.23C106.06 12.23 106.648 12.3537 107.138 12.601C107.633 12.8437 107.988 13.2123 108.202 13.707C108.31 13.9403 108.377 14.1947 108.405 14.47C108.433 14.7407 108.447 15.0253 108.447 15.324V20H107.341V18.187L107.6 18.355C107.316 18.9663 106.917 19.4283 106.403 19.741C105.895 20.0537 105.274 20.21 104.541 20.21ZM104.73 19.167C105.178 19.167 105.566 19.0877 105.892 18.929C106.224 18.7657 106.49 18.5533 106.69 18.292C106.891 18.026 107.022 17.7367 107.082 17.424C107.152 17.1907 107.19 16.9317 107.194 16.647C107.204 16.3577 107.208 16.136 107.208 15.982L107.642 16.171C107.236 16.227 106.837 16.2807 106.445 16.332C106.053 16.3833 105.682 16.4393 105.332 16.5C104.982 16.556 104.667 16.6237 104.387 16.703C104.182 16.7683 103.988 16.8523 103.806 16.955C103.629 17.0577 103.484 17.1907 103.372 17.354C103.265 17.5127 103.211 17.711 103.211 17.949C103.211 18.1543 103.263 18.3503 103.365 18.537C103.473 18.7237 103.636 18.8753 103.855 18.992C104.079 19.1087 104.371 19.167 104.73 19.167ZM111.094 23.36L112.557 19.384L112.578 20.56L109.274 12.44H110.583L113.173 18.971H112.725L115.154 12.44H116.421L112.305 23.36H111.094ZM121.48 20V18.712H122.726V20H121.48ZM121.48 17.48V9.92H122.726V17.48H121.48Z" fill="white"/>
</svg>
