<svg width="132" height="29" viewBox="0 0 132 29" fill="none" xmlns="http://www.w3.org/2000/svg">
<path d="M0 0H132L120.5 15L132 29H0V0Z" fill="#D43A48"/>
<path d="M8.98 20V9.92H12.088C12.1907 9.92 12.3703 9.92233 12.627 9.927C12.8837 9.93167 13.1287 9.95033 13.362 9.983C14.1413 10.0857 14.7923 10.3703 15.315 10.837C15.8423 11.299 16.239 11.887 16.505 12.601C16.771 13.315 16.904 14.1013 16.904 14.96C16.904 15.8187 16.771 16.605 16.505 17.319C16.239 18.033 15.8423 18.6233 15.315 19.09C14.7923 19.552 14.1413 19.8343 13.362 19.937C13.1287 19.965 12.8813 19.9837 12.62 19.993C12.3633 19.9977 12.186 20 12.088 20H8.98ZM10.261 18.81H12.088C12.2653 18.81 12.4637 18.8053 12.683 18.796C12.9023 18.782 13.0937 18.761 13.257 18.733C13.8077 18.6303 14.2533 18.3993 14.594 18.04C14.9347 17.6807 15.1843 17.2327 15.343 16.696C15.5017 16.1593 15.581 15.5807 15.581 14.96C15.581 14.3253 15.4993 13.7397 15.336 13.203C15.1773 12.6663 14.9277 12.2207 14.587 11.866C14.2463 11.5113 13.803 11.285 13.257 11.187C13.0937 11.1543 12.9 11.1333 12.676 11.124C12.452 11.1147 12.256 11.11 12.088 11.11H10.261V18.81ZM21.9853 20.21C21.2433 20.21 20.5946 20.0467 20.0393 19.72C19.4886 19.3887 19.0593 18.929 18.7513 18.341C18.4433 17.7483 18.2893 17.0577 18.2893 16.269C18.2893 15.443 18.441 14.729 18.7443 14.127C19.0476 13.5203 19.47 13.0537 20.0113 12.727C20.5573 12.3957 21.1966 12.23 21.9293 12.23C22.69 12.23 23.3363 12.405 23.8683 12.755C24.405 13.105 24.8063 13.6043 25.0723 14.253C25.343 14.9017 25.4596 15.674 25.4223 16.57H24.1623V16.122C24.1483 15.1933 23.9593 14.5003 23.5953 14.043C23.2313 13.581 22.69 13.35 21.9713 13.35C21.2013 13.35 20.6156 13.5973 20.2143 14.092C19.813 14.5867 19.6123 15.296 19.6123 16.22C19.6123 17.1113 19.813 17.802 20.2143 18.292C20.6156 18.782 21.1873 19.027 21.9293 19.027C22.4286 19.027 22.8626 18.9127 23.2313 18.684C23.6 18.4553 23.8893 18.1263 24.0993 17.697L25.2963 18.11C25.0023 18.7773 24.559 19.2953 23.9663 19.664C23.3783 20.028 22.718 20.21 21.9853 20.21ZM19.1923 16.57V15.569H24.7783V16.57H19.1923ZM29.1931 20.21C28.6284 20.21 28.1547 20.1073 27.7721 19.902C27.3941 19.692 27.1071 19.4167 26.9111 19.076C26.7197 18.7353 26.6241 18.362 26.6241 17.956C26.6241 17.5593 26.6987 17.2163 26.8481 16.927C27.0021 16.633 27.2167 16.3903 27.4921 16.199C27.7674 16.003 28.0964 15.849 28.4791 15.737C28.8384 15.639 29.2397 15.555 29.6831 15.485C30.1311 15.4103 30.5837 15.3427 31.0411 15.282C31.4984 15.2213 31.9254 15.163 32.3221 15.107L31.8741 15.366C31.8881 14.694 31.7527 14.197 31.4681 13.875C31.1881 13.553 30.7027 13.392 30.0121 13.392C29.5547 13.392 29.1534 13.497 28.8081 13.707C28.4674 13.9123 28.2271 14.2483 28.0871 14.715L26.9041 14.358C27.0861 13.6953 27.4384 13.175 27.9611 12.797C28.4837 12.419 29.1721 12.23 30.0261 12.23C30.7121 12.23 31.3001 12.3537 31.7901 12.601C32.2847 12.8437 32.6394 13.2123 32.8541 13.707C32.9614 13.9403 33.0291 14.1947 33.0571 14.47C33.0851 14.7407 33.0991 15.0253 33.0991 15.324V20H31.9931V18.187L32.2521 18.355C31.9674 18.9663 31.5684 19.4283 31.0551 19.741C30.5464 20.0537 29.9257 20.21 29.1931 20.21ZM29.3821 19.167C29.8301 19.167 30.2174 19.0877 30.5441 18.929C30.8754 18.7657 31.1414 18.5533 31.3421 18.292C31.5427 18.026 31.6734 17.7367 31.7341 17.424C31.8041 17.1907 31.8414 16.9317 31.8461 16.647C31.8554 16.3577 31.8601 16.136 31.8601 15.982L32.2941 16.171C31.8881 16.227 31.4891 16.2807 31.0971 16.332C30.7051 16.3833 30.3341 16.4393 29.9841 16.5C29.6341 16.556 29.3191 16.6237 29.0391 16.703C28.8337 16.7683 28.6401 16.8523 28.4581 16.955C28.2807 17.0577 28.1361 17.1907 28.0241 17.354C27.9167 17.5127 27.8631 17.711 27.8631 17.949C27.8631 18.1543 27.9144 18.3503 28.0171 18.537C28.1244 18.7237 28.2877 18.8753 28.5071 18.992C28.7311 19.1087 29.0227 19.167 29.3821 19.167ZM35.2591 20V9.71H36.5051V20H35.2591ZM45.0281 20.21C44.2768 20.21 43.6281 20.0397 43.0821 19.699C42.5408 19.3583 42.1231 18.887 41.8291 18.285C41.5351 17.683 41.3881 16.9923 41.3881 16.213C41.3881 15.4197 41.5375 14.7243 41.8361 14.127C42.1348 13.5297 42.5571 13.0653 43.1031 12.734C43.6491 12.398 44.2908 12.23 45.0281 12.23C45.7841 12.23 46.4351 12.4003 46.9811 12.741C47.5271 13.077 47.9448 13.546 48.2341 14.148C48.5281 14.7453 48.6751 15.4337 48.6751 16.213C48.6751 17.0017 48.5281 17.697 48.2341 18.299C47.9401 18.8963 47.5201 19.3653 46.9741 19.706C46.4281 20.042 45.7795 20.21 45.0281 20.21ZM45.0281 19.027C45.8121 19.027 46.3955 18.7657 46.7781 18.243C47.1608 17.7203 47.3521 17.0437 47.3521 16.213C47.3521 15.359 47.1585 14.68 46.7711 14.176C46.3838 13.6673 45.8028 13.413 45.0281 13.413C44.5008 13.413 44.0668 13.532 43.7261 13.77C43.3855 14.008 43.1311 14.337 42.9631 14.757C42.7951 15.177 42.7111 15.6623 42.7111 16.213C42.7111 17.0623 42.9071 17.7437 43.2991 18.257C43.6911 18.7703 44.2675 19.027 45.0281 19.027ZM51.1373 20V12.027C51.1373 11.831 51.1467 11.6327 51.1653 11.432C51.184 11.2267 51.226 11.0283 51.2913 10.837C51.3567 10.641 51.464 10.4613 51.6133 10.298C51.786 10.1067 51.975 9.97133 52.1803 9.892C52.3857 9.808 52.5933 9.75667 52.8033 9.738C53.018 9.71933 53.221 9.71 53.4123 9.71H54.3713V10.746H53.4823C53.1137 10.746 52.8383 10.837 52.6563 11.019C52.4743 11.1963 52.3833 11.467 52.3833 11.831V20H51.1373ZM49.8563 13.469V12.44H54.3713V13.469H49.8563ZM62.9123 20C62.4643 20.0887 62.021 20.1237 61.5823 20.105C61.1483 20.091 60.761 20.0047 60.4203 19.846C60.0797 19.6827 59.8207 19.4307 59.6433 19.09C59.494 18.7913 59.4123 18.4903 59.3983 18.187C59.389 17.879 59.3843 17.5313 59.3843 17.144V10.34H60.6303V17.088C60.6303 17.396 60.6327 17.6597 60.6373 17.879C60.6467 18.0983 60.6957 18.2873 60.7843 18.446C60.9523 18.7447 61.2183 18.9197 61.5823 18.971C61.951 19.0223 62.3943 19.0083 62.9123 18.929V20ZM57.8513 13.469V12.44H62.9123V13.469H57.8513ZM70.0302 20V16.213C70.0302 15.8537 69.9975 15.5083 69.9322 15.177C69.8715 14.8457 69.7619 14.5493 69.6032 14.288C69.4492 14.022 69.2392 13.812 68.9732 13.658C68.7119 13.504 68.3805 13.427 67.9792 13.427C67.6665 13.427 67.3819 13.4807 67.1252 13.588C66.8732 13.6907 66.6562 13.8493 66.4742 14.064C66.2922 14.2787 66.1499 14.5493 66.0472 14.876C65.9492 15.198 65.9002 15.5783 65.9002 16.017L65.0812 15.765C65.0812 15.0323 65.2119 14.4047 65.4732 13.882C65.7392 13.3547 66.1102 12.951 66.5862 12.671C67.0669 12.3863 67.6315 12.244 68.2802 12.244C68.7702 12.244 69.1879 12.321 69.5332 12.475C69.8785 12.629 70.1655 12.8343 70.3942 13.091C70.6229 13.343 70.8025 13.6277 70.9332 13.945C71.0639 14.2577 71.1549 14.5773 71.2062 14.904C71.2622 15.226 71.2902 15.5317 71.2902 15.821V20H70.0302ZM64.6402 20V9.92H65.7602V15.485H65.9002V20H64.6402ZM76.5861 20.21C75.8441 20.21 75.1954 20.0467 74.6401 19.72C74.0894 19.3887 73.6601 18.929 73.3521 18.341C73.0441 17.7483 72.8901 17.0577 72.8901 16.269C72.8901 15.443 73.0417 14.729 73.3451 14.127C73.6484 13.5203 74.0707 13.0537 74.6121 12.727C75.1581 12.3957 75.7974 12.23 76.5301 12.23C77.2907 12.23 77.9371 12.405 78.4691 12.755C79.0057 13.105 79.4071 13.6043 79.6731 14.253C79.9437 14.9017 80.0604 15.674 80.0231 16.57H78.7631V16.122C78.7491 15.1933 78.5601 14.5003 78.1961 14.043C77.8321 13.581 77.2907 13.35 76.5721 13.35C75.8021 13.35 75.2164 13.5973 74.8151 14.092C74.4137 14.5867 74.2131 15.296 74.2131 16.22C74.2131 17.1113 74.4137 17.802 74.8151 18.292C75.2164 18.782 75.7881 19.027 76.5301 19.027C77.0294 19.027 77.4634 18.9127 77.8321 18.684C78.2007 18.4553 78.4901 18.1263 78.7001 17.697L79.8971 18.11C79.6031 18.7773 79.1597 19.2953 78.5671 19.664C77.9791 20.028 77.3187 20.21 76.5861 20.21ZM73.7931 16.57V15.569H79.3791V16.57H73.7931ZM87.7523 20.21C87.0476 20.21 86.4433 20.035 85.9393 19.685C85.4353 19.3303 85.0456 18.852 84.7703 18.25C84.4996 17.648 84.3643 16.969 84.3643 16.213C84.3643 15.457 84.4996 14.778 84.7703 14.176C85.0456 13.574 85.4353 13.1003 85.9393 12.755C86.4433 12.405 87.0453 12.23 87.7453 12.23C88.4593 12.23 89.059 12.4027 89.5443 12.748C90.0296 13.0933 90.396 13.567 90.6433 14.169C90.8953 14.771 91.0213 15.4523 91.0213 16.213C91.0213 16.9643 90.8953 17.6433 90.6433 18.25C90.396 18.852 90.0296 19.3303 89.5443 19.685C89.059 20.035 88.4616 20.21 87.7523 20.21ZM87.9063 19.069C88.415 19.069 88.8326 18.9477 89.1593 18.705C89.486 18.4577 89.7263 18.1193 89.8803 17.69C90.039 17.256 90.1183 16.7637 90.1183 16.213C90.1183 15.653 90.039 15.1607 89.8803 14.736C89.7263 14.3067 89.4883 13.973 89.1663 13.735C88.8443 13.4923 88.436 13.371 87.9413 13.371C87.428 13.371 87.0033 13.497 86.6673 13.749C86.336 14.001 86.0886 14.3417 85.9253 14.771C85.7666 15.2003 85.6873 15.681 85.6873 16.213C85.6873 16.7497 85.769 17.235 85.9323 17.669C86.0956 18.0983 86.3406 18.439 86.6673 18.691C86.9986 18.943 87.4116 19.069 87.9063 19.069ZM90.1183 20V14.435H89.9783V9.92H91.2313V20H90.1183ZM95.5415 20.21C94.9768 20.21 94.5032 20.1073 94.1205 19.902C93.7425 19.692 93.4555 19.4167 93.2595 19.076C93.0682 18.7353 92.9725 18.362 92.9725 17.956C92.9725 17.5593 93.0472 17.2163 93.1965 16.927C93.3505 16.633 93.5652 16.3903 93.8405 16.199C94.1158 16.003 94.4448 15.849 94.8275 15.737C95.1868 15.639 95.5882 15.555 96.0315 15.485C96.4795 15.4103 96.9322 15.3427 97.3895 15.282C97.8468 15.2213 98.2738 15.163 98.6705 15.107L98.2225 15.366C98.2365 14.694 98.1012 14.197 97.8165 13.875C97.5365 13.553 97.0512 13.392 96.3605 13.392C95.9032 13.392 95.5018 13.497 95.1565 13.707C94.8158 13.9123 94.5755 14.2483 94.4355 14.715L93.2525 14.358C93.4345 13.6953 93.7868 13.175 94.3095 12.797C94.8322 12.419 95.5205 12.23 96.3745 12.23C97.0605 12.23 97.6485 12.3537 98.1385 12.601C98.6332 12.8437 98.9878 13.2123 99.2025 13.707C99.3098 13.9403 99.3775 14.1947 99.4055 14.47C99.4335 14.7407 99.4475 15.0253 99.4475 15.324V20H98.3415V18.187L98.6005 18.355C98.3158 18.9663 97.9168 19.4283 97.4035 19.741C96.8948 20.0537 96.2742 20.21 95.5415 20.21ZM95.7305 19.167C96.1785 19.167 96.5658 19.0877 96.8925 18.929C97.2238 18.7657 97.4898 18.5533 97.6905 18.292C97.8912 18.026 98.0218 17.7367 98.0825 17.424C98.1525 17.1907 98.1898 16.9317 98.1945 16.647C98.2038 16.3577 98.2085 16.136 98.2085 15.982L98.6425 16.171C98.2365 16.227 97.8375 16.2807 97.4455 16.332C97.0535 16.3833 96.6825 16.4393 96.3325 16.5C95.9825 16.556 95.6675 16.6237 95.3875 16.703C95.1822 16.7683 94.9885 16.8523 94.8065 16.955C94.6292 17.0577 94.4845 17.1907 94.3725 17.354C94.2652 17.5127 94.2115 17.711 94.2115 17.949C94.2115 18.1543 94.2628 18.3503 94.3655 18.537C94.4728 18.7237 94.6362 18.8753 94.8555 18.992C95.0795 19.1087 95.3712 19.167 95.7305 19.167ZM102.094 23.36L103.557 19.384L103.578 20.56L100.274 12.44H101.583L104.173 18.971H103.725L106.154 12.44H107.421L103.305 23.36H102.094ZM112.48 20V18.712H113.726V20H112.48ZM112.48 17.48V9.92H113.726V17.48H112.48Z" fill="white"/>
</svg>
