<svg width="44" height="44" viewBox="0 0 44 44" fill="none" xmlns="http://www.w3.org/2000/svg">
<g clip-path="url(#clip0_1274_760)">
<path d="M1 2.11719H6.21875V29.014H1V2.11719Z" stroke="#D43A48" stroke-width="2"/>
<path d="M40.7045 13.6303L40.1532 14.561L41.1242 15.0377C42.2371 15.584 43 16.7263 43 18.0394C43 19.2295 42.3734 20.2792 41.4257 20.8729L40.5488 21.4223L41.1279 22.2799C41.4879 22.813 41.6978 23.4534 41.6978 24.1437C41.6978 25.9851 40.198 27.4849 38.3563 27.4849H27.6125H26.1449L26.6818 28.8507L28.2273 32.7824L28.23 32.7892L28.2328 32.796C28.8675 34.3433 29.1889 35.9734 29.1889 37.6459C29.1889 39.9615 27.3032 41.8472 24.9877 41.8472H23.4982C22.7494 41.8472 22.1097 41.3132 21.9758 40.5765C21.9758 40.5765 21.9758 40.5764 21.9758 40.5764L21.2799 36.7426L21.2312 36.4739L21.0526 36.2672L12.9546 26.899L12.6555 26.553H12.1981H10.7969V4.46604L16.0361 2.48975H35.5341C37.3757 2.48975 38.8753 3.98939 38.8753 5.83093C38.8753 6.39968 38.7325 6.93405 38.4811 7.40265L37.9428 8.40644L39.0078 8.81033C40.272 9.28973 41.1688 10.5122 41.1688 11.9352C41.1688 12.5544 40.9993 13.1327 40.7045 13.6303Z" stroke="#D43A48" stroke-width="2"/>
</g>
<defs>
<clipPath id="clip0_1274_760">
<rect width="44" height="44" fill="white"/>
</clipPath>
</defs>
</svg>
