<svg width="14" height="15" viewBox="0 0 14 15" fill="none" xmlns="http://www.w3.org/2000/svg">
<g clip-path="url(#clip0_1200_3584)">
<path d="M0 0.855469H2.29688V10.0499H0V0.855469Z" fill="#D43A48"/>
<path d="M14 6.23993C14 5.69572 13.6836 5.22426 13.2252 4.99921C13.3471 4.79349 13.4173 4.5537 13.4173 4.29767C13.4173 3.70796 13.0457 3.2036 12.5244 3.00589C12.6284 2.81192 12.6876 2.59039 12.6876 2.35541C12.6876 1.59373 12.068 0.974121 11.3063 0.974121H5.04439L3.11719 1.70108V9.26697H3.88121L6.45782 12.2478L6.67924 13.4677C6.74931 13.8533 7.08459 14.1333 7.4767 14.1333H7.95062C8.86311 14.1333 9.60556 13.3909 9.60556 12.4784C9.60556 11.9048 9.49522 11.3451 9.27754 10.8145L8.78578 9.56348H12.2043C12.966 9.56348 13.5857 8.94386 13.5857 8.18219C13.5857 7.8969 13.4986 7.63147 13.3498 7.41112C13.7399 7.16673 14 6.73318 14 6.23993Z" fill="#D43A48"/>
</g>
<defs>
<clipPath id="clip0_1200_3584">
<rect width="14" height="14" fill="white" transform="translate(0 0.5)"/>
</clipPath>
</defs>
</svg>
