<svg width="333" height="272" viewBox="0 0 333 272" fill="none" xmlns="http://www.w3.org/2000/svg">
<path d="M166.5 272C258.455 272 333 267.669 333 262.327C333 256.985 258.455 252.655 166.5 252.655C74.5446 252.655 0 256.985 0 262.327C0 267.669 74.5446 272 166.5 272Z" fill="#F5F5F5"/>
<path d="M276.036 0H177.205C170.302 0 164.287 5.61835 163.84 12.4848L148.503 247.883C148.056 254.75 153.338 260.367 160.24 260.367H259.071C265.973 260.367 271.988 254.749 272.435 247.883L283.458 78.6954C284.39 78.3708 285.106 77.5106 285.172 76.4966L287.145 46.2265C287.211 45.2125 286.607 44.3523 285.717 44.0268L287.772 12.4848C288.221 5.61921 282.939 0 276.036 0Z" fill="#CC1728"/>
<path d="M155.841 60.9506H157.776C159.001 60.9506 160.069 59.9537 160.148 58.7347L160.971 46.0987C161.05 44.8797 160.113 43.8828 158.888 43.8828H156.953C155.728 43.8828 154.66 44.8797 154.581 46.0987L153.758 58.7347C153.678 59.9537 154.616 60.9506 155.841 60.9506Z" fill="#CC1728"/>
<path d="M154.369 83.5171H156.304C157.529 83.5171 158.597 82.5194 158.676 81.3012L159.499 68.6661C159.578 67.4471 158.642 66.4502 157.416 66.4502H155.481C154.256 66.4502 153.189 67.4479 153.11 68.6661L152.286 81.3012C152.206 82.5194 153.144 83.5171 154.369 83.5171Z" fill="#CC1728"/>
<path d="M253.816 260.368H154.985C148.083 260.368 142.801 254.75 143.248 247.884L158.585 12.4857C159.033 5.61933 165.046 0.000976562 171.95 0.000976562H270.78C277.684 0.000976562 282.965 5.61933 282.518 12.4857L267.18 247.884C266.733 254.75 260.719 260.368 253.816 260.368Z" fill="#263238"/>
<path opacity="0.2" d="M211.143 250.346C214.604 247.012 214.864 241.694 211.724 238.467C208.583 235.24 203.231 235.326 199.769 238.66C196.308 241.993 196.048 247.312 199.189 250.539C202.329 253.766 207.681 253.68 211.143 250.346Z" fill="white"/>
<path d="M262.75 229.806H150.395C148.78 229.806 147.501 228.447 147.605 226.844L160.757 24.9692C160.852 23.5059 162.073 22.3672 163.548 22.3672H275.903C277.518 22.3672 278.797 23.7254 278.694 25.3288L265.541 227.204C265.445 228.667 264.225 229.806 262.75 229.806Z" fill="white"/>
<path opacity="0.2" d="M231.419 150.23C243.985 138.129 244.928 118.821 233.526 107.104C222.124 95.3883 202.694 95.701 190.128 107.803C177.562 119.904 176.618 139.213 188.021 150.929C199.423 162.645 218.853 162.332 231.419 150.23Z" fill="#CC1728"/>
<path opacity="0.2" d="M207.69 176.068C181.608 176.068 161.764 154.96 163.455 129.015C165.145 103.07 187.739 81.9629 213.821 81.9629C239.902 81.9629 259.745 103.07 258.055 129.015C256.365 154.96 233.77 176.068 207.69 176.068ZM213.765 82.8171C188.157 82.8171 165.973 103.541 164.314 129.015C162.654 154.489 182.138 175.214 207.745 175.214C233.353 175.214 255.536 154.49 257.196 129.015C258.856 103.542 239.373 82.8171 213.765 82.8171Z" fill="#CC1728"/>
<path d="M203.433 143.799L200.876 138.861C195.296 128.087 182.436 118.457 177.951 115.656L182.193 109.343C187.504 112.66 198.128 120.871 204.796 130.621C217.111 116.11 234.527 101.141 257.848 85.0068L261.824 90.9686C236.905 108.208 218.998 123.971 207.078 139.158L203.433 143.799Z" fill="#CC1728"/>
<path opacity="0.2" d="M202.215 13.4255C203.617 12.075 203.723 9.92065 202.451 8.61355C201.179 7.30645 199.011 7.3416 197.608 8.69203C196.206 10.0425 196.101 12.1968 197.373 13.5039C198.645 14.811 200.813 14.7759 202.215 13.4255Z" fill="white"/>
<path opacity="0.2" d="M211.94 7.6626H240.358C242.24 7.6626 243.679 9.19425 243.557 11.065C243.435 12.9367 241.796 14.4675 239.914 14.4675H211.496C209.615 14.4675 208.175 12.9358 208.297 11.065C208.419 9.1934 210.059 7.6626 211.94 7.6626Z" fill="white"/>
<path d="M106.165 70.8117C104.714 72.2844 103.159 73.9134 101.731 75.5408C100.279 77.1732 98.8576 78.8313 97.5111 80.5381C96.1603 82.244 94.8885 83.9918 93.6657 85.7592L92.7751 87.0987L91.9404 88.4603C91.6536 88.9122 91.3951 89.3727 91.147 89.8365L90.4591 91.094C90.229 91.5501 90.0615 92.424 89.9868 93.3389C89.9104 94.2666 89.9258 95.2823 89.9894 96.3134C90.1225 98.3824 90.4265 100.532 90.8146 102.678C91.1873 104.831 91.6536 106.993 92.1775 109.147C92.6721 111.304 93.2449 113.478 93.8125 115.599L90.6309 116.784C88.6893 112.581 87.1118 108.306 85.8056 103.831C85.177 101.588 84.624 99.3024 84.2908 96.8883C84.1294 95.6778 84.0126 94.4383 84.022 93.1143C84.0426 91.7868 84.144 90.3841 84.7683 88.7457C84.9623 88.2698 85.0714 88.0759 85.2054 87.7915L85.5978 86.9808C85.8554 86.4366 86.1225 85.8993 86.4136 85.3816L87.2689 83.8124L88.1749 82.2833C89.4037 80.263 90.7107 78.3008 92.1354 76.4454C93.5471 74.578 95.001 72.7525 96.539 70.9996C98.1053 69.2467 99.6356 67.5724 101.417 65.8887L106.165 70.8117Z" fill="#FFBE9D"/>
<path d="M106.535 60.5139C101.881 60.724 97.4639 68.4062 97.4639 68.4062L103.608 80.8919C103.608 80.8919 111.937 73.987 112.044 67.2043C112.114 62.7939 111.111 60.3072 106.535 60.5139Z" fill="#CC1728"/>
<path opacity="0.7" d="M106.535 60.5139C101.881 60.724 97.4639 68.4062 97.4639 68.4062L103.608 80.8919C103.608 80.8919 111.937 73.987 112.044 67.2043C112.114 62.7939 111.111 60.3072 106.535 60.5139Z" fill="white"/>
<path opacity="0.2" d="M107.644 69.4924C106.287 71.5341 105.635 76.8304 105.429 79.1881C106.974 77.6505 109.138 75.1988 110.555 72.431C109.662 70.1502 108.537 68.1513 107.644 69.4924Z" fill="black"/>
<path d="M92.9308 114.262L98.5908 115.934L94.8244 119.728C94.8244 119.728 90.7471 118.477 90.1777 115.72L92.9308 114.262Z" fill="#FFBE9D"/>
<path d="M102.015 120.269L101.062 123.895L94.8232 119.728L98.5888 115.934L102.015 120.269Z" fill="#FFBE9D"/>
<path d="M139.254 45.697C139.077 46.2028 139.204 46.7144 139.536 46.84C139.869 46.9656 140.282 46.6564 140.458 46.1506C140.635 45.6449 140.508 45.1332 140.176 45.0077C139.843 44.8829 139.43 45.1913 139.254 45.697Z" fill="#263238"/>
<path d="M140.019 44.98L141.363 45.0903C141.363 45.0903 140.405 45.8045 140.019 44.98Z" fill="#263238"/>
<path d="M139.51 46.3511C139.51 46.3511 139.613 48.854 140.197 50.2626C139.307 50.6334 138.265 49.9184 138.265 49.9184L139.51 46.3511Z" fill="#F3C5C9"/>
<path d="M140.917 43.7315C140.798 43.711 140.696 43.6222 140.663 43.4983C140.311 42.1247 139.235 41.7053 139.19 41.6874C139.026 41.6258 138.942 41.4439 139.003 41.2816C139.064 41.1184 139.246 41.0347 139.41 41.0945C139.469 41.1159 140.843 41.6352 141.279 43.342C141.323 43.5112 141.22 43.6837 141.05 43.7264C141.006 43.7384 140.96 43.7392 140.917 43.7315Z" fill="#263238"/>
<path d="M121.613 47.8481C121.738 51.8836 121.324 59.1532 118.145 61.217C118.145 61.217 118.564 65.367 125.866 66.7739C133.896 68.3209 130.358 63.5705 130.358 63.5705C126.148 61.6912 126.795 58.4971 128.06 55.6243L121.613 47.8481Z" fill="#FFBE9D"/>
<path d="M145.478 75.4927C146.206 77.4557 147.026 79.5725 147.899 81.58C148.766 83.6097 149.667 85.6231 150.643 87.5922C151.618 89.5638 152.664 91.4824 153.743 93.3694C154.296 94.3031 154.858 95.2308 155.459 96.1201C155.748 96.5771 156.051 97.0196 156.368 97.4459L156.836 98.096L157.069 98.4214L157.186 98.5837L157.264 98.6743C157.639 99.1586 158.373 99.7617 159.167 100.317C159.973 100.877 160.873 101.41 161.812 101.913C163.699 102.914 165.711 103.834 167.764 104.692C169.815 105.565 171.912 106.378 174.033 107.143C176.14 107.936 178.299 108.675 180.415 109.403L179.62 112.688C175 111.935 170.511 110.863 166.005 109.504C163.761 108.801 161.523 108.025 159.293 107.036C158.179 106.536 157.063 105.985 155.942 105.32C154.818 104.644 153.692 103.88 152.564 102.643L152.358 102.414L152.216 102.236L151.931 101.882L151.363 101.172C150.976 100.701 150.611 100.22 150.264 99.731C149.539 98.7657 148.868 97.7756 148.208 96.7804C146.904 94.7841 145.685 92.7433 144.609 90.6461C143.519 88.5549 142.482 86.4441 141.545 84.2905C140.621 82.1131 139.749 79.9988 138.976 77.6625L145.478 75.4927Z" fill="#FFBE9D"/>
<path d="M179.278 109.354L184.346 107.4L184.096 113.221C184.096 113.221 179.995 114.309 178.09 112.247L179.278 109.354Z" fill="#FFBE9D"/>
<path d="M188.163 109.401L189.903 113.119L184.095 113.221L184.345 107.4L188.163 109.401Z" fill="#FFBE9D"/>
<path d="M104.143 255.198L110.848 255.69L112.839 240.374L106.134 239.882L104.143 255.198Z" fill="#FFBE9D"/>
<path d="M51.0186 220.55L55.3973 225.723L68.402 217.411L64.0233 212.237L51.0186 220.55Z" fill="#FFBE9D"/>
<path d="M57.4624 225.056L53.9321 218.306C53.8033 218.06 53.5328 217.947 53.2812 218.033L47.6676 219.963C47.0854 220.163 46.8226 220.904 47.1292 221.466C48.3993 223.799 49.1275 224.864 50.6801 227.832C51.635 229.659 52.8458 232.422 54.1648 234.944C55.4546 237.41 57.9879 236.34 57.659 235.175C56.1846 229.955 57.1584 228.505 57.6281 226.246C57.7123 225.839 57.6504 225.416 57.4624 225.056Z" fill="#263238"/>
<path d="M111.267 254.741H103.73C103.456 254.741 103.229 254.931 103.183 255.197L102.172 261.129C102.067 261.744 102.584 262.327 103.217 262.316C105.845 262.271 107.116 262.118 110.43 262.118C112.469 262.118 116.681 262.329 119.498 262.329C122.252 262.329 122.535 259.559 121.369 259.308C116.141 258.183 114.112 256.633 112.379 255.152C112.065 254.885 111.668 254.741 111.267 254.741Z" fill="#263238"/>
<path opacity="0.2" d="M112.838 240.377L111.733 248.889L105.049 248.223L106.131 239.885L112.838 240.377Z" fill="black"/>
<path opacity="0.2" d="M64.019 212.239L68.4003 217.414L63.0186 220.851L58.4707 215.783L64.019 212.239Z" fill="black"/>
<path d="M104.646 101.145C109.845 102.144 120.874 104.271 131.541 106.33C144.251 69.1105 141.209 67.906 141.209 67.906C141.209 67.906 138.511 66.4111 135.105 65.087C134.974 65.0358 134.853 64.9931 134.74 64.9504C133.021 64.3268 132.658 64.2328 130.354 63.5665C126.393 62.6354 122.703 61.8751 118.141 61.2173C117.849 61.1746 117.555 61.1319 117.271 61.0977C116.443 60.9952 115.625 60.9098 114.833 60.8329C114.299 60.7731 113.765 60.7389 113.258 60.7048C112.656 60.6706 112.07 60.6364 111.521 60.6108C108.579 60.4656 106.477 60.5083 106.477 60.5083C108.018 83.7352 106.894 90.4068 104.646 101.145Z" fill="#CC1728"/>
<path opacity="0.7" d="M104.646 101.145C109.845 102.144 120.874 104.271 131.541 106.33C144.251 69.1105 141.209 67.906 141.209 67.906C141.209 67.906 138.511 66.4111 135.105 65.087C134.974 65.0358 134.853 64.9931 134.74 64.9504C133.021 64.3268 132.658 64.2328 130.354 63.5665C126.393 62.6354 122.703 61.8751 118.141 61.2173C117.849 61.1746 117.555 61.1319 117.271 61.0977C116.443 60.9952 115.625 60.9098 114.833 60.8329C114.299 60.7731 113.765 60.7389 113.258 60.7048C112.656 60.6706 112.07 60.6364 111.521 60.6108C108.579 60.4656 106.477 60.5083 106.477 60.5083C108.018 83.7352 106.894 90.4068 104.646 101.145Z" fill="white"/>
<path opacity="0.2" d="M137.372 76.5741L134.942 76.1812C134.916 79.3675 136.161 84.8346 137.346 88.3114C138.351 84.9115 139.132 82.084 139.725 79.7169L137.372 76.5741Z" fill="black"/>
<path d="M140.305 67.4286C144.278 68.6963 147.171 76.522 148.257 79.898L140.557 88.9222C140.557 88.9222 132.611 77.606 133.833 74.0968C135.105 70.4423 138.376 66.8127 140.305 67.4286Z" fill="#CC1728"/>
<path opacity="0.7" d="M140.305 67.4286C144.278 68.6963 147.171 76.522 148.257 79.898L140.557 88.9222C140.557 88.9222 132.611 77.606 133.833 74.0968C135.105 70.4423 138.376 66.8127 140.305 67.4286Z" fill="white"/>
<path d="M142.875 38.542C142.08 40.8749 138.604 41.8112 135.11 40.6323C131.617 39.4543 129.431 36.608 130.226 34.2742C131.021 31.9413 134.497 31.005 137.99 32.1839C141.483 33.3627 143.67 36.2091 142.875 38.542Z" fill="#263238"/>
<path d="M122.712 37.8996C120.928 44.2569 120.036 46.9059 122.079 51.2831C125.153 57.8676 133.384 58.8978 137.039 53.2581C140.33 48.1813 142.695 38.6377 137.44 33.8625C132.264 29.1573 124.496 31.5424 122.712 37.8996Z" fill="#FFBE9D"/>
<path d="M132.685 30.4814C130.078 31.9507 124.641 22.7463 117.848 30.4814C112.985 36.0195 116.082 44.1562 116.082 44.1562C116.082 44.1562 112.216 37.382 109.117 40.6845C105.086 44.9805 109.261 60.2373 122.571 59.1934C135.881 58.1495 134.605 47.3946 134.605 47.3946C134.605 47.3946 140.839 41.0869 140.526 35.4643C140.288 31.1845 136.979 28.0614 132.685 30.4814Z" fill="#263238"/>
<path d="M134.303 43.3595C133.93 44.5008 134.046 45.8735 134.415 46.9584C134.969 48.59 136.23 48.6003 136.899 47.4718C137.502 46.457 137.939 44.3837 136.986 43.0716C136.047 41.7783 134.73 42.0551 134.303 43.3595Z" fill="#FFBE9D"/>
<path d="M124.442 104.96C124.442 104.96 121.573 114.852 117.889 127.905C115.442 136.601 112.625 146.698 110.058 156.206C108.589 161.647 107.207 166.892 106.013 171.574C99.2634 198.098 65.6008 220.898 65.6008 220.898L59.083 213.765C59.083 213.765 81.7022 194.818 88.2458 170.07C101.53 119.832 94.0594 111.358 104.648 101.15L124.442 104.96Z" fill="#263238"/>
<path opacity="0.2" d="M121.522 113.811C120.525 117.646 119.272 122.49 117.889 127.906C115.442 136.602 112.625 146.699 110.057 156.207C108.958 144.077 108.306 121.772 117.314 114.836C119.083 113.469 120.482 113.204 121.522 113.811Z" fill="black"/>
<path d="M66.1434 221.918L58 213.003L60.4611 210.547L70.4474 219.91L66.1434 221.918Z" fill="#CC1728"/>
<path opacity="0.7" d="M66.1434 221.918L58 213.003L60.4611 210.547L70.4474 219.91L66.1434 221.918Z" fill="white"/>
<path d="M58.6696 228.683C58.5897 228.679 58.509 228.663 58.43 228.634C57.6262 228.345 57.1213 226.828 56.892 225.95C56.8757 225.889 56.898 225.824 56.9487 225.784C57.0002 225.746 57.0689 225.741 57.1238 225.773C57.3651 225.912 59.4785 227.147 59.5223 228.004C59.5318 228.194 59.4476 228.359 59.2784 228.48C59.0758 228.626 58.8714 228.693 58.6696 228.683ZM57.305 226.251C57.652 227.412 58.1037 228.181 58.5373 228.337C58.7151 228.402 58.8971 228.364 59.0921 228.224C59.1977 228.149 59.208 228.076 59.2046 228.02C59.1822 227.567 58.1372 226.77 57.305 226.251Z" fill="#CC1728"/>
<path d="M131.137 106.329C131.137 106.329 132.811 159.139 129.06 179.03C125.159 199.72 113.278 246.785 113.278 246.785L103.606 245.543C103.606 245.543 109.722 197.999 112.318 177.441C115.149 155.029 111.441 102.534 111.441 102.534L131.137 106.329Z" fill="#263238"/>
<path d="M115.335 247.335L101.551 245.565L101.722 242.307L116.717 242.957L115.335 247.335Z" fill="#CC1728"/>
<path opacity="0.7" d="M115.335 247.335L101.551 245.565L101.722 242.307L116.717 242.957L115.335 247.335Z" fill="white"/>
<path d="M58.9959 226.613C58.2471 226.576 57.3506 226.302 56.9573 226.042C56.9109 226.011 56.8843 225.957 56.8869 225.902C56.8903 225.846 56.9221 225.796 56.9719 225.77C57.0423 225.734 58.7186 224.874 59.6297 225.221C59.8779 225.315 60.0505 225.487 60.1432 225.73C60.2884 226.11 60.1157 226.32 59.9998 226.413C59.786 226.582 59.4142 226.635 58.9959 226.613ZM57.3927 225.921C58.1321 226.261 59.4399 226.452 59.8014 226.166C59.8616 226.118 59.9208 226.038 59.8461 225.843C59.786 225.685 59.6778 225.579 59.5163 225.517C58.9753 225.312 57.9663 225.664 57.3927 225.921Z" fill="#CC1728"/>
<path d="M113.76 255.908C113.02 255.908 112.221 255.781 111.653 255.669C111.587 255.656 111.536 255.602 111.527 255.535C111.518 255.469 111.551 255.404 111.612 255.373C111.919 255.216 114.636 253.854 115.442 254.309C115.598 254.397 115.687 254.543 115.699 254.731C115.719 255.046 115.616 255.304 115.392 255.499C115.04 255.805 114.424 255.908 113.76 255.908ZM112.185 255.444C113.661 255.688 114.765 255.624 115.183 255.261C115.33 255.133 115.395 254.966 115.381 254.751C115.376 254.669 115.347 254.62 115.285 254.585C114.847 254.338 113.299 254.918 112.185 255.444Z" fill="#CC1728"/>
<path d="M111.684 255.672C111.652 255.672 111.618 255.662 111.591 255.642C111.545 255.609 111.52 255.554 111.526 255.498C111.54 255.375 111.857 252.488 113.48 252.658C113.914 252.702 114.039 252.92 114.067 253.096C114.189 253.849 112.567 255.296 111.75 255.659C111.728 255.667 111.706 255.672 111.684 255.672ZM113.355 252.967C112.388 252.967 112.006 254.551 111.888 255.229C112.723 254.733 113.827 253.597 113.754 253.145C113.748 253.11 113.731 253 113.448 252.971C113.416 252.969 113.385 252.967 113.355 252.967Z" fill="#CC1728"/>
<path d="M104.504 99.5071L102.896 101.655C102.772 101.821 102.961 102.052 103.272 102.113L131.48 107.547C131.722 107.594 131.943 107.515 131.983 107.367L132.621 105.032C132.665 104.871 132.479 104.691 132.213 104.639L104.976 99.3918C104.776 99.3534 104.585 99.3995 104.504 99.5071Z" fill="#CC1728"/>
<path d="M107.662 103.224L106.932 103.083C106.787 103.055 106.688 102.96 106.713 102.871L107.569 99.8432C107.594 99.7544 107.733 99.7048 107.879 99.733L108.609 99.874C108.754 99.9021 108.853 99.9978 108.828 100.086L107.972 103.114C107.946 103.203 107.807 103.252 107.662 103.224Z" fill="#263238"/>
<path d="M126.084 106.818L125.355 106.677C125.21 106.648 125.111 106.554 125.136 106.465L125.992 103.436C126.017 103.348 126.156 103.298 126.302 103.326L127.031 103.467C127.176 103.495 127.275 103.59 127.25 103.679L126.394 106.707C126.368 106.796 126.229 106.846 126.084 106.818Z" fill="#263238"/>
</svg>
