<svg width="22" height="23" viewBox="0 0 22 23" fill="none" xmlns="http://www.w3.org/2000/svg">
<path d="M16 2.49981C16.2626 2.23717 16.5744 2.02883 16.9176 1.88669C17.2608 1.74455 17.6286 1.67139 18 1.67139C18.3714 1.67139 18.7392 1.74455 19.0824 1.88669C19.4256 2.02883 19.7374 2.23717 20 2.49981C20.2626 2.76246 20.471 3.07426 20.6131 3.41742C20.7553 3.76058 20.8284 4.12838 20.8284 4.49981C20.8284 4.87125 20.7553 5.23905 20.6131 5.58221C20.471 5.92537 20.2626 6.23717 20 6.49981L6.5 19.9998L1 21.4998L2.5 15.9998L16 2.49981Z" stroke="black" stroke-width="2" stroke-linecap="round" stroke-linejoin="round"/>
</svg>
