<svg width="181" height="206" viewBox="0 0 181 206" fill="none" xmlns="http://www.w3.org/2000/svg">
    <path d="M10.0064 0H88.2004C93.6616 0 98.4203 4.44516 98.7743 9.87776L110.909 196.121C111.263 201.554 107.084 205.999 101.622 205.999H23.4291C17.9679 205.999 13.2092 201.554 12.8553 196.121L4.1342 62.2627C3.39703 62.0059 2.83038 61.3253 2.77807 60.523L1.21744 36.5738C1.16512 35.7715 1.64277 35.0909 2.34665 34.8334L0.720795 9.87776C0.366135 4.44584 4.54525 0 10.0064 0Z" fill="#CC1728"/>
    <path d="M105.104 48.2235H103.573C102.604 48.2235 101.759 47.4348 101.697 46.4703L101.045 36.4729C100.982 35.5085 101.724 34.7197 102.693 34.7197H104.224C105.194 34.7197 106.038 35.5085 106.101 36.4729L106.752 46.4703C106.815 47.4348 106.073 48.2235 105.104 48.2235Z" fill="#CC1728"/>
    <path d="M106.266 66.0773H104.735C103.766 66.0773 102.921 65.2879 102.859 64.3241L102.207 54.3274C102.145 53.3629 102.886 52.5742 103.855 52.5742H105.386C106.356 52.5742 107.2 53.3636 107.263 54.3274L107.914 64.3241C107.977 65.2879 107.235 66.0773 106.266 66.0773Z" fill="#CC1728"/>
    <path d="M27.5854 206H105.779C111.24 206 115.419 201.555 115.065 196.122L102.931 9.87874C102.577 4.44614 97.8186 0.000976562 92.3567 0.000976562H14.1634C8.70151 0.000976562 4.52306 4.44614 4.87704 9.87874L17.0115 196.122C17.3655 201.555 22.1235 206 27.5854 206Z" fill="#263238"/>
    <path opacity="0.2" d="M61.3455 198.07C58.6069 195.433 58.4011 191.225 60.886 188.671C63.3708 186.118 67.6053 186.187 70.344 188.824C73.0826 191.462 73.2884 195.669 70.8035 198.223C68.3187 200.776 64.0842 200.708 61.3455 198.07Z" fill="white"/>
    <path d="M20.5148 181.819H109.408C110.686 181.819 111.699 180.744 111.616 179.475L101.21 19.755C101.135 18.5972 100.169 17.6963 99.0023 17.6963H10.1088C8.83076 17.6963 7.81843 18.7709 7.90063 20.0395L18.3067 179.76C18.3828 180.918 19.3482 181.819 20.5148 181.819Z" fill="white"/>
    <path opacity="0.2" d="M68.4109 10.621C67.3015 9.55253 67.218 7.84802 68.2245 6.81386C69.231 5.77971 70.9462 5.80751 72.0557 6.87596C73.1651 7.94441 73.2486 9.64889 72.2421 10.6831C71.2356 11.7172 69.5204 11.6894 68.4109 10.621Z" fill="white"/>
    <path opacity="0.2" d="M60.7157 6.06152H38.2316C36.743 6.06152 35.6043 7.27335 35.7008 8.75349C35.7972 10.2343 37.0942 11.4455 38.5829 11.4455H61.067C62.5556 11.4455 63.6943 10.2336 63.5978 8.75349C63.5013 7.27267 62.2043 6.06152 60.7157 6.06152Z" fill="white"/>
    <path d="M124.725 36.4054C123.251 36.7449 122.532 38.4416 122.393 39.9486C122.253 41.4552 122.445 43.0465 121.812 44.4212C121.1 45.9684 119.399 47.1088 119.342 48.8115C119.308 49.8491 119.924 50.825 119.894 51.8632C119.846 53.5679 118.108 54.8562 118.016 56.5594C117.951 57.7856 118.767 58.9627 118.571 60.1748C118.418 61.1182 117.684 61.8615 117.373 62.7652C116.754 64.5671 117.992 66.5506 119.605 67.5647C121.401 68.6951 123.702 68.9865 125.724 68.3406C127.746 67.6946 129.452 66.1223 130.26 64.1599C131.153 61.9939 130.957 59.555 130.764 57.2209C130.159 49.9459 129.71 42.6583 129.417 35.3643" fill="#263238"/>
    <path d="M120.447 62.0762C120.415 62.0476 120.85 61.9182 121.121 61.2748C121.252 60.9603 121.319 60.537 121.293 60.0506C121.275 59.5611 121.108 59.028 120.927 58.4267C120.759 57.8309 120.54 57.1393 120.665 56.3704C120.791 55.5896 121.35 54.9481 121.86 54.3182C122.117 53.9988 122.375 53.6668 122.537 53.2891C122.709 52.9155 122.745 52.4877 122.616 52.0865C122.357 51.267 121.554 50.6642 121.185 49.7183C121.003 49.2444 121.001 48.7238 121.104 48.2549C121.204 47.7814 121.395 47.3516 121.588 46.9424C121.981 46.1259 122.413 45.3772 122.585 44.5823C122.937 42.9914 122.773 41.4728 123.012 40.2256C123.229 38.9758 123.757 38.0364 124.281 37.5535C124.535 37.3037 124.782 37.1708 124.943 37.0811C125.115 37.0073 125.205 36.9732 125.208 36.9818C125.225 37.0098 124.837 37.1292 124.352 37.6252C123.869 38.1142 123.384 39.033 123.194 40.2562C123.094 40.8645 123.08 41.5486 123.055 42.2828C123.029 43.0165 123.006 43.8134 122.819 44.6369C122.645 45.4714 122.201 46.2498 121.82 47.0517C121.442 47.8396 121.096 48.7634 121.429 49.627C121.748 50.4806 122.556 51.0869 122.859 52.0092C123.008 52.4681 122.959 52.9767 122.765 53.3879C122.581 53.8062 122.308 54.1482 122.046 54.4692C121.522 55.1031 120.998 55.7059 120.878 56.408C120.752 57.1062 120.946 57.7797 121.104 58.376C121.272 58.9723 121.434 59.534 121.438 60.0441C121.451 60.5496 121.366 60.9899 121.214 61.3154C121.062 61.6429 120.855 61.8455 120.7 61.9483C120.546 62.0541 120.447 62.0762 120.447 62.0762Z" fill="#455A64"/>
    <path d="M116.491 73.9648L111.964 87.0153L93.0855 88.0274L89.9375 95.0326L109.647 97.0266C113.578 98.6516 118.068 96.66 119.502 92.6564L124.762 77.9745L116.491 73.9648Z" fill="#FFBE9D"/>
    <path d="M155.542 197.006C155.542 197.006 141.707 153.064 141.413 151.637C141.148 150.348 146.434 118.726 147.1 110.542L128.407 111.239C128.407 111.239 128.406 111.289 128.405 111.376L120.459 111.816L127.576 201.685H136.179L135.325 171.869C140.63 186.111 148.232 200.624 148.232 200.624L155.542 197.006Z" fill="#FFBE9D"/>
    <path d="M135.672 182.554C135.68 182.281 135.568 172.564 135.568 172.564C135.461 173.146 132.27 164.127 132.347 163.579C132.387 163.295 135.672 182.554 135.672 182.554Z" fill="#FFBE9D"/>
    <path d="M131.987 159.308C131.968 159.307 131.949 159.501 131.932 159.852C131.913 160.203 131.909 160.713 131.944 161.342C131.956 161.657 131.989 162.001 132.029 162.37C132.077 162.737 132.127 163.132 132.212 163.54C132.368 164.36 132.609 165.248 132.915 166.158C133.54 167.976 134.229 169.566 134.718 170.72C134.951 171.246 135.15 171.699 135.317 172.079C135.464 172.397 135.554 172.57 135.573 172.563C135.591 172.555 135.536 172.369 135.421 172.037C135.305 171.706 135.13 171.23 134.906 170.644C134.465 169.471 133.805 167.869 133.186 166.068C132.883 165.166 132.638 164.294 132.471 163.489C132.38 163.088 132.322 162.701 132.265 162.339C132.215 161.977 132.171 161.639 132.146 161.328C132.087 160.707 132.06 160.202 132.044 159.852C132.026 159.502 132.007 159.308 131.987 159.308Z" fill="#FFBE9D"/>
    <path d="M127.417 202.125L127.413 201.317L136.225 200.933L136.249 204.265L135.705 204.302C133.286 204.443 123.397 204.851 121.779 204.366C119.973 203.825 127.417 202.125 127.417 202.125Z" fill="#455A64"/>
    <path d="M136.372 204.067C136.372 204.07 136.32 204.076 136.222 204.084C136.092 204.092 135.949 204.101 135.789 204.111C135.356 204.131 134.824 204.156 134.196 204.185C132.85 204.239 130.99 204.288 128.935 204.297C126.879 204.305 125.019 204.273 123.673 204.232C123.045 204.208 122.513 204.187 122.079 204.171C121.919 204.162 121.776 204.154 121.647 204.147C121.548 204.14 121.496 204.135 121.496 204.131C121.496 204.128 121.548 204.126 121.648 204.125C121.778 204.126 121.92 204.128 122.081 204.129C122.515 204.136 123.047 204.145 123.675 204.156C125.021 204.178 126.881 204.199 128.935 204.19C130.989 204.181 132.848 204.144 134.194 204.11C134.822 204.094 135.355 204.08 135.787 204.069C135.948 204.066 136.091 204.064 136.221 204.062C136.32 204.062 136.372 204.063 136.372 204.067Z" fill="#263238"/>
    <path d="M124.563 204.348C124.531 204.352 124.504 203.972 124.263 203.589C124.028 203.201 123.699 203.008 123.718 202.981C123.724 202.955 124.1 203.119 124.353 203.533C124.611 203.945 124.59 204.355 124.563 204.348Z" fill="#263238"/>
    <path d="M127.145 203.026C127.121 203.042 126.997 202.892 126.868 202.691C126.739 202.49 126.655 202.314 126.68 202.298C126.705 202.282 126.829 202.432 126.958 202.634C127.086 202.835 127.17 203.011 127.145 203.026Z" fill="#263238"/>
    <path d="M127.858 202.647C127.838 202.669 127.7 202.577 127.548 202.442C127.397 202.307 127.29 202.18 127.309 202.158C127.328 202.136 127.467 202.227 127.619 202.363C127.771 202.498 127.878 202.625 127.858 202.647Z" fill="#263238"/>
    <path d="M128.295 201.82C128.296 201.85 128.091 201.876 127.838 201.88C127.585 201.884 127.379 201.863 127.379 201.834C127.378 201.804 127.583 201.778 127.836 201.774C128.09 201.77 128.295 201.791 128.295 201.82Z" fill="#263238"/>
    <path d="M128.449 201.234C128.459 201.26 128.237 201.362 127.939 201.385C127.642 201.409 127.406 201.344 127.412 201.316C127.417 201.286 127.649 201.302 127.931 201.279C128.213 201.257 128.44 201.205 128.449 201.234Z" fill="#263238"/>
    <path d="M126.845 202.261C126.846 202.273 126.63 202.3 126.282 202.259C126.108 202.239 125.902 202.199 125.681 202.13C125.571 202.091 125.457 202.062 125.338 201.989C125.282 201.952 125.22 201.9 125.198 201.815C125.174 201.73 125.219 201.635 125.283 201.589C125.82 201.308 126.36 201.609 126.561 201.886C126.672 202.028 126.723 202.166 126.746 202.261C126.77 202.358 126.768 202.413 126.762 202.413C126.741 202.421 126.722 202.192 126.503 201.934C126.395 201.808 126.231 201.685 126.021 201.623C125.822 201.565 125.538 201.55 125.349 201.671C125.26 201.738 125.295 201.843 125.395 201.902C125.488 201.962 125.608 201.997 125.712 202.036C125.926 202.109 126.124 202.155 126.293 202.185C126.63 202.244 126.845 202.244 126.845 202.261Z" fill="#263238"/>
    <path d="M126.696 202.29C126.688 202.296 126.604 202.153 126.63 201.9C126.643 201.775 126.688 201.627 126.782 201.488C126.881 201.362 127.008 201.189 127.25 201.199C127.381 201.215 127.445 201.363 127.425 201.458C127.415 201.557 127.371 201.641 127.33 201.71C127.247 201.851 127.152 201.965 127.065 202.052C126.889 202.225 126.75 202.292 126.744 202.281C126.734 202.268 126.856 202.18 127.01 202.001C127.087 201.912 127.17 201.798 127.245 201.662C127.321 201.543 127.374 201.329 127.232 201.303C127.091 201.29 126.948 201.431 126.862 201.544C126.774 201.667 126.725 201.798 126.704 201.911C126.662 202.14 126.715 202.286 126.696 202.29Z" fill="#263238"/>
    <path d="M136.188 201.667C136.186 201.687 135.937 201.644 135.541 201.692C135.149 201.737 134.603 201.9 134.13 202.28C133.657 202.661 133.38 203.158 133.251 203.531C133.119 203.907 133.107 204.16 133.087 204.158C133.08 204.157 133.076 204.094 133.086 203.981C133.094 203.867 133.121 203.703 133.179 203.508C133.293 203.118 133.57 202.594 134.063 202.197C134.556 201.801 135.128 201.644 135.533 201.618C135.737 201.603 135.903 201.612 136.015 201.628C136.128 201.643 136.189 201.661 136.188 201.667Z" fill="#263238"/>
    <path d="M131.963 203.367C131.966 203.395 131.394 203.486 130.682 203.489C129.97 203.494 129.397 203.409 129.4 203.381C129.403 203.351 129.976 203.388 130.682 203.383C131.387 203.38 131.959 203.337 131.963 203.367Z" fill="#263238"/>
    <path d="M133.683 203.347C133.704 203.369 133.636 203.468 133.579 203.6C133.519 203.731 133.489 203.849 133.459 203.847C133.43 203.847 133.413 203.708 133.481 203.557C133.549 203.405 133.664 203.326 133.683 203.347Z" fill="#263238"/>
    <path d="M134.33 202.538C134.351 202.559 134.295 202.65 134.205 202.743C134.114 202.835 134.024 202.894 134.002 202.873C133.981 202.852 134.038 202.761 134.129 202.669C134.219 202.576 134.309 202.518 134.33 202.538Z" fill="#263238"/>
    <path d="M135.252 202.166C135.246 202.195 135.129 202.195 135.001 202.241C134.871 202.283 134.779 202.356 134.756 202.336C134.733 202.32 134.806 202.195 134.966 202.141C135.126 202.085 135.26 202.139 135.252 202.166Z" fill="#263238"/>
    <path d="M135.912 201.991C135.922 202.019 135.872 202.064 135.799 202.092C135.726 202.121 135.658 202.122 135.648 202.094C135.637 202.067 135.688 202.022 135.76 201.993C135.833 201.965 135.901 201.964 135.912 201.991Z" fill="#263238"/>
    <path d="M148.052 201.346L147.718 200.61L155.599 196.65L156.986 199.681L156.505 199.936C154.357 201.056 145.502 205.479 143.827 205.7C141.958 205.946 148.052 201.346 148.052 201.346Z" fill="#455A64"/>
    <path d="M157.015 199.446C157.017 199.449 156.972 199.475 156.885 199.523C156.77 199.584 156.644 199.65 156.501 199.726C156.115 199.921 155.639 200.162 155.078 200.446C153.873 201.046 152.196 201.852 150.325 202.703C148.453 203.553 146.743 204.285 145.498 204.798C144.915 205.034 144.421 205.234 144.019 205.396C143.869 205.454 143.736 205.505 143.615 205.552C143.522 205.586 143.472 205.603 143.471 205.599C143.469 205.596 143.516 205.573 143.607 205.532C143.726 205.48 143.856 205.423 144.004 205.358C144.402 205.187 144.892 204.977 145.469 204.73C146.706 204.199 148.411 203.456 150.281 202.606C152.151 201.757 153.832 200.961 155.046 200.379C155.612 200.107 156.092 199.877 156.483 199.689C156.629 199.62 156.757 199.56 156.875 199.504C156.965 199.463 157.013 199.442 157.015 199.446Z" fill="#263238"/>
    <path d="M146.363 204.544C146.336 204.561 146.156 204.225 145.778 203.974C145.405 203.717 145.026 203.675 145.031 203.643C145.026 203.616 145.437 203.611 145.838 203.886C146.241 204.156 146.39 204.539 146.363 204.544Z" fill="#263238"/>
    <path d="M148.172 202.28C148.156 202.304 147.981 202.218 147.781 202.088C147.581 201.957 147.432 201.831 147.448 201.807C147.464 201.782 147.64 201.869 147.839 201.999C148.039 202.129 148.188 202.255 148.172 202.28Z" fill="#263238"/>
    <path d="M148.664 201.645C148.655 201.673 148.491 201.646 148.298 201.585C148.104 201.524 147.954 201.451 147.963 201.423C147.972 201.395 148.136 201.422 148.33 201.483C148.523 201.545 148.673 201.617 148.664 201.645Z" fill="#263238"/>
    <path d="M148.731 200.706C148.743 200.733 148.567 200.841 148.338 200.948C148.109 201.055 147.913 201.12 147.901 201.094C147.888 201.067 148.064 200.959 148.294 200.852C148.522 200.745 148.718 200.68 148.731 200.706Z" fill="#263238"/>
    <path d="M148.638 200.112C148.657 200.131 148.496 200.315 148.234 200.458C147.973 200.602 147.731 200.639 147.725 200.611C147.717 200.582 147.935 200.501 148.183 200.365C148.432 200.23 148.617 200.089 148.638 200.112Z" fill="#263238"/>
    <path d="M147.584 201.707C147.59 201.717 147.404 201.831 147.07 201.936C146.903 201.989 146.699 202.036 146.469 202.063C146.353 202.073 146.236 202.094 146.098 202.076C146.032 202.065 145.954 202.043 145.899 201.974C145.843 201.907 145.845 201.802 145.884 201.734C146.259 201.258 146.875 201.311 147.172 201.482C147.331 201.566 147.434 201.671 147.495 201.748C147.555 201.827 147.576 201.878 147.571 201.881C147.556 201.896 147.445 201.695 147.139 201.549C146.988 201.478 146.789 201.433 146.571 201.463C146.366 201.492 146.101 201.594 145.979 201.782C145.924 201.879 146 201.96 146.115 201.973C146.224 201.99 146.348 201.973 146.459 201.966C146.683 201.945 146.883 201.906 147.049 201.864C147.381 201.779 147.577 201.691 147.584 201.707Z" fill="#263238"/>
    <path d="M147.463 201.791C147.459 201.8 147.323 201.703 147.243 201.461C147.204 201.342 147.185 201.189 147.213 201.023C147.252 200.868 147.297 200.658 147.521 200.567C147.647 200.529 147.941 200.782 147.961 200.877C147.992 200.971 147.812 200.923 147.803 201.002C147.785 201.165 147.746 201.307 147.702 201.422C147.612 201.652 147.512 201.77 147.502 201.763C147.487 201.755 147.563 201.625 147.63 201.398C147.664 201.285 147.694 201.147 147.706 200.993C147.727 200.852 147.687 200.636 147.548 200.671C147.414 200.716 147.34 200.904 147.308 201.042C147.278 201.189 147.287 201.329 147.314 201.442C147.371 201.668 147.479 201.779 147.463 201.791Z" fill="#263238"/>
    <path d="M155.864 197.335C155.871 197.354 155.625 197.416 155.284 197.623C154.944 197.824 154.514 198.196 154.237 198.736C153.961 199.277 153.913 199.844 153.948 200.237C153.981 200.635 154.074 200.87 154.055 200.876C154.049 200.879 154.02 200.823 153.982 200.715C153.943 200.609 153.901 200.448 153.874 200.246C153.817 199.844 153.855 199.252 154.143 198.688C154.431 198.125 154.888 197.748 155.247 197.557C155.427 197.46 155.582 197.401 155.691 197.369C155.8 197.338 155.862 197.329 155.864 197.335Z" fill="#263238"/>
    <path d="M152.715 200.614C152.729 200.638 152.245 200.955 151.597 201.25C150.949 201.546 150.391 201.702 150.383 201.676C150.373 201.647 150.911 201.447 151.553 201.153C152.195 200.861 152.699 200.587 152.715 200.614Z" fill="#263238"/>
    <path d="M154.27 199.893C154.298 199.904 154.277 200.023 154.278 200.167C154.277 200.311 154.298 200.43 154.27 200.441C154.244 200.453 154.171 200.334 154.172 200.167C154.171 200.001 154.244 199.882 154.27 199.893Z" fill="#263238"/>
    <path d="M154.53 198.892C154.557 198.902 154.543 199.009 154.498 199.131C154.454 199.252 154.395 199.342 154.368 199.332C154.34 199.322 154.354 199.216 154.399 199.094C154.444 198.973 154.502 198.882 154.53 198.892Z" fill="#263238"/>
    <path d="M155.226 198.175C155.232 198.204 155.126 198.251 155.027 198.346C154.925 198.438 154.871 198.541 154.842 198.533C154.814 198.528 154.829 198.384 154.954 198.268C155.077 198.152 155.223 198.146 155.226 198.175Z" fill="#263238"/>
    <path d="M155.752 197.742C155.773 197.763 155.745 197.824 155.691 197.88C155.636 197.936 155.575 197.965 155.554 197.944C155.533 197.923 155.56 197.862 155.615 197.806C155.67 197.75 155.731 197.721 155.752 197.742Z" fill="#263238"/>
    <path d="M145.884 95.663L144.417 77.7603L151.953 77.8947C151.953 77.8947 152.303 75.2553 151.192 69.4647C150.511 65.914 148.146 63.7364 145.494 62.4425L145.495 62.3948L145.265 62.3347C141.892 60.7559 138.361 60.5332 138.361 60.5332L129.11 60.64C129.11 60.64 122.042 59.7584 118.131 64.7966C116.624 66.7375 111.961 80.0202 111.961 80.0202L123.066 85.3679L122.008 78.0021C122.008 78.0021 122.218 83.3427 122.9 85.0349C123.28 85.9777 124.379 88.9046 124.379 88.9046L124.236 97.7388L145.884 95.663Z" fill="#E8505B"/>
    <path d="M140.783 75.1631L139.41 81.0138H152.365L151.513 71.2051L140.783 75.1631Z" fill="#E8505B"/>
    <path d="M152.364 81.0149C152.366 80.9762 151.711 80.9075 150.65 80.8453C149.588 80.7832 148.119 80.7305 146.495 80.738C144.871 80.746 143.402 80.8163 142.341 80.9005C141.28 80.9843 140.628 81.074 140.631 81.1117C140.634 81.1528 141.291 81.1342 142.352 81.1021C143.413 81.0695 144.878 81.0314 146.497 81.0234C148.116 81.0164 149.581 81.0364 150.643 81.047C151.704 81.058 152.362 81.055 152.364 81.0149Z" fill="#263238"/>
    <path d="M140.226 71.1572C140.186 71.1587 140.173 71.7275 140.183 72.6452C140.193 73.5635 140.226 74.8303 140.28 76.2296C140.334 77.6288 140.4 78.8951 140.461 79.8114C140.522 80.7272 140.581 81.2929 140.62 81.2914C140.659 81.2899 140.673 80.7212 140.663 79.8034C140.653 78.8856 140.62 77.6178 140.566 76.2185C140.511 74.8193 140.446 73.5535 140.384 72.6372C140.323 71.7219 140.266 71.1557 140.226 71.1572Z" fill="#263238"/>
    <g opacity="0.3">
        <path d="M128.436 76.2246C128.436 76.2246 131.315 97.5732 139.409 97.008C139.409 97.008 143.053 96.9649 144.225 94.5426V93.5892L128.436 76.2246Z" fill="black"/>
    </g>
    <g opacity="0.3">
        <path d="M140.225 72.417L138.676 82.8827L139.679 84.7192L141.33 81.1284L140.631 81.1118L140.225 72.417Z" fill="black"/>
    </g>
    <path d="M124.384 88.9098C124.367 88.9158 124.29 88.7372 124.166 88.4097C124.04 88.0828 123.873 87.6043 123.679 87.0085C123.293 85.8174 122.815 84.1494 122.44 82.2717C122.068 80.3925 121.886 78.6642 121.827 77.4115C121.797 76.7851 121.787 76.2775 121.797 75.927C121.804 75.5764 121.816 75.3828 121.834 75.3828C121.875 75.3823 121.903 76.1557 122.011 77.3989C122.117 78.6422 122.327 80.3539 122.697 82.221C123.068 84.0872 123.516 85.7537 123.856 86.9553C124.015 87.5125 124.151 87.9875 124.262 88.3787C124.357 88.7147 124.401 88.9037 124.384 88.9098Z" fill="#263238"/>
    <path d="M127.657 95.0428C127.588 95.0639 127.387 94.603 127.209 94.0142C127.031 93.4249 126.943 92.9309 127.012 92.9099C127.081 92.8888 127.281 93.3497 127.459 93.9385C127.637 94.5273 127.726 95.0218 127.657 95.0428Z" fill="#263238"/>
    <path d="M128.777 94.9608C128.71 94.9778 128.492 94.2867 128.481 93.4C128.466 92.5134 128.664 91.8162 128.731 91.8313C128.805 91.8448 128.727 92.5404 128.742 93.396C128.752 94.2516 128.851 94.9452 128.777 94.9608Z" fill="#263238"/>
    <path d="M123.294 85.6141C123.262 85.6788 120.678 84.4526 117.523 82.8758C114.367 81.2985 111.835 79.9685 111.867 79.9038C111.9 79.8391 114.483 81.0653 117.639 82.6421C120.794 84.2189 123.326 85.5494 123.294 85.6141Z" fill="#263238"/>
    <path d="M127.858 62.3775C127.916 59.8403 127.93 57.1682 127.93 57.1682C127.93 57.1682 124.676 56.5413 124.109 52.2594C123.568 48.176 125.081 38.5945 125.081 38.5945C129.834 36.7976 134.774 38.4265 138.031 42.2782L137.223 62.8775C137.129 65.2687 134.998 67.0928 132.438 66.9729C129.852 66.8515 127.803 64.7948 127.858 62.3775Z" fill="#FFBE9D"/>
    <path d="M124.833 46.2493C124.815 46.5377 125.045 46.7905 125.346 46.8146C125.646 46.8386 125.905 46.6245 125.922 46.3361C125.94 46.0477 125.71 45.7945 125.41 45.7704C125.109 45.7463 124.851 45.961 124.833 46.2493Z" fill="#263238"/>
    <path d="M124.625 45.5294C124.691 45.6026 125.114 45.3067 125.702 45.3233C126.29 45.3313 126.714 45.6453 126.78 45.5751C126.812 45.544 126.746 45.4136 126.562 45.2716C126.38 45.1307 126.068 44.9898 125.701 44.9818C125.334 44.9742 125.022 45.1011 124.842 45.235C124.657 45.3694 124.593 45.4968 124.625 45.5294Z" fill="#263238"/>
    <path d="M130.808 46.6249C130.79 46.9133 131.02 47.1665 131.321 47.1906C131.621 47.2147 131.879 47.0005 131.897 46.7122C131.914 46.4238 131.685 46.1705 131.384 46.1464C131.083 46.1219 130.825 46.3365 130.808 46.6249Z" fill="#263238"/>
    <path d="M130.758 45.9025C130.824 45.9757 131.247 45.6798 131.835 45.6963C132.422 45.7049 132.847 46.0188 132.912 45.9481C132.945 45.917 132.879 45.7866 132.694 45.6447C132.513 45.5038 132.2 45.3628 131.834 45.3548C131.467 45.3473 131.155 45.4742 130.975 45.6081C130.79 45.7425 130.726 45.8699 130.758 45.9025Z" fill="#263238"/>
    <path d="M128.516 50.2131C128.519 50.1795 128.155 50.1073 127.564 50.016C127.414 49.9965 127.273 49.9634 127.25 49.86C127.218 49.7507 127.285 49.5902 127.362 49.4172C127.513 49.0571 127.671 48.68 127.836 48.2843C128.495 46.6709 128.977 45.3429 128.911 45.3168C128.846 45.2907 128.259 46.5771 127.6 48.1905C127.441 48.5882 127.289 48.9678 127.145 49.3304C127.083 49.5 126.981 49.691 127.051 49.9182C127.089 50.0316 127.197 50.1158 127.292 50.1444C127.388 50.1765 127.473 50.18 127.547 50.1865C128.143 50.2347 128.513 50.2467 128.516 50.2131Z" fill="#263238"/>
    <path d="M127.924 57.1682C127.924 57.1682 130.788 57.4269 133.674 55.792C133.674 55.792 132.213 58.6858 127.955 58.1762L127.924 57.1682Z" fill="#FFBE9D"/>
    <path d="M132.642 44.2048C132.521 44.3888 132.073 44.3071 131.572 44.2168C131.072 44.116 130.626 44.0272 130.581 43.8116C130.532 43.605 131.05 43.3186 131.719 43.447C132.388 43.5744 132.764 44.0308 132.642 44.2048Z" fill="#263238"/>
    <path d="M126.793 43.3418C126.748 43.5565 126.269 43.6347 125.716 43.6628C125.163 43.6854 124.678 43.6512 124.614 43.4421C124.547 43.2395 125.015 42.9095 125.68 42.8804C126.344 42.8483 126.84 43.1337 126.793 43.3418Z" fill="#263238"/>
    <path d="M128.519 51.6205C128.395 51.5859 128.256 51.6566 128.194 51.7694C128.119 51.9033 128.153 52.0879 128.271 52.1867C128.388 52.2855 128.575 52.288 128.695 52.1922C128.815 52.0969 128.854 51.9134 128.784 51.7775C128.714 51.6415 128.542 51.5673 128.394 51.6094" fill="#FFBE9D"/>
    <path d="M128.655 51.6765C128.682 51.6529 128.561 51.5085 128.304 51.5646C128.185 51.5907 128.03 51.6975 127.983 51.8801C127.935 52.0516 127.978 52.2738 128.16 52.4132C128.348 52.5456 128.574 52.5185 128.724 52.4167C128.884 52.3114 128.929 52.1188 128.904 51.9984C128.853 51.7341 128.657 51.692 128.652 51.7286C128.63 51.7617 128.72 51.8535 128.702 52.01C128.694 52.0867 128.657 52.1579 128.583 52.194C128.51 52.2336 128.394 52.2337 128.329 52.183C128.26 52.1339 128.224 52.0245 128.238 51.9403C128.249 51.856 128.305 51.7933 128.373 51.7547C128.513 51.6755 128.637 51.7126 128.655 51.6765Z" fill="#263238"/>
    <path d="M136.053 47.3084C135.545 48.4839 134.307 49.3897 134.479 50.6585C134.59 51.4775 135.115 52.2413 135.013 53.0618C134.884 54.0919 133.814 54.8061 133.663 55.8332C133.477 57.093 134.702 58.072 135.192 59.2475C135.905 60.9592 134.993 62.8845 134.971 64.7386C134.939 67.5787 137.353 70.2318 140.184 70.465C141.329 70.5593 142.619 70.2137 143.212 69.2302C143.702 68.4188 143.604 67.3877 143.898 66.4864C144.335 65.1444 145.614 64.1619 145.884 62.7762C146.376 60.2501 143.323 58.1597 143.524 55.594C143.609 54.4976 144.286 53.5413 144.574 52.48C144.951 51.0898 144.605 49.5241 143.678 48.4218C142.925 47.5255 141.831 46.9363 141.19 45.9573C140.462 44.8469 140.437 43.4392 140.163 42.1402C139.494 38.9752 137.117 36.2258 134.082 35.1065C131.047 33.9871 127.454 34.5347 124.89 36.5072C124.89 36.5072 124.161 39.8127 127.554 40.3654C130.947 40.918 132.519 40.2801 132.902 41.6402C132.902 41.6402 132.515 43.2285 133.918 44.7461C135.321 46.2647 136.64 45.9473 136.053 47.3084Z" fill="#263238"/>
    <path d="M141.464 70.2334C141.462 70.2424 141.356 70.2309 141.154 70.2013C140.953 70.1697 140.657 70.103 140.291 69.9686C139.567 69.7038 138.54 69.127 137.666 68.0252C137.231 67.4791 136.825 66.8171 136.55 66.0387C136.269 65.2649 136.108 64.3877 136.094 63.4639C136.072 62.5396 136.203 61.5702 136.456 60.6002C136.581 60.1148 136.745 59.6303 136.935 59.1493C137.123 58.6664 137.354 58.201 137.486 57.7085C137.629 57.2175 137.61 56.716 137.481 56.2375C137.35 55.7591 137.128 55.3092 136.911 54.8644C136.693 54.42 136.47 53.9767 136.327 53.5053C136.181 53.0378 136.126 52.5338 136.221 52.0639C136.421 51.119 136.995 50.4199 137.334 49.7022C137.692 48.9916 137.804 48.2403 137.788 47.5663C137.727 46.2002 137.145 45.1901 136.669 44.6078C136.174 44.0251 135.798 43.8029 135.817 43.7783C135.817 43.7783 136.215 43.9664 136.746 44.5416C137.256 45.1164 137.884 46.1405 137.972 47.5583C138.002 48.2569 137.895 49.0483 137.529 49.797C137.183 50.5408 136.629 51.2449 136.458 52.1095C136.282 52.9807 136.694 53.8779 137.141 54.751C137.36 55.1964 137.591 55.6568 137.733 56.1688C137.873 56.6774 137.894 57.2521 137.739 57.7757C137.597 58.3018 137.361 58.7732 137.178 59.2446C136.991 59.7161 136.829 60.19 136.704 60.6649C136.454 61.6138 136.322 62.5592 136.336 63.4594C136.342 65.2674 136.963 66.8476 137.813 67.9099C138.646 68.9972 139.63 69.5839 140.33 69.8733C141.038 70.1607 141.47 70.2038 141.464 70.2334Z" fill="#455A64"/>
    <path d="M140.963 44.9253C140.964 44.9418 140.7 44.9895 140.216 45.0366C139.733 45.0763 139.02 45.1324 138.15 44.9825C137.3 44.827 136.224 44.4097 135.543 43.4012C135.209 42.8952 135.076 42.2828 134.859 41.7176C134.654 41.1459 134.259 40.6509 133.716 40.3078C132.619 39.6122 131.328 39.527 130.199 39.3895C129.064 39.2617 127.999 39.0209 127.276 38.4793C126.548 37.9612 126.175 37.2892 126.079 36.8047C126.025 36.562 126.029 36.3674 126.04 36.239C126.058 36.1101 126.072 36.0444 126.081 36.0459C126.113 36.0464 126.047 36.3218 126.178 36.7796C126.299 37.233 126.676 37.8529 127.382 38.3278C128.077 38.8208 129.097 39.036 130.227 39.1508C131.347 39.2772 132.683 39.3469 133.858 40.0887C134.439 40.4508 134.887 41.0185 135.098 41.6258C135.321 42.2226 135.446 42.8099 135.746 43.2713C136.356 44.2046 137.368 44.6314 138.185 44.8019C139.022 44.9709 139.728 44.9449 140.209 44.9363C140.692 44.9193 140.961 44.9062 140.963 44.9253Z" fill="#455A64"/>
    <path d="M139.72 40.8405C139.723 40.8531 139.517 40.9173 139.132 40.9268C138.75 40.9373 138.178 40.8696 137.549 40.5702C137.235 40.4213 136.914 40.2076 136.617 39.9223C136.316 39.6384 136.07 39.2713 135.839 38.8841C135.387 38.1213 134.952 37.1805 134.014 36.7918C133.095 36.3976 132.083 36.4854 131.204 36.545C130.316 36.6323 129.484 36.6584 128.805 36.525C128.122 36.4061 127.61 36.1233 127.325 35.8615C127.182 35.7321 127.084 35.6162 127.031 35.5305C126.974 35.4462 126.949 35.4001 126.956 35.3946C126.977 35.3785 127.097 35.5556 127.39 35.7827C127.682 36.0089 128.176 36.2512 128.836 36.3429C129.497 36.4483 130.291 36.4066 131.183 36.3053C132.067 36.2356 133.109 36.1243 134.119 36.5531C134.619 36.7652 135.027 37.1409 135.317 37.5476C135.612 37.9543 135.824 38.3791 136.047 38.7628C136.268 39.1469 136.495 39.4975 136.77 39.7683C137.041 40.0426 137.339 40.2533 137.632 40.4052C138.219 40.7107 138.764 40.8049 139.134 40.825C139.508 40.8471 139.717 40.818 139.72 40.8405Z" fill="#455A64"/>
    <path d="M142.961 69.1494C142.935 69.1379 143.095 68.8149 143.28 68.1976C143.463 67.5822 143.646 66.6574 143.614 65.5094C143.575 64.3695 143.301 62.9903 142.545 61.6798C142.178 61.0228 141.62 60.4381 141.167 59.7164C140.941 59.3563 140.747 58.9526 140.662 58.5057C140.578 58.0584 140.629 57.5834 140.772 57.1521C141.054 56.2865 141.557 55.5573 141.666 54.7614C141.8 53.963 141.397 53.2348 141.015 52.5868C140.822 52.2568 140.628 51.9308 140.478 51.5898C140.328 51.2488 140.232 50.8897 140.195 50.5426C140.118 49.8455 140.2 49.2051 140.251 48.6303C140.396 47.4849 140.29 46.5435 140.014 45.9653C139.746 45.38 139.396 45.2045 139.421 45.1804C139.424 45.1769 139.444 45.1864 139.482 45.2095C139.519 45.2336 139.578 45.2651 139.642 45.3238C139.776 45.4327 139.954 45.6257 140.105 45.9211C140.422 46.5064 140.558 47.4909 140.435 48.6464C140.394 49.2236 140.326 49.856 140.409 50.5165C140.475 51.1831 140.819 51.812 141.222 52.4644C141.417 52.7944 141.623 53.139 141.767 53.5302C141.916 53.9178 141.984 54.3612 141.918 54.7965C141.796 55.6737 141.279 56.4159 141.021 57.2314C140.886 57.6386 140.843 58.0569 140.916 58.4591C140.992 58.8613 141.169 59.2359 141.383 59.582C141.813 60.2751 142.374 60.8719 142.752 61.56C143.522 62.9216 143.781 64.3404 143.798 65.5054C143.807 66.6785 143.592 67.6148 143.376 68.2286C143.263 68.5351 143.169 68.7698 143.087 68.9213C143.013 69.0747 142.969 69.1534 142.961 69.1494Z" fill="#455A64"/>
    <path d="M122.536 162.593C122.536 162.593 119.158 130.575 118.964 118.744C118.77 106.913 124.283 95.2399 124.283 95.2399L145.89 94.3262C145.89 94.3262 150.161 106.331 150.237 111.373C150.386 121.172 147.634 130.848 147.951 138.622L148.673 162.593" fill="#263238"/>
    <path d="M149.393 123.233C149.397 123.241 149.275 123.333 149.04 123.5C148.98 123.543 148.914 123.589 148.843 123.639C148.776 123.696 148.71 123.769 148.634 123.841C148.483 123.987 148.306 124.152 148.153 124.38C147.455 125.235 146.946 126.762 146.462 128.666C146.196 129.612 145.925 130.673 145.368 131.712C145.219 131.965 145.085 132.234 144.888 132.47C144.794 132.591 144.709 132.72 144.606 132.836L144.273 133.168C143.823 133.612 143.251 133.946 142.648 134.211C141.439 134.741 140.074 134.993 138.826 135.618C137.571 136.229 136.63 137.414 136.053 138.779C135.445 140.138 135.076 141.564 134.568 142.897C134.07 144.218 133.39 145.505 132.313 146.317C131.243 147.159 129.921 147.352 128.777 147.426C127.613 147.493 126.536 147.46 125.57 147.606C124.608 147.74 123.755 148.045 123.151 148.519C122.547 148.995 122.194 149.591 122.028 150.101C121.856 150.618 121.887 151.054 121.944 151.331C121.999 151.613 122.079 151.747 122.061 151.755C122.061 151.755 121.967 151.628 121.893 151.344C121.817 151.063 121.768 150.612 121.93 150.072C122.088 149.538 122.439 148.913 123.06 148.405C123.684 147.897 124.561 147.573 125.543 147.424C126.527 147.263 127.616 147.286 128.762 147.21C129.896 147.127 131.161 146.929 132.167 146.126C133.185 145.352 133.84 144.114 134.329 142.806C134.828 141.49 135.195 140.061 135.815 138.672C136.398 137.284 137.396 136.023 138.711 135.39C140.008 134.746 141.374 134.503 142.553 133.99C143.141 133.736 143.686 133.42 144.117 133L144.437 132.686C144.536 132.576 144.619 132.452 144.71 132.338C144.9 132.113 145.031 131.853 145.178 131.609C145.728 130.606 146.008 129.557 146.284 128.617C146.79 126.723 147.335 125.171 148.073 124.318C148.235 124.091 148.421 123.927 148.582 123.784C148.662 123.713 148.732 123.643 148.803 123.588C148.878 123.541 148.947 123.497 149.01 123.457C149.258 123.302 149.389 123.225 149.393 123.233Z" fill="#FAFAFA"/>
    <path d="M149.528 108.419C149.537 108.418 149.546 108.565 149.556 108.848C149.56 109.13 149.526 109.548 149.406 110.073C149.155 111.117 148.392 112.55 146.965 113.847C146.259 114.499 145.408 115.128 144.434 115.695C143.466 116.27 142.398 116.817 141.304 117.435C140.214 118.055 139.089 118.756 138.101 119.687C137.1 120.607 136.35 121.816 135.675 123.096C134.993 124.374 134.39 125.675 133.572 126.802C133.166 127.364 132.707 127.878 132.2 128.318C131.69 128.755 131.134 129.11 130.569 129.404C129.436 129.993 128.282 130.356 127.212 130.691C126.14 131.023 125.14 131.316 124.265 131.683C123.39 132.044 122.631 132.453 122.018 132.887C121.405 133.321 120.938 133.776 120.607 134.187C119.939 135.015 119.799 135.614 119.761 135.594C119.752 135.591 119.8 135.452 119.9 135.187C120.016 134.932 120.196 134.55 120.527 134.125C120.851 133.696 121.317 133.221 121.932 132.768C122.548 132.316 123.311 131.889 124.193 131.513C125.074 131.131 126.08 130.825 127.146 130.485C128.211 130.142 129.352 129.773 130.457 129.192C131.007 128.901 131.545 128.553 132.037 128.13C132.525 127.702 132.968 127.204 133.363 126.653C134.159 125.551 134.758 124.26 135.444 122.973C136.121 121.688 136.893 120.444 137.924 119.501C138.94 118.55 140.084 117.843 141.184 117.226C142.288 116.61 143.358 116.071 144.323 115.509C145.292 114.955 146.135 114.345 146.839 113.711C148.26 112.451 149.029 111.064 149.306 110.047C149.578 109.02 149.488 108.416 149.528 108.419Z" fill="#FAFAFA"/>
    <path d="M119.072 120.441C119.068 120.443 119.053 120.41 119.028 120.344C119.007 120.277 118.961 120.18 118.931 120.045C118.87 119.778 118.832 119.354 118.981 118.843C119.26 117.822 120.369 116.551 122.157 115.915C123.046 115.61 124.055 115.425 125.107 115.15C126.146 114.87 127.279 114.478 128.124 113.608C128.544 113.18 128.899 112.669 129.195 112.108C129.482 111.542 129.72 110.934 129.943 110.306C130.393 109.056 130.77 107.697 131.534 106.461C132.292 105.216 133.527 104.35 134.805 103.917C136.08 103.449 137.366 103.241 138.559 102.966C139.755 102.705 140.874 102.368 141.823 101.854C142.759 101.323 143.504 100.615 144.032 99.8649C145.114 98.3608 145.398 96.8202 145.436 95.8021C145.46 94.7674 145.295 94.2042 145.329 94.1992C145.329 94.1992 145.529 94.7529 145.537 95.8041C145.529 96.8377 145.272 98.4155 144.183 99.9717C143.651 100.748 142.892 101.485 141.929 102.043C140.956 102.582 139.814 102.932 138.613 103.2C137.414 103.483 136.136 103.696 134.895 104.157C133.646 104.587 132.486 105.406 131.755 106.6C131.019 107.79 130.64 109.134 130.185 110.393C129.958 111.025 129.715 111.643 129.416 112.224C129.11 112.801 128.737 113.333 128.294 113.78C127.396 114.691 126.213 115.086 125.162 115.36C124.096 115.629 123.093 115.802 122.216 116.09C120.477 116.684 119.373 117.901 119.079 118.873C118.92 119.361 118.94 119.77 118.983 120.035C119.039 120.299 119.083 120.437 119.072 120.441Z" fill="#FAFAFA"/>
    <path d="M147.664 147.515C147.673 147.514 147.684 147.621 147.698 147.83C147.71 148.037 147.694 148.347 147.606 148.735C147.429 149.507 146.832 150.564 145.71 151.445C145.158 151.89 144.489 152.299 143.722 152.626C142.956 152.954 142.109 153.213 141.225 153.489C140.341 153.765 139.414 154.053 138.513 154.48C137.605 154.895 136.767 155.504 136.044 156.28C135.313 157.047 134.681 157.884 133.981 158.623C133.284 159.367 132.492 159.979 131.67 160.431C130.019 161.343 128.308 161.655 126.9 161.672C125.481 161.687 124.356 161.389 123.617 161.126C123.245 160.996 122.968 160.866 122.784 160.769C122.599 160.676 122.504 160.624 122.508 160.616C122.512 160.608 122.615 160.644 122.806 160.721C122.995 160.802 123.276 160.916 123.649 161.03C124.39 161.26 125.504 161.525 126.896 161.486C128.278 161.447 129.949 161.121 131.551 160.221C132.351 159.772 133.113 159.177 133.794 158.447C134.48 157.719 135.108 156.881 135.854 156.099C136.589 155.308 137.472 154.668 138.402 154.248C139.328 153.815 140.267 153.529 141.153 153.259C142.04 152.99 142.883 152.739 143.637 152.426C144.39 152.116 145.049 151.725 145.595 151.3C146.705 150.458 147.304 149.453 147.507 148.709C147.706 147.957 147.627 147.514 147.664 147.515Z" fill="#FAFAFA"/>
    <path d="M145.207 81.0354L141.029 81.1342C140.754 82.5414 140.084 83.5043 140.084 83.5043C136.59 77.44 133.882 69.3154 133.209 66.05C133.307 65.724 133.423 65.3629 133.568 64.9597C133.735 64.4943 133.592 63.6126 133.513 63.1237C133.396 62.3965 133.193 61.4185 133.131 60.9656C132.945 59.586 132.723 59.3693 132.242 59.5253C131.587 59.7374 132.51 63.4 131.973 63.4797C131.685 63.5224 131.332 62.2676 131.23 61.238C131.128 60.2083 130.662 57.0413 130.322 56.8301C129.823 56.5207 129.388 57.0102 129.514 58.0353C129.641 59.0729 129.802 62.1678 129.258 62.2094C128.722 62.2505 128.272 57.0001 128.272 57.0001C128.272 57.0001 128.357 55.8577 127.727 55.8853C126.591 55.9344 127.479 61.4702 127.576 61.9948C127.644 62.3594 127.053 62.4266 127.002 62.0304C126.948 61.6226 126.674 56.7795 125.517 56.8181C124.629 56.8482 126.205 61.3799 125.706 62.4306C125.208 63.4808 124.861 58.8628 124.014 58.9265C123.698 58.9505 123.465 59.0122 124.045 61.6256C124.356 63.0304 125.272 65.6127 126.072 67.7512C127.416 74.9981 133.312 98.1813 142.557 93.9374C147.73 91.5627 149.828 81.0384 149.828 81.0384L145.207 81.0354Z" fill="#FFBE9D"/>
    <path d="M127.382 62.3497C127.382 62.3497 127.425 62.3573 127.503 62.3332C127.573 62.3116 127.713 62.2234 127.691 62.0433C127.679 61.7324 127.631 61.2785 127.558 60.6922C127.505 60.1019 127.328 59.3938 127.328 58.5558C127.321 58.136 127.332 57.6846 127.356 57.2062C127.371 56.9669 127.375 56.7187 127.429 56.484C127.468 56.2568 127.62 55.997 127.795 56.0281L127.814 56.0316L127.823 56.0311C128.001 56.0231 128.141 56.162 128.198 56.3746C128.261 56.5778 128.276 56.8175 128.264 57.0462L128.263 57.0557L128.264 57.0622C128.381 58.3451 128.507 59.7499 128.8 61.2494C128.84 61.437 128.882 61.6255 128.94 61.8156C128.969 61.9104 129.003 62.0062 129.044 62.103C129.072 62.1526 129.089 62.1998 129.13 62.2514C129.165 62.2951 129.211 62.3713 129.339 62.3828C129.547 62.3673 129.608 62.2098 129.655 62.1195C129.7 62.0157 129.728 61.9129 129.749 61.8111C129.792 61.607 129.813 61.4034 129.829 61.1988C129.884 60.3808 129.856 59.5463 129.796 58.6902C129.776 58.2573 129.67 57.826 129.744 57.4339C129.778 57.2408 129.858 57.0462 129.99 56.9659C130.054 56.9268 130.127 56.9188 130.206 56.9389C130.246 56.9504 130.286 56.9664 130.325 56.9905C130.358 57.0221 130.351 57.0081 130.38 57.0642C130.548 57.4233 130.634 57.8907 130.729 58.3251C130.817 58.7689 130.895 59.2213 130.965 59.6787C131.036 60.136 131.101 60.5989 131.155 61.0654C131.2 61.5313 131.268 62.0207 131.387 62.4917C131.447 62.7289 131.513 62.9656 131.613 63.2003C131.664 63.3182 131.717 63.4345 131.819 63.5549C131.856 63.606 131.973 63.7018 132.12 63.6642C132.261 63.6171 132.301 63.5047 132.324 63.439C132.406 63.1507 132.382 62.9109 132.378 62.6587C132.367 62.4099 132.346 62.1637 132.325 61.9179C132.29 61.4957 132.249 61.0779 132.235 60.6661C132.229 60.461 132.228 60.2559 132.25 60.0628C132.263 59.9685 132.279 59.8712 132.311 59.8015C132.326 59.7659 132.345 59.7398 132.359 59.7268C132.367 59.7188 132.373 59.7223 132.379 59.7143L132.444 59.6957C132.777 59.5583 132.888 60.0212 132.976 60.3943C133.053 60.7835 133.102 61.1852 133.18 61.5809C133.312 62.3708 133.481 63.1557 133.569 63.9105C133.605 64.2841 133.632 64.6728 133.524 64.9897C133.406 65.3523 133.288 65.7109 133.172 66.0655L133.162 66.0976L133.169 66.1312C133.781 68.8278 134.627 71.2406 135.413 73.3826C136.207 75.5226 137.001 77.3722 137.702 78.8843C138.4 80.3984 139.027 81.5644 139.46 82.3603C139.68 82.7374 139.853 83.0353 139.982 83.257C140.103 83.4591 140.169 83.5619 140.176 83.5584C140.182 83.5544 140.129 83.4441 140.022 83.235C139.902 83.0088 139.742 82.7038 139.538 82.3187C139.13 81.5112 138.529 80.3362 137.853 78.8161C137.175 77.2975 136.403 75.4449 135.627 73.3044C134.86 71.1649 134.027 68.7456 133.433 66.077L133.43 66.1427C133.546 65.7927 133.663 65.4391 133.781 65.0815C133.916 64.6723 133.877 64.2726 133.843 63.8814C133.753 63.097 133.589 62.3347 133.458 61.5413C133.381 61.1491 133.333 60.7464 133.253 60.3351C133.205 60.13 133.161 59.9234 133.048 59.7143C132.994 59.613 132.91 59.4976 132.771 59.4354C132.631 59.3747 132.488 59.3918 132.376 59.4194L132.291 59.4434C132.254 59.4605 132.207 59.4805 132.177 59.5081C132.113 59.5638 132.077 59.6275 132.051 59.6867C131.998 59.807 131.983 59.9179 131.967 60.0292C131.942 60.2494 131.944 60.4635 131.95 60.6762C131.964 61.1015 132.005 61.5222 132.041 61.943C132.062 62.1877 132.082 62.4315 132.093 62.6717C132.101 62.9059 132.11 63.1647 132.056 63.3458C132.043 63.3984 132.018 63.3884 132.047 63.414L132.048 63.4165C132.046 63.3994 132.052 63.442 132.051 63.435L132.05 63.43C132.049 63.4235 132.05 63.4175 132.052 63.4125C132.054 63.4079 132.065 63.3904 132.059 63.3894C132.055 63.3879 132.043 63.3814 132.028 63.3618C131.973 63.2981 131.918 63.1938 131.875 63.09C131.786 62.8798 131.72 62.6516 131.662 62.4245C131.547 61.9646 131.482 61.5082 131.436 61.0343C131.38 60.5623 131.314 60.0974 131.242 59.637C131.17 59.1766 131.091 58.7213 131 58.2719C130.897 57.8195 130.83 57.3847 130.619 56.9328C130.606 56.8872 130.516 56.7859 130.461 56.7563C130.405 56.7227 130.342 56.6966 130.275 56.6776C130.14 56.6405 129.975 56.6575 129.85 56.7362C129.602 56.9007 129.525 57.162 129.48 57.3887C129.439 57.6224 129.445 57.8531 129.471 58.0758C129.496 58.29 129.517 58.4996 129.534 58.7117C129.597 59.5563 129.629 60.3873 129.58 61.1817C129.566 61.3798 129.545 61.5759 129.507 61.761C129.489 61.8537 129.463 61.9435 129.431 62.0207C129.415 62.0589 129.395 62.0945 129.376 62.1145C129.358 62.1562 129.342 62.105 129.343 62.1727C129.369 62.121 129.344 62.1496 129.325 62.1065C129.303 62.0829 129.285 62.0378 129.265 62.0027C129.23 61.9209 129.198 61.8347 129.17 61.7454C129.115 61.5674 129.072 61.3828 129.032 61.2008C128.734 59.7278 128.594 58.3195 128.465 57.0457V57.0617C128.476 56.804 128.459 56.5577 128.383 56.316C128.345 56.1971 128.289 56.0757 128.187 55.982C128.088 55.8852 127.944 55.842 127.816 55.846L127.843 55.8491C127.642 55.8135 127.495 55.9353 127.411 56.0562C127.325 56.1806 127.287 56.3155 127.257 56.4459C127.202 56.7092 127.203 56.9594 127.19 57.1996C127.172 57.6821 127.168 58.136 127.182 58.5603C127.198 59.4159 127.391 60.124 127.459 60.7073C127.546 61.29 127.612 61.7424 127.64 62.0473C127.671 62.1923 127.554 62.2855 127.493 62.3101C127.423 62.3392 127.381 62.3437 127.382 62.3497Z" fill="#FFBE9D"/>
    <path d="M94.7176 87.9397C94.7176 87.9397 93.3299 87.8735 91.8124 88.2727C89.2225 88.9542 84.7515 91.6634 84.5664 95.0111H87.8137C87.8137 95.0111 85.9952 98.8823 86.5299 98.5237C87.916 97.5939 90.6764 94.7889 90.6764 94.7889L94.7176 87.9397Z" fill="#FFBE9D"/>
    <path d="M154.961 32.2753C154.388 32.2753 153.907 32.1486 153.517 31.8953C153.128 31.6393 152.835 31.2859 152.637 30.8353C152.44 30.3846 152.341 29.8646 152.341 29.2753C152.341 28.6859 152.44 28.1659 152.637 27.7153C152.835 27.2646 153.128 26.9126 153.517 26.6593C153.907 26.4033 154.388 26.2753 154.961 26.2753C155.535 26.2753 156.015 26.4033 156.401 26.6593C156.791 26.9126 157.084 27.2646 157.281 27.7153C157.479 28.1659 157.577 28.6859 157.577 29.2753C157.577 29.8646 157.479 30.3846 157.281 30.8353C157.084 31.2859 156.791 31.6393 156.401 31.8953C156.015 32.1486 155.535 32.2753 154.961 32.2753ZM154.961 31.8233C155.433 31.8259 155.827 31.7193 156.141 31.5033C156.456 31.2846 156.692 30.9833 156.849 30.5993C157.007 30.2153 157.085 29.7739 157.085 29.2753C157.085 28.7766 157.007 28.3353 156.849 27.9513C156.692 27.5673 156.456 27.2673 156.141 27.0513C155.827 26.8353 155.433 26.7273 154.961 26.7273C154.489 26.7246 154.096 26.8313 153.781 27.0473C153.469 27.2633 153.235 27.5646 153.077 27.9513C152.92 28.3353 152.839 28.7766 152.833 29.2753C152.828 29.7739 152.904 30.2153 153.061 30.5993C153.221 30.9806 153.46 31.2806 153.777 31.4993C154.095 31.7153 154.489 31.8233 154.961 31.8233ZM160.552 32.2753C160.123 32.2753 159.759 32.1779 159.46 31.9833C159.161 31.7886 158.933 31.5193 158.776 31.1753C158.619 30.8313 158.54 30.4353 158.54 29.9873C158.54 29.5366 158.62 29.1406 158.78 28.7993C158.94 28.4553 159.169 28.1886 159.468 27.9993C159.769 27.8099 160.131 27.7153 160.552 27.7153C160.981 27.7153 161.345 27.8126 161.644 28.0073C161.945 28.1993 162.173 28.4659 162.328 28.8073C162.485 29.1486 162.564 29.5419 162.564 29.9873C162.564 30.4433 162.485 30.8433 162.328 31.1873C162.171 31.5286 161.941 31.7953 161.64 31.9873C161.339 32.1793 160.976 32.2753 160.552 32.2753ZM160.552 31.8273C161.061 31.8273 161.441 31.6566 161.692 31.3153C161.945 30.9739 162.072 30.5313 162.072 29.9873C162.072 29.4326 161.945 28.9899 161.692 28.6593C161.439 28.3286 161.059 28.1633 160.552 28.1633C160.208 28.1633 159.924 28.2419 159.7 28.3993C159.476 28.5539 159.308 28.7686 159.196 29.0433C159.087 29.3153 159.032 29.6299 159.032 29.9873C159.032 30.5419 159.16 30.9873 159.416 31.3233C159.675 31.6593 160.053 31.8273 160.552 31.8273ZM165.736 32.2753C165.347 32.2753 165.017 32.1739 164.748 31.9713C164.479 31.7686 164.273 31.4953 164.132 31.1513C163.991 30.8073 163.92 30.4193 163.92 29.9873C163.92 29.5526 163.991 29.1646 164.132 28.8233C164.273 28.4793 164.483 28.2086 164.76 28.0113C165.037 27.8139 165.377 27.7153 165.78 27.7153C166.172 27.7153 166.507 27.8153 166.784 28.0153C167.061 28.2153 167.272 28.4873 167.416 28.8313C167.563 29.1753 167.636 29.5606 167.636 29.9873C167.636 30.4193 167.561 30.8086 167.412 31.1553C167.265 31.4993 167.051 31.7726 166.768 31.9753C166.488 32.1753 166.144 32.2753 165.736 32.2753ZM163.844 34.0753V27.8353H164.264V31.1633H164.304V34.0753H163.844ZM165.708 31.8353C166.025 31.8353 166.289 31.7539 166.5 31.5913C166.713 31.4286 166.873 31.2086 166.98 30.9313C167.089 30.6513 167.144 30.3366 167.144 29.9873C167.144 29.6406 167.091 29.3299 166.984 29.0553C166.88 28.7779 166.721 28.5593 166.508 28.3993C166.297 28.2366 166.028 28.1553 165.7 28.1553C165.383 28.1553 165.117 28.2339 164.904 28.3913C164.691 28.5459 164.531 28.7619 164.424 29.0393C164.317 29.3166 164.264 29.6326 164.264 29.9873C164.264 30.3393 164.316 30.6553 164.42 30.9353C164.527 31.2126 164.687 31.4326 164.9 31.5953C165.116 31.7553 165.385 31.8353 165.708 31.8353ZM170.489 32.2673C169.99 32.2673 169.578 32.1619 169.253 31.9513C168.93 31.7406 168.73 31.4473 168.653 31.0713L169.125 30.9913C169.191 31.2473 169.349 31.4513 169.597 31.6033C169.845 31.7553 170.149 31.8313 170.509 31.8313C170.866 31.8313 171.15 31.7553 171.361 31.6033C171.571 31.4513 171.677 31.2433 171.677 30.9793C171.677 30.8353 171.643 30.7179 171.577 30.6273C171.513 30.5339 171.385 30.4486 171.193 30.3713C171.001 30.2939 170.715 30.2033 170.337 30.0993C169.937 29.9926 169.623 29.8859 169.397 29.7793C169.173 29.6726 169.014 29.5513 168.921 29.4153C168.83 29.2793 168.785 29.1126 168.785 28.9153C168.785 28.6779 168.853 28.4699 168.989 28.2913C169.125 28.1099 169.314 27.9686 169.557 27.8673C169.802 27.7659 170.085 27.7153 170.405 27.7153C170.725 27.7153 171.013 27.7686 171.269 27.8753C171.525 27.9793 171.731 28.1259 171.889 28.3153C172.046 28.5019 172.137 28.7193 172.161 28.9673L171.689 29.0553C171.643 28.7779 171.503 28.5593 171.269 28.3993C171.034 28.2366 170.741 28.1539 170.389 28.1513C170.055 28.1459 169.783 28.2126 169.573 28.3513C169.362 28.4873 169.257 28.6673 169.257 28.8913C169.257 29.0193 169.293 29.1286 169.365 29.2193C169.439 29.3073 169.57 29.3886 169.757 29.4633C169.943 29.5379 170.207 29.6179 170.549 29.7033C170.965 29.8099 171.289 29.9193 171.521 30.0313C171.755 30.1433 171.921 30.2753 172.017 30.4273C172.113 30.5766 172.161 30.7619 172.161 30.9833C172.161 31.3833 172.011 31.6979 171.713 31.9273C171.417 32.1539 171.009 32.2673 170.489 32.2673ZM173.849 32.1553V31.5673H174.309V32.1553H173.849ZM173.849 30.7153V26.3953H174.309V30.7153H173.849Z" fill="#0E0F0C"/>
    <path d="M180.282 28.9966C180.276 28.9966 180.26 28.8933 180.236 28.6912C180.213 28.473 180.179 28.176 180.138 27.7943C180.115 27.3976 180.013 26.918 179.894 26.3527C179.827 26.0718 179.793 25.7593 179.69 25.4433C179.592 25.1253 179.488 24.7878 179.378 24.4306C178.89 23.0221 178.139 21.3328 176.874 19.6524C175.618 17.9756 173.852 16.3188 171.586 15.0638C170.469 14.4007 169.193 13.9387 167.854 13.5309C166.495 13.2104 165.055 12.9355 163.55 12.9712C162.797 12.931 162.038 13.0409 161.265 13.1056C160.878 13.1422 160.498 13.245 160.11 13.3122C159.722 13.3835 159.331 13.4592 158.951 13.5906C157.397 13.9879 155.887 14.7182 154.448 15.6236C151.559 17.4339 149.126 20.3792 147.792 23.9496C147.123 25.7358 146.803 27.694 146.805 29.6718C146.765 31.6536 147.15 33.6665 147.858 35.5615L148.086 36.1344L148.115 36.2101L148.085 36.2808C146.822 39.1785 145.583 42.0206 144.383 44.7744L144.171 44.5346C146.771 43.5394 149.293 42.5744 151.712 41.6484L151.805 41.6128L151.878 41.6835C153.97 43.7029 156.469 45.0678 158.999 45.779C161.537 46.4918 164.093 46.5284 166.418 46.1166C168.748 45.7058 170.845 44.818 172.595 43.6769C174.349 42.5357 175.756 41.1483 176.84 39.7383C177.917 38.3128 178.626 36.8511 179.162 35.5455C179.633 34.2112 179.922 33.027 180.062 32.0469C180.121 31.5573 180.174 31.1219 180.22 30.7422C180.23 30.367 180.238 30.048 180.245 29.7836C180.253 29.5374 180.26 29.3427 180.265 29.1963C180.271 29.0644 180.277 28.9966 180.282 28.9966C180.286 28.9966 180.29 29.0634 180.294 29.1958C180.296 29.3427 180.298 29.5369 180.301 29.7847C180.302 30.05 180.303 30.3715 180.303 30.7487C180.264 31.1314 180.22 31.5703 180.169 32.0639C180.045 33.0536 179.77 34.2524 179.309 35.6062C178.783 36.9309 178.079 38.4171 177 39.8697C175.913 41.3068 174.497 42.7233 172.724 43.892C170.956 45.0608 168.831 45.9742 166.466 46.4025C164.106 46.8309 161.507 46.8043 158.923 46.087C156.346 45.3717 153.796 43.9878 151.659 41.9333L151.825 41.9684C149.407 42.8979 146.888 43.867 144.288 44.8661L143.908 45.0121L144.076 44.6264C145.275 41.8716 146.511 39.0291 147.773 36.1308L147.772 36.2768L147.54 35.6914C146.816 33.7548 146.423 31.6957 146.464 29.6703C146.463 27.6489 146.793 25.647 147.479 23.8227C148.846 20.1756 151.335 17.1785 154.282 15.3417C155.749 14.4228 157.29 13.6854 158.872 13.2852C159.259 13.1532 159.657 13.0775 160.052 13.0063C160.446 12.939 160.834 12.8362 161.226 12.8001C162.012 12.7374 162.784 12.6296 163.549 12.6732C165.078 12.6441 166.542 12.929 167.919 13.2626C169.277 13.6834 170.569 14.1604 171.698 14.8396C173.99 16.1272 175.767 17.8201 177.024 19.529C178.29 21.241 179.031 22.9579 179.503 24.3855C179.609 24.7471 179.709 25.0897 179.803 25.4112C179.902 25.7313 179.932 26.0468 179.993 26.3307C180.102 26.9025 180.194 27.386 180.206 27.7858C180.233 28.1695 180.255 28.4695 180.271 28.6887C180.284 28.8923 180.287 28.9961 180.282 28.9966Z" fill="#263238"/>
    <path d="M73.8363 112.623L71.474 79.8135L64.314 75.5039H44.6191L47.2924 112.623H73.8363Z" fill="white"/>
    <path d="M73.8337 112.967H47.2898C47.1099 112.967 46.9604 112.828 46.9477 112.648L44.2744 75.5288C44.2673 75.4338 44.3006 75.3396 44.3658 75.2702C44.4309 75.2001 44.5216 75.1611 44.6172 75.1611H64.3121C64.3744 75.1611 64.4361 75.1781 64.4892 75.2107L71.6485 79.5196C71.7441 79.577 71.8057 79.6776 71.8135 79.7888L74.1758 112.599C74.1829 112.694 74.1496 112.788 74.0845 112.857C74.02 112.927 73.9286 112.967 73.8337 112.967ZM47.6093 112.281H73.4647L71.1413 80.0161L64.2165 75.8475H44.9856L47.6093 112.281Z" fill="#CC1728"/>
    <path d="M71.4744 79.8135L64.3145 75.5039L66.9431 81.2132L71.4744 79.8135Z" fill="#EBEBEB"/>
    <path d="M66.9407 81.5562C66.8096 81.5562 66.6864 81.4805 66.629 81.3565L64.0003 75.6479C63.9373 75.5112 63.9706 75.349 64.0832 75.2484C64.1951 75.1478 64.3602 75.133 64.4891 75.2102L71.6483 79.5198C71.7645 79.5892 71.8283 79.7209 71.812 79.8555C71.7957 79.9901 71.7022 80.102 71.5725 80.1417L67.042 81.5414C67.0087 81.5513 66.9747 81.5562 66.9407 81.5562ZM65.0905 76.3733L67.127 80.7962L70.6375 79.7117L65.0905 76.3733Z" fill="#CC1728"/>
    <path d="M55.7296 92.2271C55.7891 93.0552 55.1665 93.7267 54.3377 93.7267C53.509 93.7267 52.79 93.0552 52.7305 92.2271C52.671 91.3991 53.2936 90.7275 54.1217 90.7275C54.9498 90.7275 55.6701 91.3991 55.7296 92.2271Z" fill="#CC1728"/>
    <path d="M65.4589 92.2271C65.5184 93.0552 64.8957 93.7267 64.067 93.7267C63.2389 93.7267 62.5192 93.0552 62.459 92.2271C62.3995 91.3991 63.0221 90.7275 63.8509 90.7275C64.6797 90.7282 65.3994 91.3991 65.4589 92.2271Z" fill="#CC1728"/>
    <path d="M68.204 101.954C68.0255 101.954 67.8753 101.816 67.8619 101.635C67.6883 99.2237 63.9072 97.2623 59.4326 97.2623C56.4681 97.2623 53.8069 98.1435 52.4865 99.5623C51.8993 100.193 51.628 100.873 51.679 101.585C51.6924 101.774 51.5501 101.939 51.3609 101.952C51.1711 101.964 51.0075 101.823 50.994 101.634C50.9296 100.737 51.2717 99.8591 51.9836 99.0941C53.4293 97.54 56.2832 96.5752 59.4326 96.5752C64.3407 96.5752 68.3443 98.776 68.5469 101.585C68.5603 101.774 68.4179 101.938 68.2288 101.952C68.2203 101.954 68.2118 101.954 68.204 101.954Z" fill="#CC1728"/>
    <path d="M50.203 89.1909C50.1194 89.1909 50.0358 89.1605 49.9692 89.0995C49.8304 88.9706 49.8219 88.7532 49.9508 88.6143L51.4554 86.9936C51.5843 86.8541 51.8017 86.847 51.9406 86.9752C52.0794 87.1041 52.0872 87.3216 51.959 87.4604L50.4552 89.0811C50.3872 89.1541 50.2951 89.1909 50.203 89.1909Z" fill="#CC1728"/>
    <path d="M67.4972 89.1909C67.4136 89.1909 67.3293 89.1604 67.2627 89.0988L65.5251 87.4781C65.3863 87.3492 65.3792 87.1317 65.5081 86.9929C65.637 86.8541 65.8545 86.847 65.9933 86.9759L67.7309 88.5966C67.8698 88.7255 67.8768 88.943 67.7479 89.0818C67.6806 89.1541 67.5892 89.1909 67.4972 89.1909Z" fill="#CC1728"/>
    <path d="M42.4746 119.959H44.0755L46.3854 123.029L46.1644 119.959H47.7801L48.1796 125.507H46.5632L44.266 122.461L44.4856 125.507H42.8734L42.4746 119.959Z" fill="#CC1728"/>
    <path d="M48.9045 122.736C48.8394 121.83 49.0405 121.126 49.5095 120.621C49.9777 120.116 50.6627 119.863 51.563 119.863C52.4867 119.863 53.2155 120.111 53.751 120.607C54.2866 121.103 54.5862 121.797 54.6506 122.69C54.6974 123.338 54.6266 123.87 54.4381 124.285C54.2497 124.701 53.9579 125.024 53.5619 125.255C53.1659 125.485 52.6602 125.601 52.0446 125.601C51.4192 125.601 50.8936 125.501 50.4693 125.302C50.045 125.103 49.6901 124.787 49.4039 124.356C49.1177 123.925 48.9513 123.385 48.9045 122.736ZM50.6194 122.744C50.6598 123.304 50.793 123.707 51.0182 123.951C51.2442 124.196 51.536 124.318 51.8945 124.318C52.2628 124.318 52.5391 124.198 52.7239 123.958C52.9088 123.719 52.9782 123.288 52.9336 122.668C52.8961 122.146 52.7629 121.764 52.5348 121.523C52.3067 121.282 52.0121 121.162 51.6515 121.162C51.3058 121.162 51.0374 121.284 50.8454 121.529C50.6542 121.774 50.5791 122.179 50.6194 122.744Z" fill="#CC1728"/>
    <path d="M57.9824 119.959H60.5296C61.0319 119.959 61.442 120.027 61.7615 120.163C62.0802 120.299 62.3501 120.494 62.5704 120.749C62.7907 121.005 62.9586 121.301 63.0733 121.639C63.1888 121.977 63.2596 122.335 63.2872 122.714C63.3297 123.307 63.2957 123.766 63.1838 124.094C63.0726 124.42 62.9047 124.694 62.6809 124.915C62.4571 125.136 62.2106 125.282 61.9407 125.355C61.5723 125.456 61.2352 125.507 60.9299 125.507H58.3826L57.9824 119.959ZM59.7873 121.216L60.0055 124.247H60.4255C60.7839 124.247 61.0354 124.208 61.1813 124.128C61.3272 124.049 61.4356 123.91 61.5072 123.712C61.5787 123.513 61.5985 123.193 61.5667 122.748C61.5242 122.161 61.3995 121.758 61.1919 121.541C60.9844 121.325 60.6586 121.216 60.2144 121.216H59.7873V121.216Z" fill="#CC1728"/>
    <path d="M67.3996 124.592H65.4531L65.2484 125.507H63.498L65.1839 119.959H67.054L69.5381 125.507H67.7425L67.3996 124.592ZM66.9576 123.392L66.2011 121.398L65.7385 123.392H66.9576Z" fill="#CC1728"/>
    <path d="M68.7617 119.959H73.973L74.0715 121.329H72.3233L72.6243 125.507H70.9101L70.6091 121.329H68.8609L68.7617 119.959Z" fill="#CC1728"/>
    <path d="M77.9699 124.592H76.0234L75.8187 125.507H74.0684L75.7542 119.959H77.6243L80.1084 125.507H78.3128L77.9699 124.592ZM77.5279 123.392L76.7721 121.398L76.3096 123.392H77.5279Z" fill="#CC1728"/>
</svg>
