<svg width="120" height="84" viewBox="0 0 120 84" fill="none" xmlns="http://www.w3.org/2000/svg">
    <g opacity="0.5">
        <path d="M111.775 83.3234H15.4494C10.9224 83.3234 7.21875 79.6197 7.21875 75.0927V14.4318C7.21875 9.90481 10.9224 6.20117 15.4494 6.20117H111.776C116.303 6.20117 120.006 9.90481 120.006 14.4318V75.0927C120.006 79.6197 116.302 83.3234 111.775 83.3234Z" fill="#CC1728"/>
        <path d="M4.58468 5.31787C4.39649 5.31787 4.20829 5.24583 4.06494 5.10247L2.74683 3.78437C2.45939 3.49693 2.45939 3.03232 2.74683 2.74488C3.03427 2.45744 3.49888 2.45744 3.78632 2.74488L5.10443 4.06298C5.39187 4.35042 5.39187 4.81503 5.10443 5.10247C4.96108 5.24656 4.77288 5.31787 4.58468 5.31787Z" fill="#CC1728"/>
        <path d="M2.59091 9.92731H0.727328C0.320796 9.92731 -0.0078125 9.59797 -0.0078125 9.19217C-0.0078125 8.78637 0.320796 8.45703 0.727328 8.45703H2.59091C2.99745 8.45703 3.32605 8.78637 3.32605 9.19217C3.32605 9.59797 2.99745 9.92731 2.59091 9.92731Z" fill="#CC1728"/>
        <path d="M9.25785 3.33003C8.87557 3.33003 8.55284 3.03451 8.52564 2.64709L8.39258 0.787911C8.36318 0.382849 8.66827 0.0314512 9.07333 0.00204555C9.48648 -0.0280952 9.82979 0.278466 9.85846 0.682794L9.99152 2.54196C10.0209 2.94702 9.71584 3.29842 9.31078 3.32782C9.29314 3.32929 9.27549 3.33003 9.25785 3.33003Z" fill="#CC1728"/>
        <path d="M79.9043 62.4373L78.4722 56.1937C78.0966 54.5558 78.0921 52.8547 78.4597 51.2153L80.452 42.3216C82.2281 34.3924 78.2039 26.4705 71.2311 22.9845C71.2906 22.8191 71.3583 22.6581 71.398 22.4824C71.9059 20.2144 70.479 17.9642 68.2118 17.4562C65.9439 16.9482 63.6937 18.3744 63.1857 20.6423C63.146 20.818 63.1394 20.993 63.1225 21.1679C55.3285 21.3458 48.3086 26.7932 46.5325 34.7225L44.5403 43.6162C44.1728 45.2555 43.4427 46.7927 42.4047 48.1138L38.4453 53.1495C36.7574 55.2968 37.8873 58.4712 40.5529 59.0681L75.4728 66.8915C78.1385 67.4884 80.5152 65.1 79.9043 62.4373Z" fill="white"/>
        <path d="M53.5235 64.367C52.3745 64.1097 51.3423 65.1066 51.5401 66.2674C51.9385 68.611 53.7102 70.5959 56.1737 71.148C58.6371 71.7001 61.0859 70.6606 62.4466 68.711C63.1208 67.7457 62.6128 66.4034 61.4637 66.1461L53.5235 64.367Z" fill="white"/>
        <path d="M26.7232 51.9867C26.3674 51.9867 26.0182 51.8146 25.8058 51.4963C22.3072 46.257 21.0589 39.97 22.2903 33.7927C23.5217 27.6153 27.0849 22.287 32.3235 18.7892C32.83 18.451 33.5137 18.5877 33.8526 19.0943C34.1908 19.6008 34.054 20.2859 33.5483 20.6241C28.7992 23.7947 25.569 28.6246 24.4531 34.2242C23.3372 39.8238 24.4685 45.5233 27.6392 50.2723C27.9774 50.7788 27.8406 51.4632 27.3348 51.8014C27.1467 51.9264 26.9335 51.9867 26.7232 51.9867Z" fill="white"/>
        <path d="M31.4 48.8702C31.0442 48.8702 30.695 48.6982 30.4826 48.3799C27.8184 44.3895 26.8671 39.6008 27.8052 34.8952C28.7425 30.1903 31.4573 26.1316 35.447 23.4674C35.9527 23.1285 36.6379 23.2652 36.9761 23.7725C37.3142 24.279 37.1775 24.9642 36.6717 25.3023C33.171 27.6393 30.7906 31.1996 29.9672 35.3267C29.1446 39.4545 29.979 43.6551 32.3153 47.1559C32.6534 47.6624 32.5167 48.3468 32.0109 48.6849C31.8234 48.8099 31.6103 48.8702 31.4 48.8702Z" fill="white"/>
        <path d="M36.0776 45.7442C35.7218 45.7442 35.3726 45.5722 35.1602 45.2539C33.329 42.5125 32.6754 39.2213 33.3201 35.9882C33.9641 32.755 35.8292 29.9666 38.5712 28.1354C39.077 27.7965 39.7614 27.9332 40.1003 28.4405C40.4385 28.947 40.3018 29.6321 39.796 29.9703C37.5435 31.4737 36.0129 33.7644 35.4836 36.4197C34.9536 39.075 35.491 41.7781 36.9944 44.0299C37.3325 44.5364 37.1958 45.2208 36.69 45.559C36.5011 45.6839 36.2886 45.7442 36.0776 45.7442Z" fill="white"/>
        <path d="M90.3146 67.502C89.9155 67.502 89.5303 67.2844 89.334 66.9058C89.0546 66.3648 89.2671 65.6987 89.8081 65.4194C94.8821 62.8001 98.632 58.3613 100.368 52.922C102.103 47.4819 101.615 41.692 98.9959 36.618C98.7166 36.0769 98.929 35.4116 99.4701 35.1323C100.011 34.8544 100.676 35.0647 100.956 35.6065C103.846 41.2031 104.383 47.5907 102.469 53.5917C100.554 59.5934 96.4171 64.4894 90.8204 67.3792C90.658 67.4623 90.4845 67.502 90.3146 67.502Z" fill="white"/>
        <path d="M87.7365 62.5089C87.3374 62.5089 86.9521 62.2913 86.7558 61.912C86.4765 61.3709 86.689 60.7049 87.23 60.4263C90.9704 58.4951 93.7345 55.2237 95.0137 51.2142C96.2921 47.204 95.9334 42.9358 94.0022 39.1961C93.7228 38.6551 93.9352 37.9898 94.4763 37.7104C95.0174 37.4325 95.6827 37.6428 95.962 38.1846C98.163 42.4477 98.5725 47.3128 97.114 51.8839C95.6562 56.4551 92.5047 60.1844 88.2423 62.3862C88.0798 62.4692 87.9071 62.5089 87.7365 62.5089Z" fill="white"/>
        <path d="M85.1584 57.5144C84.7592 57.5144 84.374 57.2968 84.1777 56.9182C83.8984 56.3771 84.1108 55.7111 84.6519 55.4324C87.058 54.1908 88.8363 52.0853 89.6589 49.5057C90.4816 46.9254 90.2515 44.1804 89.0083 41.7743C88.729 41.2332 88.9414 40.5672 89.4825 40.2885C90.0243 40.0107 90.6889 40.2209 90.9682 40.7627C94.0904 46.81 91.7107 54.2695 85.6634 57.3923C85.5017 57.4747 85.329 57.5144 85.1584 57.5144Z" fill="white"/>
    </g>
</svg>
