<svg width="375" height="490" viewBox="0 0 375 490" fill="none" xmlns="http://www.w3.org/2000/svg">
<path d="M-543 268.346C-543 268.346 -541.669 266.483 -539.008 262.758C-537.411 260.363 -535.282 257.702 -533.153 254.775C-532.089 253.179 -531.024 251.848 -529.694 250.252C-528.629 248.921 -527.831 247.857 -526.766 246.526C-524.637 244.132 -522.508 241.205 -520.113 238.544C-517.718 235.883 -515.323 232.956 -512.661 230.029C-502.016 218.321 -489.242 205.548 -474.339 193.042C-459.436 180.536 -443.202 168.562 -425.371 157.12C-389.71 134.236 -348.993 114.279 -304.017 97.2493C-259.041 79.9533 -209.808 65.3183 -155.784 53.3442C-128.639 47.2241 -100.695 41.9023 -70.3567 37.6448C-55.1874 35.5161 -39.752 33.6535 -22.9859 32.0569C-18.7278 31.7908 -14.4698 31.2586 -10.2118 30.9925C-7.28436 30.7264 -4.35699 30.4604 -1.16345 30.4604H3.89307C11.8769 30.4604 19.5946 30.1943 27.5784 30.1943C32.3687 30.1943 37.4252 30.1943 41.9493 30.1943C46.4735 30.4604 50.7316 30.4604 55.2557 30.7264C64.038 30.9925 73.0863 31.7908 81.8685 32.0569C99.6991 33.3874 117.796 35.5161 135.626 38.177C171.554 43.4988 207.215 52.0138 241.279 62.3913C275.344 72.7689 308.077 85.0091 339.214 97.5154C370.085 110.022 399.625 123.06 427.569 134.768C455.512 146.742 482.125 157.652 507.939 166.965L517.52 170.424L519.915 171.223L521.246 171.755L521.778 172.021C522.843 172.287 522.577 172.287 522.843 172.287L528.431 174.15C535.617 176.544 542.536 178.673 549.721 181.068C563.826 185.592 577.931 189.849 591.77 193.84C647.656 209.54 702.745 220.982 755.438 224.707C808.132 228.698 858.43 225.239 905.269 213.531C911.123 211.935 916.18 210.604 924.164 208.209C927.091 207.411 930.018 206.347 932.946 205.548L936.672 204.484L940.93 203.154C952.107 199.428 963.284 195.171 974.728 190.381C997.083 180.802 1019.7 169.094 1042.06 156.322C1087.03 130.777 1131.48 101.507 1176.19 75.6959C1187.36 69.3097 1198.54 62.9235 1209.72 56.8034C1215.04 53.8764 1220.36 50.9494 1225.69 48.2885C1232.61 44.5632 1238.46 41.6362 1244.58 38.7092C1269.07 27.2673 1293.55 18.7523 1316.7 12.8983C1339.86 7.04433 1361.94 3.58514 1381.9 1.7225C1401.86 -0.140141 1419.96 -0.140137 1435.93 0.125954C1467.86 1.19032 1491.81 4.38341 1507.78 6.51214C1515.77 7.5765 1521.89 8.64087 1525.88 9.17305C1529.87 9.97133 1532 10.2374 1532 10.2374L1518.16 153.395C1518.16 153.395 1516.3 153.395 1512.57 153.128C1508.85 153.128 1503.52 152.862 1496.87 152.862C1483.03 152.596 1463.34 152.862 1439.39 155.257C1415.7 157.652 1388.29 162.708 1360.35 174.15C1346.24 179.738 1332.14 186.922 1317.5 196.235C1314.04 198.63 1310.05 201.025 1307.12 203.154C1302.6 206.347 1298.34 209.54 1293.82 212.733C1285.3 218.853 1276.25 225.505 1267.2 232.424C1248.84 246.26 1229.68 261.694 1209.19 278.191C1188.43 294.689 1166.61 312.251 1142.39 330.345C1118.17 348.173 1092.09 366.534 1062.82 383.83C1048.18 392.345 1033.01 400.859 1016.78 408.576L1010.66 411.503L1004 414.43C1000.01 416.293 996.018 417.889 992.026 419.752C985.905 422.679 976.857 426.404 968.607 429.597C935.075 442.902 899.68 453.279 864.019 460.73C846.188 464.455 828.091 467.382 809.995 469.777C791.898 472.172 773.535 473.768 755.438 474.833C682.785 479.09 610.665 473.502 541.472 463.391C524.173 460.73 507.141 458.069 490.109 454.876C481.593 453.279 473.343 451.683 464.827 450.086L458.972 449.022C458.972 449.022 457.907 448.756 458.706 449.022L457.907 448.756L456.311 448.49L452.851 447.691C448.327 446.627 443.803 445.829 439.278 444.764C403.617 437.048 369.819 427.735 338.416 418.688C306.747 409.64 277.207 400.859 249.795 393.675C222.118 386.491 196.57 380.636 172.618 376.645C148.667 372.654 126.046 370.525 104.756 370.259C94.1104 369.993 83.7314 370.525 73.6185 370.791C68.5621 371.323 63.5057 371.323 58.4493 372.122C56.0541 372.388 53.3928 372.654 50.9977 372.92C48.6025 373.186 47.0058 373.452 44.8768 373.984C39.2881 374.782 33.6993 375.581 28.1107 376.379L23.0543 377.177C20.6591 377.443 25.7155 376.911 24.9172 376.911H24.3849L23.5865 377.177L21.9897 377.443C19.5946 377.976 17.1994 378.242 14.8043 378.774C5.22363 380.636 -5.15533 382.765 -15.5343 385.16C-36.2923 389.95 -56.7841 395.804 -76.2115 401.924C-115.066 414.164 -149.397 428.001 -176.542 441.305C-203.687 454.61 -223.646 467.382 -234.824 476.429C-240.412 480.953 -244.138 484.678 -246.001 486.807C-247.864 489.202 -248.13 490 -247.864 490C-247.598 490 -247.598 490 -247.332 489.734C-247.066 489.734 -246.8 489.468 -246.8 489.202C-246.533 488.936 -246.8 489.202 -246.533 488.936C-246.001 488.403 -245.735 487.871 -245.469 487.605C-244.671 486.541 -244.138 485.743 -243.606 484.944C-245.469 488.137 -246.533 489.734 -246.533 489.734L-543 268.346Z" fill="url(#paint0_linear_3002_5585)" fill-opacity="0.14"/>
<path d="M254.921 235.291C249.257 216.829 242.979 200.629 240.402 190.819C233.136 163.122 226.426 130.886 185.924 133.784C181.88 134.624 177.902 135.757 174.021 137.171C165.586 140.216 158.172 145.56 152.615 152.598C147.058 159.637 143.581 168.089 142.577 177L140.412 196.371C139.993 224.768 146.952 242.498 154.839 263.007C154.839 262.962 154.872 263.086 154.839 263.007L242.671 273.844H261.984C261.984 273.844 260.748 254.277 254.921 235.291Z" fill="#263238"/>
<path d="M180.535 144.358L183.066 141.938L210.449 152.978C212.355 153.09 214.151 153.911 215.482 155.28C216.813 156.649 217.584 158.466 217.643 160.375L217.401 249.593C217.434 255.643 216.224 260.881 212.574 265.701L208.748 270.77C199.985 282.346 181.934 281.391 175.002 268.638C174.583 267.912 174.258 267.137 174.034 266.329C173.865 265.683 173.729 265.028 173.629 264.367C172.811 257.173 172.765 250.967 172.765 250.967C172.281 243.086 172.111 239.849 172.111 239.927C172.111 240.006 155.336 237.998 150.804 216.468C148.548 205.762 148.973 191.034 149.607 176.535C150.49 156.457 164.407 144.339 180.535 144.358Z" fill="#FFBF9D"/>
<path d="M184.799 191.963C184.828 192.689 185.14 193.376 185.668 193.875C186.196 194.375 186.898 194.649 187.625 194.638C187.98 194.648 188.334 194.587 188.666 194.459C188.997 194.33 189.3 194.136 189.555 193.889C189.811 193.641 190.014 193.345 190.153 193.018C190.292 192.69 190.364 192.338 190.365 191.983C190.336 191.257 190.025 190.572 189.499 190.073C188.972 189.573 188.272 189.299 187.546 189.308C187.19 189.297 186.836 189.358 186.504 189.487C186.172 189.615 185.869 189.809 185.613 190.056C185.357 190.304 185.153 190.6 185.013 190.927C184.874 191.255 184.801 191.607 184.799 191.963Z" fill="#263238"/>
<path d="M156.572 192.382C156.601 193.108 156.913 193.794 157.441 194.294C157.968 194.794 158.671 195.067 159.398 195.057C159.753 195.067 160.108 195.006 160.44 194.878C160.772 194.749 161.075 194.555 161.331 194.308C161.587 194.061 161.79 193.764 161.93 193.437C162.07 193.11 162.143 192.757 162.144 192.401C162.114 191.676 161.802 190.99 161.274 190.491C160.747 189.992 160.045 189.717 159.319 189.727C158.963 189.717 158.609 189.778 158.278 189.907C157.946 190.036 157.644 190.23 157.388 190.477C157.132 190.725 156.928 191.02 156.788 191.347C156.648 191.674 156.575 192.026 156.572 192.382Z" fill="#263238"/>
<path d="M152.478 182.252C152.845 182.598 154.872 180.944 157.867 180.787C160.863 180.63 163.132 182.036 163.439 181.65C163.59 181.48 163.204 180.846 162.216 180.198C160.875 179.363 159.308 178.963 157.73 179.054C156.172 179.127 154.678 179.695 153.466 180.676C152.583 181.428 152.302 182.101 152.478 182.252Z" fill="#263238"/>
<path d="M182.922 181.231C183.321 181.538 185.172 179.675 188.154 179.223C191.136 178.772 193.517 179.923 193.785 179.511C193.916 179.321 193.471 178.726 192.412 178.203C190.989 177.519 189.39 177.29 187.834 177.549C186.292 177.785 184.864 178.501 183.753 179.596C182.922 180.401 182.719 181.1 182.922 181.231Z" fill="#263238"/>
<path d="M172.413 204.363C172.413 204.193 170.536 203.964 167.501 203.709C166.736 203.67 166.003 203.552 165.846 203.055C165.689 202.558 165.918 201.675 166.245 200.766C166.864 198.874 167.518 196.894 168.207 194.828C170.928 186.378 172.864 179.446 172.524 179.341C172.184 179.236 169.692 185.999 166.971 194.442C166.317 196.528 165.663 198.51 165.094 200.413C164.852 201.296 164.401 202.303 164.852 203.434C164.976 203.698 165.158 203.93 165.384 204.112C165.611 204.295 165.876 204.423 166.16 204.487C166.59 204.58 167.029 204.619 167.468 204.605C170.496 204.612 172.406 204.533 172.413 204.363Z" fill="#263238"/>
<path d="M172.118 239.908C182.343 239.551 192.269 236.363 200.79 230.699C200.79 230.699 194.25 246.088 172.419 245.14L172.118 239.908Z" fill="#FF9A6C"/>
<path d="M181.464 171.938C181.85 172.709 184.433 171.938 187.598 171.866C190.764 171.794 193.419 172.369 193.72 171.584C193.851 171.212 193.295 170.518 192.163 169.897C190.707 169.135 189.077 168.765 187.435 168.825C185.82 168.852 184.242 169.303 182.857 170.133C181.771 170.852 181.294 171.578 181.464 171.938Z" fill="#263238"/>
<path d="M152.91 176.836C153.473 177.49 155.526 176.679 157.979 176.522C160.431 176.365 162.557 176.744 163.034 176.012C163.224 175.652 162.858 174.992 161.909 174.39C160.637 173.681 159.184 173.365 157.732 173.482C156.281 173.598 154.897 174.142 153.754 175.044C152.917 175.796 152.662 176.516 152.91 176.836Z" fill="#263238"/>
<path d="M217.12 198.451C217.12 198.451 205.596 201.237 189.24 166.013C183.668 154.025 172.89 141.939 172.89 141.939L183.033 140.48C183.033 140.48 213.281 148.982 213.771 149.381C214.262 149.78 221.403 165.025 221.403 165.025L217.12 198.451Z" fill="#263238"/>
<path d="M213.34 197.039C213.268 195.423 214.942 191.519 216.525 191.192C220.756 190.316 228.454 190.27 229.068 201.093C229.905 215.88 214.883 213.676 214.831 213.251C214.778 212.826 213.608 202.624 213.34 197.039Z" fill="#FFBF9D"/>
<path d="M219.036 207.391C219.095 207.338 219.304 207.554 219.749 207.731C220.378 207.954 221.068 207.928 221.678 207.659C223.209 207.005 224.379 204.441 224.294 201.773C224.26 200.502 223.943 199.256 223.366 198.123C222.855 197.071 222.11 196.351 221.312 196.26C221.012 196.197 220.7 196.243 220.43 196.387C220.159 196.532 219.949 196.767 219.834 197.051C219.657 197.476 219.769 197.764 219.69 197.796C219.612 197.829 219.363 197.568 219.448 196.946C219.511 196.575 219.697 196.236 219.978 195.985C220.367 195.656 220.869 195.492 221.377 195.527C222.522 195.527 223.608 196.534 224.203 197.672C224.903 198.916 225.289 200.313 225.328 201.74C225.4 204.729 224.02 207.626 221.933 208.345C221.542 208.483 221.125 208.531 220.713 208.486C220.301 208.44 219.905 208.303 219.553 208.084C219.082 207.75 218.984 207.423 219.036 207.391Z" fill="#FF9A6C"/>
<path d="M225.092 215.697C225.092 216.744 224.782 217.766 224.2 218.637C223.619 219.507 222.793 220.185 221.826 220.585C220.859 220.986 219.795 221.09 218.769 220.886C217.743 220.682 216.8 220.178 216.06 219.438C215.32 218.698 214.816 217.756 214.612 216.729C214.408 215.703 214.513 214.639 214.913 213.672C215.313 212.706 215.992 211.879 216.862 211.298C217.732 210.717 218.755 210.406 219.801 210.406C221.204 210.406 222.55 210.964 223.542 211.956C224.535 212.948 225.092 214.294 225.092 215.697Z" fill="#455A64"/>
<g opacity="0.31">
<path d="M199.991 201.041C199.991 203.003 196.519 204.605 192.235 204.605C187.951 204.605 184.479 203.009 184.479 201.041C184.479 199.072 187.951 197.477 192.235 197.477C196.519 197.477 199.991 199.072 199.991 201.041Z" fill="#FF9772"/>
</g>
<g opacity="0.31">
<path d="M161.844 201.041C161.844 203.003 159.483 204.605 156.572 204.605C153.662 204.605 151.308 203.009 151.308 201.041C151.308 199.072 153.662 197.477 156.572 197.477C159.483 197.477 161.844 199.072 161.844 201.041Z" fill="#FF9772"/>
</g>
<path d="M239.206 165.921C241.543 165.688 243.781 164.859 245.706 163.514C241.801 163.497 237.968 162.457 234.588 160.499C238.269 158.725 241.165 155.656 242.724 151.88C244.251 148.119 244.899 144.059 244.621 140.009C244.385 134.908 242.776 129.362 238.466 126.616C235.347 124.654 231.397 124.503 227.728 124.974C223.483 125.523 219.265 126.831 215.779 129.323C212.293 131.815 209.605 135.569 208.958 139.787L226.74 168.092C229.787 169.877 233.215 170.91 236.741 171.107C240.266 171.304 243.788 170.658 247.014 169.224L239.206 165.921Z" fill="#263238"/>
<path d="M236.655 177.039C236.57 176.882 236.498 176.718 236.439 176.549L235.889 175.11C235.405 173.867 234.719 172.062 233.797 169.878C231.466 164.121 228.695 158.553 225.51 153.221C223.742 150.29 221.748 147.502 219.546 144.882C217.682 142.818 215.609 140.952 213.359 139.317C211.436 137.911 209.801 136.884 208.67 136.184L207.362 135.386C207.203 135.302 207.052 135.204 206.911 135.092C207.078 135.158 207.24 135.236 207.395 135.327C207.709 135.491 208.16 135.739 208.742 136.073C209.899 136.727 211.561 137.734 213.51 139.127C215.802 140.749 217.914 142.612 219.808 144.686C222.027 147.308 224.03 150.105 225.798 153.051C228.997 158.397 231.747 163.999 234.019 169.8C234.915 172.017 235.562 173.835 236.014 175.09C236.216 175.705 236.386 176.189 236.504 176.549C236.57 176.707 236.62 176.871 236.655 177.039Z" fill="#455A64"/>
<path d="M183.328 209.02C182.465 207.758 182.079 206.312 180.62 206.574C178.848 206.894 175.473 209.288 173.217 210.57C172.772 211.165 174.015 212.251 174.231 212.682C174.446 213.114 174.283 212.905 174.643 213.192C175.951 214.232 177.311 215.266 178.933 215.566C179.793 215.736 180.684 215.644 181.491 215.301C182.298 214.958 182.984 214.381 183.459 213.644C183.86 212.934 184.06 212.128 184.037 211.314C184.014 210.499 183.769 209.706 183.328 209.02Z" fill="#FF9A6C"/>
<path d="M179.22 215.572C179.22 215.514 179.541 215.605 180.071 215.572C180.814 215.51 181.518 215.209 182.078 214.716C182.477 214.346 182.794 213.896 183.008 213.396C183.222 212.896 183.329 212.356 183.321 211.812C183.303 210.454 182.815 209.144 181.941 208.104C181.496 207.574 180.953 206.881 180.535 206.92C180.241 206.977 179.963 207.095 179.717 207.267L178.835 207.751C177.683 208.405 176.644 208.947 175.767 209.412C174.008 210.34 172.903 210.87 172.857 210.792C172.811 210.713 173.831 210.027 175.525 208.993C176.375 208.477 177.389 207.868 178.521 207.208L179.39 206.698C179.721 206.464 180.102 206.312 180.502 206.253C180.73 206.257 180.954 206.31 181.161 206.407C181.367 206.504 181.55 206.643 181.699 206.815C181.975 207.09 182.235 207.38 182.477 207.685C183.445 208.851 183.967 210.323 183.949 211.838C183.942 212.464 183.798 213.081 183.528 213.646C183.258 214.21 182.868 214.71 182.386 215.108C181.73 215.63 180.908 215.898 180.071 215.86C179.489 215.788 179.207 215.605 179.22 215.572Z" fill="#263238"/>
<path d="M81.2317 268.232C80.9439 269.227 57.4719 311.926 52.1745 331.572C48.9895 343.344 50.8665 359.413 56.2227 362.507C65.5815 367.895 74.7898 361.722 80.7281 356.653C86.6664 351.585 102.65 275.832 102.65 275.832L81.2317 268.232Z" fill="#FFBF9D"/>
<path d="M138.921 268.86C134.143 269.854 129.633 271.861 125.697 274.746C119.438 279.436 94.5341 309.232 94.5341 309.232L79.9826 317.917L70.0811 363.422C70.0811 363.422 79.9957 359.57 100.119 345.405C111.311 337.497 122.098 329.033 132.44 320.042L138.921 268.86Z" fill="#FFBF9D"/>
<path d="M101.734 281.019C101.742 281.088 101.742 281.158 101.734 281.228C101.734 281.385 101.656 281.581 101.604 281.83C101.479 282.379 101.303 283.138 101.074 284.138C100.597 286.166 99.9033 289.05 99.0596 292.64C97.3461 299.788 94.9133 309.644 92.5196 320.605C91.3228 326.086 90.2699 331.324 89.3935 336.105C88.9553 338.492 88.5956 340.781 88.0855 342.887C87.6006 344.836 86.9665 346.745 86.1889 348.596C85.109 351.309 83.5838 353.822 81.6763 356.032C81.3428 356.425 81.0223 356.739 80.7345 357.026C80.5027 357.258 80.2581 357.476 80.0021 357.68L79.5312 358.086L79.3677 358.21C79.4117 358.156 79.4598 358.106 79.5116 358.06L79.9563 357.635C80.1525 357.452 80.3945 357.223 80.6626 356.928C80.9307 356.634 81.2577 356.32 81.5717 355.915C83.4332 353.693 84.9179 351.181 85.9665 348.479C86.7056 346.623 87.3046 344.714 87.7585 342.769C88.2686 340.67 88.6218 338.394 89.0665 335.994C89.9298 331.213 90.9696 325.968 92.1665 320.481C94.5666 309.52 97.0322 299.664 98.8046 292.529C99.694 288.978 100.42 286.1 100.924 284.086C101.179 283.105 101.375 282.333 101.519 281.79L101.676 281.195C101.689 281.134 101.709 281.075 101.734 281.019Z" fill="#FF9A6C"/>
<path d="M144.591 257.448L137.744 320.291L149.077 376.064L141.883 401.969H264.567L248.217 371.349C248.217 371.349 250.088 343.135 250.788 333.613C252.468 310.723 252.396 256.186 252.396 256.186L218.107 248.188C200.449 262.667 185.865 266.179 172.765 250.947C172.765 250.947 147.639 255.382 144.591 257.448Z" fill="#CC1728"/>
<path d="M98.2686 298.834L117.581 343.109L143.205 320.291L147.279 256.441L142.564 257.9C136.495 259.116 129.687 263.655 123.147 271.019L98.2686 298.834Z" fill="#CC1728"/>
<path d="M146.501 361.807C142.113 352.226 137.731 343.998 137.548 333.462C137.299 319.31 141.701 314.117 140.68 297.8" fill="#CC1728"/>
<path d="M140.68 297.8C140.687 297.856 140.687 297.913 140.68 297.97C140.68 298.101 140.68 298.264 140.72 298.467C140.72 298.931 140.785 299.572 140.837 300.383C140.89 301.194 140.876 302.24 140.896 303.424C140.916 304.608 140.857 305.962 140.739 307.453C140.621 308.944 140.458 310.566 140.216 312.306C139.974 314.045 139.64 315.889 139.281 317.825C138.921 319.761 138.542 321.795 138.26 323.914C137.964 326.101 137.781 328.301 137.711 330.506C137.63 332.71 137.702 334.918 137.927 337.112C138.163 339.153 138.543 341.174 139.065 343.161C139.989 346.514 141.16 349.793 142.57 352.971C143.754 355.705 144.768 357.889 145.448 359.413C145.781 360.152 146.037 360.721 146.226 361.166L146.422 361.624C146.447 361.676 146.465 361.731 146.475 361.787C146.475 361.787 146.442 361.741 146.39 361.643C146.337 361.545 146.252 361.375 146.167 361.192L145.33 359.465C144.611 357.961 143.564 355.79 142.348 353.069C140.901 349.883 139.701 346.59 138.758 343.22C138.226 341.221 137.837 339.186 137.593 337.131C137.364 334.92 137.289 332.695 137.371 330.474C137.439 328.257 137.626 326.045 137.933 323.849C138.221 321.717 138.587 319.683 138.973 317.747C139.359 315.811 139.673 313.973 139.941 312.247C140.209 310.52 140.393 308.898 140.497 307.414C140.602 305.929 140.654 304.582 140.706 303.405C140.759 302.227 140.706 301.201 140.706 300.37C140.706 299.539 140.667 298.918 140.654 298.454C140.654 298.251 140.654 298.088 140.654 297.95C140.655 297.899 140.664 297.848 140.68 297.8Z" fill="#263238"/>
<path d="M215.308 354.829C215.157 354.903 214.999 354.962 214.837 355.005C214.523 355.104 214.072 355.287 213.464 355.437C211.764 355.908 210.023 356.217 208.264 356.359C203.74 356.781 199.179 356.158 194.933 354.54C190.687 352.922 186.869 350.352 183.772 347.027C181.978 345.112 180.439 342.973 179.194 340.663C178.351 339.112 177.655 337.485 177.114 335.804C176.905 335.215 176.814 334.738 176.722 334.418C176.669 334.26 176.631 334.098 176.611 333.934C176.686 334.084 176.745 334.242 176.787 334.404C176.899 334.712 177.016 335.183 177.239 335.758C178.698 339.874 181.001 343.638 184.001 346.811C188.385 351.489 194.172 354.614 200.488 355.712C204.783 356.485 209.193 356.347 213.431 355.306C214.039 355.176 214.497 355.019 214.818 354.94C214.979 354.894 215.143 354.857 215.308 354.829Z" fill="#263238"/>
<path d="M291.663 325.458C291.663 325.458 271.467 257.442 249.153 255.401C220.887 252.785 248.217 339.061 248.217 339.061L291.663 325.458Z" fill="#CC1728"/>
<path d="M291.662 325.458L291.44 325.543L290.786 325.766L288.255 326.583L278.857 329.578L247.053 339.598L246.896 339.65L246.844 339.486C246.007 336.923 245.143 334.254 244.319 331.468C239.898 316.871 237.256 303.255 236.314 293.294C235.831 288.324 235.732 284.276 235.732 281.477C235.732 280.084 235.798 278.998 235.817 278.266L235.857 277.428C235.857 277.239 235.857 277.141 235.857 277.141C235.867 277.236 235.867 277.333 235.857 277.428V278.266C235.857 278.998 235.817 280.084 235.857 281.477C235.902 284.269 236.033 288.311 236.55 293.249C237.544 303.176 240.219 316.76 244.64 331.344C245.457 334.104 246.321 336.792 247.158 339.356L246.949 339.251L278.779 329.343L288.216 326.472L290.76 325.7L291.414 325.51L291.662 325.458Z" fill="#263238"/>
<path d="M249.663 338.818L258.636 368.608C258.636 368.608 217.963 376.515 202.797 379.988C187.631 383.46 187.049 396.946 187.049 396.946L203.85 401.942C203.85 401.942 280.656 405.258 287.268 401.942C300.76 395.174 290.204 344.142 287.745 333.926C286.915 330.467 286.208 327.295 286.208 327.295L249.663 338.818Z" fill="#FFBF9D"/>
<path d="M271.866 380.322C271.801 380.322 271.5 379.335 270.708 377.837C270.241 376.964 269.703 376.13 269.1 375.345C268.356 374.401 267.529 373.525 266.627 372.729C265.708 371.94 264.719 371.238 263.671 370.63C262.815 370.136 261.918 369.716 260.99 369.374C259.401 368.792 258.374 368.622 258.374 368.557C258.623 368.556 258.871 368.585 259.113 368.642C259.4 368.687 259.683 368.748 259.963 368.825C260.34 368.911 260.711 369.018 261.075 369.145C262.03 369.463 262.954 369.868 263.835 370.355C264.909 370.96 265.921 371.67 266.856 372.474C267.777 373.294 268.616 374.2 269.361 375.182C269.959 375.989 270.483 376.849 270.924 377.752C271.102 378.096 271.259 378.449 271.395 378.811C271.512 379.077 271.61 379.35 271.689 379.629C271.772 379.853 271.831 380.086 271.866 380.322Z" fill="#FF9A6C"/>
<path d="M155.873 385.037L160.385 382.905L158.724 384.965C158.724 384.965 156.54 387.281 157.213 389.838C157.887 392.395 162.576 392.944 162.576 392.944C162.393 394.731 162.873 396.523 163.923 397.98C165.565 400.171 171.83 398.569 171.83 398.569L170.967 400.439C169.908 402.44 172.465 404.912 173.648 405.213C174.832 405.514 179.43 404.219 181.496 402.859C183.563 401.499 191.189 402.113 191.189 402.113C191.189 402.113 200.724 405.154 204.779 403.702C208.834 402.251 210.011 399.295 210.011 399.295C210.011 399.295 209.357 381.447 203.471 378.609C200.495 377.163 183.158 370.519 177.965 368.308C176.224 367.564 174.262 367.522 172.491 368.19C166.886 370.309 156.703 374.547 154.179 376.49C154.179 376.49 149.725 379.289 150.615 381.957C151.131 383.494 152.557 385.698 155.873 385.037Z" fill="#FFBF9D"/>
<path d="M168.999 376.894C169.071 376.993 167.037 378.569 164.486 380.413C161.935 382.257 159.784 383.683 159.718 383.585C159.653 383.487 161.68 381.911 164.231 380.066C166.782 378.222 168.933 376.796 168.999 376.894Z" fill="#FF9A6C"/>
<path d="M173.596 386.757C173.649 386.875 171.052 388.019 168.024 389.752C164.996 391.485 162.629 393.061 162.55 392.944C162.99 392.502 163.482 392.116 164.015 391.793C164.957 391.139 166.285 390.249 167.808 389.373C169.112 388.629 170.457 387.961 171.837 387.372C172.395 387.092 172.986 386.885 173.596 386.757Z" fill="#FF9A6C"/>
<path d="M180.031 393.945C180.09 394.049 178.168 395.253 175.741 396.561C173.315 397.869 171.294 398.928 171.235 398.823C171.176 398.719 173.099 397.515 175.525 396.207C177.952 394.899 179.973 393.84 180.031 393.945Z" fill="#FF9A6C"/>
<path d="M87.4775 240.444C88.8902 235.16 90.3094 229.731 89.7273 224.297C89.6096 223.152 89.4265 221.883 90.087 220.942C90.8587 219.849 92.5199 219.712 93.6971 220.34C94.8375 221.055 95.7161 222.119 96.2019 223.375C97.211 225.609 97.7027 228.041 97.6404 230.492C97.5782 232.942 96.9635 235.347 95.8422 237.527" fill="#FF9A6C"/>
<path d="M155.794 244.845V281.888C155.783 282.019 155.8 282.15 155.842 282.274C155.885 282.398 155.953 282.512 156.042 282.609C156.13 282.705 156.238 282.782 156.358 282.835C156.478 282.888 156.608 282.915 156.739 282.915C156.87 282.915 157 282.888 157.12 282.835C157.24 282.782 157.348 282.705 157.437 282.609C157.526 282.512 157.594 282.398 157.636 282.274C157.679 282.15 157.695 282.019 157.684 281.888V244.845C157.695 244.715 157.679 244.583 157.636 244.459C157.594 244.335 157.526 244.221 157.437 244.125C157.348 244.028 157.24 243.951 157.12 243.898C157 243.846 156.87 243.818 156.739 243.818C156.608 243.818 156.478 243.846 156.358 243.898C156.238 243.951 156.13 244.028 156.042 244.125C155.953 244.221 155.885 244.335 155.842 244.459C155.8 244.583 155.783 244.715 155.794 244.845Z" fill="#FACD8A"/>
<path d="M122.061 233.59C122.061 233.59 131.505 235.598 134.866 237.239C138.228 238.881 142.296 241.078 146.213 241.542C150.131 242.007 162.563 236.382 162.563 236.382V237.082L157.632 239.666L153.172 241.575L158.731 239.822L158.495 240.686C158.495 240.686 152.237 244.204 148.404 244.989C144.572 245.774 137.607 245.453 135.259 241.621C132.911 237.789 124.415 236.225 121.217 235.964L122.061 233.59Z" fill="#E0E0E0"/>
<path d="M158.201 236.206C159.391 235.31 160.98 238.352 161.405 239.13C162.756 241.589 163.381 244.381 163.208 247.181C163.036 249.981 162.073 252.675 160.431 254.95C159.731 255.931 161.163 257.154 161.876 256.167C163.243 254.287 164.208 252.145 164.708 249.875C165.209 247.605 165.236 245.256 164.787 242.975C164.349 240.844 163.51 238.815 162.314 236.998C161.242 235.376 159.201 233.074 157.082 234.663C156.114 235.395 157.2 236.945 158.168 236.206H158.201Z" fill="#FACD8A"/>
<path d="M155.278 236.579C154.656 235.513 154.571 233.145 154.624 231.909C154.702 230.901 155.119 229.949 155.808 229.208C156.494 228.468 157.265 227.809 158.103 227.246C158.747 227.977 159.195 228.86 159.402 229.812C159.61 230.764 159.571 231.753 159.289 232.685C159.008 233.618 158.493 234.463 157.793 235.141C157.093 235.819 156.232 236.307 155.291 236.559" fill="#455A64"/>
<path d="M157.481 229.928C157.26 230.944 156.971 231.945 156.618 232.923C156.375 233.937 156.065 234.933 155.689 235.905C155.887 233.814 156.496 231.783 157.481 229.928Z" fill="#263238"/>
<path d="M149.529 239.548C149.542 238.776 149.743 238.019 150.114 237.342C150.486 236.665 151.017 236.089 151.661 235.663C153.106 234.813 155.199 235.251 156.52 236.115C157.829 237.069 158.798 238.416 159.287 239.96C159.862 241.589 160.242 243.609 159.169 245.127C158.964 245.449 158.683 245.716 158.352 245.905C158.02 246.094 157.647 246.2 157.266 246.212C156.921 246.216 156.583 246.114 156.297 245.92C156.012 245.726 155.793 245.449 155.67 245.127C155.31 243.969 153.492 244.473 153.852 245.63C154.031 246.131 154.317 246.588 154.689 246.968C155.061 247.349 155.51 247.644 156.007 247.835C156.504 248.026 157.036 248.107 157.567 248.073C158.098 248.039 158.616 247.891 159.084 247.638C161.347 246.474 161.942 243.714 161.582 241.425C161.25 239.078 160.146 236.908 158.443 235.258C157.536 234.426 156.431 233.841 155.233 233.558C154.036 233.275 152.785 233.304 151.602 233.642C149.169 234.395 147.678 237.122 147.613 239.528C147.613 240.745 149.477 240.745 149.503 239.528L149.529 239.548Z" fill="#FACD8A"/>
<path d="M152.289 237.344C152.289 237.436 152.289 237.443 152.289 237.344C152.289 237.416 152.289 237.423 152.289 237.344C152.335 237.293 152.386 237.245 152.439 237.201C152.59 237.098 152.75 237.008 152.917 236.932C153.222 236.767 153.576 236.713 153.917 236.782C154.396 236.879 154.854 237.058 155.271 237.312C155.68 237.592 156.024 237.958 156.278 238.384C156.987 239.389 157.522 240.505 157.861 241.687C157.945 241.912 157.979 242.152 157.961 242.392C157.943 242.631 157.873 242.864 157.756 243.073C157.661 243.165 157.55 243.238 157.429 243.289C157.379 243.299 157.328 243.299 157.279 243.289C157.059 243.164 156.8 243.13 156.556 243.193C156.311 243.257 156.101 243.413 155.971 243.629C155.905 243.737 155.861 243.856 155.843 243.981C155.824 244.105 155.83 244.232 155.861 244.354C155.892 244.476 155.948 244.59 156.024 244.69C156.1 244.791 156.195 244.875 156.304 244.937C156.594 245.072 156.907 245.148 157.225 245.161C157.544 245.174 157.862 245.124 158.162 245.014C158.461 244.904 158.736 244.736 158.971 244.52C159.205 244.304 159.395 244.043 159.528 243.754C160.182 242.348 159.6 240.784 159.012 239.47C158.518 238.213 157.764 237.075 156.801 236.128C155.844 235.297 154.609 234.853 153.342 234.885C152.034 235.003 150.444 235.925 150.359 237.358C150.361 237.607 150.461 237.845 150.637 238.022C150.813 238.198 151.052 238.298 151.301 238.299C151.549 238.294 151.786 238.193 151.962 238.018C152.137 237.842 152.238 237.606 152.243 237.358L152.289 237.344Z" fill="#FACD8A"/>
<path d="M150.17 239.77L150.359 239.685C150.235 239.738 150.215 239.744 150.301 239.718C150.386 239.692 150.529 239.64 150.647 239.62C150.765 239.6 151 239.62 150.719 239.62C150.824 239.62 150.922 239.62 151.026 239.62H151.445C151.216 239.62 151.406 239.62 151.517 239.62C151.724 239.663 151.927 239.722 152.125 239.797C151.844 239.698 152.243 239.855 152.302 239.888C152.361 239.921 152.485 239.993 152.57 240.045L152.825 240.222C152.603 240.058 152.825 240.222 152.897 240.287C153.076 240.45 153.244 240.625 153.4 240.81C153.4 240.843 153.61 241.111 153.459 240.882L153.669 241.176C153.786 241.373 153.904 241.569 154.002 241.772C154.054 241.863 154.094 241.955 154.139 242.053C154.185 242.151 154.198 242.177 154.139 242.053L154.198 242.197C154.287 242.423 154.364 242.655 154.427 242.89C154.427 243.001 154.486 243.119 154.512 243.237C154.538 243.354 154.545 243.394 154.512 243.237C154.512 243.295 154.512 243.354 154.512 243.413C154.522 243.55 154.522 243.688 154.512 243.825C154.512 243.596 154.473 243.877 154.46 243.949C154.519 243.707 154.46 243.949 154.421 244.002C154.329 244.211 154.578 243.858 154.362 244.074C154.146 244.289 154.499 244.008 154.29 244.126C154.081 244.244 154.519 244.126 154.29 244.126C154.061 244.126 154.538 244.126 154.29 244.126C154.146 244.126 154.172 244.126 154.362 244.126C154.306 244.115 154.251 244.097 154.198 244.074C153.877 243.985 153.533 244.028 153.242 244.192C152.952 244.356 152.738 244.629 152.648 244.95C152.549 245.277 152.582 245.63 152.74 245.933C152.897 246.236 153.167 246.465 153.492 246.572C154.069 246.738 154.685 246.707 155.242 246.484C155.8 246.261 156.268 245.86 156.572 245.342C157.226 244.316 157.096 242.936 156.71 241.83C156.056 239.816 154.663 237.998 152.576 237.318C151.354 236.925 150.026 237.03 148.881 237.612C148.593 237.78 148.384 238.056 148.299 238.379C148.215 238.701 148.262 239.044 148.43 239.332C148.598 239.62 148.874 239.829 149.197 239.914C149.519 239.999 149.862 239.952 150.15 239.783L150.17 239.77Z" fill="#FACD8A"/>
<path d="M149.353 247.383V265.695C149.353 265.945 149.452 266.184 149.628 266.361C149.805 266.538 150.045 266.637 150.294 266.637C150.544 266.637 150.784 266.538 150.96 266.361C151.137 266.184 151.236 265.945 151.236 265.695V247.383C151.236 247.133 151.137 246.894 150.96 246.717C150.784 246.541 150.544 246.441 150.294 246.441C150.045 246.441 149.805 246.541 149.628 246.717C149.452 246.894 149.353 247.133 149.353 247.383Z" fill="#FACD8A"/>
<path d="M148.339 247.304C150.013 250.359 153.1 253.844 156.939 252.746C160.366 251.771 162.046 247.775 162.301 244.309C162.389 241.925 162.129 239.542 161.53 237.233C161.275 236.088 159.627 236.579 159.882 237.717C160.738 241.556 161.405 246.422 158.574 249.58C158.044 250.269 157.296 250.757 156.452 250.964C155.608 251.171 154.718 251.084 153.93 250.718C152.112 249.875 150.915 248.05 149.804 246.382C149.15 245.434 147.691 246.343 148.332 247.304H148.339Z" fill="#FACD8A"/>
<path d="M147.606 241.713C147.528 241.916 147.645 241.667 147.678 241.608L147.776 241.497C147.822 241.451 148.031 241.288 147.868 241.406C147.97 241.331 148.077 241.263 148.188 241.203L148.326 241.138C148.142 241.203 148.293 241.138 148.326 241.138L148.62 241.046L148.914 240.987C148.692 241.026 148.986 240.987 149.065 240.987H149.339C149.575 240.987 149.195 240.941 149.418 240.987C149.418 240.987 149.712 241.085 149.562 241.026C149.411 240.967 149.601 241.026 149.64 241.066L149.869 241.183C150.354 241.434 150.795 241.761 151.177 242.151C151.544 242.53 151.837 242.973 152.04 243.459C152.143 243.697 152.213 243.948 152.25 244.205C152.25 244.074 152.25 244.244 152.25 244.257V244.466C152.249 244.587 152.227 244.707 152.184 244.82C152.184 244.82 152.125 244.983 152.184 244.872C152.159 244.935 152.126 244.994 152.086 245.048C152.086 245.048 151.981 245.186 152.086 245.101L151.949 245.238C151.949 245.238 151.811 245.343 151.91 245.238L151.746 245.343L151.569 245.434C151.681 245.382 151.511 245.434 151.478 245.434C151.347 245.474 151.223 245.513 151.092 245.539L150.896 245.578C150.732 245.624 151.079 245.578 150.955 245.578C150.83 245.578 150.562 245.578 150.366 245.578H150.209C150.445 245.578 150.176 245.578 150.144 245.578L149.784 245.5C149.527 245.437 149.276 245.354 149.032 245.251C149.215 245.33 148.901 245.186 148.855 245.16C148.81 245.133 148.666 245.042 148.568 244.983L148.417 244.846C148.387 244.817 148.359 244.786 148.332 244.754C148.411 244.865 148.417 244.839 148.332 244.754C148.206 244.538 147.998 244.381 147.756 244.318C147.514 244.255 147.256 244.291 147.04 244.417C146.825 244.544 146.668 244.751 146.605 244.993C146.541 245.236 146.577 245.493 146.704 245.709C147.325 246.755 148.711 247.246 149.856 247.416C151.275 247.625 152.91 247.252 153.721 245.958C154.689 244.408 153.898 242.426 152.871 241.131C152.395 240.556 151.821 240.069 151.177 239.692C150.615 239.322 149.97 239.097 149.3 239.038C148.574 238.981 147.849 239.152 147.225 239.527C146.601 239.902 146.11 240.463 145.821 241.131C145.756 241.372 145.788 241.629 145.91 241.846C146.033 242.064 146.235 242.225 146.475 242.295C146.715 242.355 146.968 242.32 147.184 242.198C147.399 242.077 147.559 241.877 147.632 241.641L147.606 241.713Z" fill="#FACD8A"/>
<path d="M147.894 246.913C147.894 246.873 148.378 247.076 149.235 247.266C149.743 247.38 150.264 247.429 150.785 247.41C151.445 247.408 152.092 247.224 152.655 246.88C153.819 246.278 154.434 244.486 153.793 242.956C153.312 241.816 152.524 240.831 151.517 240.111C150.727 239.485 149.745 239.152 148.738 239.169C148.063 239.186 147.411 239.414 146.874 239.823C146.494 240.118 146.364 240.366 146.331 240.346C146.298 240.327 146.331 240.281 146.416 240.163C146.521 240 146.646 239.85 146.789 239.719C147.333 239.235 148.024 238.948 148.751 238.901C149.821 238.853 150.874 239.182 151.726 239.83C152.796 240.572 153.631 241.604 154.133 242.805C154.826 244.46 154.133 246.448 152.825 247.109C152.209 247.482 151.498 247.67 150.778 247.652C150.239 247.65 149.702 247.575 149.182 247.429C148.85 247.337 148.524 247.221 148.208 247.083C147.999 246.991 147.887 246.932 147.894 246.913Z" fill="#F6AD5F"/>
<path d="M153.453 246.514C153.702 246.548 153.953 246.566 154.205 246.566C154.882 246.525 155.521 246.239 156.003 245.762C156.34 245.394 156.596 244.961 156.757 244.489C156.918 244.018 156.98 243.518 156.939 243.021C156.807 241.797 156.279 240.648 155.434 239.751C155.004 239.276 154.534 238.838 154.028 238.443C153.574 238.063 153.056 237.766 152.498 237.567C151.573 237.156 150.53 237.102 149.568 237.417C148.921 237.628 148.368 238.058 148.005 238.633C147.75 239.045 147.684 239.287 147.652 239.287C147.619 239.287 147.652 239.222 147.684 239.091C147.729 238.904 147.797 238.724 147.887 238.555C148.233 237.916 148.801 237.425 149.483 237.175C150.495 236.8 151.61 236.818 152.609 237.227C153.203 237.43 153.755 237.74 154.238 238.143C154.764 238.55 155.252 239.006 155.696 239.503C156.589 240.461 157.137 241.69 157.252 242.995C157.291 243.533 157.214 244.072 157.027 244.578C156.839 245.083 156.546 245.542 156.167 245.925C155.637 246.426 154.933 246.7 154.205 246.69C154.012 246.687 153.82 246.656 153.636 246.599C153.492 246.573 153.446 246.52 153.453 246.514Z" fill="#F6AD5F"/>
<path d="M156.801 245.127C157.048 245.161 157.299 245.161 157.547 245.127C158.21 244.992 158.802 244.623 159.214 244.087C159.501 243.734 159.656 243.292 159.653 242.838C159.646 242.296 159.585 241.757 159.47 241.229C159.347 240.645 159.16 240.077 158.914 239.535C158.671 238.943 158.369 238.378 158.011 237.848C157.821 237.586 157.606 237.331 157.403 237.076C157.206 236.824 156.987 236.59 156.749 236.376C156.322 235.97 155.823 235.648 155.277 235.428C154.344 235.048 153.309 234.995 152.341 235.277C151.97 235.373 151.618 235.532 151.301 235.748C151.066 235.922 150.872 236.145 150.732 236.402C150.604 236.614 150.521 236.85 150.49 237.095C150.49 237.095 150.379 236.801 150.614 236.337C150.749 236.056 150.946 235.81 151.19 235.617C151.515 235.369 151.883 235.183 152.276 235.068C153.292 234.738 154.391 234.768 155.389 235.153C155.976 235.381 156.513 235.721 156.971 236.154C157.212 236.376 157.431 236.621 157.625 236.886C157.828 237.135 158.044 237.39 158.279 237.664C158.654 238.215 158.968 238.805 159.214 239.424C159.466 239.99 159.654 240.582 159.777 241.189C159.883 241.741 159.934 242.302 159.927 242.864C159.917 243.376 159.727 243.869 159.391 244.257C158.936 244.823 158.28 245.19 157.56 245.283C157.365 245.303 157.167 245.288 156.978 245.238C156.86 245.166 156.801 245.14 156.801 245.127Z" fill="#F6AD5F"/>
<path d="M154.382 246.677C154.382 246.677 154.558 246.913 154.964 247.24C155.536 247.703 156.232 247.985 156.965 248.051C157.502 248.072 158.037 247.98 158.535 247.779C159.034 247.578 159.484 247.274 159.856 246.887C160.785 245.93 161.35 244.678 161.451 243.348C161.579 242.023 161.423 240.685 160.994 239.424C160.633 238.389 160.11 237.418 159.444 236.547C158.802 235.759 158.079 235.042 157.285 234.408C157.285 234.408 157.357 234.408 157.475 234.5C157.655 234.6 157.828 234.714 157.992 234.84C158.606 235.284 159.158 235.807 159.633 236.396C160.347 237.27 160.906 238.258 161.288 239.32C161.758 240.63 161.93 242.029 161.792 243.414C161.679 244.821 161.069 246.143 160.072 247.142C159.668 247.555 159.178 247.875 158.636 248.077C158.095 248.28 157.515 248.36 156.939 248.312C156.168 248.227 155.445 247.894 154.879 247.364C154.728 247.223 154.594 247.065 154.48 246.893C154.401 246.749 154.369 246.684 154.382 246.677Z" fill="#F6AD5F"/>
<path d="M159.777 242.7C159.823 242.7 159.921 243.047 159.908 243.629C159.912 244.02 159.836 244.408 159.685 244.769C159.535 245.13 159.312 245.456 159.031 245.728C158.731 245.984 158.377 246.169 157.995 246.268C157.614 246.368 157.214 246.38 156.827 246.304C156.239 246.166 155.971 245.885 155.997 245.859C156.023 245.833 156.33 246.003 156.867 246.062C157.216 246.101 157.571 246.069 157.908 245.967C158.245 245.866 158.558 245.698 158.829 245.473C159.328 244.974 159.632 244.313 159.685 243.609C159.687 243.304 159.718 243 159.777 242.7Z" fill="#F6AD5F"/>
<path d="M158.364 234.493C158.474 234.524 158.579 234.568 158.678 234.624C158.966 234.77 159.24 234.943 159.496 235.141C160.434 235.889 161.168 236.863 161.628 237.972C162.97 241.717 162.777 245.84 161.092 249.444C159.941 251.458 157.9 252.877 155.86 252.962C154.898 253 153.941 252.81 153.067 252.406C152.309 252.071 151.611 251.613 151 251.052C150.167 250.202 149.45 249.246 148.868 248.208C148.679 247.867 148.522 247.593 148.391 247.37C148.328 247.276 148.279 247.172 148.247 247.063C148.321 247.147 148.389 247.237 148.45 247.331L148.986 248.136C149.6 249.131 150.329 250.051 151.157 250.876C151.761 251.403 152.443 251.833 153.178 252.151C154.016 252.519 154.926 252.689 155.84 252.648C156.881 252.534 157.878 252.167 158.745 251.579C159.611 250.99 160.32 250.199 160.81 249.274C161.786 247.386 162.27 245.283 162.217 243.159C162.293 241.425 162.017 239.694 161.406 238.071C160.987 236.985 160.314 236.017 159.444 235.245C158.776 234.716 158.345 234.526 158.364 234.493Z" fill="#F6AD5F"/>
<path d="M160.13 246.833C160.139 247.008 160.11 247.182 160.045 247.344C159.918 247.798 159.74 248.237 159.515 248.652C159.187 249.277 158.743 249.834 158.207 250.293C157.516 250.851 156.656 251.157 155.768 251.163C154.891 251.162 154.029 250.936 153.263 250.509C152.638 250.181 152.081 249.737 151.621 249.201C151.31 248.847 151.058 248.445 150.876 248.011C150.794 247.855 150.749 247.683 150.745 247.507C151.032 248.063 151.383 248.583 151.792 249.057C152.297 249.604 152.909 250.042 153.589 250.346C154.269 250.649 155.003 250.812 155.748 250.823C156.562 250.819 157.353 250.548 157.998 250.051C158.519 249.623 158.962 249.107 159.306 248.527C159.908 247.533 160.071 246.814 160.13 246.833Z" fill="#F6AD5F"/>
<path d="M143.31 240.922C144.891 241.532 146.609 241.704 148.28 241.419L149.542 244.689C148.335 245.16 147.045 245.382 145.749 245.343C143.447 245.297 143.31 240.922 143.31 240.922Z" fill="#E0E0E0"/>
<path d="M150.941 242.034C150.858 242.08 150.767 242.113 150.673 242.132C150.49 242.184 150.222 242.243 149.875 242.308C148.889 242.484 147.886 242.542 146.887 242.478C145.405 242.38 143.94 242.103 142.524 241.654C140.796 241.106 139.125 240.392 137.534 239.522C134.696 237.902 131.678 236.618 128.542 235.696C127.587 235.439 126.614 235.251 125.632 235.134C125.268 235.114 124.905 235.072 124.546 235.01C124.641 234.997 124.738 234.997 124.834 235.01C125.104 234.994 125.375 234.994 125.645 235.01C126.641 235.075 127.631 235.228 128.601 235.467C131.778 236.33 134.833 237.593 137.691 239.228C140.524 240.853 143.661 241.879 146.906 242.243C147.889 242.325 148.877 242.306 149.856 242.184C150.549 242.092 150.935 241.994 150.941 242.034Z" fill="#263238"/>
<path d="M77.5102 223.237C77.5959 222.861 77.7561 222.506 77.9814 222.193C78.2066 221.88 78.4923 221.616 78.8215 221.415C79.1508 221.215 79.5169 221.082 79.8983 221.025C80.2796 220.969 80.6685 220.989 81.0418 221.085L122.329 232.655C122.924 232.822 123.431 233.214 123.741 233.749C124.052 234.284 124.141 234.919 123.99 235.519C123.914 235.822 123.778 236.108 123.592 236.358C123.405 236.609 123.171 236.821 122.902 236.981C122.634 237.142 122.336 237.247 122.027 237.293C121.718 237.338 121.402 237.322 121.099 237.246L79.6357 226.671C78.9025 226.49 78.2692 226.03 77.8718 225.388C77.4744 224.746 77.3446 223.974 77.5102 223.237Z" fill="#CC1728"/>
<path d="M98.5563 220.413C98.5563 220.413 85.0185 222.669 83.148 227.607C80.9898 233.329 79.2633 241.864 79.2633 241.864C79.1971 243.379 79.2255 244.897 79.3483 246.409C79.551 249.614 81.2318 268.213 81.2318 268.213L102.245 277.729C103.588 274.963 104.45 271.988 104.795 268.933C105.201 264.355 106.705 255.572 106.705 255.572C106.705 255.572 112.591 255.055 114.05 250.196C114.972 247.03 113.467 245.618 113.467 245.618C113.467 245.618 115.292 241.694 112.715 238.528C112.929 237.777 112.93 236.982 112.719 236.23C112.507 235.479 112.092 234.801 111.519 234.271C111.002 233.761 108.451 232.577 105.875 231.295C103.075 229.896 99.5896 229.333 97.294 231.007C94.9985 232.682 89.3545 237.417 89.3545 237.417L90.1 230.877C90.1 230.877 101.355 226.299 102.153 224.578C103.232 222.335 100.924 219.863 98.5563 220.413Z" fill="#FFBF9D"/>
<path d="M106.489 231.641C106.489 231.641 106.142 231.484 105.521 231.216C104.654 230.819 103.749 230.51 102.82 230.294C102.176 230.146 101.518 230.067 100.858 230.059C100.119 230.033 99.3845 230.181 98.7129 230.49C97.2317 231.388 95.7976 232.362 94.4161 233.407C93.6967 233.969 93.0493 234.604 92.3822 235.173C91.7151 235.742 91.0742 236.298 90.4202 236.808L87.1109 239.502L84.9397 241.34C84.6815 241.584 84.4012 241.802 84.1025 241.994C84.3191 241.718 84.5598 241.462 84.8219 241.229C85.3255 240.765 86.058 240.111 86.9801 239.319L90.2501 236.566C90.8649 236.049 91.5058 235.5 92.1598 234.924C92.8138 234.349 93.4678 233.714 94.2068 233.139C95.6043 232.08 97.0607 231.102 98.569 230.209C99.2898 229.887 100.076 229.739 100.865 229.777C101.527 229.798 102.186 229.894 102.827 230.065C103.765 230.304 104.673 230.648 105.534 231.092C105.841 231.249 106.064 231.386 106.221 231.478C106.378 231.569 106.495 231.628 106.489 231.641Z" fill="#FF9A6C"/>
<path d="M113.801 240.484C113.645 240.246 113.503 239.999 113.376 239.745C112.899 238.919 112.251 238.205 111.475 237.653C110.698 237.1 109.812 236.72 108.876 236.54C107.505 236.288 106.091 236.417 104.789 236.913C103.487 237.44 102.274 238.163 101.192 239.058C100.171 239.856 99.2951 240.641 98.5234 241.262C97.9121 241.767 97.2676 242.23 96.5941 242.648C96.3602 242.816 96.1051 242.953 95.8354 243.054C96.0519 242.868 96.2813 242.697 96.5222 242.544C96.9669 242.217 97.5947 241.726 98.3403 241.085C99.0858 240.444 99.9491 239.64 100.956 238.816C102.053 237.89 103.289 237.144 104.619 236.605C105.98 236.086 107.46 235.959 108.889 236.239C110.055 236.473 111.137 237.015 112.022 237.809C112.614 238.336 113.099 238.974 113.448 239.686C113.546 239.875 113.629 240.072 113.696 240.274C113.794 240.405 113.814 240.484 113.801 240.484Z" fill="#FF9A6C"/>
<path d="M113.801 246.402C113.652 246.249 113.522 246.077 113.415 245.892C113.101 245.41 112.746 244.955 112.356 244.532C111.793 243.912 111.032 243.507 110.204 243.387C109.724 243.331 109.239 243.427 108.817 243.662C108.35 243.929 107.9 244.226 107.47 244.551C105.632 245.859 103.958 247.004 102.735 247.821C102.12 248.233 101.623 248.56 101.277 248.776C101.105 248.908 100.915 249.015 100.714 249.097C100.855 248.932 101.017 248.789 101.198 248.671C101.525 248.416 102.003 248.057 102.598 247.619C103.782 246.749 105.436 245.558 107.274 244.263C107.716 243.928 108.182 243.624 108.667 243.354C109.151 243.101 109.701 243.001 110.243 243.067C111.138 243.214 111.95 243.679 112.532 244.375C112.917 244.821 113.252 245.308 113.533 245.827C113.648 246.005 113.739 246.199 113.801 246.402Z" fill="#FF9A6C"/>
<path d="M84.6587 252.916C84.2251 252.86 83.8107 252.703 83.4488 252.458C82.5319 251.921 81.7676 251.158 81.2285 250.242C80.6894 249.327 80.3933 248.288 80.3685 247.226C80.3173 246.783 80.3734 246.335 80.532 245.918C80.5908 245.918 80.532 246.415 80.6039 247.226C80.7131 248.225 81.0365 249.189 81.5522 250.051C82.0678 250.921 82.769 251.667 83.6058 252.236C84.2205 252.68 84.6783 252.863 84.6587 252.916Z" fill="#FF9A6C"/>
<path d="M112.624 250.215C112.217 250.637 111.78 251.028 111.316 251.385C110.485 252.092 109.354 253.092 108.209 254.283C107.065 255.473 106.09 256.631 105.417 257.481C105.074 257.964 104.696 258.421 104.285 258.848C104.537 258.309 104.851 257.802 105.22 257.337C106.056 256.182 106.974 255.089 107.967 254.067C108.96 253.037 110.029 252.084 111.165 251.215C111.612 250.828 112.101 250.492 112.624 250.215Z" fill="#FF9A6C"/>
<path d="M114.527 248.462C114.592 248.847 114.554 249.242 114.416 249.606C114.163 250.502 113.77 251.352 113.252 252.124C112.751 252.917 112.097 253.602 111.329 254.139C111.02 254.385 110.638 254.523 110.243 254.531C110.243 254.472 110.655 254.361 111.191 253.943C111.877 253.369 112.468 252.691 112.944 251.935C113.445 251.186 113.856 250.38 114.167 249.535C114.422 248.887 114.475 248.455 114.527 248.462Z" fill="#FF9A6C"/>
<path d="M116.449 372.402C117.103 368.668 119.955 365.81 123.349 364.345C127.613 362.501 132.505 362.873 136.998 363.593C137.261 363.656 137.537 363.617 137.772 363.483C138.006 363.35 138.181 363.131 138.26 362.873C138.329 362.611 138.292 362.332 138.158 362.096C138.023 361.86 137.802 361.686 137.541 361.611C132.485 360.8 127.077 360.447 122.309 362.572C118.496 364.26 115.187 367.641 114.461 371.859C114.239 373.167 116.22 373.704 116.423 372.402H116.449Z" fill="#FACD8A"/>
<path d="M116.449 372.402C116.443 372.612 116.356 372.811 116.207 372.958C116.086 373.051 115.948 373.117 115.8 373.155C115.653 373.192 115.499 373.199 115.348 373.175C115.198 373.151 115.054 373.097 114.925 373.016C114.796 372.935 114.685 372.828 114.599 372.703C114.477 372.529 114.403 372.326 114.383 372.114C114.389 371.894 114.42 371.674 114.474 371.46C114.569 370.969 114.702 370.486 114.873 370.015C115.29 368.865 115.881 367.787 116.626 366.817C118.626 364.304 121.375 362.495 124.474 361.65C127.927 360.617 131.949 360.656 136.017 361.225L137.534 361.448C137.683 361.468 137.825 361.52 137.951 361.6C138.078 361.68 138.185 361.786 138.267 361.912C138.427 362.153 138.503 362.441 138.483 362.729C138.458 363.025 138.32 363.299 138.097 363.495C137.878 363.682 137.6 363.786 137.312 363.789C137.057 363.779 136.804 363.751 136.553 363.704L135.834 363.593C134.003 363.316 132.153 363.176 130.301 363.174C127.157 363.103 124.058 363.936 121.374 365.574C119.579 366.699 118.139 368.309 117.221 370.218C116.909 370.927 116.66 371.662 116.476 372.415C116.467 372.365 116.467 372.315 116.476 372.265L116.548 371.82C116.668 371.252 116.846 370.698 117.077 370.165C117.965 368.199 119.406 366.533 121.224 365.372C123.934 363.676 127.078 362.803 130.275 362.86C132.144 362.85 134.012 362.986 135.86 363.266L136.586 363.37C136.815 363.416 137.047 363.444 137.279 363.455C137.493 363.464 137.702 363.39 137.864 363.25C138.026 363.11 138.128 362.914 138.15 362.701C138.173 362.488 138.114 362.275 137.985 362.104C137.856 361.933 137.667 361.818 137.456 361.781L135.952 361.559C131.91 360.996 127.94 360.957 124.539 361.951C121.504 362.772 118.805 364.527 116.822 366.967C116.082 367.912 115.487 368.961 115.056 370.08C114.882 370.54 114.742 371.012 114.638 371.493C114.58 371.707 114.547 371.926 114.54 372.147C114.549 372.333 114.61 372.512 114.716 372.664C114.81 372.792 114.929 372.9 115.066 372.98C115.204 373.06 115.356 373.11 115.514 373.128C115.63 373.144 115.748 373.136 115.86 373.105C115.973 373.073 116.078 373.019 116.168 372.945C116.304 372.789 116.4 372.603 116.449 372.402Z" fill="#F6AD5F"/>
<path d="M139.17 363.102C142.276 360.238 146.364 358.812 150.288 357.523C152.374 356.869 154.715 356.039 156.913 356.673C157.771 356.978 158.556 357.461 159.215 358.09C159.874 358.718 160.393 359.479 160.738 360.323C161.824 362.605 161.863 365.254 161.955 367.726C162.001 369.034 164.054 369.034 164.008 367.726C163.845 363.213 163.354 357.569 158.776 355.228C156.494 354.044 153.904 354.325 151.51 354.992C149.148 355.655 146.831 356.468 144.572 357.425C142.058 358.434 139.738 359.873 137.718 361.676C136.75 362.579 138.202 364.024 139.17 363.128V363.102Z" fill="#FACD8A"/>
<path d="M105.188 385.514C105.188 385.514 111.669 359.812 148.692 363.782L163.877 365.744C163.877 365.744 170.856 364.102 172.262 367.052C172.262 367.052 175.303 365.417 176.447 368.229C176.447 368.229 179.384 367.771 179.757 370.407C179.757 370.407 182.647 369.701 182.948 373.023C183.68 373.141 184.346 373.517 184.826 374.083C185.306 374.649 185.567 375.368 185.564 376.11C185.564 376.11 187.997 376.404 188.494 378.144C188.991 379.883 188.147 382.323 188.147 382.323" fill="#FACD8A"/>
<path d="M156.239 366.549C156.056 366.565 155.872 366.565 155.689 366.549L154.12 366.451C152.753 366.366 150.778 366.274 148.338 366.261C141.971 366.24 135.618 366.853 129.372 368.092C125.935 368.725 122.593 369.8 119.432 371.291C116.859 372.522 114.543 374.228 112.604 376.32C111.299 377.733 110.234 379.35 109.452 381.107C109.183 381.761 109 382.232 108.889 382.572C108.843 382.749 108.781 382.922 108.706 383.089C108.728 382.907 108.767 382.727 108.824 382.552C108.964 382.046 109.134 381.548 109.334 381.061C110.073 379.263 111.117 377.606 112.421 376.163C114.36 374.02 116.694 372.271 119.294 371.009C122.473 369.483 125.84 368.384 129.307 367.739C135.565 366.492 141.938 365.911 148.319 366.006C150.765 366.045 152.746 366.176 154.107 366.3C154.761 366.353 155.317 366.418 155.676 366.457C155.866 366.472 156.054 366.503 156.239 366.549Z" fill="#F6AD5F"/>
<path d="M159.888 367.66C159.722 367.69 159.553 367.704 159.384 367.7C159.057 367.7 158.573 367.7 157.946 367.732C156.696 367.732 154.891 367.732 152.661 367.732C150.431 367.732 147.769 367.7 144.813 367.896C141.629 368.114 138.468 368.595 135.363 369.335C132.259 370.064 129.273 371.229 126.495 372.794C124.176 373.985 121.971 375.386 119.909 376.98C118.53 378.067 117.325 379.36 116.338 380.812C115.684 381.852 115.39 382.493 115.351 382.473C115.398 382.314 115.464 382.16 115.547 382.016C115.737 381.577 115.955 381.151 116.201 380.74C117.159 379.252 118.349 377.927 119.726 376.816C121.783 375.187 123.99 373.757 126.318 372.546C129.115 370.946 132.128 369.759 135.265 369.021C138.398 368.264 141.59 367.776 144.807 367.562C147.763 367.386 150.431 367.431 152.655 367.471L157.939 367.601H159.378C159.549 367.611 159.719 367.631 159.888 367.66Z" fill="#F6AD5F"/>
<path d="M158.724 369.917C158.589 369.931 158.453 369.931 158.319 369.917L157.161 369.884C156.154 369.852 154.702 369.799 152.91 369.793C148.236 369.688 143.568 370.21 139.032 371.343C136.556 372.017 134.173 372.995 131.936 374.253C130.109 375.278 128.417 376.528 126.9 377.974C125.876 378.948 124.95 380.019 124.134 381.172C123.559 381.996 123.271 382.48 123.245 382.48C123.293 382.355 123.355 382.234 123.428 382.121C123.565 381.892 123.735 381.539 124.023 381.127C124.802 379.93 125.71 378.822 126.73 377.824C128.245 376.342 129.941 375.058 131.779 374.005C134.042 372.715 136.459 371.72 138.973 371.042C143.535 369.896 148.236 369.403 152.936 369.577C154.735 369.616 156.206 369.701 157.194 369.773L158.345 369.871C158.473 369.872 158.6 369.887 158.724 369.917Z" fill="#F6AD5F"/>
<path d="M158.004 370.453C157.904 370.478 157.8 370.489 157.697 370.486H156.807C156.343 370.478 155.878 370.493 155.414 370.532C154.872 370.564 154.25 370.577 153.57 370.676C152.89 370.774 152.144 370.832 151.353 370.989C150.562 371.146 149.718 371.316 148.842 371.519C146.943 372.021 145.088 372.677 143.296 373.481C141.516 374.308 139.806 375.277 138.182 376.378C137.449 376.908 136.736 377.399 136.128 377.922C135.52 378.445 134.938 378.922 134.434 379.393C133.931 379.864 133.499 380.302 133.126 380.701C132.753 381.1 132.426 381.434 132.178 381.722L131.583 382.376C131.519 382.457 131.444 382.53 131.36 382.591C131.36 382.591 131.406 382.493 131.53 382.33L132.073 381.63C132.358 381.257 132.663 380.901 132.989 380.564C133.362 380.165 133.767 379.688 134.297 379.223C134.827 378.759 135.343 378.223 135.978 377.713C136.612 377.202 137.286 376.673 138.031 376.13C141.281 373.837 144.932 372.175 148.796 371.231C149.685 371.029 150.529 370.826 151.34 370.721C152.151 370.617 152.89 370.505 153.577 370.447C154.263 370.388 154.885 370.375 155.441 370.349C155.997 370.322 156.461 370.349 156.847 370.349L157.73 370.401C157.823 370.405 157.916 370.422 158.004 370.453Z" fill="#F6AD5F"/>
<path d="M171.85 366.365C171.929 366.463 171.995 366.571 172.046 366.686C172.206 367.01 172.318 367.356 172.38 367.712C172.577 369.048 172.272 370.409 171.523 371.532C171.024 372.312 170.37 372.98 169.6 373.494C168.719 374.075 167.758 374.526 166.749 374.835C165.64 375.173 164.508 375.426 163.361 375.593C162.177 375.789 160.948 375.953 159.679 376.071C155.349 376.485 150.984 376.345 146.69 375.652C145.042 375.39 143.734 375.063 142.832 374.841L141.798 374.547C141.675 374.52 141.556 374.476 141.445 374.416C141.571 374.427 141.695 374.446 141.818 374.475L142.858 374.71C143.774 374.893 145.082 375.181 146.73 375.417C151.007 376.034 155.343 376.14 159.646 375.73C162.014 375.545 164.36 375.146 166.657 374.54C168.737 373.886 170.45 372.787 171.32 371.394C172.06 370.32 172.389 369.016 172.249 367.719C172.167 367.254 172.033 366.8 171.85 366.365Z" fill="#F6AD5F"/>
<path d="M176.448 368.275C176.433 368.423 176.4 368.568 176.349 368.707C176.31 368.851 176.271 369.027 176.199 369.224L175.931 369.878C175.285 371.307 174.365 372.595 173.223 373.671C170.385 376.411 165.271 379.06 159.221 379.557C156.403 379.79 153.57 379.79 150.752 379.557C148.446 379.417 146.154 379.098 143.898 378.602C142.377 378.259 140.892 377.77 139.464 377.144C138.967 376.915 138.581 376.725 138.326 376.581C138.194 376.517 138.07 376.441 137.953 376.352C138.094 376.393 138.23 376.45 138.359 376.522C138.62 376.647 139.013 376.81 139.516 377.026C140.953 377.599 142.436 378.048 143.95 378.367C146.199 378.827 148.479 379.12 150.772 379.243C153.573 379.466 156.387 379.466 159.189 379.243C165.166 378.779 170.221 376.202 173.053 373.547C174.196 372.506 175.132 371.259 175.813 369.871C175.918 369.629 176.016 369.407 176.107 369.217C176.199 369.027 176.238 368.851 176.284 368.714C176.329 368.564 176.384 368.418 176.448 368.275Z" fill="#F6AD5F"/>
<path d="M179.776 370.329C179.753 371.014 179.634 371.692 179.423 372.343C178.844 374.131 177.802 375.734 176.401 376.987C174.321 378.838 171.868 380.223 169.207 381.048C165.963 382 162.613 382.54 159.234 382.657C153.113 383.143 146.954 382.809 140.922 381.663C139.105 381.289 137.312 380.807 135.553 380.218C134.899 380.015 134.454 379.812 134.133 379.694C133.965 379.642 133.803 379.571 133.649 379.485C133.821 379.518 133.99 379.566 134.153 379.629C134.487 379.727 134.964 379.904 135.592 380.087C137.36 380.623 139.157 381.059 140.974 381.395C146.984 382.471 153.108 382.772 159.195 382.291C162.546 382.174 165.872 381.649 169.096 380.728C171.709 379.928 174.126 378.592 176.192 376.804C177.581 375.587 178.633 374.033 179.246 372.291C179.464 371.649 179.641 370.994 179.776 370.329Z" fill="#F6AD5F"/>
<path d="M134.146 383.755C134.329 383.784 134.509 383.83 134.683 383.892L136.213 384.331C137.521 384.703 139.483 385.24 141.883 385.75C148.161 387.171 154.635 387.505 161.026 386.737C164.531 386.282 167.963 385.383 171.241 384.062C173.941 383.044 176.429 381.534 178.579 379.609C180.035 378.32 181.251 376.784 182.17 375.07C182.409 374.598 182.613 374.108 182.778 373.605C182.819 373.424 182.876 373.246 182.948 373.075C182.953 373.123 182.953 373.171 182.948 373.219C182.948 373.311 182.909 373.448 182.863 373.625C182.722 374.14 182.539 374.644 182.314 375.129C181.427 376.887 180.223 378.465 178.762 379.785C176.614 381.765 174.108 383.319 171.379 384.363C168.081 385.717 164.62 386.634 161.085 387.09C154.659 387.867 148.147 387.497 141.851 385.998C139.437 385.455 137.515 384.886 136.194 384.468C135.54 384.259 135.023 384.095 134.683 383.971C134.498 383.916 134.318 383.844 134.146 383.755Z" fill="#F6AD5F"/>
<path d="M137.953 388.163C138.128 388.228 138.297 388.309 138.457 388.405C138.784 388.568 139.241 388.85 139.876 389.144C145.793 392.085 152.413 393.319 158.992 392.708C160.819 392.531 162.63 392.212 164.407 391.753C167.853 390.882 171.186 389.615 174.342 387.98C176.926 386.661 179.286 384.941 181.333 382.885C182.707 381.493 183.846 379.887 184.708 378.131C184.857 377.862 184.986 377.582 185.093 377.294L185.342 376.672C185.408 376.498 185.485 376.327 185.571 376.162C185.531 376.343 185.476 376.52 185.407 376.692L185.185 377.346C185.089 377.641 184.969 377.928 184.825 378.203C184.001 379.999 182.878 381.642 181.503 383.062C179.464 385.173 177.096 386.94 174.492 388.294C171.319 389.954 167.963 391.238 164.492 392.12C162.695 392.579 160.865 392.898 159.018 393.075C157.298 393.226 155.57 393.254 153.845 393.16C150.926 392.992 148.038 392.458 145.252 391.57C143.375 390.978 141.556 390.216 139.817 389.294C139.163 388.981 138.738 388.68 138.424 388.497C138.26 388.396 138.102 388.285 137.953 388.163Z" fill="#F6AD5F"/>
<path d="M153.001 376.169C152.341 375.18 151.579 374.264 150.726 373.436C149.793 372.682 148.788 372.025 147.724 371.474C148.937 371.705 150.057 372.285 150.948 373.141C151.918 373.924 152.633 374.978 153.001 376.169Z" fill="#F6AD5F"/>
<path d="M158.004 375.966C157.845 375.618 157.71 375.26 157.599 374.893C157.269 374.049 156.763 373.284 156.114 372.65C155.447 372.03 154.688 371.516 153.865 371.126C153.503 370.991 153.158 370.814 152.838 370.597C153.228 370.631 153.609 370.735 153.963 370.904C154.846 371.251 155.656 371.761 156.35 372.408C157.038 373.07 157.547 373.896 157.828 374.808C157.971 375.177 158.031 375.572 158.004 375.966Z" fill="#F6AD5F"/>
<path d="M163.041 375.495C162.929 375.547 162.543 373.84 161.079 372.401C159.614 370.963 157.933 370.57 157.985 370.439C158.359 370.445 158.727 370.532 159.064 370.695C159.911 371.012 160.681 371.507 161.32 372.147C161.96 372.786 162.455 373.556 162.772 374.403C162.94 374.743 163.031 375.116 163.041 375.495Z" fill="#F6AD5F"/>
<path d="M155.801 367.418C155.978 367.39 156.159 367.39 156.337 367.418C156.829 367.432 157.319 367.485 157.802 367.575C161.028 368.182 163.899 370 165.827 372.657C166.117 373.053 166.373 373.473 166.592 373.913C166.69 374.065 166.761 374.233 166.801 374.41C166.749 374.41 166.389 373.756 165.637 372.807C164.647 371.563 163.458 370.491 162.118 369.635C160.776 368.786 159.298 368.172 157.75 367.817C156.559 367.517 155.801 367.484 155.801 367.418Z" fill="#F6AD5F"/>
<path d="M156.913 365.345C157.126 365.289 157.346 365.265 157.567 365.273C157.815 365.259 158.064 365.259 158.312 365.273C158.606 365.273 158.966 365.273 159.3 365.345C160.158 365.441 161.006 365.618 161.831 365.875C162.838 366.199 163.81 366.622 164.734 367.137C165.647 367.672 166.503 368.296 167.292 369.001C167.931 369.582 168.514 370.224 169.031 370.917C169.235 371.178 169.423 371.451 169.594 371.734C169.734 371.943 169.858 372.162 169.966 372.388C170.082 372.569 170.17 372.765 170.228 372.97C170.169 372.97 169.751 372.199 168.842 371.067C168.307 370.413 167.721 369.803 167.089 369.243C165.53 367.869 163.708 366.827 161.733 366.182C160.931 365.915 160.109 365.718 159.274 365.593C157.822 365.364 156.913 365.41 156.913 365.345Z" fill="#F6AD5F"/>
<path d="M160.182 365.142C160.182 365.142 160.333 365.044 160.62 364.94C161.036 364.786 161.462 364.664 161.896 364.573C164.773 363.952 167.774 364.295 170.437 365.548C170.838 365.737 171.225 365.956 171.594 366.202C171.856 366.379 171.993 366.483 171.98 366.503C171.967 366.522 171.326 366.202 170.339 365.783C169.017 365.236 167.626 364.873 166.205 364.704C164.785 364.55 163.351 364.59 161.941 364.822C160.856 364.992 160.202 365.195 160.182 365.142Z" fill="#FF9A6C"/>
<g opacity="0.2">
<path d="M132.204 381.858C137.894 379.098 142.276 374.01 148.188 371.734C142.221 373.351 136.816 376.58 132.564 381.067" fill="black"/>
</g>
<g opacity="0.2">
<path d="M148.469 379.42C152.896 380.476 157.48 380.697 161.987 380.074C163.943 379.849 165.849 379.307 167.631 378.471C169.384 377.589 170.941 376.634 171.791 374.861C165.029 379.439 158.162 380.427 148.469 379.335" fill="black"/>
</g>
<g opacity="0.2">
<path d="M132.133 369.309C129.329 370.308 126.712 371.77 124.389 373.631C131.819 369.433 135.841 368.615 142.047 367.844C138.673 367.549 135.277 368.051 132.133 369.309Z" fill="black"/>
</g>
<g opacity="0.2">
<path d="M170.045 365.601L133.421 365.679C134.916 366.539 136.665 366.852 138.365 366.562C138.827 366.444 139.302 366.387 139.778 366.392C140.016 366.396 140.248 366.468 140.447 366.599C140.646 366.73 140.804 366.914 140.903 367.131C141.06 367.582 140.844 368.086 140.962 368.55C141.164 369.361 142.23 369.577 143.067 369.485C143.905 369.394 144.833 369.158 145.526 369.642C146.337 370.218 146.35 371.48 147.096 372.147C147.842 372.814 148.927 372.644 149.849 372.35C150.772 372.056 151.733 371.644 152.668 371.886C154.12 372.258 154.99 374.096 156.494 374.103C157.88 374.103 158.842 372.507 160.228 372.415C161.111 372.356 161.89 372.925 162.72 373.213C163.551 373.501 164.741 373.337 164.937 372.474C165.035 372.056 164.852 371.565 165.094 371.205C165.408 370.728 166.134 370.885 166.67 371.088C167.207 371.29 167.932 371.441 168.24 370.963C168.665 370.309 167.691 369.289 168.24 368.687C168.534 368.341 169.084 368.445 169.548 368.38C169.854 368.334 170.138 368.195 170.363 367.982C170.588 367.769 170.741 367.492 170.803 367.189C170.865 366.886 170.833 366.571 170.71 366.287C170.587 366.003 170.38 365.763 170.117 365.601H170.045Z" fill="black"/>
</g>
<path d="M170.215 365.797C169.526 365.22 168.682 364.858 167.788 364.757L162.556 363.652C157.475 362.579 152.687 361.036 147.75 362.618L146.553 361.801C140.739 359.604 136.906 361.742 133.885 363.593C133.527 363.765 133.205 364.005 132.937 364.299C132.832 364.523 132.817 364.779 132.895 365.014C132.973 365.248 133.137 365.444 133.355 365.561C133.803 365.776 134.299 365.868 134.794 365.83L140.072 365.869C140.385 365.851 140.699 365.898 140.994 366.006C141.141 366.066 141.266 366.169 141.351 366.303C141.437 366.436 141.479 366.593 141.471 366.752C141.426 367.072 141.118 367.282 140.961 367.563C140.582 368.217 141.125 369.1 141.844 369.342C142.586 369.512 143.363 369.441 144.061 369.139C144.911 368.851 146.023 368.59 146.579 369.296C146.972 369.793 146.86 370.538 147.174 371.088C147.388 371.386 147.686 371.614 148.029 371.742C148.373 371.87 148.747 371.893 149.104 371.807C149.811 371.622 150.495 371.359 151.144 371.022C151.8 370.684 152.562 370.613 153.27 370.826C154.146 371.173 154.578 372.134 155.035 372.939C155.493 373.743 156.298 374.587 157.213 374.404C158.364 374.168 158.802 372.507 159.967 372.324C160.98 372.167 161.811 373.259 162.838 373.324C163.092 373.319 163.342 373.251 163.565 373.128C163.788 373.004 163.977 372.829 164.118 372.616C164.258 372.403 164.344 372.159 164.37 371.906C164.395 371.652 164.359 371.396 164.263 371.16C164.445 371.015 164.66 370.919 164.89 370.882C165.119 370.846 165.354 370.869 165.571 370.95C166.008 371.122 166.465 371.234 166.932 371.284C167.402 371.284 167.919 370.931 167.886 370.466C167.854 370.002 167.461 369.812 167.409 369.4C167.331 368.845 167.978 368.459 168.54 368.4C169.103 368.442 169.667 368.352 170.189 368.138C170.934 367.661 170.836 366.438 170.215 365.797Z" fill="#CC1728"/>
<g opacity="0.2">
<path d="M157.082 367.157L155.415 366.62C157.645 367.994 160.555 368.962 163.106 368.334C165.656 367.706 167.069 366.025 168.403 363.756C164.61 365.633 161.065 365.764 157.082 367.157Z" fill="black"/>
</g>
<path d="M155.99 366.64C153.714 367.118 150.601 365.81 148.738 364.43C146.883 362.996 145.514 361.029 144.814 358.792C144.129 356.567 143.887 354.23 144.101 351.912C148.227 352.801 152.023 354.823 155.062 357.752C156.278 358.93 156.644 360.434 156.814 362.115C156.984 363.795 156.952 365.286 155.99 366.64Z" fill="#455A64"/>
<path d="M148.122 357.242C148.122 357.242 148.292 357.288 148.567 357.432C148.956 357.622 149.33 357.84 149.685 358.086C150.862 358.93 151.89 359.964 152.727 361.147C153.548 362.338 154.242 363.611 154.8 364.946C155.064 365.482 155.266 366.046 155.401 366.627C155.088 366.123 154.813 365.596 154.577 365.051C153.96 363.771 153.243 362.542 152.432 361.375C151.611 360.224 150.634 359.191 149.529 358.308C148.685 357.635 148.096 357.295 148.122 357.242Z" fill="#263238"/>
<path d="M155.415 366.62C157.756 368.582 162.786 367.693 165.48 366.3C168.192 364.874 170.286 362.503 171.366 359.636C167.946 358.328 163.852 358.72 160.464 360.119C159.25 360.6 158.169 361.365 157.312 362.35C155.86 363.795 155.677 365.044 155.402 366.62" fill="#455A64"/>
<path d="M165.003 362.023C163.197 362.192 161.43 362.651 159.771 363.384C158.173 364.218 156.717 365.297 155.454 366.582C155.72 366.11 156.06 365.683 156.461 365.32C158.326 363.464 160.766 362.297 163.381 362.01C163.918 361.921 164.467 361.925 165.003 362.023Z" fill="#263238"/>
<path d="M171.379 359.636C171.379 359.701 170.313 359.309 168.534 359.119C166.221 358.882 163.884 359.12 161.667 359.819C160.46 360.216 159.328 360.813 158.318 361.585C157.509 362.221 156.841 363.018 156.356 363.926C155.923 364.782 155.665 365.716 155.598 366.673C155.555 366.413 155.555 366.148 155.598 365.888C155.653 365.166 155.848 364.462 156.173 363.815C156.657 362.854 157.344 362.01 158.188 361.343C159.216 360.529 160.381 359.905 161.628 359.498C163.886 358.78 166.276 358.57 168.625 358.884C169.335 358.98 170.035 359.135 170.718 359.348C170.949 359.418 171.171 359.514 171.379 359.636Z" fill="#263238"/>
<g opacity="0.2">
<path d="M152.714 368.171C152.813 368.158 152.905 368.11 152.971 368.035C153.037 367.959 153.074 367.863 153.074 367.762C153.074 367.662 153.037 367.565 152.971 367.49C152.905 367.415 152.813 367.366 152.714 367.354C152.614 367.366 152.523 367.415 152.456 367.49C152.39 367.565 152.354 367.662 152.354 367.762C152.354 367.863 152.39 367.959 152.456 368.035C152.523 368.11 152.614 368.158 152.714 368.171Z" fill="black"/>
</g>
<g opacity="0.2">
<path d="M145.938 366.771C146.038 366.758 146.129 366.71 146.196 366.634C146.262 366.559 146.299 366.462 146.299 366.362C146.299 366.262 146.262 366.165 146.196 366.089C146.129 366.014 146.038 365.966 145.938 365.953C145.839 365.966 145.747 366.014 145.681 366.089C145.615 366.165 145.578 366.262 145.578 366.362C145.578 366.462 145.615 366.559 145.681 366.634C145.747 366.71 145.839 366.758 145.938 366.771Z" fill="black"/>
</g>
<g opacity="0.2">
<path d="M148.188 370.087C148.287 370.074 148.379 370.026 148.445 369.951C148.511 369.875 148.548 369.779 148.548 369.678C148.548 369.578 148.511 369.481 148.445 369.406C148.379 369.331 148.287 369.282 148.188 369.27C148.088 369.282 147.997 369.331 147.931 369.406C147.864 369.481 147.828 369.578 147.828 369.678C147.828 369.779 147.864 369.875 147.931 369.951C147.997 370.026 148.088 370.074 148.188 370.087Z" fill="black"/>
</g>
<g opacity="0.2">
<path d="M151.216 370.349C151.041 370.574 150.821 370.761 150.57 370.897C150.319 371.033 150.042 371.116 149.758 371.14C149.484 371.221 149.196 371.243 148.913 371.205C148.63 371.166 148.359 371.069 148.116 370.918C148.116 370.819 148.849 370.97 149.692 370.806C150.536 370.643 151.157 370.27 151.216 370.349Z" fill="black"/>
</g>
<g opacity="0.2">
<path d="M158.6 372.434C158.678 372.48 158.495 372.984 158.037 373.448C157.58 373.912 157.083 374.102 157.037 374.017C156.991 373.932 157.383 373.631 157.795 373.206C158.208 372.781 158.515 372.389 158.6 372.434Z" fill="black"/>
</g>
<g opacity="0.2">
<path d="M163.956 371.277C164.041 371.238 164.25 371.695 164.028 372.219C163.806 372.742 163.335 372.912 163.302 372.82C163.269 372.729 163.55 372.493 163.714 372.081C163.877 371.669 163.871 371.303 163.956 371.277Z" fill="black"/>
</g>
<g opacity="0.2">
<path d="M166.762 369.394C166.821 369.315 167.135 369.512 167.22 369.917C167.305 370.323 167.095 370.637 167.017 370.571C166.938 370.506 166.958 370.27 166.886 369.969C166.814 369.669 166.696 369.466 166.762 369.394Z" fill="black"/>
</g>
<g opacity="0.2">
<path d="M145.644 368.144C145.644 368.183 145.474 368.366 145.101 368.589C144.616 368.889 144.075 369.089 143.512 369.177C142.936 369.268 142.347 369.186 141.818 368.942C141.419 368.746 141.249 368.523 141.275 368.497C141.301 368.471 141.524 368.595 141.929 368.72C142.432 368.878 142.965 368.919 143.486 368.837C144.695 368.635 145.598 368.039 145.644 368.144Z" fill="black"/>
</g>
<g opacity="0.2">
<path d="M141.681 365.783C141.681 365.829 141.223 365.62 140.477 365.469C139.497 365.301 138.501 365.246 137.508 365.306C136.494 365.369 135.477 365.345 134.467 365.234C134.042 365.211 133.628 365.09 133.257 364.881C133.671 364.899 134.084 364.938 134.493 364.999C135.259 365.057 136.312 364.999 137.495 364.966C138.517 364.898 139.542 364.989 140.536 365.234C140.957 365.32 141.35 365.509 141.681 365.783Z" fill="black"/>
</g>
<g opacity="0.2">
<path d="M153.492 370.362C153.42 370.427 153.217 370.316 152.962 370.264C152.707 370.211 152.478 370.211 152.439 370.126C152.4 370.041 152.668 369.845 153.034 369.93C153.4 370.015 153.557 370.309 153.492 370.362Z" fill="black"/>
</g>
<g opacity="0.2">
<path d="M146.952 363.639C146.72 363.196 146.393 362.81 145.994 362.509C145.594 362.208 145.133 361.999 144.643 361.899C141.9 361.343 139.051 361.649 136.488 362.775C136.351 362.834 136.207 362.913 136.174 363.05C136.164 363.127 136.182 363.206 136.224 363.271C136.265 363.337 136.329 363.386 136.403 363.41C136.551 363.446 136.706 363.446 136.854 363.41C138.642 363.201 140.429 363.065 142.217 363.004C142.769 362.927 143.331 363.023 143.826 363.279C144.153 363.553 144.451 363.86 144.715 364.195C145.2 364.667 145.85 364.93 146.527 364.927C146.815 364.927 147.181 364.803 147.181 364.515C147.174 364.209 147.096 363.909 146.952 363.639Z" fill="white"/>
</g>
<path d="M133.152 371.571L133.368 371.375L133.283 371.44C133.42 371.337 133.569 371.251 133.728 371.185L133.63 371.225C133.793 371.154 133.964 371.105 134.14 371.081C134.192 371.069 134.24 371.046 134.283 371.015C134.326 370.983 134.361 370.943 134.388 370.898C134.441 370.803 134.455 370.691 134.427 370.586C134.399 370.481 134.331 370.391 134.238 370.335L134.14 370.296C134.069 370.276 133.995 370.276 133.924 370.296C133.412 370.375 132.939 370.619 132.577 370.989C132.514 371.068 132.482 371.167 132.487 371.268C132.492 371.369 132.534 371.465 132.605 371.536C132.676 371.608 132.771 371.652 132.872 371.658C132.973 371.664 133.073 371.633 133.152 371.571Z" fill="#455A64"/>
<path d="M125.193 367.784C125.147 367.812 125.099 367.836 125.049 367.856L125.147 367.817C124.98 367.887 124.804 367.933 124.624 367.954H124.735C124.555 367.981 124.373 367.981 124.193 367.954H124.304H124.212C124.106 367.931 123.995 367.945 123.898 367.994C123.807 368.051 123.74 368.139 123.709 368.242C123.684 368.347 123.7 368.457 123.753 368.551C123.807 368.644 123.894 368.714 123.996 368.746C124.545 368.847 125.111 368.762 125.605 368.504C125.651 368.477 125.691 368.441 125.724 368.398C125.756 368.356 125.779 368.307 125.793 368.256C125.806 368.204 125.809 368.15 125.801 368.097C125.794 368.045 125.776 367.994 125.749 367.948C125.694 367.855 125.606 367.788 125.502 367.759C125.398 367.731 125.287 367.745 125.193 367.797V367.784Z" fill="#455A64"/>
<path d="M155.284 370.244C155.338 370.216 155.395 370.194 155.454 370.178H155.5C155.532 370.178 155.539 370.178 155.5 370.178C155.521 370.184 155.544 370.184 155.565 370.178L155.755 370.126H155.853H155.899C155.82 370.126 155.899 370.126 155.944 370.126H156.278H156.324L156.52 370.172C156.625 370.2 156.737 370.186 156.831 370.132C156.925 370.078 156.995 369.989 157.024 369.884C157.048 369.779 157.032 369.669 156.979 369.576C156.926 369.482 156.839 369.412 156.736 369.381C156.429 369.29 156.107 369.266 155.79 369.309C155.474 369.351 155.17 369.461 154.898 369.629C154.805 369.684 154.738 369.773 154.71 369.876C154.682 369.98 154.695 370.091 154.748 370.185C154.804 370.278 154.893 370.346 154.998 370.374C155.103 370.402 155.215 370.388 155.31 370.335L155.284 370.244Z" fill="#455A64"/>
<path d="M168.357 373.239C168.427 373.593 168.632 373.905 168.929 374.109C169.226 374.313 169.591 374.393 169.946 374.331C170.05 374.301 170.138 374.231 170.192 374.137C170.245 374.044 170.261 373.933 170.234 373.828C170.204 373.726 170.136 373.639 170.045 373.586L169.946 373.54C169.876 373.52 169.801 373.52 169.731 373.54H169.835H169.613H169.724C169.639 373.528 169.555 373.506 169.476 373.475L169.574 373.514C169.489 373.479 169.41 373.433 169.338 373.376L169.423 373.442C169.351 373.389 169.287 373.325 169.234 373.252L169.299 373.337C169.248 373.274 169.206 373.203 169.175 373.128L169.22 373.226C169.188 373.158 169.166 373.085 169.155 373.01C169.128 372.909 169.062 372.822 168.972 372.768C168.874 372.714 168.759 372.699 168.651 372.729C168.549 372.759 168.463 372.827 168.41 372.919L168.37 373.01C168.351 373.083 168.351 373.16 168.37 373.233L168.357 373.239Z" fill="#455A64"/>
<path d="M174.839 370.446H174.937C175.003 370.436 175.069 370.42 175.133 370.4H175.257H175.447C175.368 370.4 175.552 370.4 175.447 370.4H175.552L175.741 370.453H175.793C175.793 370.453 175.865 370.485 175.885 370.499C175.947 370.528 176.006 370.563 176.062 370.603C176.108 370.63 176.159 370.647 176.212 370.654C176.265 370.661 176.319 370.658 176.371 370.644C176.423 370.63 176.471 370.606 176.513 370.573C176.556 370.54 176.591 370.499 176.618 370.453C176.671 370.36 176.685 370.249 176.658 370.146C176.632 370.042 176.565 369.953 176.474 369.897C176.177 369.7 175.835 369.583 175.48 369.557C175.123 369.525 174.764 369.588 174.44 369.74C174.394 369.767 174.354 369.803 174.323 369.845C174.291 369.888 174.269 369.937 174.257 369.988C174.242 370.041 174.238 370.095 174.245 370.149C174.252 370.203 174.269 370.255 174.296 370.302C174.349 370.393 174.436 370.459 174.538 370.485C174.644 370.509 174.755 370.495 174.852 370.446H174.839Z" fill="#455A64"/>
<path d="M133.218 363.638C133.218 363.638 132.747 363.717 131.91 363.867C130.71 364.083 129.527 364.387 128.372 364.776C124.562 366.112 120.921 367.887 117.522 370.067C114.096 372.175 111.067 374.869 108.575 378.026C107.621 379.243 106.914 380.276 106.45 381.009C106.225 381.397 105.979 381.773 105.711 382.133C105.75 382.023 105.798 381.916 105.855 381.813C105.966 381.61 106.116 381.309 106.339 380.937C106.955 379.877 107.636 378.857 108.379 377.882C110.851 374.651 113.9 371.906 117.372 369.786C120.776 367.591 124.443 365.833 128.287 364.554C129.458 364.181 130.66 363.909 131.877 363.743C132.207 363.695 132.539 363.664 132.872 363.651C132.986 363.637 133.102 363.632 133.218 363.638Z" fill="#F6AD5F"/>
<path d="M140.772 367.058C140.659 367.094 140.543 367.111 140.425 367.111L139.437 367.183C138.574 367.248 137.338 367.359 135.814 367.575C131.842 368.114 127.976 369.266 124.356 370.989C120.75 372.729 117.529 375.175 114.886 378.183C114.092 379.101 113.36 380.071 112.695 381.087C112.47 381.472 112.226 381.845 111.963 382.205C111.994 382.092 112.043 381.984 112.107 381.885C112.211 381.688 112.355 381.381 112.584 381.015C113.212 379.965 113.92 378.965 114.703 378.026C117.318 374.931 120.556 372.422 124.206 370.662C127.854 368.919 131.766 367.79 135.782 367.32C137.318 367.13 138.568 367.052 139.431 367.032C139.863 367.032 140.196 367.032 140.425 367.032L140.772 367.058Z" fill="#F6AD5F"/>
<path d="M142.374 369.256C142.027 369.335 141.675 369.388 141.321 369.413C140.981 369.446 140.569 369.491 140.091 369.583C139.614 369.675 139.071 369.733 138.483 369.877C137.894 370.021 137.233 370.152 136.521 370.355C135.808 370.558 135.114 370.793 134.349 371.048C132.717 371.653 131.134 372.383 129.614 373.232C128.106 374.108 126.669 375.1 125.317 376.202C124.709 376.725 124.121 377.209 123.617 377.719C123.114 378.229 122.636 378.687 122.224 379.138C121.812 379.589 121.465 380.008 121.145 380.374C120.824 380.74 120.576 381.067 120.373 381.342C120.178 381.634 119.959 381.91 119.719 382.166C119.882 381.85 120.07 381.549 120.282 381.263C120.507 380.914 120.751 380.578 121.014 380.256C121.315 379.87 121.668 379.426 122.061 378.948C122.453 378.471 122.911 377.987 123.434 377.49C123.957 376.993 124.52 376.47 125.134 375.933C126.49 374.81 127.936 373.799 129.457 372.912C130.994 372.051 132.6 371.321 134.258 370.728C135.029 370.472 135.762 370.224 136.462 370.074C137.108 369.892 137.762 369.743 138.424 369.629C139.025 369.498 139.581 369.446 140.059 369.38C140.536 369.315 140.961 369.282 141.301 369.263C141.658 369.23 142.017 369.228 142.374 369.256Z" fill="#F6AD5F"/>
<path d="M147.194 371.002C146.918 371.108 146.631 371.181 146.337 371.218C145.781 371.329 144.984 371.519 144.003 371.793C142.861 372.111 141.737 372.489 140.635 372.925C139.288 373.47 137.978 374.099 136.711 374.808C135.453 375.529 134.241 376.326 133.081 377.195C132.136 377.914 131.23 378.682 130.367 379.497C129.634 380.197 129.059 380.805 128.679 381.204C128.487 381.437 128.268 381.646 128.025 381.826C128.178 381.573 128.356 381.337 128.555 381.119C129.071 380.492 129.624 379.896 130.21 379.334C131.052 378.484 131.948 377.689 132.891 376.953C135.207 375.146 137.779 373.693 140.523 372.643C141.64 372.212 142.782 371.852 143.944 371.564C144.724 371.366 145.514 371.209 146.311 371.094C146.603 371.039 146.898 371.009 147.194 371.002Z" fill="#F6AD5F"/>
<path d="M113.402 373.514C113.461 373.599 112.277 374.573 111.034 375.986C109.792 377.398 108.948 378.674 108.856 378.602C109.318 377.538 109.969 376.567 110.779 375.737C111.51 374.842 112.399 374.088 113.402 373.514Z" fill="white"/>
<path d="M116.044 374.384C116.096 374.475 115.2 375.038 114.369 375.96C113.539 376.882 113.061 377.85 112.996 377.811C113.203 377.042 113.586 376.332 114.115 375.737C114.644 375.142 115.304 374.679 116.044 374.384Z" fill="white"/>
<path d="M120.452 373.775C120.511 373.86 119.34 374.724 118.084 375.986C116.829 377.248 115.965 378.419 115.88 378.366C116.943 376.438 118.53 374.851 120.458 373.788L120.452 373.775Z" fill="white"/>
<path d="M124.186 375.208C124.225 375.306 122.819 375.96 121.328 377.124C119.837 378.288 118.83 379.479 118.751 379.413C119.347 378.4 120.154 377.527 121.119 376.856C122.013 376.096 123.059 375.534 124.186 375.208Z" fill="white"/>
<path d="M127.188 376.365C126.777 376.884 126.315 377.359 125.808 377.784C125.381 378.29 124.903 378.75 124.382 379.158C124.64 378.533 125.046 377.981 125.566 377.549C126.008 377.034 126.563 376.629 127.188 376.365Z" fill="white"/>
<path d="M130.811 377.025C130.851 377.117 129.961 377.621 129.013 378.425C128.065 379.229 127.404 379.988 127.332 379.988C127.662 379.275 128.169 378.658 128.804 378.196C129.361 377.64 130.052 377.236 130.811 377.025Z" fill="white"/>
<path d="M135.219 377.372C135.278 377.451 134.605 377.98 133.807 378.68C133.358 379.134 132.855 379.532 132.309 379.864C133.025 378.78 134.034 377.923 135.219 377.392V377.372Z" fill="white"/>
<path d="M145.566 362.331C142.012 361.399 138.235 361.867 135.017 363.639C135.421 363.277 135.88 362.981 136.377 362.762C137.558 362.186 138.826 361.81 140.131 361.651C141.44 361.49 142.767 361.554 144.055 361.84C144.582 361.921 145.092 362.087 145.566 362.331Z" fill="white"/>
<path d="M151.53 381.519C151.013 381.614 150.485 381.645 149.96 381.61C148.992 381.61 147.652 381.565 146.174 381.44C144.696 381.316 143.368 381.126 142.413 380.956C141.891 380.895 141.378 380.775 140.883 380.597C141.406 380.582 141.93 380.622 142.446 380.714C143.407 380.826 144.735 380.969 146.2 381.1C147.665 381.231 149.005 381.31 149.967 381.368C150.492 381.368 151.015 381.418 151.53 381.519Z" fill="white"/>
<path d="M157.815 378.72C157.366 378.866 156.9 378.95 156.428 378.969C154.165 379.206 151.88 379.143 149.633 378.779C149.162 378.735 148.699 378.623 148.26 378.445C148.26 378.347 150.398 378.687 153.034 378.759C155.67 378.831 157.808 378.615 157.815 378.72Z" fill="white"/>
<path d="M176.382 376.018C176.31 375.94 177.2 375.122 177.971 373.886C178.743 372.65 179.109 371.506 179.207 371.532C179.123 372.447 178.795 373.323 178.259 374.069C177.815 374.872 177.168 375.544 176.382 376.018Z" fill="white"/>
<path d="M179.273 377.843C179.207 377.758 179.927 377.189 180.496 376.26C181.065 375.331 181.28 374.448 181.379 374.468C181.36 375.167 181.155 375.849 180.785 376.442C180.415 377.035 179.893 377.519 179.273 377.843Z" fill="white"/>
<path d="M181.869 380.041C182.567 379.053 183.282 378.079 184.014 377.117C183.902 377.733 183.621 378.306 183.203 378.772C182.602 379.602 181.935 380.113 181.869 380.041Z" fill="white"/>
<path d="M186.31 381.198C186.251 381.12 186.526 380.832 186.781 380.44C187.036 380.047 187.199 379.681 187.291 379.707C187.382 379.734 187.363 380.172 187.068 380.63C186.774 381.087 186.356 381.297 186.31 381.198Z" fill="white"/>
<path d="M155.513 375.633C155.513 375.724 155.049 375.763 154.493 375.718C153.937 375.672 153.492 375.554 153.499 375.463C153.505 375.371 153.963 375.332 154.525 375.378C155.088 375.423 155.526 375.535 155.513 375.633Z" fill="white"/>
<path d="M160.293 375.155C160.293 375.253 160.065 375.351 159.764 375.384C159.463 375.417 159.208 375.384 159.201 375.273C159.195 375.162 159.43 375.077 159.731 375.044C160.032 375.011 160.287 375.064 160.293 375.155Z" fill="white"/>
<path d="M166.049 374.064C166.049 374.162 165.624 374.266 165.094 374.391C164.564 374.515 164.126 374.613 164.093 374.528C164.06 374.443 164.459 374.194 165.015 374.064C165.571 373.933 166.042 373.972 166.049 374.064Z" fill="white"/>
<path d="M155.395 359.538C153.124 356.574 149.816 354.578 146.134 353.953C146.684 353.922 147.236 353.977 147.769 354.116C150.397 354.679 152.761 356.104 154.486 358.165C154.862 358.57 155.169 359.034 155.395 359.538Z" fill="white"/>
<path d="M161.078 360.617C161.078 360.715 160.032 361.049 158.868 361.775C157.704 362.501 156.906 363.292 156.84 363.22C157.302 362.482 157.952 361.882 158.724 361.48C159.418 360.989 160.231 360.691 161.078 360.617Z" fill="white"/>
<path d="M80.8389 381.709V383.376L102.421 393.441C102.421 393.441 104.285 405.396 119.994 405.665C135.703 405.933 173.524 405.665 173.524 405.665C173.524 405.665 186.571 406.757 190.567 393.709L211.201 383.69L210.939 381.591L80.8389 381.709Z" fill="#E0E0E0"/>
<path d="M171.32 405.782H120.825V408.019H171.32V405.782Z" fill="#E0E0E0"/>
<path d="M190.914 393.657C190.838 393.665 190.761 393.665 190.685 393.657L190.031 393.689L187.448 393.755L177.965 393.931C169.96 394.055 158.894 394.173 146.677 394.193C134.461 394.212 123.389 394.114 115.377 393.925C111.375 393.82 108.137 393.735 105.901 393.617L103.324 393.493L102.67 393.447H102.441H103.337L105.914 393.513C108.157 393.585 111.394 393.637 115.397 393.709C123.402 393.84 134.467 393.899 146.691 393.879C158.914 393.859 169.966 393.774 177.978 393.715L187.461 393.65H190.731L190.914 393.657Z" fill="#263238"/>
<path d="M170.725 406.266C170.725 406.364 159.528 406.436 145.723 406.436C131.917 406.436 120.707 406.364 120.707 406.266C120.707 406.168 131.904 406.096 145.723 406.096C159.542 406.096 170.725 406.148 170.725 406.266Z" fill="#263238"/>
<path d="M210.73 383.69C210.73 383.781 181.62 383.86 145.709 383.86C109.798 383.86 80.6821 383.781 80.6821 383.69C80.6821 383.598 109.792 383.52 145.709 383.52C181.627 383.52 210.73 383.598 210.73 383.69Z" fill="#263238"/>
<path d="M188.37 381.617C188.404 381.442 188.461 381.273 188.54 381.113C188.726 380.661 188.836 380.182 188.867 379.694C188.858 378.946 188.585 378.225 188.095 377.66C187.357 377.032 186.473 376.598 185.525 376.398L185.374 376.352L185.433 376.195C185.536 375.836 185.548 375.456 185.468 375.091C185.389 374.726 185.219 374.386 184.975 374.102C184.731 373.782 184.415 373.522 184.053 373.344C183.869 373.264 183.671 373.223 183.471 373.223C183.271 373.223 183.073 373.264 182.889 373.344L182.582 373.455L182.667 373.141C182.735 372.783 182.689 372.412 182.536 372.082C182.347 371.542 181.965 371.092 181.463 370.819C180.937 370.658 180.372 370.681 179.861 370.885L179.632 370.957V370.721C179.717 368.975 177.579 367.844 176.513 368.681L176.362 368.798L176.31 368.609C176.232 368.283 176.084 367.977 175.876 367.714C175.668 367.451 175.406 367.236 175.106 367.085C174.642 366.856 174.126 366.75 173.609 366.778C173.164 366.814 172.724 366.904 172.301 367.046C172.301 367.046 172.399 366.967 172.615 366.869C172.933 366.736 173.271 366.654 173.615 366.627C174.164 366.573 174.717 366.666 175.218 366.895C175.55 367.053 175.844 367.282 176.079 367.566C176.314 367.849 176.484 368.181 176.578 368.537L176.375 368.465C176.696 368.232 177.084 368.111 177.48 368.118C177.898 368.14 178.303 368.261 178.664 368.471C179.068 368.693 179.404 369.021 179.635 369.42C179.865 369.819 179.982 370.274 179.972 370.734L179.756 370.571C180.341 370.339 180.988 370.316 181.588 370.505C181.894 370.636 182.161 370.846 182.359 371.114C182.561 371.368 182.726 371.65 182.85 371.951C183.034 372.349 183.084 372.797 182.994 373.226L182.771 373.023C182.999 372.935 183.242 372.893 183.486 372.901C183.729 372.909 183.969 372.966 184.191 373.069C184.602 373.272 184.96 373.567 185.237 373.932C185.511 374.263 185.699 374.657 185.782 375.078C185.866 375.5 185.842 375.935 185.714 376.346L185.623 376.143C186.614 376.369 187.531 376.846 188.285 377.529C188.8 378.146 189.07 378.93 189.043 379.733C189.001 380.238 188.858 380.729 188.625 381.179C188.556 381.334 188.47 381.481 188.37 381.617Z" fill="#F6AD5F"/>
<path d="M241.318 372.872C232.312 370.851 225.668 365.201 223.895 353.991C221.966 341.774 230.71 321.291 230.71 321.291L247.014 321.383L260.905 321.559C260.905 321.559 269.492 342.069 267.478 354.259C265.463 366.45 257.707 371.662 247.439 373.166L246.406 374.932L245.942 412.034L261.075 415.846C261.165 415.88 261.239 415.944 261.286 416.028C261.332 416.111 261.348 416.208 261.33 416.302C261.312 416.396 261.262 416.48 261.187 416.541C261.113 416.601 261.02 416.633 260.925 416.631L226.74 416.448C226.646 416.447 226.555 416.412 226.483 416.351C226.411 416.29 226.363 416.205 226.347 416.112C226.33 416.019 226.347 415.924 226.394 415.842C226.441 415.76 226.514 415.697 226.603 415.663L241.782 411.811L242.246 375.03L241.318 372.872Z" fill="#FAFAFA"/>
<path d="M241.318 372.872C241.318 372.872 241.403 373.042 241.56 373.402C241.717 373.761 241.959 374.304 242.279 375.017C242.227 379.968 242.096 393.002 241.9 411.805V411.89H241.815L226.603 415.755C226.55 415.776 226.505 415.812 226.473 415.858C226.442 415.905 226.425 415.96 226.425 416.016C226.425 416.073 226.442 416.128 226.473 416.175C226.505 416.221 226.55 416.257 226.603 416.278C226.884 416.278 227.257 416.278 227.61 416.278H229.703H233.986L242.907 416.317L252.266 416.35H257.099H259.551H260.787C261.003 416.35 261.075 416.317 261.134 416.18C261.146 416.15 261.153 416.119 261.153 416.087C261.152 416.054 261.146 416.023 261.133 415.993C261.12 415.964 261.101 415.937 261.078 415.916C261.054 415.894 261.027 415.877 260.996 415.866L245.863 412.066L245.739 412.034C245.883 400.392 246.04 387.888 246.196 374.958V374.913V374.873C246.523 374.317 246.85 373.709 247.23 373.107L247.269 373.036H247.348C248.817 372.816 250.272 372.506 251.703 372.107C254.227 371.426 256.62 370.332 258.786 368.87C260.896 367.423 262.679 365.549 264.018 363.369C266.572 359.036 267.807 354.052 267.569 349.027C267.29 344.198 266.479 339.414 265.149 334.763C263.942 330.293 262.472 325.897 260.748 321.598L260.885 321.697L245.189 321.5L230.684 321.409L230.808 321.33C229.118 325.439 227.661 329.64 226.446 333.913C225.321 337.735 224.503 341.641 224 345.594C223.777 347.385 223.686 349.191 223.725 350.996V351.65L223.79 352.304C223.836 352.729 223.875 353.147 223.915 353.566C224 354.397 224.202 355.194 224.333 355.986C224.95 358.865 226.085 361.608 227.682 364.082C228.99 366.053 230.656 367.761 232.593 369.118C234.012 370.125 235.55 370.953 237.171 371.584L238.1 371.943L238.931 372.211L239.637 372.447L240.232 372.604C240.938 372.787 241.291 372.892 241.291 372.892C241.291 372.892 240.919 372.813 240.212 372.637L239.624 372.493L238.911 372.27L238.08 372.015L237.145 371.656C235.509 371.04 233.958 370.22 232.528 369.216C230.572 367.862 228.888 366.151 227.564 364.174C225.943 361.689 224.788 358.93 224.157 356.032C224.019 355.234 223.81 354.429 223.725 353.592C223.686 353.174 223.64 352.748 223.594 352.317L223.529 351.663V351.009C223.483 349.193 223.568 347.377 223.784 345.574C224.284 341.608 225.095 337.687 226.21 333.848C227.423 329.562 228.877 325.347 230.566 321.226L230.599 321.141H230.69L245.202 321.206L260.898 321.383H261.003L261.042 321.481C262.778 325.787 264.259 330.192 265.476 334.672C266.826 339.344 267.653 344.152 267.942 349.008C268.188 354.099 266.938 359.151 264.345 363.539C262.984 365.761 261.167 367.669 259.015 369.138C256.834 370.615 254.423 371.72 251.88 372.408C250.437 372.814 248.969 373.127 247.485 373.343L247.609 373.264C247.249 373.873 246.896 374.474 246.576 375.037V374.952C246.412 387.881 246.255 400.386 246.105 412.027L245.981 411.864L261.114 415.683C261.216 415.721 261.305 415.787 261.369 415.875C261.434 415.963 261.471 416.067 261.476 416.176C261.482 416.284 261.456 416.392 261.401 416.486C261.345 416.58 261.264 416.655 261.167 416.703C261.051 416.759 260.921 416.779 260.794 416.762H259.558H257.105H252.272L242.913 416.71L234.012 416.612H229.729H227.629C227.27 416.612 226.975 416.612 226.563 416.612C226.454 416.58 226.358 416.515 226.288 416.426C226.219 416.336 226.179 416.227 226.176 416.113C226.172 416 226.204 415.888 226.268 415.795C226.332 415.701 226.424 415.63 226.531 415.591L241.782 411.7L241.69 411.811C241.972 393.015 242.168 379.981 242.24 375.03C241.932 374.311 241.703 373.775 241.553 373.408L241.318 372.872Z" fill="#263238"/>
<path d="M251.67 352.893C243.122 352.788 239.506 346.882 233.973 346.817C228.44 346.752 226.125 351.971 226.125 351.971C227.871 363.272 234.869 368.471 244.169 369.864H247.014C247.362 369.859 247.71 369.829 248.054 369.772C257.105 368.281 263.861 363.317 265.659 352.232C265.633 352.213 257.425 352.965 251.67 352.893Z" fill="#CC1728"/>
<path d="M230.468 321.304C230.774 321.601 231.112 321.864 231.475 322.089C232.436 322.735 233.444 323.31 234.49 323.809C237.957 325.473 241.751 326.346 245.597 326.363C249.443 326.38 253.244 325.541 256.726 323.907C257.777 323.417 258.789 322.849 259.754 322.206C260.122 321.992 260.463 321.732 260.768 321.435C260.715 321.356 259.25 322.429 256.589 323.593C253.126 325.122 249.38 325.904 245.595 325.888C241.81 325.872 238.07 325.059 234.621 323.501C231.972 322.318 230.52 321.225 230.468 321.304Z" fill="#263238"/>
<path d="M228.362 353.638C228.412 354.024 228.511 354.402 228.656 354.763C229.002 355.76 229.439 356.724 229.964 357.64C231.69 360.707 234.248 363.223 237.342 364.9C240.436 366.576 243.94 367.345 247.452 367.117C248.507 367.056 249.554 366.896 250.578 366.639C250.958 366.563 251.327 366.44 251.677 366.273C250.275 366.519 248.86 366.688 247.439 366.777C244.003 366.912 240.595 366.119 237.571 364.481C234.548 362.844 232.022 360.422 230.258 357.47C229.552 356.231 228.919 354.951 228.362 353.638Z" fill="white"/>
<defs>
<linearGradient id="paint0_linear_3002_5585" x1="-543.001" y1="244.349" x2="1532.34" y2="244.349" gradientUnits="userSpaceOnUse">
<stop stop-color="white"/>
<stop offset="0.1076" stop-color="#FDE5E8"/>
<stop offset="0.303" stop-color="#FBBCC3"/>
<stop offset="0.4944" stop-color="#F99CA6"/>
<stop offset="0.6779" stop-color="#F78591"/>
<stop offset="0.8502" stop-color="#F67784"/>
<stop offset="1" stop-color="#F67280"/>
</linearGradient>
</defs>
</svg>
