<svg width="20" height="22" viewBox="0 0 20 22" fill="none" xmlns="http://www.w3.org/2000/svg">
    <path d="M1.56934 18.5012C1.56934 19.2969 1.88541 20.0599 2.44802 20.6225C3.01062 21.1851 3.77369 21.5012 4.56934 21.5012H8.88184C8.93156 21.5012 8.97926 21.4815 9.01442 21.4463C9.04958 21.4111 9.06934 21.3634 9.06934 21.3137V12.6887C9.06934 12.639 9.04958 12.5913 9.01442 12.5561C8.97926 12.521 8.93156 12.5012 8.88184 12.5012H1.94434C1.84488 12.5012 1.7495 12.5407 1.67917 12.611C1.60884 12.6814 1.56934 12.7768 1.56934 12.8762V18.5012Z" fill="#A8A8A8"/>
    <path d="M9.06934 10.8137V5.75121H10.5693V10.8137C10.5693 10.8634 10.5891 10.9111 10.6243 10.9463C10.6594 10.9815 10.7071 11.0012 10.7568 11.0012H17.3193C17.5748 11.0012 17.8285 10.9576 18.0693 10.8723C18.5076 10.7167 18.8871 10.4293 19.1556 10.0496C19.4242 9.66983 19.5687 9.21632 19.5693 8.75121V8.00122C19.5693 7.40448 19.3323 6.83218 18.9103 6.41022C18.4884 5.98827 17.9161 5.75121 17.3193 5.75121H15.419C15.4027 5.75095 15.3867 5.74643 15.3727 5.7381C15.3586 5.72976 15.347 5.71791 15.339 5.7037C15.3309 5.68949 15.3267 5.67342 15.3268 5.65709C15.3268 5.64076 15.3312 5.62473 15.3393 5.61059C15.7733 4.87788 15.9143 4.00819 15.7339 3.17592C15.5536 2.34364 15.0653 1.6103 14.3669 1.12295C13.6686 0.635596 12.8118 0.430259 11.9684 0.54811C11.125 0.665961 10.3573 1.09829 9.81934 1.7584C9.28132 1.09829 8.51365 0.665961 7.67026 0.54811C6.82686 0.430259 5.97009 0.635596 5.27173 1.12295C4.57338 1.6103 4.08508 2.34364 3.90474 3.17592C3.7244 4.00819 3.86535 4.87788 4.29934 5.61059C4.3075 5.62473 4.31183 5.64076 4.3119 5.65709C4.31197 5.67342 4.30777 5.68949 4.29972 5.7037C4.29167 5.71791 4.28004 5.72976 4.266 5.7381C4.25196 5.74643 4.23598 5.75095 4.21965 5.75121H2.31934C1.7226 5.75121 1.1503 5.98827 0.728346 6.41022C0.306389 6.83218 0.0693359 7.40448 0.0693359 8.00122V8.75121C0.0699979 9.21632 0.214509 9.66983 0.483056 10.0496C0.751603 10.4293 1.13104 10.7167 1.56934 10.8723C1.81019 10.9576 2.06382 11.0012 2.31934 11.0012H8.88184C8.93156 11.0012 8.97926 10.9815 9.01442 10.9463C9.04958 10.9111 9.06934 10.8634 9.06934 10.8137ZM10.5693 3.87621C10.5693 3.50538 10.6793 3.14286 10.8853 2.83452C11.0914 2.52618 11.3842 2.28586 11.7268 2.14394C12.0694 2.00203 12.4464 1.9649 12.8101 2.03724C13.1738 2.10959 13.5079 2.28817 13.7702 2.55039C14.0324 2.81261 14.211 3.14671 14.2833 3.51042C14.3557 3.87414 14.3185 4.25113 14.1766 4.59375C14.0347 4.93636 13.7944 5.22919 13.486 5.43522C13.1777 5.64125 12.8152 5.75121 12.4443 5.75121H10.5693V3.87621ZM7.06027 2.0059C7.31715 1.98749 7.57506 2.02219 7.81793 2.10784C8.0608 2.19349 8.28343 2.32826 8.47192 2.50374C8.66042 2.67921 8.81075 2.89164 8.91353 3.12777C9.01631 3.36391 9.06935 3.61868 9.06934 3.87621V5.75121H7.19434C6.7095 5.74997 6.244 5.56097 5.89552 5.22388C5.54705 4.88679 5.34269 4.42783 5.32535 3.9433C5.308 3.45878 5.47902 2.98637 5.8025 2.62523C6.12598 2.26408 6.57677 2.04228 7.06027 2.00637V2.0059Z" fill="#A8A8A8"/>
    <path d="M10.7568 21.5012H15.0693C15.865 21.5012 16.628 21.1851 17.1907 20.6225C17.7533 20.0599 18.0693 19.2969 18.0693 18.5012V12.8762C18.0693 12.7768 18.0298 12.6814 17.9595 12.611C17.8892 12.5407 17.7938 12.5012 17.6943 12.5012H10.7568C10.7071 12.5012 10.6594 12.521 10.6243 12.5561C10.5891 12.5913 10.5693 12.639 10.5693 12.6887V21.3137C10.5693 21.3634 10.5891 21.4111 10.6243 21.4463C10.6594 21.4815 10.7071 21.5012 10.7568 21.5012Z" fill="#A8A8A8"/>
</svg>
