<svg width="32" height="14" viewBox="0 0 32 14" fill="none" xmlns="http://www.w3.org/2000/svg">
    <path d="M14.9354 7.02922V10.731H13.7606V1.58984H16.8749C17.6642 1.58984 18.3372 1.85297 18.8879 2.37916C19.4509 2.90534 19.7323 3.54778 19.7323 4.30647C19.7323 5.08353 19.4509 5.72597 18.8879 6.24603C18.3434 6.76609 17.6704 7.02309 16.8749 7.02309H14.9354V7.02922ZM14.9354 2.71566V5.90341H16.8994C17.3644 5.90341 17.7561 5.74434 18.0619 5.43228C18.374 5.12022 18.5331 4.74091 18.5331 4.31259C18.5331 3.89041 18.374 3.51716 18.0619 3.20516C17.756 2.88084 17.3706 2.72178 16.8994 2.72178H14.9354V2.71566Z" fill="#383E41"/>
    <path d="M22.8038 4.26953C23.6726 4.26953 24.358 4.50203 24.8596 4.96703C25.3614 5.43203 25.6122 6.06834 25.6122 6.87603V10.7307H24.4925V9.86191H24.4436C23.9602 10.5778 23.3116 10.9327 22.504 10.9327C21.8126 10.9327 21.2375 10.7307 20.7725 10.3208C20.3075 9.91084 20.075 9.40297 20.075 8.79116C20.075 8.14259 20.3197 7.62866 20.8092 7.24928C21.2987 6.86384 21.9534 6.67416 22.7671 6.67416C23.4646 6.67416 24.0398 6.80266 24.4865 7.05959V6.79041C24.4865 6.38047 24.3274 6.03784 24.0031 5.75028C23.6788 5.46272 23.2995 5.32197 22.865 5.32197C22.2103 5.32197 21.6903 5.59728 21.3109 6.15409L20.2768 5.50553C20.8459 4.67947 21.6903 4.26953 22.8038 4.26953ZM21.2865 8.80947C21.2865 9.11541 21.415 9.37241 21.678 9.57428C21.935 9.77622 22.241 9.88022 22.5897 9.88022C23.0853 9.88022 23.5258 9.69666 23.9113 9.32953C24.2968 8.96241 24.4926 8.53409 24.4926 8.03853C24.1255 7.75097 23.6176 7.60409 22.963 7.60409C22.4857 7.60409 22.088 7.72034 21.7698 7.94672C21.4455 8.18534 21.2865 8.47297 21.2865 8.80947Z" fill="#383E41"/>
    <path d="M32 4.4707L28.0841 13.4772H26.8726L28.3288 10.3261L25.7468 4.4707H27.0256L28.8856 8.9617H28.9101L30.7212 4.4707H32Z" fill="#383E41"/>
    <path d="M10.1647 5.18164H5.24054V7.20077L8.07648 7.20139C7.96148 7.8732 7.59129 8.44589 7.0241 8.8277V8.82808C7.02429 8.82795 7.02454 8.82783 7.02473 8.8277L6.97366 10.0345L8.71285 10.1371C8.7126 10.1373 8.71235 10.1375 8.71216 10.1377C9.69785 9.22545 10.2627 7.87689 10.2627 6.28364C10.2626 5.90058 10.2284 5.53408 10.1647 5.18164Z" fill="#0085F7"/>
    <path d="M7.02468 8.828C7.02449 8.82813 7.02424 8.82825 7.02405 8.82838C6.55424 9.14506 5.9493 9.33031 5.24174 9.33031C3.87424 9.33031 2.71418 8.40888 2.29874 7.16681H2.29855C2.29862 7.167 2.29868 7.16725 2.29874 7.16744L0.846803 6.9375L0.557678 8.51819C1.42049 10.2299 3.19349 11.4045 5.2418 11.4045C6.65724 11.4045 7.84643 10.9391 8.71218 10.1379C8.71243 10.1378 8.71268 10.1376 8.71287 10.1373L7.02468 8.828Z" fill="#00A94B"/>
    <path d="M2.13475 6.16436C2.13475 5.81561 2.19287 5.47848 2.29875 5.16155L1.84537 3.81055H0.557375C0.200688 4.51848 0 5.31755 0 6.16436C0 7.01117 0.201313 7.81023 0.557375 8.51817L0.557625 8.51798L2.29875 7.16717C2.29869 7.16699 2.29862 7.1668 2.29856 7.16655C2.19281 6.84986 2.13475 6.51292 2.13475 6.16436Z" fill="#FFBB00"/>
    <path d="M5.24175 0.923828C3.19387 0.923828 1.42012 2.09858 0.557373 3.81058L2.29869 5.16158C2.71412 3.91952 3.87419 2.99808 5.24169 2.99808C6.01444 2.99808 6.7065 3.26427 7.25287 3.78433L8.74887 2.28958C7.84031 1.44327 6.65575 0.923828 5.24175 0.923828Z" fill="#FF4031"/>
</svg>
