<svg width="23" height="18" viewBox="0 0 23 18" fill="none" xmlns="http://www.w3.org/2000/svg">
<path d="M15.25 9C14.2844 9 13.3563 8.56875 12.625 7.79062C11.9172 7.03125 11.4813 6.01406 11.4063 4.93125C11.3266 3.77812 11.6781 2.71406 12.3953 1.94063C13.1125 1.17188 14.125 0.75 15.25 0.75C16.3657 0.75 17.3782 1.17656 18.0953 1.94531C18.8219 2.72344 19.1735 3.78281 19.0891 4.92656C19.0094 6.00938 18.5782 7.02656 17.8703 7.78594C17.1438 8.56875 16.2157 9 15.25 9ZM15.25 2.25C14.5469 2.25 13.9235 2.50312 13.4969 2.9625C13.0563 3.43594 12.8547 4.07812 12.9063 4.82344C12.9578 5.56406 13.2485 6.25781 13.7266 6.76875C14.1672 7.24219 14.711 7.5 15.25 7.5C15.7938 7.5 16.3328 7.2375 16.7735 6.76875C17.2516 6.25781 17.5422 5.56875 17.5938 4.82344C17.6453 4.10156 17.4344 3.44063 16.9938 2.97188C16.5672 2.50313 15.9438 2.25 15.25 2.25Z" fill="#A8A9A8"/>
<path d="M21.4282 17.2501H9.07191C8.6641 17.2501 8.2891 17.0673 8.04066 16.7485C7.78285 16.4157 7.6891 15.9657 7.79222 15.5392C8.18598 13.9548 9.16566 12.6423 10.6188 11.7376C11.9079 10.936 13.5532 10.4954 15.2453 10.4954C16.9704 10.4954 18.5735 10.9173 19.8719 11.7188C21.3297 12.6142 22.3094 13.936 22.7032 15.5392C22.8063 15.9657 22.7125 16.4157 22.4547 16.7485C22.211 17.0673 21.836 17.2501 21.4282 17.2501ZM9.29222 15.7501H21.2125C20.4391 12.9845 17.5375 12.0001 15.25 12.0001C12.9719 12.0001 10.075 12.9845 9.29222 15.7501Z" fill="#A8A9A8"/>
<path d="M6.39065 9.1874C4.74065 9.1874 3.29221 7.65459 3.15627 5.77022C3.08596 4.80459 3.38596 3.91397 3.99534 3.25772C4.60002 2.61084 5.44846 2.25459 6.38596 2.25459C7.31877 2.25459 8.16721 2.61553 8.7719 3.26709C9.38596 3.92803 9.68596 4.81866 9.61565 5.77491C9.48909 7.65459 8.03596 9.1874 6.39065 9.1874ZM6.39065 3.74991C5.87502 3.74991 5.41565 3.93741 5.0969 4.27959C4.76877 4.63116 4.61409 5.10928 4.65627 5.66241C4.73596 6.75928 5.52815 7.68741 6.39065 7.68741C7.25315 7.68741 8.05002 6.75928 8.12502 5.66241C8.16252 5.12334 8.00315 4.63584 7.67971 4.28428C7.36096 3.93741 6.90159 3.74991 6.39065 3.74991Z" fill="#A8A9A8"/>
<path d="M6.71879 15.7499H1.45472C1.08441 15.7499 0.742223 15.5812 0.512536 15.2952C0.278161 14.9952 0.193786 14.5827 0.287536 14.1983C0.610973 12.8905 1.41722 11.8124 2.61254 11.0718C3.66722 10.4202 5.00785 10.0593 6.38597 10.0593C7.56722 10.0593 8.57504 10.2562 9.46566 10.664C9.84066 10.8374 10.0094 11.2827 9.83597 11.6577C9.66254 12.0327 9.21722 12.2015 8.84222 12.028C8.15316 11.714 7.3516 11.5593 6.39066 11.5593C4.67972 11.5593 2.51879 12.2718 1.83441 14.2546H6.71879C7.13129 14.2546 7.46879 14.5921 7.46879 15.0046C7.46879 15.4171 7.13129 15.7499 6.71879 15.7499Z" fill="#A8A9A8"/>
</svg>
