<svg width="23" height="18" viewBox="0 0 23 18" fill="none" xmlns="http://www.w3.org/2000/svg">
<path d="M15.249 9C14.2852 9 13.3533 8.56969 12.624 7.78875C11.9148 7.02703 11.4816 6.01125 11.4052 4.92938C11.3237 3.77531 11.6757 2.71406 12.3962 1.94063C13.1166 1.16719 14.124 0.75 15.249 0.75C16.366 0.75 17.3762 1.17469 18.0943 1.94625C18.8194 2.72531 19.1724 3.78469 19.0908 4.92891C19.0126 6.01219 18.5799 7.0275 17.8721 7.78828C17.1446 8.56969 16.2132 9 15.249 9Z" fill="#CC1728"/>
<path d="M21.4285 17.25H9.06991C8.87121 17.2511 8.67492 17.2065 8.49613 17.1198C8.31735 17.0331 8.16084 16.9065 8.03866 16.7498C7.90905 16.58 7.81955 16.383 7.77685 16.1736C7.73415 15.9643 7.73936 15.748 7.7921 15.5409C8.18678 13.9561 9.16459 12.6417 10.6196 11.7403C11.911 10.9406 13.5549 10.5 15.249 10.5C16.9763 10.5 18.5771 10.9219 19.876 11.7211C21.3343 12.6178 22.3135 13.9397 22.7063 15.5438C22.7584 15.751 22.763 15.9673 22.7199 16.1765C22.6767 16.3857 22.5868 16.5825 22.4569 16.7522C22.3349 16.9082 22.1787 17.0341 22.0005 17.1204C21.8222 17.2067 21.6265 17.251 21.4285 17.25Z" fill="#CC1728"/>
<path d="M6.3896 9.1875C4.74006 9.1875 3.28975 7.65375 3.15522 5.76891C3.08866 4.80328 3.3896 3.91031 3.99897 3.25547C4.60178 2.60719 5.4521 2.25 6.3896 2.25C7.3271 2.25 8.17084 2.60906 8.77694 3.26109C9.391 3.92109 9.691 4.81219 9.62069 5.76984C9.48616 7.65422 8.03631 9.1875 6.3896 9.1875Z" fill="#CC1728"/>
<path d="M9.46741 10.6617C8.64288 10.2586 7.57272 10.057 6.39006 10.057C5.00913 10.057 3.66803 10.417 2.61335 11.0705C1.41756 11.8125 0.613189 12.893 0.288345 14.1975C0.240807 14.3851 0.236311 14.5811 0.275193 14.7707C0.314075 14.9603 0.395328 15.1387 0.512876 15.2925C0.624414 15.4357 0.767307 15.5514 0.930564 15.6307C1.09382 15.71 1.27309 15.7508 1.4546 15.75H6.65772C6.74554 15.75 6.83057 15.7192 6.89799 15.6629C6.9654 15.6066 7.01093 15.5284 7.02663 15.442C7.03178 15.4125 7.03834 15.383 7.04585 15.3539C7.44334 13.7573 8.37475 12.4083 9.751 11.4248C9.80162 11.3884 9.84233 11.3398 9.86945 11.2836C9.89657 11.2274 9.90924 11.1653 9.90631 11.103C9.90337 11.0407 9.88493 10.9801 9.85266 10.9267C9.82038 10.8733 9.77529 10.8288 9.72147 10.7972C9.64788 10.7541 9.5635 10.7086 9.46741 10.6617Z" fill="#CC1728"/>
</svg>
