<svg width="24" height="22" viewBox="0 0 24 22" fill="none" xmlns="http://www.w3.org/2000/svg">
<path d="M21.167 0.5H3.16699C1.92649 0.5 0.916992 1.5095 0.916992 2.75V14.75C0.916992 15.9905 1.92649 17 3.16699 17H5.41699V20.75C5.41699 21.0387 5.58274 21.3005 5.84149 21.4257C5.94574 21.4753 6.05674 21.5 6.16699 21.5C6.33424 21.5 6.49999 21.4445 6.63574 21.3358L12.0552 17H21.167C22.4075 17 23.417 15.9905 23.417 14.75V2.75C23.417 1.5095 22.4075 0.5 21.167 0.5ZM12.167 11H6.16699C5.75224 11 5.41699 10.664 5.41699 10.25C5.41699 9.836 5.75224 9.5 6.16699 9.5H12.167C12.5817 9.5 12.917 9.836 12.917 10.25C12.917 10.664 12.5817 11 12.167 11ZM18.167 8H6.16699C5.75224 8 5.41699 7.664 5.41699 7.25C5.41699 6.836 5.75224 6.5 6.16699 6.5H18.167C18.5817 6.5 18.917 6.836 18.917 7.25C18.917 7.664 18.5817 8 18.167 8Z" fill="url(#paint0_linear_1200_158)"/>
<defs>
<linearGradient id="paint0_linear_1200_158" x1="8.93557" y1="1.8125" x2="16.8425" y2="23.713" gradientUnits="userSpaceOnUse">
<stop stop-color="#CC1728"/>
<stop offset="1" stop-color="#59191F"/>
</linearGradient>
</defs>
</svg>
