<svg width="25" height="24" viewBox="0 0 25 24" fill="none" xmlns="http://www.w3.org/2000/svg">
<path fill-rule="evenodd" clip-rule="evenodd" d="M13.5393 1.90516L16.25 4.49998V2.99967C16.25 2.58546 16.5858 2.24967 17 2.24967H19.25C19.6642 2.24967 20 2.58546 20 2.99967V8.08968L23.5186 11.4579C23.8178 11.7443 23.8282 12.2191 23.5418 12.5183C23.2554 12.8175 22.7806 12.8279 22.4814 12.5415L21.5 11.602V20.9997C21.5 21.3975 21.342 21.779 21.0607 22.0603C20.7794 22.3416 20.3978 22.4997 20 22.4997H15.5C15.0858 22.4997 14.75 22.1639 14.75 21.7497V15.3747C14.75 15.2752 14.7105 15.1798 14.6402 15.1095C14.5698 15.0392 14.4745 14.9997 14.375 14.9997H10.625C10.5255 14.9997 10.4302 15.0392 10.3598 15.1095C10.2895 15.1798 10.25 15.2752 10.25 15.3747V21.7497C10.25 22.1639 9.91422 22.4997 9.5 22.4997H5C4.60218 22.4997 4.22065 22.3416 3.93934 22.0603C3.65804 21.779 3.5 21.3975 3.5 20.9997V11.602L2.51862 12.5415C2.21941 12.8279 1.74465 12.8175 1.45822 12.5183C1.17179 12.2191 1.18216 11.7443 1.48138 11.4579L11.4613 1.90454C11.7673 1.59437 12.1842 1.49992 12.5029 1.50049C12.8203 1.50106 13.2358 1.59629 13.5393 1.90516ZM5 10.1662V20.9997H8.75V15.3747C8.75 14.8774 8.94755 14.4005 9.29918 14.0488C9.6508 13.6972 10.1277 13.4997 10.625 13.4997H14.375C14.8723 13.4997 15.3492 13.6972 15.7008 14.0488C16.0525 14.4005 16.25 14.8774 16.25 15.3747V20.9997H20V10.1662L12.515 3.00114C12.5105 3.00074 12.5055 3.0005 12.5002 3.00049C12.4948 3.00048 12.4897 3.00072 12.485 3.00113L5 10.1662ZM18.5 6.6538V3.74967H17.75V5.93586L18.5 6.6538Z" fill="#A8A8A8"/>
</svg>
