<svg width="23" height="22" viewBox="0 0 23 22" fill="none" xmlns="http://www.w3.org/2000/svg">
<path d="M11.7606 3.7475C11.6909 3.68074 11.598 3.64348 11.5014 3.64348C11.4048 3.64348 11.312 3.68074 11.2422 3.7475L2.61252 11.9914C2.57587 12.0265 2.54671 12.0686 2.52681 12.1152C2.50691 12.1619 2.49668 12.2121 2.49674 12.2628L2.49533 20C2.49533 20.3978 2.65337 20.7794 2.93467 21.0607C3.21597 21.342 3.59751 21.5 3.99533 21.5H8.50002C8.69893 21.5 8.88969 21.421 9.03035 21.2803C9.171 21.1397 9.25002 20.9489 9.25002 20.75V14.375C9.25002 14.2755 9.28953 14.1802 9.35985 14.1098C9.43018 14.0395 9.52556 14 9.62502 14H13.375C13.4745 14 13.5699 14.0395 13.6402 14.1098C13.7105 14.1802 13.75 14.2755 13.75 14.375V20.75C13.75 20.9489 13.829 21.1397 13.9697 21.2803C14.1103 21.421 14.3011 21.5 14.5 21.5H19.0028C19.4007 21.5 19.7822 21.342 20.0635 21.0607C20.3448 20.7794 20.5028 20.3978 20.5028 20V12.2628C20.5029 12.2121 20.4927 12.1619 20.4728 12.1152C20.4529 12.0686 20.4237 12.0265 20.387 11.9914L11.7606 3.7475Z" fill="#CC1728"/>
<path d="M22.5114 10.4445L19.0052 7.09016V2C19.0052 1.80109 18.9262 1.61032 18.7855 1.46967C18.6448 1.32902 18.4541 1.25 18.2552 1.25H16.0052C15.8063 1.25 15.6155 1.32902 15.4748 1.46967C15.3342 1.61032 15.2552 1.80109 15.2552 2V3.5L12.5402 0.904062C12.2861 0.647187 11.9083 0.5 11.5 0.5C11.0931 0.5 10.7163 0.647188 10.4622 0.904531L0.491893 10.4436C0.20033 10.7248 0.163768 11.1875 0.42908 11.4922C0.495704 11.5691 0.577281 11.6316 0.668845 11.676C0.76041 11.7204 0.860047 11.7457 0.961693 11.7503C1.06334 11.755 1.16487 11.7389 1.2601 11.7031C1.35533 11.6672 1.44228 11.6124 1.51564 11.5419L11.2422 2.2475C11.312 2.18074 11.4048 2.14348 11.5014 2.14348C11.598 2.14348 11.6909 2.18074 11.7606 2.2475L21.4881 11.5419C21.6314 11.6793 21.8234 11.7543 22.0219 11.7504C22.2204 11.7465 22.4092 11.6641 22.547 11.5212C22.8349 11.2231 22.811 10.7309 22.5114 10.4445Z" fill="#CC1728"/>
</svg>
