<svg width="18" height="18" viewBox="0 0 18 18" fill="none" xmlns="http://www.w3.org/2000/svg">
<path d="M14.0003 0.041748H4.00035C2.95053 0.041748 1.94371 0.458786 1.20138 1.20112C0.459052 1.94345 0.0420141 2.95027 0.0420141 4.00008V14.0001C0.0380786 14.0137 0.0380786 14.0281 0.0420141 14.0417C0.0529892 15.0843 0.474867 16.0805 1.21601 16.8138C1.95716 17.5472 2.95771 17.9585 4.00035 17.9584H14.0003C15.0387 17.9563 16.0346 17.5464 16.7735 16.8168C17.5124 16.0873 17.935 15.0966 17.9503 14.0584V4.00008C17.9503 2.95171 17.5345 1.94615 16.7939 1.20406C16.0534 0.461967 15.0487 0.0439551 14.0003 0.041748ZM16.7087 12.3334L13.2253 8.35008C13.004 8.11447 12.7368 7.92669 12.4401 7.79833C12.1434 7.66997 11.8236 7.60375 11.5003 7.60375C11.1771 7.60375 10.8573 7.66997 10.5606 7.79833C10.2639 7.92669 9.99667 8.11447 9.77535 8.35008L7.38368 11.0834L6.60035 10.1334C6.38449 9.87448 6.11436 9.66615 5.80907 9.52319C5.50377 9.38023 5.17079 9.30613 4.83368 9.30613C4.49657 9.30613 4.16359 9.38023 3.85829 9.52319C3.553 9.66615 3.28287 9.87448 3.06701 10.1334L1.29201 12.2751V4.00008C1.29421 3.28246 1.58026 2.59486 2.08769 2.08743C2.59513 1.57999 3.28273 1.29395 4.00035 1.29175H14.0003C14.718 1.29395 15.4056 1.57999 15.913 2.08743C16.4204 2.59486 16.7065 3.28246 16.7087 4.00008V12.3334Z" fill="white"/>
<path d="M4.83366 6.50008C5.75413 6.50008 6.50033 5.75389 6.50033 4.83341C6.50033 3.91294 5.75413 3.16675 4.83366 3.16675C3.91318 3.16675 3.16699 3.91294 3.16699 4.83341C3.16699 5.75389 3.91318 6.50008 4.83366 6.50008Z" fill="white"/>
</svg>
