<svg width="24" height="20" viewBox="0 0 24 20" fill="none" xmlns="http://www.w3.org/2000/svg">
<path fill-rule="evenodd" clip-rule="evenodd" d="M8.25 1.75C8.05109 1.75 7.86032 1.82902 7.71967 1.96967C7.57902 2.11032 7.5 2.30109 7.5 2.5V3.25H16.5V2.5C16.5 2.30109 16.421 2.11032 16.2803 1.96967C16.1397 1.82902 15.9489 1.75 15.75 1.75H8.25ZM18 3.25V2.5C18 1.90326 17.7629 1.33097 17.341 0.90901C16.919 0.487053 16.3467 0.25 15.75 0.25H8.25C7.65326 0.25 7.08097 0.487053 6.65901 0.90901C6.23705 1.33097 6 1.90326 6 2.5V3.25H3.75C2.09315 3.25 0.75 4.59315 0.75 6.25V16.75C0.75 18.4069 2.09315 19.75 3.75 19.75H20.25C21.9069 19.75 23.25 18.4069 23.25 16.75V6.25C23.25 4.59315 21.9069 3.25 20.25 3.25H18ZM3.75 4.75C2.92157 4.75 2.25 5.42157 2.25 6.25V8.5H21.75V6.25C21.75 5.42157 21.0784 4.75 20.25 4.75H3.75ZM21.75 10H15.75V10.375C15.75 10.6734 15.6315 10.9595 15.4205 11.1705C15.2095 11.3815 14.9234 11.5 14.625 11.5H9.375C9.07663 11.5 8.79048 11.3815 8.5795 11.1705C8.36853 10.9595 8.25 10.6734 8.25 10.375V10H2.25V16.75C2.25 17.5784 2.92157 18.25 3.75 18.25H20.25C21.0784 18.25 21.75 17.5784 21.75 16.75V10Z" fill="#CC1728"/>
</svg>
