<svg width="44" height="44" viewBox="0 0 44 44" fill="none" xmlns="http://www.w3.org/2000/svg">
<path d="M1 41.1146V15.8965H9.3125V41.1146H1Z" stroke="#34A853" stroke-width="2"/>
<path d="M41.6012 22.8435L40.7769 23.4406L41.3885 24.2542C41.8122 24.8179 42.0626 25.5156 42.0626 26.2725C42.0626 27.3914 41.5134 28.3863 40.6639 29.0015L39.8395 29.5985L40.451 30.4122C40.8747 30.9759 41.1251 31.6737 41.1251 32.4306C41.1251 33.5498 40.5762 34.5455 39.7271 35.1606L38.9031 35.7575L39.5143 36.571C39.9376 37.1345 40.1877 37.8321 40.1877 38.5888C40.1877 40.4451 38.6758 41.957 36.8196 41.957H23.0679C20.9229 41.957 18.8181 41.5754 16.8097 40.8222L13.8906 39.7276V18.2555C15.8879 16.1028 17.7927 14.009 19.2986 12.3028C20.8402 10.556 22.0372 9.13465 22.436 8.49633L22.5879 8.25317V7.96644V2.89612C22.5879 2.42658 22.9715 2.04297 23.4411 2.04297C27.1031 2.04297 30.084 5.0239 30.084 8.68591V10.8311L28.7416 15.4681L28.3716 16.7462H29.7021H39.6318C41.4881 16.7462 43 18.258 43 20.1143C43 21.233 42.4509 22.2279 41.6012 22.8435Z" stroke="#34A853" stroke-width="2"/>
</svg>
