<svg width="14" height="15" viewBox="0 0 14 15" fill="none" xmlns="http://www.w3.org/2000/svg">
<g clip-path="url(#clip0_1200_3251)">
<path d="M3.28125 5.23975H0V13.9001H3.28125V5.23975Z" fill="#34A853"/>
<path d="M13.7017 8.85937C13.7017 8.54696 13.5981 8.25835 13.4234 8.02598C13.7724 7.77319 14 7.36273 14 6.89994C14 6.13358 13.3765 5.51008 12.6101 5.51008H9.45068L9.89037 3.99133V3.26363C9.89037 1.92272 8.79944 0.831787 7.45853 0.831787C7.13338 0.831787 6.86889 1.09631 6.86889 1.42143V3.03471C6.64962 3.38564 5.43195 4.75201 4.10156 6.18356V13.361L5.23682 13.7867C5.91158 14.0398 6.61913 14.1681 7.3398 14.1681H11.7153C12.4817 14.1681 13.1052 13.5446 13.1052 12.7782C13.1052 12.4659 13.0017 12.1774 12.8271 11.9451C13.176 11.6923 13.4034 11.2816 13.4034 10.8188C13.4034 10.5064 13.2998 10.2177 13.1251 9.98538C13.4741 9.73267 13.7017 9.32221 13.7017 8.85937Z" fill="#34A853"/>
</g>
<defs>
<clipPath id="clip0_1200_3251">
<rect width="14" height="14" fill="white" transform="translate(0 0.5)"/>
</clipPath>
</defs>
</svg>
