<svg width="22" height="21" viewBox="0 0 22 21" fill="none" xmlns="http://www.w3.org/2000/svg">
<path d="M0.5 16.6258H21.4991C21.4991 19.0381 19.5366 21.0007 17.1243 21.0007H4.87482C2.46254 21.0007 0.5 19.0381 0.5 16.6258ZM21.4991 9.62613V14.8759H0.5V9.62613C0.5 7.21386 2.46254 5.25132 4.87482 5.25132H5.97115C4.73132 4.02637 4.54933 2.44881 5.49254 1.19149C5.9694 0.555388 6.66499 0.143281 7.45159 0.0312852C8.23818 -0.083335 9.02127 0.119656 9.65737 0.596512C10.2506 1.04099 10.6881 1.60622 11.0109 2.18195C11.3338 1.60622 11.7713 1.04012 12.3645 0.596512C12.9997 0.119656 13.7811 -0.083335 14.5703 0.0312852C15.3569 0.143281 16.0525 0.555388 16.5293 1.19149C17.4778 2.45581 17.2879 4.04387 16.0525 5.25132H17.1252C19.5375 5.25132 21.4991 7.21386 21.4991 9.62613ZM11.8798 5.25132C11.9996 5.25132 13.4556 5.22069 14.8293 4.00187C15.1679 3.67901 15.6902 2.98866 15.1294 2.24057C14.9334 1.97895 14.6464 1.80921 14.3227 1.76284C14.0007 1.71996 13.6761 1.79959 13.4145 1.99645C12.2963 2.83467 11.9708 4.4621 11.8929 4.98533L11.8947 5.0037L11.8798 5.25132ZM10.1316 5.25132H10.1421C10.1421 5.25132 10.1281 4.99408 10.129 4.98533C10.052 4.46473 9.72562 2.83554 8.60654 1.99645C8.39217 1.83546 8.13668 1.75146 7.87419 1.75146C7.46296 1.75146 7.08848 1.97983 6.89161 2.24144C6.33076 2.98954 6.85399 3.67901 7.21535 4.02374C8.55841 5.21457 10.0074 5.25044 10.1307 5.25132H10.1316ZM16.2493 10.5011C16.2493 10.0172 15.8574 9.62613 15.3744 9.62613C15.2318 9.62613 11.8745 9.59639 11.8745 7.00124H10.1246C10.1246 9.57014 6.78399 9.62526 6.62387 9.62613C6.14089 9.62613 5.74978 10.0181 5.74978 10.5011C5.74978 10.9841 6.14177 11.3761 6.62474 11.3761C7.86457 11.3761 9.85949 10.9491 10.9996 9.57714C12.1396 10.95 14.1346 11.3761 15.3744 11.3761C15.8574 11.3761 16.2493 10.985 16.2493 10.5011Z" fill="#CC1728"/>
</svg>
