<svg width="25" height="24" viewBox="0 0 25 24" fill="none" xmlns="http://www.w3.org/2000/svg">
<path d="M18.5625 7.24896H16.5448C16.7303 7.12559 16.9184 7.00659 17.0872 6.85696C18.2685 5.73259 18.4662 4.25209 17.5912 3.08571C16.6917 1.88696 14.9846 1.64371 13.7876 2.54234C12.8715 3.22921 12.3316 4.21184 12.0105 5.07721C11.6903 4.21184 11.1495 3.22921 10.2334 2.54234C9.03463 1.64371 7.32837 1.88696 6.42975 3.08571C5.55475 4.25121 5.75338 5.73171 6.94513 6.86659C7.10962 7.01271 7.29338 7.12821 7.4745 7.24896H5.4375C3.26663 7.24896 1.5 9.01559 1.5 11.1865V19.0615C1.5 21.2323 3.26663 22.999 5.4375 22.999H18.5625C20.7334 22.999 22.5 21.2323 22.5 19.0615V11.1865C22.5 9.01559 20.7334 7.24896 18.5625 7.24896ZM14.3126 3.24321C15.1264 2.63334 16.2822 2.79871 16.8921 3.61071C17.5011 4.42359 17.3489 5.40009 16.4958 6.21296C15.71 6.91034 14.6722 7.24984 13.3212 7.24984H12.4384L12.4532 6.89109C12.5285 6.34159 12.896 4.30721 14.3135 3.24409L14.3126 3.24321ZM7.5375 6.22259C6.673 5.40009 6.52075 4.42271 7.12975 3.61071C7.73875 2.79784 8.89638 2.63246 9.70925 3.24321C11.0865 4.27484 11.4724 6.22084 11.5625 6.83596V7.24896H10.6875C9.34613 7.24896 8.31275 6.90946 7.5375 6.22259ZM5.4375 8.12396H11.524C11.1355 10.7052 7.35638 10.749 7.1875 10.749C6.946 10.749 6.75 10.9458 6.75087 11.1873C6.75087 11.428 6.94688 11.624 7.18837 11.624C8.61112 11.624 11.0218 11.113 12.0009 9.39446C12.98 11.113 15.3906 11.624 16.8134 11.624C17.0549 11.624 17.2509 11.428 17.2509 11.1873C17.2509 10.9458 17.0558 10.7498 16.8143 10.749C16.6445 10.749 12.8663 10.7052 12.4777 8.12396H18.5643C20.253 8.12396 21.6268 9.49771 21.6268 11.1865V17.749H2.375V11.1865C2.375 9.49771 3.74875 8.12396 5.4375 8.12396ZM18.5625 22.124H5.4375C3.74875 22.124 2.375 20.7502 2.375 19.0615V18.624H21.625V19.0615C21.625 20.7502 20.2512 22.124 18.5625 22.124Z" fill="#A8A8A8"/>
</svg>
