<svg width="23" height="20" viewBox="0 0 23 20" fill="none" xmlns="http://www.w3.org/2000/svg">
<path fill-rule="evenodd" clip-rule="evenodd" d="M1.74988 1.75001C4.78939 1.76392 6.90805 2.14603 8.33306 2.82687C9.68284 3.47176 10.4204 4.38675 10.7499 5.59678V17.2375C9.04438 15.9781 6.42326 15.2515 1.76391 15.25C1.75752 15.2334 1.74988 15.2043 1.74988 15.1595V1.75001ZM12.2499 17.2364C13.9586 15.9725 16.5786 15.25 21.2499 15.25V1.75001C18.2104 1.76391 16.0917 2.14603 14.6667 2.82687C13.3169 3.47176 12.5794 4.38675 12.2499 5.59678V17.2364ZM11.4999 3.61131C10.9306 2.72361 10.0985 2.00795 8.97971 1.47341C7.25959 0.651577 4.87929 0.264031 1.75325 0.250013L1.75271 0.250011C1.55515 0.249266 1.35939 0.287629 1.17673 0.362889C0.994059 0.438149 0.828093 0.548817 0.688394 0.688516C0.548696 0.828214 0.438027 0.994181 0.362767 1.17685C0.287716 1.35901 0.249358 1.55418 0.249883 1.75118V15.1595C0.249883 15.5414 0.368177 15.932 0.630159 16.2397C0.9016 16.5585 1.29749 16.75 1.74988 16.75C7.66064 16.75 9.70123 17.9508 10.914 19.4682C11.0563 19.6463 11.2718 19.75 11.4997 19.75C11.7276 19.7501 11.9432 19.6465 12.0855 19.4685C13.3066 17.9421 15.3387 16.75 21.2499 16.75C21.6477 16.75 22.0292 16.592 22.3105 16.3107C22.5919 16.0294 22.7499 15.6478 22.7499 15.25V1.75103C22.7504 1.55408 22.712 1.35896 22.637 1.17685C22.5617 0.994182 22.4511 0.828216 22.3114 0.688516C22.1717 0.548816 22.0057 0.438148 21.823 0.362889C21.6404 0.287629 21.4446 0.249266 21.2471 0.250011L21.2465 0.250013C18.1205 0.264031 15.7402 0.651577 14.0201 1.47341C12.9013 2.00795 12.0692 2.72361 11.4999 3.61131Z" fill="#A8A8A8"/>
</svg>
