<svg width="23" height="19" viewBox="0 0 23 19" fill="none" xmlns="http://www.w3.org/2000/svg">
<path d="M8.97994 1.46898C7.28635 0.660389 4.91916 0.264295 1.74994 0.250233C1.45105 0.246172 1.15803 0.333327 0.909941 0.500076C0.706311 0.637715 0.539622 0.823283 0.424536 1.04046C0.309451 1.25763 0.249494 1.49976 0.249941 1.74555V15.1565C0.249941 16.063 0.894941 16.747 1.74994 16.747C5.08135 16.747 8.42307 17.0582 10.4246 18.9501C10.452 18.9761 10.4864 18.9935 10.5236 19.0001C10.5608 19.0067 10.5991 19.0022 10.6337 18.9872C10.6684 18.9722 10.6979 18.9474 10.7185 18.9158C10.7392 18.8842 10.7501 18.8472 10.7499 18.8095V3.00742C10.75 2.90081 10.7272 2.79542 10.6831 2.69837C10.6389 2.60133 10.5744 2.5149 10.494 2.44492C10.0355 2.05297 9.52624 1.72469 8.97994 1.46898Z" fill="#CC1728"/>
<path d="M22.0899 0.49867C21.8417 0.332336 21.5487 0.245667 21.2499 0.250233C18.0807 0.264295 15.7135 0.658514 14.0199 1.46898C13.4737 1.72423 12.9643 2.05186 12.5054 2.44304C12.4252 2.51315 12.3608 2.59961 12.3168 2.69664C12.2727 2.79366 12.2499 2.89899 12.2499 3.00554V18.8085C12.2499 18.8448 12.2606 18.8803 12.2807 18.9105C12.3007 18.9407 12.3293 18.9644 12.3627 18.9784C12.3962 18.9925 12.433 18.9964 12.4687 18.9896C12.5043 18.9828 12.5371 18.9656 12.5631 18.9402C13.7663 17.7449 15.8781 16.7455 21.2518 16.746C21.6496 16.746 22.0312 16.588 22.3125 16.3067C22.5938 16.0254 22.7518 15.6438 22.7518 15.246V1.74601C22.7524 1.49974 22.6923 1.25713 22.5768 1.03959C22.4614 0.822046 22.2942 0.636273 22.0899 0.49867Z" fill="#CC1728"/>
</svg>
