<svg width="375" height="361" viewBox="0 0 375 361" fill="none" xmlns="http://www.w3.org/2000/svg">
<path d="M-615 197.7C-615 197.7 -614.019 196.328 -612.058 193.583C-610.882 191.819 -609.313 189.858 -607.744 187.702C-606.96 186.526 -606.175 185.545 -605.195 184.369C-604.411 183.389 -603.822 182.605 -603.038 181.625C-601.469 179.86 -599.9 177.704 -598.135 175.743C-596.37 173.783 -594.605 171.627 -592.644 169.47C-584.8 160.845 -575.388 151.435 -564.406 142.221C-553.424 133.007 -541.462 124.185 -528.323 115.756C-502.046 98.8963 -472.042 84.1934 -438.901 71.6469C-405.76 58.9044 -369.481 48.1223 -329.673 39.3005C-309.671 34.7916 -289.08 30.8709 -266.725 27.7342C-255.547 26.1659 -244.173 24.7937 -231.819 23.6174C-228.681 23.4214 -225.543 23.0293 -222.406 22.8333C-220.249 22.6372 -218.091 22.4412 -215.738 22.4412H-212.012C-206.129 22.4412 -200.442 22.2452 -194.559 22.2452C-191.03 22.2452 -187.304 22.2452 -183.97 22.2452C-180.636 22.4412 -177.499 22.4412 -174.165 22.6372C-167.693 22.8333 -161.026 23.4214 -154.555 23.6174C-141.416 24.5976 -128.081 26.1659 -114.942 28.1263C-88.4686 32.0471 -62.1911 38.3203 -37.0901 45.9658C-11.9892 53.6114 12.1312 62.6291 35.075 71.8429C57.8228 81.0568 79.59 90.6627 100.181 99.2884C120.771 108.11 140.381 116.148 159.403 123.009L166.463 125.558L168.228 126.146L169.208 126.538L169.6 126.734C170.385 126.93 170.189 126.93 170.385 126.93L174.503 128.302C179.798 130.066 184.896 131.635 190.191 133.399C200.584 136.732 210.978 139.868 221.175 142.809C262.356 154.375 302.949 162.805 341.777 165.549C380.605 168.49 417.668 165.941 452.182 157.316C456.496 156.14 460.222 155.159 466.105 153.395C468.262 152.807 470.419 152.023 472.576 151.435L475.322 150.65L478.459 149.67C486.696 146.926 494.932 143.789 503.364 140.26C519.837 133.203 536.505 124.577 552.978 115.167C586.119 96.3478 618.868 74.7835 651.813 55.7678C660.049 51.0629 668.285 46.3579 676.521 41.849C680.443 39.6926 684.366 37.5362 688.288 35.5758C693.386 32.8312 697.701 30.6748 702.211 28.5184C720.252 20.0887 738.293 13.8155 755.354 9.50265C772.415 5.1898 788.691 2.64129 803.399 1.26902C818.106 -0.103247 831.441 -0.103244 843.207 0.092795C866.74 0.87695 884.389 3.22941 896.155 4.79772C902.038 5.58187 906.548 6.36603 909.49 6.75811C912.431 7.34622 914 7.54226 914 7.54226L903.803 113.011C903.803 113.011 902.43 113.011 899.684 112.815C896.939 112.815 893.017 112.619 888.115 112.619C877.917 112.423 863.406 112.619 845.757 114.383C828.304 116.148 808.105 119.872 787.515 128.302C777.121 132.419 766.728 137.712 755.943 144.573C753.393 146.338 750.452 148.102 748.295 149.67C744.961 152.023 741.823 154.375 738.49 156.728C732.214 161.237 725.547 166.138 718.879 171.235C705.348 181.429 691.229 192.799 676.129 204.953C660.833 217.108 644.753 230.046 626.908 243.377C609.063 256.511 589.845 270.038 568.274 282.781C557.488 289.054 546.31 295.327 534.348 301.012L529.838 303.169L524.935 305.325C521.994 306.697 519.052 307.874 516.111 309.246C511.601 311.402 504.933 314.147 498.854 316.499C474.145 326.301 448.064 333.947 421.786 339.436C408.648 342.18 395.313 344.337 381.978 346.101C368.643 347.865 355.112 349.042 341.777 349.826C288.241 352.962 235.098 348.846 184.112 341.396C171.365 339.436 158.815 337.475 146.264 335.123C139.989 333.947 133.91 332.77 127.635 331.594L123.32 330.81C123.32 330.81 122.536 330.614 123.124 330.81L122.536 330.614L121.359 330.418L118.81 329.83C115.476 329.046 112.143 328.458 108.809 327.673C82.5314 321.988 57.6266 315.127 34.4868 308.462C11.1507 301.796 -10.6165 295.327 -30.8149 290.034C-51.2094 284.741 -70.0351 280.428 -87.6842 277.488C-105.333 274.547 -122.002 272.979 -137.69 272.783C-145.534 272.587 -153.182 272.979 -160.634 273.175C-164.36 273.567 -168.086 273.567 -171.812 274.155C-173.576 274.351 -175.538 274.547 -177.302 274.743C-179.067 274.939 -180.244 275.135 -181.813 275.527C-185.931 276.115 -190.049 276.703 -194.167 277.292L-197.893 277.88C-199.658 278.076 -195.932 277.684 -196.52 277.684H-196.913L-197.501 277.88L-198.677 278.076C-200.442 278.468 -202.207 278.664 -203.972 279.056C-211.032 280.428 -218.68 281.996 -226.328 283.761C-241.624 287.289 -256.723 291.602 -271.039 296.111C-299.669 305.129 -324.967 315.323 -344.969 325.125C-364.971 334.927 -379.679 344.337 -387.915 351.002C-392.033 354.335 -394.779 357.079 -396.151 358.648C-397.524 360.412 -397.72 361 -397.524 361C-397.328 361 -397.328 361 -397.132 360.804C-396.936 360.804 -396.74 360.608 -396.74 360.412C-396.543 360.216 -396.74 360.412 -396.543 360.216C-396.151 359.824 -395.955 359.432 -395.759 359.236C-395.171 358.452 -394.779 357.863 -394.386 357.275C-395.759 359.628 -396.543 360.804 -396.543 360.804L-615 197.7Z" fill="url(#paint0_linear_2008_5540)" fill-opacity="0.14"/>
<path d="M277.901 96.0303C278.267 96.2923 278.783 96.208 279.046 95.8432L283.132 90.1816C283.395 89.8168 283.31 89.3041 282.944 89.0421C282.577 88.7801 282.062 88.8643 281.799 89.2291L277.713 94.8908C277.449 95.2556 277.534 95.7683 277.901 96.0303Z" fill="#FDAD9B"/>
<path d="M276.194 94.8109C276.56 95.0729 277.076 94.9887 277.339 94.6239L281.908 88.2919C282.171 87.9271 282.087 87.4145 281.72 87.1525C281.353 86.8905 280.838 86.9747 280.575 87.3395L276.006 93.6714C275.743 94.0364 275.827 94.5491 276.194 94.8109Z" fill="#FDAD9B"/>
<path d="M273.444 97.7746L273.563 97.7687C274.156 97.7395 274.616 97.2334 274.587 96.6439L274.333 91.5328C274.304 90.9433 273.795 90.485 273.203 90.514L273.084 90.5199C272.491 90.5491 272.031 91.0552 272.06 91.6446L272.314 96.7558C272.343 97.3452 272.852 97.8038 273.444 97.7746Z" fill="#FDAD9B"/>
<path d="M274.487 93.5916C274.853 93.8536 275.369 93.7693 275.632 93.4045L279.295 88.3289C279.558 87.9641 279.473 87.4515 279.107 87.1895C278.74 86.9277 278.225 87.0117 277.961 87.3765L274.299 92.4521C274.035 92.8169 274.12 93.3296 274.487 93.5916Z" fill="#FDAD9B"/>
<path d="M276.732 100.081C276.732 100.081 281.02 98.1908 281.837 94.9768C282.12 93.8643 276.998 90.413 275.86 91.0228C274.723 91.6327 272.585 95.3004 272.585 95.3004L276.732 100.081Z" fill="#FDAD9B"/>
<path d="M279.591 97.2457C279.956 97.507 280.471 97.423 280.733 97.0591L284.388 91.9941C284.651 91.6302 284.567 91.1185 284.201 90.8571C283.835 90.5958 283.321 90.6798 283.058 91.0437L279.403 96.1087C279.14 96.4726 279.225 96.9841 279.591 97.2457Z" fill="#FDAD9B"/>
<path d="M272.148 94.0029C265.004 99.6949 254.294 107.32 243.842 111.319C241.42 112.246 240.482 112.564 238.997 112.901C237.801 113.172 236.921 115.577 237.365 117.617C237.782 119.531 239.465 120.921 240.961 120.865C242.078 120.823 243.201 120.521 245.917 119.531C255.353 116.095 265.598 109.643 277.319 99.7862L272.148 94.0029Z" fill="#FDAD9B"/>
<path d="M249.637 217.144C249.637 217.144 250.21 219.712 252.109 220.098C254.007 220.484 259.222 220.151 257.648 222.18C256.745 223.345 251.485 223.731 250.034 224.013C248.583 224.296 247.345 225.19 246.076 224.434C244.681 223.602 244.827 218.081 244.827 218.081C244.827 218.081 246.206 218.486 247.327 218.237C248.941 217.879 249.637 217.144 249.637 217.144Z" fill="#66192D"/>
<path d="M229.478 221.069C229.478 221.069 230.051 223.638 231.949 224.024C233.848 224.41 239.063 224.077 237.489 226.106C236.586 227.271 231.326 227.656 229.875 227.939C228.424 228.222 227.185 229.116 225.917 228.36C224.522 227.528 224.667 222.006 224.667 222.006C224.667 222.006 226.047 222.411 227.167 222.163C228.782 221.805 229.478 221.069 229.478 221.069Z" fill="#66192D"/>
<path d="M248.762 143.845C248.762 143.845 251.212 154.586 251.824 175.987C252.266 191.437 252.278 207.089 252.251 214.6C252.242 217.287 250.428 219.603 247.858 220.211L246.477 220.537C243.699 221.195 240.955 219.244 240.599 216.358L234.494 166.77L232.194 150.505L248.762 143.845Z" fill="#366F90"/>
<path d="M219.958 157.99C220.218 159.314 227.801 158.6 237.013 156.754C246.226 154.907 253.477 153.063 253.217 151.738C252.956 150.414 245.283 150.11 236.07 151.957C226.858 153.803 219.697 156.665 219.958 157.99Z" fill="#66192D"/>
<path d="M243.328 154.46L232.525 219.848C232.222 222.621 230.21 224.872 227.525 225.443L226.355 225.691C223.592 226.279 220.971 224.141 220.93 221.267L220.929 158.544C220.947 157.816 223.352 157.014 224.042 156.82C229.762 155.207 243.18 151.808 243.328 154.46Z" fill="#366F90"/>
<path d="M221.251 121.167C221.251 121.167 223.527 113.632 232.966 113.504C237.427 113.443 242.294 113.985 244.893 121.673C247.226 128.577 251.59 137.818 253.216 151.738C253.216 151.738 237.619 149.132 219.935 157.877C219.935 157.877 216.671 137.614 217.77 125.51C218.08 122.102 220.46 123.583 221.251 121.167Z" fill="#F3C5C9"/>
<path d="M213.01 118.546L221.498 124.969C221.498 124.969 243.771 126.815 245.146 122.411C247.175 115.906 242.651 110.814 242.651 110.814C242.651 110.814 234.913 112.614 231.125 113.416C229.752 113.707 226.436 114.05 225.073 114.27C215.571 115.8 213.01 118.546 213.01 118.546Z" fill="#F3C5C9"/>
<path d="M237.452 191.046L237.117 191.033L237.903 169.662C238.297 166.524 239.811 163.686 242.167 161.656L242.386 161.908C240.093 163.884 238.619 166.647 238.236 169.688L237.452 191.046Z" fill="#020202"/>
<path d="M234.806 110.872L234.763 110.771C234.774 110.766 235.908 110.272 236.102 109.411C236.202 108.964 236.033 108.49 235.6 108.004C235.397 107.775 235.21 107.569 235.039 107.38C233.859 106.077 233.418 105.589 233.46 104.348L233.569 104.351C233.529 105.549 233.93 105.992 235.12 107.307C235.291 107.496 235.478 107.703 235.682 107.932C236.14 108.446 236.317 108.952 236.208 109.435C236.002 110.351 234.855 110.851 234.806 110.872Z" fill="#66192D"/>
<path d="M233.515 104.349C233.515 104.349 233.43 106.275 235.006 108.001C236.582 109.727 235.487 111.38 233.683 110.924C231.879 110.469 231.615 112.702 229.27 111.901C226.925 111.1 233.515 104.349 233.515 104.349Z" fill="#66192D"/>
<path d="M225.074 114.271C225.981 114.012 226.682 113.295 226.9 112.382L227.584 109.52L227.783 108.689L228.949 103.806L229.436 108.572L229.728 111.432L229.811 112.248C229.879 112.913 230.443 113.414 231.115 113.417H231.126C231.576 113.922 232.261 114.989 230.898 115.697C229.297 116.529 226.321 115.678 225.06 114.275C225.065 114.274 225.069 114.273 225.074 114.271Z" fill="#FDAD9B"/>
<path d="M227.564 109.443C227.57 109.468 227.576 109.494 227.583 109.52C227.962 111.017 229.718 111.442 229.718 111.442L229.727 111.432L229.435 108.571C228.904 108.476 228.161 108.413 227.781 108.689C227.583 108.833 227.484 109.07 227.564 109.443Z" fill="#66192D"/>
<path d="M230.227 109.978C232.682 109.551 234.242 106.762 233.712 103.749C233.182 100.736 230.763 98.6402 228.309 99.0674C225.855 99.4945 224.295 102.283 224.824 105.296C225.354 108.309 227.773 110.405 230.227 109.978Z" fill="#FDAD9B"/>
<path d="M225.59 106.014C226.177 106.405 226.89 106.332 227.181 105.85C227.473 105.369 227.233 104.662 226.645 104.271C226.058 103.881 225.345 103.954 225.054 104.436C224.762 104.917 225.002 105.624 225.59 106.014Z" fill="#FDAD9B"/>
<path d="M232.31 107.635C232.31 107.635 230.798 107.934 229.187 107.668C229.187 107.668 229.322 109.178 230.984 108.992C231.95 108.883 232.31 107.635 232.31 107.635Z" fill="#E9633E"/>
<path d="M232.31 107.635C232.31 107.635 231.996 108.002 231.138 108.147C230.281 108.293 229.187 107.667 229.187 107.667C229.187 107.667 231.104 107.849 232.31 107.635Z" fill="white"/>
<path d="M229.735 104.498C229.763 104.485 229.785 104.459 229.792 104.427C229.804 104.372 229.768 104.317 229.713 104.306C229.68 104.299 228.939 104.069 228.455 104.824C228.425 104.871 228.437 104.934 228.484 104.965C228.531 104.997 228.585 104.976 228.626 104.937C229.036 104.545 229.643 104.5 229.67 104.505C229.693 104.51 229.716 104.507 229.735 104.498Z" fill="#080435"/>
<path d="M229.129 105.745C229.164 105.986 229.334 106.162 229.51 106.137C229.686 106.112 229.801 105.896 229.766 105.655C229.732 105.414 229.561 105.238 229.385 105.263C229.209 105.288 229.095 105.504 229.129 105.745Z" fill="#080435"/>
<path d="M233.436 104.396C233.467 104.395 233.497 104.379 233.516 104.352C233.548 104.305 233.536 104.242 233.489 104.21C233.462 104.191 232.864 103.698 232.128 104.212C232.082 104.244 232.069 104.307 232.1 104.354C232.132 104.401 232.19 104.402 232.243 104.381C232.772 104.175 233.35 104.363 233.373 104.378C233.393 104.392 233.415 104.397 233.436 104.396Z" fill="#080435"/>
<path d="M232.399 105.316C232.338 105.552 232.429 105.779 232.601 105.822C232.773 105.866 232.962 105.71 233.022 105.474C233.083 105.238 232.992 105.011 232.82 104.967C232.648 104.924 232.459 105.08 232.399 105.316Z" fill="#080435"/>
<path d="M230.397 99.7258C230.397 99.7258 230.634 101.635 228.315 102.372C225.997 103.108 224.534 104.393 225.152 106.041C225.771 107.688 230.221 110.554 227.647 112.413C225.074 114.271 225.224 111.615 222.276 112.738C219.329 113.86 218.066 109.902 219.754 107.184C221.441 104.465 219.495 98.3873 227.422 97.292C235.35 96.1967 233.563 102.953 233.563 102.953C233.563 102.953 230.76 101.817 230.397 99.7258Z" fill="#66192D"/>
<path d="M226.9 112.903L226.865 112.848C227.406 112.513 227.689 112.123 227.733 111.654C227.853 110.356 226.041 108.709 224.443 107.256C224.019 106.87 223.619 106.506 223.259 106.154C222.256 105.174 221.95 103.851 222.46 102.7C223.026 101.421 224.4 100.684 226.048 100.772C226.171 100.779 226.291 100.782 226.407 100.782C229.166 100.782 230.008 98.9712 230.017 98.9521L230.077 98.9786C230.067 98.999 229.135 101.003 226.044 100.837C224.427 100.747 223.075 101.473 222.519 102.726C222.013 103.869 222.306 105.133 223.304 106.108C223.664 106.459 224.064 106.823 224.487 107.208C226.097 108.672 227.92 110.331 227.797 111.661C227.753 112.144 227.451 112.562 226.9 112.903Z" fill="white"/>
<path d="M233.755 108.023C233.519 108.064 233.277 108.039 233.039 107.943C231.979 107.518 231.305 105.794 231.537 104.104C231.679 103.068 232.137 102.232 232.761 101.871C233.135 101.657 233.541 101.621 233.936 101.784C234.996 102.207 235.669 103.927 235.438 105.62C235.297 106.659 234.838 107.495 234.214 107.856C234.066 107.94 233.912 107.996 233.755 108.023ZM231.737 104.133C231.516 105.737 232.135 107.364 233.116 107.759C233.447 107.892 233.793 107.861 234.113 107.683C234.685 107.351 235.106 106.569 235.239 105.593C235.459 103.987 234.841 102.359 233.861 101.967C233.529 101.834 233.186 101.862 232.863 102.044C232.291 102.375 231.869 103.155 231.737 104.133Z" fill="#66192D"/>
<g opacity="0.3">
<path d="M226.212 103.959C226.129 105.579 226.993 107.152 228.141 107.473C229.29 107.794 230.288 106.741 230.37 105.121C230.453 103.502 229.589 101.928 228.441 101.607C227.292 101.286 226.294 102.339 226.212 103.959Z" fill="white"/>
</g>
<g opacity="0.3">
<path d="M231.517 104.244C231.434 105.871 232.209 107.485 233.246 107.849C234.284 108.213 235.192 107.189 235.274 105.562C235.357 103.935 234.582 102.321 233.544 101.957C232.507 101.593 231.599 102.617 231.517 104.244Z" fill="white"/>
</g>
<path d="M228.926 107.538C228.687 107.58 228.439 107.567 228.188 107.497C226.923 107.157 225.974 105.47 226.071 103.735C226.126 102.73 226.515 101.894 227.138 101.445C227.574 101.135 228.071 101.045 228.58 101.182C229.843 101.525 230.792 103.212 230.696 104.944C230.641 105.953 230.25 106.789 229.625 107.238C229.405 107.393 229.17 107.496 228.926 107.538ZM227.879 101.34C227.66 101.378 227.45 101.467 227.257 101.606C226.691 102.015 226.322 102.815 226.271 103.747C226.18 105.39 227.063 106.986 228.24 107.306C228.686 107.422 229.125 107.342 229.507 107.076C230.075 106.67 230.445 105.867 230.497 104.932C230.587 103.289 229.704 101.693 228.528 101.373C228.307 101.315 228.089 101.303 227.879 101.34Z" fill="#66192D"/>
<path d="M231.83 104.79C231.788 104.797 231.744 104.79 231.705 104.768C231.682 104.754 231.138 104.465 230.339 104.765C230.245 104.796 230.134 104.754 230.097 104.657C230.059 104.561 230.108 104.453 230.205 104.419C231.166 104.038 231.86 104.427 231.891 104.442C231.98 104.494 232.012 104.609 231.959 104.697C231.931 104.748 231.883 104.78 231.83 104.79Z" fill="#66192D"/>
<path d="M212.971 118.608C212.375 119.454 213.508 121.308 216.449 123.227C219.39 125.145 220.796 126.696 222.039 125.655C223.053 124.804 222.4 121.51 218.46 119.331C216.205 118.083 213.396 118.005 212.971 118.608Z" fill="#66192D"/>
<path d="M224.379 156.725C224.379 156.725 236.451 152.239 249.178 152.54C249.762 152.554 250.246 152.997 250.304 153.576L250.763 158.191L237.374 157.516L224.379 156.725Z" fill="#366F90"/>
<path d="M238.664 152.807L240.22 149.9C240.391 149.027 238.176 146.127 237.286 146.216C230.766 146.867 224.922 144.466 221.476 139.708C219.031 136.332 219.527 129.109 220.836 125.625C221.505 123.842 218.757 119.541 215.051 118.701C214.096 118.484 213.117 118.583 212.705 119.468C212.06 120.853 211.157 123.025 210.443 125.642C208.746 131.86 208.985 137.572 211.133 142.162C213.77 147.796 224.598 155.111 237.398 156.585C238.356 156.696 238.479 153.749 238.664 152.807Z" fill="#FDAD9B"/>
<path d="M193.514 142.415L157.333 273.973L273.372 277.897L283.282 140.19L193.514 142.415Z" fill="#CC1728"/>
<path d="M283.282 140.19L288.36 143.419V272.961L273.372 277.897L283.282 140.19Z" fill="#EBA2A9"/>
<path d="M288.359 143.419L293.252 142.133L299.058 273.802L288.359 272.961V143.419Z" fill="#CC1728"/>
<path d="M214.885 154.272C216.142 154.272 217.16 153.309 217.16 152.12C217.16 150.932 216.142 149.969 214.885 149.969C213.629 149.969 212.61 150.932 212.61 152.12C212.61 153.309 213.629 154.272 214.885 154.272Z" fill="#66192D"/>
<path d="M215.022 155.069C214.034 155.069 212.899 154.487 212.26 153.654C211.786 153.035 211.641 152.357 211.853 151.743C212.433 150.067 213.71 149.066 215.27 149.066C216.99 149.066 217.89 150.654 217.89 152.223C217.89 153.846 216.657 155.069 215.022 155.069ZM212.961 152.086C212.842 152.431 213.027 152.777 213.204 153.007C213.623 153.554 214.405 153.966 215.022 153.966C216.025 153.966 216.725 153.25 216.725 152.223C216.725 151.397 216.337 150.169 215.27 150.169C214.224 150.169 213.383 150.868 212.961 152.086Z" fill="#66192D"/>
<path d="M248.499 154.273C249.755 154.273 250.773 153.31 250.773 152.121C250.773 150.933 249.755 149.97 248.499 149.97C247.242 149.97 246.224 150.933 246.224 152.121C246.224 153.31 247.242 154.273 248.499 154.273Z" fill="#66192D"/>
<path d="M248.636 155.069C247.649 155.069 246.513 154.487 245.874 153.654C245.4 153.035 245.255 152.357 245.467 151.743C246.048 150.067 247.325 149.066 248.884 149.066C250.604 149.066 251.504 150.654 251.504 152.223C251.505 153.846 250.271 155.069 248.636 155.069ZM246.575 152.086C246.456 152.431 246.641 152.777 246.818 153.007C247.237 153.554 248.019 153.966 248.636 153.966C249.639 153.966 250.339 153.25 250.339 152.223C250.339 151.397 249.951 150.169 248.884 150.169C247.839 150.169 246.997 150.868 246.575 152.086Z" fill="#66192D"/>
<path d="M224.748 169.463C223.896 169.463 223.046 169.408 222.201 169.298C219.377 168.93 217.146 167.697 215.57 165.633C211.748 160.629 213.291 152.452 213.358 152.107C213.515 151.308 214.325 150.78 215.17 150.928C216.013 151.076 216.571 151.842 216.416 152.64C216.395 152.749 215.057 159.949 218.094 163.917C219.168 165.321 220.65 166.128 222.625 166.385C227.776 167.057 232.47 165.212 236.34 162.624C242.863 158.261 247.041 151.783 247.107 151.679C247.549 150.983 248.503 150.757 249.239 151.174C249.975 151.591 250.215 152.493 249.775 153.19C249.658 153.375 246.861 157.757 242.13 161.947C240.962 162.981 239.778 163.911 238.582 164.735C234.055 167.857 229.362 169.463 224.748 169.463Z" fill="#C8C1E1"/>
<path d="M202.452 207.031L201.444 216.054L191.526 304.867H83.4816L82.2556 294.636L70.1279 193.451L82.2556 194.695L84.4923 194.925L86.7777 195.16L101.306 196.652L115.637 198.123L117.871 198.352L120.159 198.585L134.684 200.077L149.015 201.547L151.252 201.777L153.537 202.012L168.063 203.501L182.394 204.972L184.631 205.201L186.919 205.437L201.444 206.928L202.452 207.031Z" fill="#CC1728"/>
<path d="M101.306 196.652V304.866H86.7773V195.16L101.306 196.652Z" fill="#EBA2A9"/>
<path d="M84.4925 194.925V304.867H83.4818L82.2559 294.636V194.695L84.4925 194.925Z" fill="#EBA2A9"/>
<path d="M134.683 200.077V304.867H120.157V198.585L134.683 200.077Z" fill="#EBA2A9"/>
<path d="M115.635 198.123V304.867H117.869V198.352L115.635 198.123Z" fill="#EBA2A9"/>
<path d="M168.062 203.5V304.866H153.537V202.012L168.062 203.5Z" fill="#EBA2A9"/>
<path d="M151.252 201.777V304.866H149.016V201.547L151.252 201.777Z" fill="#EBA2A9"/>
<path d="M201.442 206.928V216.054L191.524 304.867H186.917V205.437L201.442 206.928Z" fill="#EBA2A9"/>
<path d="M184.629 205.202V304.868H182.393V204.973L184.629 205.202Z" fill="#EBA2A9"/>
<path d="M76.4082 245.843C77.7161 245.003 197.56 250.848 197.56 250.848L196.849 257.213L78.3304 261.879L76.4082 245.843Z" fill="#E47F89"/>
<path d="M63.6087 186.565L64.9776 195.734C65.1505 196.891 66.0891 197.786 67.2591 197.908L204.258 212.186C205.78 212.344 207.105 211.157 207.105 209.635V192.937C207.105 191.569 206.026 190.442 204.653 190.375L66.2848 183.626C64.661 183.547 63.3697 184.965 63.6087 186.565Z" fill="#FF443C"/>
<path d="M131.72 186.819V304.869H140.842L148.429 187.634L131.72 186.819Z" fill="#E47F89"/>
<path d="M140.075 187.227C140.075 187.227 141.028 169.524 134.064 155.089C124.352 134.957 107.933 127.422 100.478 131.131C86.3144 138.178 88.7425 139.386 73.1631 142.808C57.5836 146.231 64.6963 163.868 75.1865 166.967C101.085 174.617 131.72 186.819 131.72 186.819L140.075 187.227Z" fill="#E47F89"/>
<path d="M95.216 142.434C92.5294 142.434 89.8931 142.191 87.3956 141.962C86.0797 141.841 84.8371 141.727 83.6238 141.65C79.782 141.405 75.7809 142.368 75.7408 142.378C75.6598 142.397 75.5772 142.348 75.5572 142.267C75.5371 142.186 75.587 142.104 75.6685 142.084C75.7087 142.074 79.7524 141.101 83.643 141.348C84.8603 141.425 86.1054 141.54 87.4234 141.661C93.3667 142.207 100.103 142.826 106.385 140.052C106.461 140.018 106.551 140.053 106.585 140.129C106.619 140.205 106.585 140.294 106.508 140.328C102.807 141.962 98.9627 142.434 95.216 142.434Z" fill="#66192D"/>
<path d="M131.72 186.971C131.681 186.971 131.641 186.956 131.611 186.925C131.522 186.834 122.587 177.656 111.36 168.339C101.009 159.749 86.5398 149.281 76.3912 148.194C71.9124 147.713 68.8391 148.654 67.2574 150.99C65.8261 153.103 65.4472 157.212 67.8272 161.628C67.8668 161.701 67.8391 161.793 67.7653 161.832C67.6918 161.872 67.5994 161.844 67.5598 161.771C66.645 160.073 66.043 158.124 65.865 156.283C65.6561 154.12 66.0505 152.231 67.0057 150.821C68.6552 148.385 71.8236 147.4 76.4238 147.893C86.6482 148.989 101.172 159.491 111.556 168.108C122.795 177.436 131.74 186.623 131.829 186.715C131.888 186.775 131.886 186.871 131.826 186.929C131.796 186.957 131.758 186.971 131.72 186.971Z" fill="#66192D"/>
<path d="M135.126 187.227C135.126 187.227 140.134 157.141 157.332 156.316C157.332 156.316 163.604 155.089 165.273 161.431C166.943 167.772 173.012 163.998 175.592 170.641C178.172 177.285 175.137 183.324 162.238 183.475C149.34 183.626 145.523 187.635 145.523 187.635L135.126 187.227Z" fill="#E47F89"/>
<path d="M142.208 187.378C142.191 187.378 142.175 187.375 142.159 187.37C142.079 187.343 142.037 187.257 142.064 187.178C142.085 187.115 144.339 180.789 154.534 175.89C158.644 173.915 163.102 172.502 166.764 172.014C170.788 171.478 173.539 172.108 174.509 173.786C175.137 174.872 175.193 176.075 174.671 177.265C173.697 179.485 170.82 181.335 166.976 182.212C166.894 182.231 166.813 182.18 166.794 182.099C166.775 182.017 166.827 181.936 166.908 181.918C170.659 181.062 173.457 179.277 174.393 177.144C174.875 176.045 174.825 174.936 174.246 173.936C173.341 172.371 170.698 171.795 166.804 172.313C163.173 172.797 158.748 174.199 154.666 176.161C144.596 181 142.372 187.213 142.351 187.275C142.33 187.338 142.271 187.378 142.208 187.378Z" fill="#66192D"/>
<path d="M168.78 165.8C161.715 165.8 157.277 161.985 157.232 161.945C157.169 161.89 157.163 161.795 157.218 161.732C157.274 161.669 157.37 161.663 157.433 161.718C157.478 161.758 162.04 165.676 169.271 165.492C169.346 165.492 169.425 165.555 169.427 165.639C169.429 165.722 169.362 165.791 169.279 165.794C169.112 165.798 168.945 165.8 168.78 165.8Z" fill="#66192D"/>
<path d="M135.154 187.16C135.148 187.16 135.143 187.16 135.137 187.159C135.053 187.15 134.994 187.075 135.003 186.992C135.013 186.9 136.083 177.708 139.151 173.162C139.198 173.092 139.292 173.074 139.362 173.12C139.432 173.167 139.45 173.261 139.403 173.33C136.377 177.815 135.315 186.934 135.304 187.026C135.296 187.103 135.23 187.16 135.154 187.16Z" fill="#66192D"/>
<path d="M148.43 187.785C148.428 187.785 148.425 187.785 148.423 187.785L131.226 187.075C131.143 187.072 131.078 187.001 131.081 186.918C131.085 186.835 131.15 186.769 131.239 186.774L148.436 187.483C148.52 187.487 148.585 187.557 148.581 187.64C148.578 187.721 148.511 187.785 148.43 187.785Z" fill="#66192D"/>
<path d="M57.8823 315.46C57.8823 315.46 57.9533 318.284 59.8739 319.081C61.7943 319.877 67.3589 320.596 65.2797 322.412C64.0867 323.454 58.4638 322.781 56.8764 322.781C55.2888 322.781 53.7983 323.469 52.6188 322.412C51.3209 321.249 52.619 315.46 52.619 315.46C52.619 315.46 53.9888 316.17 55.2207 316.138C56.9959 316.092 57.8823 315.46 57.8823 315.46Z" fill="#66192D"/>
<path d="M72.156 238.042C72.156 238.042 72.0192 251.058 70.9666 274.022C70.1414 292.027 70.3114 308.713 68.7258 316.621C68.1587 319.45 47.1782 318.008 47.4022 314.894L52.3687 259.271L53.3171 241.66L72.156 238.042Z" fill="#F3C5C9"/>
<path d="M40.7128 209.48C40.7128 209.48 43.5255 201.606 53.5453 201.964C63.5651 202.322 71.5847 215.433 73.459 243.591C73.459 243.591 56.6898 240.093 37.4695 248.445C37.4695 248.445 36.312 220.957 40.7128 209.48Z" fill="#FF443C"/>
<path d="M33.6768 209.007L40.7753 213.528C40.7753 213.528 59.0216 215.345 63.8653 214.47C68.7089 213.596 66.2207 211.049 66.2207 211.049C66.2207 211.049 64.855 203.764 56.0864 202.202C55.2626 202.053 54.4326 202.029 53.5466 201.966C52.0594 201.861 50.5721 201.906 49.1142 202.063C40.451 202.993 33.6768 209.007 33.6768 209.007Z" fill="#FF443C"/>
<path d="M33.5747 209.162C33.3284 209.873 35.1848 211.204 37.7212 212.135C40.2574 213.066 42.5132 213.244 42.7595 212.533C43.0057 211.822 41.1493 210.491 38.6129 209.56C36.0767 208.629 33.8211 208.451 33.5747 209.162Z" fill="#66192D"/>
<path d="M35.8259 315.459C35.8259 315.459 35.8969 318.283 37.8175 319.08C39.7381 319.876 45.3025 320.595 43.2233 322.411C42.0303 323.453 36.4074 322.78 34.82 322.78C33.2324 322.78 31.7419 323.468 30.5621 322.411C29.2642 321.248 30.5624 315.459 30.5624 315.459C30.5624 315.459 31.9322 316.169 33.1641 316.137C34.9397 316.091 35.8259 315.459 35.8259 315.459Z" fill="#66192D"/>
<path d="M37.4687 248.444C37.6435 249.883 45.8196 249.708 55.8303 248.447C65.8411 247.186 73.633 245.029 73.4583 243.59C73.2835 242.151 65.2079 241.976 55.1972 243.237C45.1865 244.498 37.2937 247.006 37.4687 248.444Z" fill="#66192D"/>
<path d="M60.6632 246.484L42.0303 316.604C41.1356 319.464 23.4595 319.081 24.0127 316.045L38.4702 249.723C38.64 248.961 39.206 248.354 39.9456 248.142C43.9536 246.991 61.0567 243.659 60.6632 246.484Z" fill="#F3C5C9"/>
<path d="M50.0219 287.228L49.6719 287.146L55.3612 263.017C56.4268 259.792 58.6104 257.112 61.5142 255.457L61.6928 255.767C58.8663 257.379 56.7406 259.988 55.7069 263.114L50.0219 287.228Z" fill="#020202"/>
<path d="M45.5186 246.885C45.5186 246.885 65.4979 243.087 71.9756 244.879L68.8693 249.459L57.3213 250.109L45.5186 246.885Z" fill="#F3C5C9"/>
<path d="M56.8458 202.567C56.8458 202.567 54.5723 201.662 54.215 200.401C53.8577 199.141 53.0131 199.529 52.5261 199.206C52.0388 198.883 53.4029 195.457 53.4029 195.457L58.1125 193.744L57.6253 199.755L56.8458 202.567Z" fill="#66192D"/>
<path d="M46.9834 202.394C47.9283 202.181 48.8719 201.601 49.2749 200.67L50.5219 197.79L50.886 196.948L53.028 191.997L52.6566 197.127L52.4333 200.207L52.3705 201.074C52.3184 201.793 52.7281 201.829 53.4402 201.957C53.4402 201.957 54.3617 204.73 52.2838 204.73C49.533 204.73 46.9834 202.394 46.9834 202.394Z" fill="#FDAD9B"/>
<path d="M50.5168 197.705C50.5177 197.733 50.5195 197.762 50.5223 197.79C50.6452 199.444 52.4231 200.216 52.4231 200.216L52.4338 200.207L52.657 197.128C52.1133 196.93 51.3393 196.726 50.8862 196.948C50.6495 197.064 50.5007 197.296 50.5168 197.705Z" fill="#66192D"/>
<path d="M53.2616 198.766C55.9371 198.766 58.1061 196.103 58.1061 192.819C58.1061 189.535 55.9371 186.872 53.2616 186.872C50.586 186.872 48.417 189.535 48.417 192.819C48.417 196.103 50.586 198.766 53.2616 198.766Z" fill="#FDAD9B"/>
<path d="M55.8698 196.666C55.8698 196.666 54.215 196.704 52.56 196.126C52.56 196.126 52.4226 197.749 54.2148 197.858C55.2571 197.921 55.8698 196.666 55.8698 196.666Z" fill="white"/>
<path d="M53.7311 192.877C53.7634 192.868 53.7912 192.845 53.8046 192.811C53.8271 192.755 53.7998 192.692 53.7436 192.669C53.7104 192.656 52.9687 192.276 52.3171 192.985C52.2761 193.03 52.2768 193.099 52.321 193.14C52.3651 193.182 52.4261 193.17 52.4769 193.137C52.983 192.798 53.6339 192.862 53.6617 192.873C53.6847 192.882 53.7088 192.883 53.7311 192.877Z" fill="#080435"/>
<path d="M52.6253 194.024C52.6169 194.286 52.7649 194.503 52.9556 194.509C53.1463 194.515 53.3076 194.308 53.3161 194.046C53.3245 193.784 53.1765 193.568 52.9858 193.562C52.7951 193.556 52.6338 193.763 52.6253 194.024Z" fill="#080435"/>
<path d="M55.7608 194.23C55.7358 194.49 55.8694 194.716 56.0592 194.735C56.2492 194.753 56.4236 194.556 56.4486 194.296C56.4736 194.035 56.34 193.81 56.1502 193.791C55.9604 193.773 55.7861 193.97 55.7608 194.23Z" fill="#080435"/>
<path d="M50.9108 189.01C54.6173 189.89 57.2459 193.193 57.364 196.983C57.3708 197.203 57.3744 197.429 57.3744 197.662C57.3744 197.662 53.6011 197.829 54.1548 200.216C54.5758 202.031 57.0253 203.633 57.8703 203.633C59.1473 203.633 61.2857 199.321 60.5956 193.713C59.9054 188.104 57.7199 183.984 52.5433 183.812C47.3669 183.64 48.0569 187.074 48.0569 187.074C48.0569 187.074 48.9652 188.547 50.9108 189.01Z" fill="#66192D"/>
<path d="M51.6374 189.02C51.6374 189.02 51.5495 189.076 51.4075 189.186C50.8597 189.608 49.5047 190.819 49.2648 192.625C48.9628 194.9 51.1629 196.317 50.5589 198.077C49.9549 199.836 48.3588 197.862 47.0648 198.162C45.7708 198.463 44.8217 197.862 44.7352 195.287C44.649 192.711 45.253 186.702 48.3156 186.702L51.6374 189.02Z" fill="#66192D"/>
<path d="M48.509 193.713C49.0577 194.234 49.8251 194.287 50.2227 193.832C50.6205 193.377 50.4981 192.585 49.9494 192.064C49.4007 191.542 48.6333 191.489 48.2355 191.944C47.8379 192.4 47.9603 193.191 48.509 193.713Z" fill="#FDAD9B"/>
<path d="M58.2305 202.853C58.2286 202.853 58.2268 202.853 58.225 202.853C58.2054 202.85 58.192 202.832 58.195 202.812C59.3026 195.653 57.1014 191.886 56.1037 190.599C53.8053 187.633 51.3558 188.022 51.3313 188.027C51.311 188.03 51.293 188.017 51.2896 187.998C51.2862 187.978 51.2992 187.959 51.3187 187.956C51.3438 187.952 53.8358 187.556 56.1603 190.555C57.1638 191.85 59.3777 195.637 58.2657 202.823C58.2632 202.841 58.248 202.853 58.2305 202.853Z" fill="white"/>
<path d="M49.3752 198.193C49.3697 198.193 49.364 198.191 49.3588 198.189C47.8806 197.43 46.8895 196.086 46.4926 194.304C45.9332 191.794 46.6626 189.234 47.2282 188.506C48.2091 187.243 49.9464 187.666 49.9637 187.67C49.9829 187.675 49.9945 187.695 49.9897 187.714C49.9847 187.733 49.9656 187.744 49.946 187.739C49.9291 187.735 48.2368 187.324 47.2851 188.549C46.7423 189.248 46.0161 191.835 46.563 194.289C46.9608 196.075 47.9127 197.365 49.392 198.125C49.4098 198.134 49.4166 198.156 49.4075 198.173C49.4007 198.185 49.3882 198.193 49.3752 198.193Z" fill="white"/>
<path d="M58.927 195.984C58.9081 195.984 58.8922 195.969 58.8913 195.95C58.8872 195.873 58.4575 188.228 55.6919 187.049C52.9247 185.869 50.8592 187.373 50.8387 187.388C50.823 187.4 50.8005 187.397 50.7884 187.381C50.7766 187.365 50.7797 187.343 50.7954 187.331C50.8164 187.316 52.9152 185.787 55.7201 186.983C56.9001 187.487 57.8046 189.149 58.4083 191.926C58.8567 193.987 58.9618 195.928 58.9627 195.947C58.9639 195.966 58.9486 195.983 58.9288 195.984C58.9284 195.984 58.9277 195.984 58.927 195.984Z" fill="white"/>
<path d="M57.6265 199.79H57.6258C57.606 199.79 57.5904 199.773 57.5906 199.754C57.647 197.119 57.1336 195.42 57.1286 195.404C57.1227 195.385 57.1334 195.365 57.1523 195.359C57.1709 195.353 57.1914 195.364 57.1971 195.383C57.2023 195.4 57.7189 197.108 57.6625 199.755C57.662 199.775 57.6459 199.79 57.6265 199.79Z" fill="white"/>
<path d="M55.3488 211.546L45.5507 212.364C44.2521 212.473 43.2707 213.581 43.3265 214.876L44.2434 236.173C44.3008 237.505 45.4307 238.539 46.7694 238.485L56.3754 238.097L55.3488 211.546Z" fill="#E47F89"/>
<path d="M78.1905 210.589L55.3484 211.546C54.314 211.589 53.5084 212.455 53.5441 213.484L54.3338 236.293C54.3709 237.364 55.3015 238.187 56.375 238.097L81.7647 235.977C82.8525 235.886 83.6354 234.897 83.47 233.824L80.1327 212.178C79.987 211.233 79.1502 210.549 78.1905 210.589Z" fill="#CC1728"/>
<path d="M65.9671 230.869L64.4252 230.592C63.9266 230.502 63.6412 229.975 63.8403 229.511L69.8403 215.548C69.9664 215.254 70.2589 215.066 70.5797 215.071L71.2957 215.084C71.8365 215.094 72.2072 215.63 72.0231 216.136L66.849 230.364C66.7181 230.723 66.3456 230.937 65.9671 230.869Z" fill="#C8C1E1"/>
<path d="M62.6274 217.039C60.7009 217.459 59.0236 219.341 59.2835 221.287C59.5436 223.232 61.2487 224.412 63.2039 224.153C65.1604 223.894 67.0744 222.236 66.8145 220.29C66.5546 218.345 64.9847 216.524 62.6274 217.039ZM63.0123 222.168C62.2084 222.274 61.7134 221.357 61.6067 220.558C61.4997 219.758 62.101 219.22 62.9048 219.114C63.7087 219.007 64.447 219.57 64.5539 220.369C64.6607 221.169 63.8161 222.062 63.0123 222.168Z" fill="#C8C1E1"/>
<path d="M72.8022 222.425C70.8757 222.846 69.1984 224.728 69.4583 226.673C69.7182 228.619 71.4235 229.798 73.3787 229.539C75.3352 229.28 77.2492 227.622 76.9893 225.677C76.7294 223.731 75.1595 221.91 72.8022 222.425ZM73.1873 227.555C72.3835 227.661 71.8885 226.744 71.7817 225.944C71.6748 225.144 72.2761 224.607 73.0799 224.5C73.8837 224.394 74.622 224.956 74.7289 225.756C74.8357 226.556 73.9909 227.448 73.1873 227.555Z" fill="#C8C1E1"/>
<path d="M48.5088 226.927C48.5088 226.927 49.7717 223.124 51.9339 222.193C54.0962 221.262 57.5659 221.699 56.3488 222.56C55.1317 223.42 53.2712 224.092 53.2712 224.092C53.2712 224.092 57.314 222.842 57.1982 223.91C57.0823 224.977 53.5559 226.03 53.5559 226.03C53.5559 226.03 58.4856 224.925 58.0482 225.897C57.6108 226.871 53.86 227.684 53.86 227.684C53.86 227.684 58.4879 226.838 57.9531 227.956C57.4182 229.075 54.1242 228.631 54.0084 229.698C53.8925 230.765 53.0698 234.966 50.0491 235.008L48.5088 226.927Z" fill="#FDAD9B"/>
<path d="M51.8308 224.975L51.6738 224.901C52.0066 224.204 53.208 224.014 53.2589 224.006L53.2853 224.177C53.2737 224.179 52.124 224.362 51.8308 224.975Z" fill="#E9845C"/>
<path d="M51.8102 227.092L51.6709 226.988C52.327 226.115 53.4943 225.95 53.5437 225.943L53.5669 226.115C53.5555 226.116 52.4217 226.278 51.8102 227.092Z" fill="#E9845C"/>
<path d="M52.2369 228.663L52.0742 228.602C52.3658 227.83 53.7865 227.607 53.8469 227.598L53.8731 227.769C53.8594 227.771 52.4927 227.986 52.2369 228.663Z" fill="#E9845C"/>
<path d="M84.3669 218.262C84.3669 218.262 84.8362 215.922 82.6864 215.51C79.9472 214.986 76.0298 216.947 77.7608 217.302C79.2957 217.618 81.5833 217.546 81.5833 217.546C81.5833 217.546 75.7693 217.809 76.2367 218.991C76.7044 220.174 81.7005 219.88 81.7005 219.88C81.7005 219.88 76.0644 220.667 76.8696 221.642C77.6748 222.617 82.2133 222.378 82.2133 222.378C82.2133 222.378 76.6634 222.852 77.6254 223.963C78.5874 225.073 81.4074 224.25 82.6823 224.172C83.8869 224.099 84.2297 223.303 84.0754 222.151C84.0754 222.151 84.5915 220.917 84.2998 220.19C84.188 219.911 84.4422 219.612 84.4545 219.401C84.4782 218.998 84.3669 218.262 84.3669 218.262Z" fill="#FDAD9B"/>
<path d="M50.9866 233.763L51.0715 228.601C51.0831 227.896 50.5376 227.305 49.8305 227.255C46.2346 226.999 43.7176 225.889 42.3387 223.948C40.4238 221.254 40.6259 217.069 41.1593 214.167C41.4324 212.682 40.9397 211.688 39.1365 210.736C39.1365 210.736 37.5851 209.887 35.6725 209.563C34.9062 209.433 34.1456 209.74 33.9481 210.487C33.6388 211.658 33.2383 213.479 33.0471 215.622C32.5933 220.711 33.5799 225.139 35.9003 228.425C38.7481 232.458 43.3389 234.69 49.559 235.069C50.3227 235.116 50.9741 234.524 50.9866 233.763Z" fill="#FDAD9B"/>
<g opacity="0.5">
<path d="M37.7664 227.076C37.257 227.076 36.671 226.777 36.2393 226.244C35.9364 225.87 35.7511 225.435 35.7174 225.021C35.6819 224.581 35.8187 224.214 36.1025 223.987C36.3865 223.759 36.7759 223.704 37.1999 223.833C37.6 223.954 37.9871 224.226 38.29 224.601C38.9309 225.392 38.9921 226.405 38.4266 226.858C38.2423 227.006 38.0133 227.076 37.7664 227.076ZM36.7679 224.111C36.5941 224.111 36.4409 224.16 36.321 224.256C36.1296 224.41 36.0383 224.671 36.0643 224.993C36.0923 225.339 36.2507 225.706 36.5101 226.027C37.0217 226.659 37.7996 226.917 38.2086 226.588C38.6175 226.261 38.5308 225.45 38.0192 224.818C37.7595 224.497 37.4327 224.265 37.0988 224.164C36.983 224.129 36.8717 224.111 36.7679 224.111Z" fill="#EC865C"/>
</g>
<path d="M311.301 199.648C311.301 199.648 300.042 212.229 300.341 213.89C300.64 215.551 311.67 216.463 311.67 216.463L314.861 206.586L311.301 199.648Z" fill="#FDAD9B"/>
<path d="M326.683 305.273C326.683 305.273 326.619 307.852 324.865 308.579C323.111 309.306 318.029 309.963 319.928 311.621C321.018 312.572 326.152 311.958 327.602 311.958C329.052 311.958 330.413 312.586 331.49 311.621C332.675 310.559 331.49 305.272 331.49 305.272C331.49 305.272 330.239 305.921 329.114 305.892C327.493 305.85 326.683 305.273 326.683 305.273Z" fill="#66192D"/>
<path d="M310.165 227.868C310.165 227.868 309.815 239.507 313.548 261.834C316.243 277.952 319.424 294.195 320.985 301.981C321.543 304.767 323.898 306.804 326.688 306.915L328.188 306.975C331.205 307.095 333.653 304.516 333.433 301.451L329.647 248.77L328.713 231.431L310.165 227.868Z" fill="#FF443C"/>
<path d="M341.907 305.698C341.907 305.698 341.842 308.277 340.088 309.005C338.335 309.732 333.253 310.389 335.152 312.047C336.241 312.998 341.376 312.383 342.826 312.383C344.275 312.383 345.636 313.012 346.714 312.047C347.899 310.985 346.714 305.698 346.714 305.698C346.714 305.698 345.463 306.347 344.338 306.318C342.716 306.276 341.907 305.698 341.907 305.698Z" fill="#66192D"/>
<path d="M326.775 227.868C326.775 227.868 326.425 239.507 330.158 261.834C332.853 277.952 336.035 294.195 337.596 301.981C338.154 304.767 340.508 306.804 343.299 306.915L344.798 306.975C347.815 307.095 350.264 304.516 350.043 301.451L346.257 248.77L345.324 231.431L326.775 227.868Z" fill="#FF443C"/>
<path d="M347.158 240.622C347.122 242.026 338.588 242.584 328.034 242.256C317.479 241.929 309.045 240.476 309.081 239.072C309.117 237.668 317.61 236.844 328.165 237.171C338.719 237.499 347.194 239.218 347.158 240.622Z" fill="#66192D"/>
<path d="M344.574 200.872C344.574 200.872 342.708 193.512 328.938 193.437C309.08 193.329 310.918 211.485 309.081 239.076C309.081 239.076 328.641 236.324 347.168 240.28C347.168 240.28 348.886 212.118 344.574 200.872Z" fill="#CC1728"/>
<path d="M349.657 199.814L340.663 204.765C340.663 204.765 320.971 206.544 315.743 205.687C310.516 204.83 309.081 201.011 309.081 201.011C309.081 201.011 314.649 195.279 324.113 193.748C325.002 193.603 325.924 193.497 326.88 193.435C328.485 193.332 330.092 193.353 331.664 193.53C343.658 194.875 349.657 199.814 349.657 199.814Z" fill="#CC1728"/>
<path d="M310.744 240.21C310.744 240.21 322.18 236.862 345.865 241.457L346.047 244.847L311.328 246.068L310.744 240.21Z" fill="#FF443C"/>
<path d="M349.845 200.02C350.607 201.094 349.484 203.214 347.336 204.757C345.188 206.299 342.828 206.68 342.066 205.606C341.304 204.533 342.427 202.412 344.575 200.869C346.723 199.327 349.082 198.947 349.845 200.02Z" fill="#66192D"/>
<path d="M312.515 205.103C312.505 205.103 312.495 205.101 312.484 205.099C312.424 205.082 312.389 205.02 312.405 204.96C312.985 202.873 314.928 200.266 314.947 200.24C314.985 200.189 315.056 200.18 315.106 200.217C315.156 200.254 315.166 200.325 315.129 200.375C315.11 200.4 313.192 202.974 312.624 205.02C312.61 205.07 312.565 205.103 312.515 205.103Z" fill="#66192D"/>
<path d="M330.9 266.477C330.845 266.477 330.797 266.438 330.788 266.382C330.773 266.287 329.237 256.812 328.185 253.433C327.839 252.323 327.084 251.158 325.94 249.971C325.897 249.926 325.898 249.855 325.943 249.812C325.988 249.769 326.06 249.77 326.103 249.815C327.272 251.028 328.045 252.223 328.401 253.367C329.458 256.761 330.996 266.251 331.011 266.347C331.021 266.409 330.979 266.466 330.917 266.476C330.912 266.477 330.906 266.477 330.9 266.477Z" fill="#66192D"/>
<path d="M332.01 194.846C332.767 193.766 331.734 193.637 331.443 192.511L330.541 189.027L330.279 188.012L328.737 182.048L328.21 187.881L327.895 191.382L327.795 192.491C327.727 193.243 327.516 193.34 326.922 193.968C326.682 194.222 325.78 195.254 326.871 195.822C327.849 196.331 331.044 196.223 332.01 194.846Z" fill="#FDAD9B"/>
<path d="M331.907 187.741C331.907 187.741 337.755 185.92 337.032 181.612C336.31 177.303 331.633 185.314 331.633 185.314L331.327 187.546L331.907 187.741Z" fill="#66192D"/>
<path d="M330.564 188.932C330.557 188.963 330.55 188.995 330.542 189.026C330.093 190.861 327.906 191.394 327.906 191.394L327.896 191.382L328.211 187.881C328.872 187.761 329.8 187.677 330.279 188.012C330.53 188.187 330.658 188.475 330.564 188.932Z" fill="#66192D"/>
<path d="M333.335 184.444C333.895 181.056 332.06 177.936 329.237 177.474C326.414 177.012 323.671 179.383 323.112 182.77C322.552 186.157 324.386 189.278 327.209 189.74C330.033 190.202 332.775 187.831 333.335 184.444Z" fill="#FDAD9B"/>
<path d="M333.327 184.452C333.887 181.065 332.053 177.945 329.229 177.483C326.406 177.021 323.664 179.392 323.104 182.779C322.544 186.166 324.378 189.287 327.202 189.749C330.025 190.211 332.767 187.84 333.327 184.452Z" fill="#FDAD9B"/>
<path d="M332.739 183.589C332.739 183.589 331.021 183.877 330.338 182.588C329.655 181.3 329.264 180.203 326.3 180.218C323.336 180.232 320.992 178.426 321.169 176.861C321.345 175.296 322.982 174.834 324.445 175.632C325.907 176.43 324.495 174.735 326.227 173.848C327.958 172.96 329.884 175.691 331.534 175.639C333.185 175.587 338.141 177.267 337.033 181.611L332.739 183.589Z" fill="#66192D"/>
<path d="M333.345 184.866C332.809 185.181 332.145 185.051 331.862 184.574C331.579 184.098 331.783 183.456 332.319 183.141C332.855 182.825 333.519 182.956 333.802 183.432C334.085 183.909 333.88 184.551 333.345 184.866Z" fill="#FDAD9B"/>
<path d="M325.133 177.834C324.535 177.834 324.096 177.718 323.823 177.488C323.387 177.119 323.367 176.802 323.494 176.629C323.645 176.423 324.044 176.361 324.45 176.614C325.145 177.046 325.668 176.997 325.673 176.996L325.681 177.066C325.659 177.068 325.13 177.119 324.413 176.673C324.042 176.443 323.683 176.491 323.551 176.67C323.443 176.819 323.469 177.097 323.869 177.435C324.698 178.134 327.006 177.497 327.03 177.49L327.049 177.558C327.043 177.559 326.453 177.723 325.766 177.797C325.539 177.822 325.328 177.834 325.133 177.834Z" fill="white"/>
<path d="M334.426 177.092C333.834 176.647 333.091 176.665 332.231 176.686C331.794 176.698 331.344 176.708 330.854 176.666C329.382 176.537 328.202 175.106 328.163 174.964L328.231 174.945C328.259 175.033 329.382 176.467 330.86 176.596C331.346 176.638 331.795 176.627 332.229 176.616C333.103 176.595 333.858 176.576 334.469 177.037L334.426 177.092Z" fill="white"/>
<path d="M336.022 180.78C336.018 180.78 336.013 180.78 336.009 180.779C335.788 180.758 335.458 180.092 335.458 179.759C335.458 179.588 335.544 179.554 335.595 179.549C335.603 179.548 335.612 179.548 335.62 179.548C336.017 179.548 336.176 180.518 336.183 180.561L336.184 180.567L336.183 180.573C336.149 180.741 336.079 180.78 336.022 180.78ZM335.619 179.618C335.613 179.618 335.608 179.619 335.602 179.619C335.584 179.621 335.528 179.626 335.529 179.759C335.529 180.071 335.848 180.693 336.016 180.709C336.018 180.709 336.02 180.709 336.021 180.709C336.071 180.709 336.098 180.633 336.112 180.565C336.068 180.292 335.897 179.618 335.619 179.618Z" fill="white"/>
<path d="M327.273 183.44C327.243 183.428 327.22 183.403 327.211 183.37C327.196 183.314 327.229 183.257 327.285 183.242C327.318 183.233 328.062 182.957 328.599 183.701C328.633 183.748 328.624 183.813 328.577 183.847C328.531 183.882 328.475 183.864 328.43 183.826C327.99 183.449 327.367 183.437 327.339 183.444C327.316 183.45 327.293 183.448 327.273 183.44Z" fill="#080435"/>
<path d="M327.706 184.654C327.632 184.892 327.431 185.042 327.257 184.989C327.083 184.936 327.002 184.699 327.076 184.461C327.15 184.223 327.351 184.073 327.524 184.126C327.698 184.179 327.779 184.416 327.706 184.654Z" fill="#080435"/>
<path d="M323.41 182.803C323.387 182.795 323.368 182.774 323.362 182.743C323.351 182.691 323.378 182.631 323.423 182.609C323.45 182.596 324.05 182.233 324.464 182.887C324.49 182.928 324.482 182.992 324.444 183.032C324.406 183.072 324.362 183.061 324.327 183.03C323.982 182.721 323.485 182.788 323.463 182.798C323.445 182.807 323.426 182.808 323.41 182.803Z" fill="#080435"/>
<path d="M324.343 183.966C324.366 184.214 324.238 184.429 324.057 184.445C323.876 184.462 323.71 184.274 323.687 184.026C323.664 183.777 323.792 183.562 323.974 183.546C324.154 183.529 324.32 183.717 324.343 183.966Z" fill="#080435"/>
<path d="M322.868 187.011C322.588 187.011 322.316 186.926 322.063 186.757C321.412 186.322 320.975 185.385 320.894 184.251C320.763 182.404 321.615 180.587 322.794 180.2C323.231 180.057 323.668 180.119 324.057 180.379C324.709 180.814 325.146 181.751 325.227 182.885C325.358 184.732 324.506 186.549 323.327 186.936C323.173 186.986 323.019 187.011 322.868 187.011ZM323.25 180.343C323.122 180.343 322.992 180.364 322.862 180.406C321.772 180.764 320.987 182.482 321.111 184.235C321.187 185.304 321.589 186.18 322.185 186.577C322.516 186.798 322.888 186.851 323.258 186.73C324.348 186.372 325.134 184.654 325.009 182.901C324.933 181.832 324.532 180.957 323.936 180.559C323.72 180.415 323.488 180.343 323.25 180.343Z" fill="#FF8548"/>
<g opacity="0.3">
<path d="M331.003 183.096C330.978 184.856 329.931 186.5 328.665 186.767C327.398 187.034 326.392 185.824 326.416 184.064C326.441 182.304 327.488 180.661 328.755 180.393C330.021 180.126 331.028 181.336 331.003 183.096Z" fill="white"/>
</g>
<g opacity="0.3">
<path d="M325.236 183.033C325.21 184.801 324.257 186.495 323.108 186.817C321.959 187.138 321.048 185.966 321.074 184.198C321.099 182.43 322.052 180.736 323.202 180.414C324.351 180.093 325.262 181.265 325.236 183.033Z" fill="white"/>
</g>
<path d="M328.229 186.829C327.81 186.829 327.417 186.686 327.076 186.406C326.431 185.876 326.067 184.945 326.077 183.849C326.096 181.966 327.243 180.205 328.636 179.922C329.198 179.809 329.73 179.941 330.176 180.307C330.82 180.836 331.184 181.768 331.174 182.863C331.155 184.746 330.007 186.508 328.615 186.79C328.484 186.816 328.355 186.829 328.229 186.829ZM329.02 180.1C328.908 180.1 328.794 180.112 328.679 180.135C327.382 180.398 326.313 182.065 326.295 183.851C326.286 184.866 326.629 185.758 327.214 186.238C327.607 186.561 328.076 186.678 328.571 186.577C329.869 186.315 330.938 184.648 330.955 182.861C330.965 181.847 330.622 180.955 330.037 180.474C329.735 180.227 329.388 180.1 329.02 180.1Z" fill="#FF8548"/>
<path d="M326.561 183.702C326.533 183.702 326.504 183.697 326.476 183.684C325.635 183.297 325.022 183.578 324.997 183.59C324.896 183.638 324.774 183.596 324.725 183.495C324.677 183.395 324.718 183.275 324.819 183.226C324.851 183.21 325.622 182.845 326.646 183.316C326.748 183.363 326.793 183.483 326.746 183.585C326.712 183.659 326.638 183.702 326.561 183.702Z" fill="#FF8548"/>
<path d="M337.057 181.664L337.009 181.56C337.858 181.169 337.674 180.247 337.672 180.237L337.784 180.214C337.787 180.224 337.988 181.235 337.057 181.664Z" fill="#66192D"/>
<path d="M337.621 182.903C337.616 182.896 337.191 182.199 336.708 182.075L336.736 181.965C337.265 182.1 337.701 182.813 337.719 182.844L337.621 182.903Z" fill="#66192D"/>
<path d="M320.497 216.177L329.74 284.672C330.558 290.735 326.283 296.309 320.188 297.123L184.434 315.261C178.34 316.075 172.738 311.821 171.92 305.758L162.677 237.263C161.858 231.199 166.133 225.624 172.228 224.81L307.982 206.672C314.076 205.858 319.678 210.113 320.497 216.177Z" fill="#E47F89"/>
<path d="M298.283 284.034C298.171 283.201 298.758 282.435 299.596 282.323C300.433 282.212 301.146 282.635 301.437 283.424C301.862 284.573 300.979 285.344 299.882 285.49C299.045 285.603 298.396 284.867 298.283 284.034Z" fill="#C8C1E1"/>
<path d="M304.14 283.252C304.027 282.419 304.615 281.652 305.452 281.541C306.289 281.429 307.334 281.977 307.446 282.81C307.61 284.023 306.714 284.578 305.877 284.69C305.04 284.801 304.252 284.084 304.14 283.252Z" fill="#C8C1E1"/>
<path d="M309.871 282.554C309.807 281.716 310.358 280.951 311.184 280.776C312.263 280.547 312.987 281.178 313.223 281.984C313.493 282.908 313.209 283.711 311.718 283.91C310.881 284.022 309.951 283.594 309.871 282.554Z" fill="#C8C1E1"/>
<path d="M299.074 289.892C298.961 289.059 299.452 288.378 300.274 288.184C301.436 287.91 302.102 288.628 302.251 289.456C302.429 290.445 301.63 291.086 300.793 291.198C299.956 291.31 299.186 290.725 299.074 289.892Z" fill="#C8C1E1"/>
<path d="M304.776 289.206C304.73 288.367 304.801 287.483 306.243 287.399C307.086 287.349 307.85 287.872 307.962 288.704C308.074 289.538 307.487 290.304 306.649 290.415C305.812 290.527 304.836 290.314 304.776 289.206Z" fill="#C8C1E1"/>
<path d="M310.653 288.311C310.602 287.472 311.087 286.681 311.924 286.569C313.23 286.395 313.819 287.143 313.931 287.975C314.043 288.809 313.343 289.523 312.505 289.634C311.668 289.746 310.717 289.343 310.653 288.311Z" fill="#C8C1E1"/>
<path d="M263.944 304.638L181.607 315.638C177.074 316.244 172.738 311.821 171.92 305.758L162.676 237.263C161.858 231.199 164.868 225.793 169.401 225.188L201.373 220.916C201.754 221.132 201.965 221.252 201.965 221.252C201.965 221.252 213.067 222.659 215.198 232.24C217.33 241.822 219.396 250.856 231.075 252.495C242.753 254.132 256.242 257.752 254.815 275.145C253.387 292.537 265.584 288.856 263.944 304.638Z" fill="#F3C5C9"/>
<path d="M324.723 187.001C324.723 187.001 326.314 187.429 328.052 187.262C328.052 187.262 327.796 188.863 326.038 188.544C325.015 188.359 324.723 187.001 324.723 187.001Z" fill="white"/>
<path d="M274.553 264.497L270.448 263.4C269.121 263.045 268.47 261.554 269.114 260.346L288.514 223.959C288.922 223.194 289.755 222.751 290.621 222.839L292.554 223.036C294.013 223.184 294.893 224.716 294.28 226.042L277.052 263.33C276.616 264.274 275.56 264.767 274.553 264.497Z" fill="#C8C1E1"/>
<path d="M268.678 226.368C263.376 227.07 258.413 231.778 258.672 237.095C258.931 242.412 263.271 245.985 268.614 245.727C273.962 245.468 279.513 241.418 279.254 236.101C278.995 230.785 275.167 225.509 268.678 226.368ZM268.549 240.319C266.353 240.425 265.224 237.835 265.117 235.649C265.011 233.463 266.758 232.145 268.955 232.039C271.152 231.933 273.02 233.619 273.126 235.805C273.232 237.991 270.746 240.213 268.549 240.319Z" fill="#C8C1E1"/>
<path d="M294.956 243.221C289.653 243.924 284.69 248.632 284.949 253.948C285.208 259.265 289.548 262.838 294.892 262.58C300.239 262.322 305.791 258.272 305.531 252.955C305.272 247.638 301.444 242.362 294.956 243.221ZM294.826 257.173C292.63 257.279 291.501 254.688 291.395 252.502C291.288 250.317 293.035 248.999 295.232 248.893C297.429 248.787 299.297 250.473 299.403 252.659C299.51 254.844 297.023 257.066 294.826 257.173Z" fill="#C8C1E1"/>
<path d="M323.759 225.563L322.911 222.953C322.899 222.212 325.141 220.158 325.857 220.36C331.106 221.843 336.25 220.726 339.775 217.327C342.276 214.916 342.931 208.923 342.371 205.876C342.084 204.317 342.602 203.274 344.495 202.275C344.495 202.275 346.123 201.383 348.131 201.043C348.936 200.907 349.734 201.228 349.942 202.014C350.266 203.243 350.687 205.154 350.888 207.404C351.364 212.747 350.328 217.396 347.892 220.846C344.902 225.08 334.95 229.499 324.241 228.844C323.439 228.795 323.772 226.362 323.759 225.563Z" fill="#FDAD9B"/>
<g opacity="0.5">
<path d="M345.933 219.429C345.673 219.429 345.433 219.355 345.239 219.2C344.646 218.724 344.71 217.661 345.383 216.83C346.056 215.999 347.085 215.709 347.679 216.185C348.273 216.661 348.209 217.724 347.536 218.555C347.083 219.115 346.467 219.429 345.933 219.429ZM346.985 216.318C346.562 216.318 346.045 216.591 345.667 217.058C345.13 217.721 345.039 218.573 345.468 218.917C345.898 219.261 346.714 218.991 347.251 218.327C347.789 217.663 347.88 216.812 347.45 216.468C347.323 216.366 347.162 216.318 346.985 216.318Z" fill="#EC865C"/>
</g>
<path d="M325.857 220.36C325.857 220.36 324.531 216.368 322.261 215.39C319.991 214.412 316.348 214.871 317.626 215.775C318.904 216.678 320.857 217.383 320.857 217.383C320.857 217.383 316.613 216.072 316.735 217.192C316.856 218.313 320.559 219.418 320.559 219.418C320.559 219.418 315.383 218.258 315.842 219.279C316.302 220.301 320.239 221.155 320.239 221.155C320.239 221.155 315.381 220.266 315.942 221.44C316.504 222.615 319.962 222.148 320.084 223.269C320.205 224.389 321.069 228.799 324.241 228.843L325.857 220.36Z" fill="#FDAD9B"/>
<path d="M322.371 218.311C322.063 217.665 320.856 217.474 320.844 217.473L320.872 217.293C320.925 217.301 322.187 217.502 322.536 218.232L322.371 218.311Z" fill="#E9845C"/>
<path d="M322.391 220.534C321.748 219.678 320.559 219.51 320.547 219.508L320.571 219.328C320.623 219.335 321.849 219.508 322.538 220.425L322.391 220.534Z" fill="#E9845C"/>
<path d="M321.944 222.183C321.676 221.472 320.241 221.246 320.227 221.244L320.254 221.064C320.317 221.074 321.809 221.308 322.115 222.119L321.944 222.183Z" fill="#E9845C"/>
<path d="M205.111 261.145H226.874C229.758 261.145 232.129 263.409 232.247 266.276L234.186 313.416C234.308 316.364 232.008 318.854 229.045 318.981L207.786 319.894L205.111 261.145Z" fill="#FF443C"/>
<path d="M154.554 263.24L205.112 261.144C207.402 261.049 209.339 262.81 209.452 265.087L211.954 315.539C212.071 317.909 210.172 319.894 207.787 319.894H151.394C148.978 319.894 147.067 317.858 147.233 315.459L150.566 267.103C150.712 264.993 152.43 263.328 154.554 263.24Z" fill="#E47F89"/>
<path d="M171.739 306.03L168.389 305.134C167.306 304.845 166.775 303.628 167.3 302.643L183.131 272.95C183.464 272.326 184.144 271.965 184.851 272.036L186.427 272.196C187.618 272.317 188.336 273.568 187.836 274.65L173.778 305.078C173.422 305.847 172.561 306.249 171.739 306.03Z" fill="#C8C1E1"/>
<path d="M166.947 274.916C162.62 275.489 158.57 279.331 158.781 283.67C158.993 288.009 162.534 290.924 166.895 290.713C171.258 290.503 175.788 287.198 175.577 282.859C175.365 278.52 172.242 274.215 166.947 274.916ZM166.841 286.301C165.049 286.387 164.128 284.273 164.041 282.49C163.954 280.706 165.38 279.631 167.172 279.544C168.965 279.458 170.489 280.834 170.576 282.617C170.663 284.401 168.634 286.214 166.841 286.301Z" fill="#C8C1E1"/>
<path d="M188.389 288.666C184.062 289.239 180.012 293.081 180.224 297.42C180.435 301.758 183.977 304.674 188.337 304.463C192.701 304.253 197.231 300.948 197.019 296.609C196.808 292.271 193.684 287.965 188.389 288.666ZM188.284 300.051C186.491 300.137 185.57 298.023 185.483 296.24C185.396 294.456 186.822 293.381 188.615 293.294C190.407 293.208 191.931 294.584 192.018 296.367C192.105 298.151 190.077 299.964 188.284 300.051Z" fill="#C8C1E1"/>
<path d="M221.608 137.689C221.608 137.689 218.506 136.928 217.828 139.75C216.964 143.345 219.351 148.649 219.931 146.378C220.444 144.365 220.485 141.332 220.485 141.332C220.485 141.332 220.489 149.045 222.098 148.497C223.708 147.949 223.613 141.316 223.613 141.316C223.613 141.316 224.329 148.825 225.681 147.817C227.033 146.809 226.985 140.786 226.985 140.786C226.985 140.786 227.287 148.163 228.83 146.955C230.372 145.748 229.439 141.965 229.412 140.272C229.386 138.673 228.341 138.172 226.792 138.307C226.792 138.307 225.172 137.55 224.182 137.893C223.803 138.024 223.418 137.67 223.137 137.641C222.598 137.586 221.608 137.689 221.608 137.689Z" fill="#FDAD9B"/>
<g opacity="0.5">
<path d="M217.427 141.842C217.41 141.746 217.006 139.482 218.133 138.239C218.664 137.654 219.444 137.398 220.454 137.478L220.435 137.714C219.504 137.64 218.789 137.87 218.31 138.397C217.262 139.553 217.657 141.776 217.661 141.799L217.427 141.842Z" fill="#EC865C"/>
</g>
<g opacity="0.5">
<path d="M273.242 96.8959C272.01 95.7258 272.029 94.0707 272.03 94.001L272.268 94.0055C272.268 94.0216 272.251 95.628 273.406 96.7247L273.242 96.8959Z" fill="#EC865C"/>
</g>
<path d="M141.189 113.635C141.189 113.635 143.532 110.432 141.31 107.029C141.31 107.029 138.963 108.153 138.7 109.037C138.7 109.037 140.451 112.329 137.14 115.859C137.14 115.859 140.26 114.719 141.189 113.635Z" fill="#D6654E"/>
<path d="M130.808 119.734C130.808 119.734 136.696 120.456 141.191 113.636C141.191 113.636 135.916 117.204 132.561 115.514C132.561 115.514 130.607 117.438 130.808 119.734Z" fill="#FF8548"/>
<path d="M60.6912 172.112C60.6912 172.112 62.6637 173.175 64.4077 171.687C64.4077 171.687 63.6025 170.466 63.0863 170.386C63.0863 170.386 61.3694 171.604 59.1416 170.027C59.1416 170.027 60.0142 171.676 60.6912 172.112Z" fill="#D6654E"/>
<path d="M56.4951 166.797C56.4951 166.797 56.5286 170.122 60.6911 172.111C60.6911 172.111 58.2955 169.447 58.9942 167.457C58.9942 167.457 57.7689 166.514 56.4951 166.797Z" fill="#FF8548"/>
<path d="M170.874 123.714C170.874 123.714 172.216 122.928 172.829 120.202C172.829 120.202 171.988 119.039 171.333 118.697C170.678 118.356 169.558 117.817 169.374 118.198C169.189 118.58 168.686 119.954 167.851 120.92C167.017 121.886 168.55 121.819 169.165 122.755C169.779 123.691 170.33 124.203 170.874 123.714Z" fill="#FF8548"/>
<path d="M149.637 141.691C149.637 141.691 150.063 140.201 148.617 137.807C148.617 137.807 147.202 137.542 146.491 137.744C145.781 137.947 144.596 138.325 144.727 138.728C144.858 139.131 145.446 140.471 145.512 141.743C145.578 143.015 146.641 141.914 147.735 142.17C148.828 142.426 149.582 142.418 149.637 141.691Z" fill="#EBA2A9"/>
<path d="M79.0718 123.721C79.0718 123.721 80.3167 124.523 82.9103 123.881C82.9103 123.881 83.5473 122.673 83.5603 121.973C83.5732 121.273 83.5575 120.094 83.1524 120.1C82.7471 120.107 81.3575 120.266 80.1752 119.97C78.9929 119.675 79.7039 120.945 79.1649 121.864C78.6258 122.784 78.4228 123.469 79.0718 123.721Z" fill="#FFBA41"/>
<path d="M312.027 133.655C312.027 133.655 315.611 135.587 318.78 132.882C318.78 132.882 317.317 130.665 316.379 130.52C316.379 130.52 313.26 132.732 309.212 129.867C309.212 129.867 310.797 132.863 312.027 133.655Z" fill="#D6654E"/>
<path d="M304.402 123.999C304.402 123.999 304.463 130.04 312.026 133.654C312.026 133.654 307.673 128.813 308.943 125.197C308.943 125.197 306.717 123.485 304.402 123.999Z" fill="#FF8548"/>
<path d="M323.915 151.272C323.915 151.272 325.6 152.357 329.109 151.488C329.109 151.488 329.97 149.854 329.988 148.907C330.006 147.96 329.985 146.365 329.436 146.373C328.888 146.382 327.008 146.597 325.408 146.198C323.808 145.798 324.77 147.517 324.041 148.76C323.312 150.004 323.037 150.931 323.915 151.272Z" fill="#FFBA41"/>
<path d="M293.053 109.699C293.053 109.699 294.547 109.418 296.016 107.115C296.016 107.115 295.63 105.771 295.142 105.242C294.654 104.713 293.805 103.849 293.508 104.139C293.212 104.429 292.293 105.525 291.206 106.138C290.118 106.751 291.549 107.194 291.802 108.255C292.056 109.317 292.392 109.968 293.053 109.699Z" fill="#EBA2A9"/>
<path d="M268.657 206.055L240.102 186.109C237.252 184.118 236.722 180.127 238.954 177.468L245.001 170.265C246.95 167.944 250.344 167.457 252.872 169.137L281.04 187.852C283.773 189.668 284.509 193.344 282.684 196.063L277.024 204.497C275.168 207.261 271.391 207.965 268.657 206.055Z" fill="#C8C1E1"/>
<path d="M245.805 176.057C246.57 174.917 248.12 174.61 249.266 175.371C250.412 176.133 250.72 177.674 249.955 178.815C248.823 180.502 247.641 180.262 246.494 179.501C245.349 178.739 245.04 177.198 245.805 176.057Z" fill="#C8C1E1"/>
<path d="M248.199 180.784C247.232 180.784 246.379 180.001 245.818 179.317C244.92 178.22 244.513 177.205 245.445 175.816C246.092 174.853 247.313 173.926 249.459 174.983C250.941 175.714 251.028 177.555 250.348 178.997C249.838 180.079 249.188 180.676 248.415 180.771C248.342 180.78 248.27 180.784 248.199 180.784ZM247.699 175.379C246.903 175.379 246.456 175.863 246.166 176.296C245.571 177.183 245.643 177.738 246.49 178.772C247.136 179.561 247.8 179.977 248.309 179.915C248.766 179.858 249.188 179.426 249.563 178.63C250.064 177.569 250.056 176.241 249.074 175.757C248.525 175.486 248.073 175.379 247.699 175.379Z" fill="#66192D"/>
<path d="M246.799 176.953C246.704 176.953 246.604 176.94 246.498 176.909C242.088 176.256 238.341 174.894 235.664 172.97C233.366 171.32 231.938 169.323 231.641 167.349C231.348 165.398 232.24 163.728 234.028 162.88C234.885 162.474 235.672 162.341 236.366 162.483C236.442 162.498 236.492 162.573 236.476 162.649C236.46 162.725 236.386 162.773 236.309 162.758C235.677 162.628 234.95 162.754 234.15 163.134C232.48 163.925 231.646 165.485 231.92 167.308C232.468 170.953 237.204 175.251 246.549 176.633C246.556 176.635 246.562 176.636 246.568 176.638C246.992 176.761 247.259 176.532 247.36 176.299C247.465 176.053 247.435 175.705 247.117 175.522C247.049 175.484 247.026 175.398 247.065 175.331C247.104 175.264 247.191 175.241 247.258 175.28C247.704 175.536 247.777 176.042 247.619 176.409C247.492 176.704 247.201 176.953 246.799 176.953Z" fill="#66192D"/>
<path d="M242.904 172.902C242.873 172.902 242.843 172.892 242.817 172.872C240.745 171.274 239.58 169.556 239.257 167.621C239.069 166.493 238.798 165.541 238.453 164.792C238.421 164.721 238.452 164.638 238.523 164.606C238.593 164.573 238.677 164.604 238.71 164.675C239.065 165.446 239.343 166.422 239.536 167.575C239.846 169.437 240.976 171.097 242.99 172.65C243.051 172.698 243.063 172.786 243.015 172.847C242.988 172.883 242.946 172.902 242.904 172.902Z" fill="#66192D"/>
<defs>
<linearGradient id="paint0_linear_2008_5540" x1="-615" y1="180.02" x2="914.248" y2="180.02" gradientUnits="userSpaceOnUse">
<stop stop-color="white"/>
<stop offset="0.1076" stop-color="#FDE5E8"/>
<stop offset="0.303" stop-color="#FBBCC3"/>
<stop offset="0.4944" stop-color="#F99CA6"/>
<stop offset="0.6779" stop-color="#F78591"/>
<stop offset="0.8502" stop-color="#F67784"/>
<stop offset="1" stop-color="#F67280"/>
</linearGradient>
</defs>
</svg>
