<svg width="375" height="361" viewBox="0 0 375 361" fill="none" xmlns="http://www.w3.org/2000/svg">
<path d="M1362 197.7C1362 197.7 1361.02 196.328 1359.06 193.583C1357.88 191.819 1356.31 189.858 1354.74 187.702C1353.96 186.526 1353.18 185.545 1352.19 184.369C1351.41 183.389 1350.82 182.605 1350.04 181.625C1348.47 179.86 1346.9 177.704 1345.14 175.743C1343.37 173.783 1341.61 171.627 1339.64 169.47C1331.8 160.845 1322.39 151.435 1311.41 142.221C1300.42 133.007 1288.46 124.185 1275.32 115.756C1249.05 98.8963 1219.04 84.1934 1185.9 71.6469C1152.76 58.9044 1116.48 48.1223 1076.67 39.3005C1056.67 34.7916 1036.08 30.8709 1013.72 27.7342C1002.55 26.1659 991.173 24.7937 978.819 23.6174C975.681 23.4214 972.543 23.0293 969.406 22.8333C967.249 22.6372 965.091 22.4412 962.738 22.4412H959.012C953.129 22.4412 947.442 22.2452 941.559 22.2452C938.03 22.2452 934.304 22.2452 930.97 22.2452C927.636 22.4412 924.499 22.4412 921.165 22.6372C914.693 22.8333 908.026 23.4214 901.555 23.6174C888.416 24.5976 875.081 26.1659 861.942 28.1263C835.469 32.0471 809.191 38.3203 784.09 45.9658C758.989 53.6114 734.869 62.6291 711.925 71.8429C689.177 81.0568 667.41 90.6627 646.819 99.2884C626.229 108.11 606.619 116.148 587.597 123.009L580.537 125.558L578.772 126.146L577.792 126.538L577.4 126.734C576.615 126.93 576.811 126.93 576.615 126.93L572.497 128.302C567.202 130.066 562.104 131.635 556.809 133.399C546.416 136.732 536.022 139.868 525.825 142.809C484.644 154.375 444.051 162.805 405.223 165.549C366.395 168.49 329.332 165.941 294.818 157.316C290.504 156.14 286.778 155.159 280.895 153.395C278.738 152.807 276.581 152.023 274.424 151.435L271.678 150.65L268.541 149.67C260.304 146.926 252.068 143.789 243.636 140.26C227.163 133.203 210.495 124.577 194.022 115.167C160.881 96.3478 128.132 74.7835 95.1871 55.7678C86.9509 51.0629 78.7147 46.3579 70.4785 41.849C66.5565 39.6926 62.6344 37.5362 58.7124 35.5758C53.6138 32.8312 49.2994 30.6748 44.7892 28.5184C26.7479 20.0887 8.70667 13.8155 -8.35413 9.50265C-25.4149 5.1898 -41.6914 2.64129 -56.3989 1.26902C-71.1064 -0.103247 -84.4414 -0.103244 -96.2074 0.092795C-119.74 0.87695 -137.389 3.22941 -149.155 4.79772C-155.038 5.58187 -159.548 6.36603 -162.49 6.75811C-165.431 7.34622 -167 7.54226 -167 7.54226L-156.803 113.011C-156.803 113.011 -155.43 113.011 -152.684 112.815C-149.939 112.815 -146.017 112.619 -141.115 112.619C-130.917 112.423 -116.406 112.619 -98.7567 114.383C-81.3037 116.148 -61.1053 119.872 -40.5148 128.302C-30.1215 132.419 -19.728 137.712 -8.9425 144.573C-6.39319 146.338 -3.45166 148.102 -1.29456 149.67C2.03918 152.023 5.17676 154.375 8.5105 156.728C14.7858 161.237 21.4531 166.138 28.1206 171.235C41.6516 181.429 55.7709 192.799 70.8707 204.953C86.1666 217.108 102.247 230.046 120.092 243.377C137.937 256.511 157.155 270.038 178.726 282.781C189.512 289.054 200.69 295.327 212.652 301.012L217.162 303.169L222.065 305.325C225.006 306.697 227.948 307.874 230.889 309.246C235.399 311.402 242.067 314.147 248.146 316.499C272.855 326.301 298.936 333.947 325.214 339.436C338.352 342.18 351.687 344.337 365.022 346.101C378.357 347.865 391.888 349.042 405.223 349.826C458.759 352.962 511.902 348.846 562.888 341.396C575.635 339.436 588.185 337.475 600.736 335.123C607.011 333.947 613.09 332.77 619.365 331.594L623.68 330.81C623.68 330.81 624.464 330.614 623.876 330.81L624.464 330.614L625.641 330.418L628.19 329.83C631.524 329.046 634.857 328.458 638.191 327.673C664.469 321.988 689.373 315.127 712.513 308.462C735.849 301.796 757.617 295.327 777.815 290.034C798.209 284.741 817.035 280.428 834.684 277.488C852.333 274.547 869.002 272.979 884.69 272.783C892.534 272.587 900.182 272.979 907.634 273.175C911.36 273.567 915.086 273.567 918.812 274.155C920.576 274.351 922.538 274.547 924.302 274.743C926.067 274.939 927.244 275.135 928.813 275.527C932.931 276.115 937.049 276.703 941.167 277.292L944.893 277.88C946.658 278.076 942.932 277.684 943.52 277.684H943.913L944.501 277.88L945.677 278.076C947.442 278.468 949.207 278.664 950.972 279.056C958.032 280.428 965.68 281.996 973.328 283.761C988.624 287.289 1003.72 291.602 1018.04 296.111C1046.67 305.129 1071.97 315.323 1091.97 325.125C1111.97 334.927 1126.68 344.337 1134.91 351.002C1139.03 354.335 1141.78 357.079 1143.15 358.648C1144.52 360.412 1144.72 361 1144.52 361C1144.33 361 1144.33 361 1144.13 360.804C1143.94 360.804 1143.74 360.608 1143.74 360.412C1143.54 360.216 1143.74 360.412 1143.54 360.216C1143.15 359.824 1142.96 359.432 1142.76 359.236C1142.17 358.452 1141.78 357.863 1141.39 357.275C1142.76 359.628 1143.54 360.804 1143.54 360.804L1362 197.7Z" fill="url(#paint0_linear_3001_5584)" fill-opacity="0.14"/>
<path d="M177.747 314.479H67.1719C63.7635 314.479 61 311.716 61 308.307V98.8653C61 95.4568 63.7635 92.6934 67.1719 92.6934H177.746C181.154 92.6934 183.918 95.4568 183.918 98.8653V308.308C183.919 311.717 181.155 314.479 177.747 314.479Z" fill="url(#paint1_linear_3001_5584)"/>
<path d="M89.0298 94.2363H67.9434C64.535 94.2363 61.7715 96.9998 61.7715 100.408V309.851C61.7715 310.539 61.8888 311.197 62.0963 311.815C61.4066 310.819 61 309.612 61 308.308V98.8653C61 95.4568 63.7635 92.6934 67.1719 92.6934H89.1463C89.0962 93.2041 89.0576 93.7187 89.0298 94.2363ZM177.747 92.6934H156.124C156.175 93.2049 156.219 93.7187 156.247 94.2363H178.518C180.624 94.2363 182.48 95.2925 183.594 96.9011C182.773 94.4562 180.468 92.6934 177.747 92.6934Z" fill="#CC1728"/>
<g opacity="0.5">
<path d="M178.466 105.549H67.9956V303.166H178.466V105.549Z" fill="black"/>
</g>
<path d="M177.695 104.778H67.2241V302.396H177.695V104.778Z" fill="url(#paint2_linear_3001_5584)"/>
<path d="M129.323 99.6095H115.596C115.113 99.6095 114.722 99.2184 114.722 98.7354C114.722 98.2525 115.113 97.8613 115.596 97.8613H129.323C129.806 97.8613 130.197 98.2525 130.197 98.7354C130.197 99.2184 129.805 99.6095 129.323 99.6095Z" fill="#CC1728"/>
<path d="M131.05 143.06H113.868C110.749 143.06 108.22 140.531 108.22 137.412V120.229C108.22 117.11 110.749 114.581 113.868 114.581H131.05C134.17 114.581 136.699 117.11 136.699 120.229V137.412C136.699 140.531 134.17 143.06 131.05 143.06Z" fill="#FFD9D8"/>
<path d="M97.9963 143.06H80.8136C77.6945 143.06 75.1655 140.531 75.1655 137.412V120.229C75.1655 117.11 77.6945 114.581 80.8136 114.581H97.9963C101.115 114.581 103.644 117.11 103.644 120.229V137.412C103.644 140.531 101.115 143.06 97.9963 143.06Z" fill="#E47F89"/>
<path d="M164.105 143.06H146.923C143.803 143.06 141.274 140.531 141.274 137.412V120.229C141.274 117.11 143.803 114.581 146.923 114.581H164.105C167.224 114.581 169.753 117.11 169.753 120.229V137.412C169.753 140.531 167.224 143.06 164.105 143.06Z" fill="#E47F89"/>
<path d="M131.05 176.115H113.868C110.749 176.115 108.22 173.586 108.22 170.466V153.284C108.22 150.165 110.749 147.636 113.868 147.636H131.05C134.17 147.636 136.699 150.165 136.699 153.284V170.466C136.699 173.586 134.17 176.115 131.05 176.115Z" fill="#FFD25E"/>
<path d="M97.9963 176.115H80.8136C77.6945 176.115 75.1655 173.586 75.1655 170.466V153.284C75.1655 150.165 77.6945 147.636 80.8136 147.636H97.9963C101.115 147.636 103.644 150.165 103.644 153.284V170.466C103.644 173.586 101.115 176.115 97.9963 176.115Z" fill="#D43A48"/>
<path d="M164.105 176.115H146.923C143.803 176.115 141.274 173.586 141.274 170.466V153.284C141.274 150.165 143.803 147.636 146.923 147.636H164.105C167.224 147.636 169.753 150.165 169.753 153.284V170.466C169.753 173.586 167.224 176.115 164.105 176.115Z" fill="#FF7D57"/>
<path d="M131.05 209.168H113.868C110.749 209.168 108.22 206.639 108.22 203.52V186.338C108.22 183.218 110.749 180.689 113.868 180.689H131.05C134.17 180.689 136.699 183.218 136.699 186.338V203.52C136.699 206.639 134.17 209.168 131.05 209.168Z" fill="#F3C5C9"/>
<path d="M97.9963 209.168H80.8136C77.6945 209.168 75.1655 206.639 75.1655 203.52V186.338C75.1655 183.218 77.6945 180.689 80.8136 180.689H97.9963C101.115 180.689 103.644 183.218 103.644 186.338V203.52C103.644 206.639 101.115 209.168 97.9963 209.168Z" fill="#F9E4CE"/>
<path d="M164.105 209.168H146.923C143.803 209.168 141.274 206.639 141.274 203.52V186.338C141.274 183.218 143.803 180.689 146.923 180.689H164.105C167.224 180.689 169.753 183.218 169.753 186.338V203.52C169.753 206.639 167.224 209.168 164.105 209.168Z" fill="#F3C5C9"/>
<path d="M123.237 155.125L124.536 159.125C124.645 159.462 124.959 159.689 125.314 159.689H129.519C130.311 159.689 130.641 160.703 130 161.169L126.597 163.641C126.311 163.849 126.191 164.218 126.3 164.555L127.599 168.555C127.844 169.308 126.982 169.935 126.341 169.469L122.939 166.997C122.652 166.789 122.264 166.789 121.978 166.997L118.575 169.469C117.934 169.935 117.072 169.308 117.317 168.555L118.616 164.555C118.726 164.218 118.605 163.849 118.319 163.641L114.917 161.169C114.276 160.703 114.605 159.689 115.398 159.689H119.603C119.957 159.689 120.271 159.461 120.381 159.125L121.68 155.125C121.926 154.372 122.992 154.372 123.237 155.125Z" stroke="#FFB63D" stroke-width="2" stroke-miterlimit="10" stroke-linecap="round" stroke-linejoin="round"/>
<path d="M123.237 155.125L124.536 159.125C124.645 159.462 124.959 159.689 125.314 159.689H129.519C130.311 159.689 130.641 160.703 130 161.169L126.597 163.641C126.311 163.849 126.191 164.218 126.3 164.555L127.599 168.555C127.844 169.308 126.982 169.935 126.341 169.469L122.939 166.997C122.652 166.789 122.264 166.789 121.978 166.997L118.575 169.469C117.934 169.935 117.072 169.308 117.317 168.555L118.616 164.555C118.726 164.218 118.605 163.849 118.319 163.641L114.917 161.169C114.276 160.703 114.605 159.689 115.398 159.689H119.603C119.957 159.689 120.271 159.461 120.381 159.125L121.68 155.125C121.926 154.372 122.992 154.372 123.237 155.125Z" fill="white"/>
<path opacity="0.4" d="M183.918 308.306V245.142L171.29 239.684L170.953 223.143C170.881 219.584 167.947 216.796 164.387 216.892L150.54 217.263C147.147 217.354 144.28 219.987 143.936 223.359L143.473 252.469L144.159 179.931C144.228 172.698 138.071 166.923 130.353 166.923C122.572 166.923 115.97 172.785 115.66 180.127L110.8 295.174L112.797 247.912L97.106 269.505C89.7414 279.639 87.2819 292.586 90.7489 304.059L93.8974 314.478H177.746C181.155 314.478 183.918 311.716 183.918 308.306Z" fill="url(#paint3_linear_3001_5584)"/>
<path d="M198.966 261.476L193.715 258.297C191.269 256.816 189.518 254.419 188.851 251.641C188.089 248.469 185.924 245.818 182.967 244.439L168.545 237.715V222.12C168.545 218.69 165.765 215.91 162.335 215.91H149.117C145.907 215.91 143.226 218.355 142.932 221.552L142.757 248.248V178.388C142.757 170.778 136.588 164.609 128.978 164.609C121.368 164.609 115.199 170.778 115.199 178.388V282.803V243.011L102.517 261.013C96.8173 269.104 95.4757 279.487 98.9335 288.761L113.33 327.377C114.566 330.691 115.199 334.201 115.199 337.738V344H185.399V328.644C197.136 320.428 204.126 307.003 204.126 292.677V270.631C204.126 266.885 202.168 263.414 198.966 261.476Z" fill="url(#paint4_linear_3001_5584)"/>
<path d="M115.199 243.012V282.804L112.694 278.759C111.101 276.188 110.483 273.131 110.951 270.144L115.199 243.012ZM168.545 237.716V249.681L170.671 238.707L168.545 237.716ZM146.675 216.416C144.638 217.289 143.148 219.218 142.933 221.553V249.682L146.675 216.416Z" fill="url(#paint5_linear_3001_5584)"/>
<path opacity="0.4" d="M91.2295 92.6934C91.1485 93.3815 91.0822 94.0743 91.0467 94.7748C90.2652 110.372 100.788 123.646 115.14 127.136C115.699 127.272 116.164 127.656 116.382 128.189L120.991 139.482C121.593 140.956 123.682 140.956 124.284 139.482L128.893 128.191C129.111 127.657 129.577 127.272 130.137 127.136C143.986 123.767 154.269 111.289 154.269 96.4035C154.269 95.1475 154.189 93.9115 154.047 92.6941L91.2295 92.6934Z" fill="#F3C5C9"/>
<path d="M152.907 94.2698C152.907 76.8295 138.159 62.8347 120.454 64.0768C105.316 65.1383 93.1662 77.5555 92.4063 92.7122C91.658 107.638 101.728 120.341 115.462 123.68C115.997 123.81 116.442 124.177 116.65 124.687L121.062 135.494C121.638 136.906 123.636 136.906 124.213 135.494L128.623 124.69C128.832 124.179 129.278 123.809 129.814 123.679C143.067 120.456 152.907 108.514 152.907 94.2698Z" fill="#FFD25E"/>
<path d="M137.937 90.622C137.937 94.3491 136.828 97.2283 134.61 99.2589C132.392 101.289 129.242 102.306 125.16 102.306H122.604V113.373H113.509V80.0117H125.159C129.41 80.0117 132.603 80.9321 134.737 82.7721C136.87 84.6129 137.937 87.2298 137.937 90.622ZM122.604 94.957H124.262C125.627 94.957 126.713 94.5775 127.52 93.8168C128.325 93.0561 128.728 92.0069 128.728 90.6676C128.728 88.4163 127.47 87.29 124.953 87.29H122.604V94.957H122.604Z" fill="white"/>
<path d="M137.937 90.622C137.937 94.3491 136.828 97.2283 134.61 99.2589C132.392 101.289 129.242 102.306 125.16 102.306H122.604V113.373H113.509V80.0117H125.159C129.41 80.0117 132.603 80.9321 134.737 82.7721C136.87 84.6129 137.937 87.2298 137.937 90.622ZM122.604 94.957H124.262C125.627 94.957 126.713 94.5775 127.52 93.8168C128.325 93.0561 128.728 92.0069 128.728 90.6676C128.728 88.4163 127.47 87.29 124.953 87.29H122.604V94.957H122.604Z" fill="white"/>
<path d="M98.3111 107.844C96.0136 103.572 94.8047 98.6267 95.0678 93.3775C95.7606 79.5555 106.84 68.2315 120.646 67.2633C132.615 66.4239 143.095 73.2231 147.721 83.274C142.769 74.0802 132.762 68.0109 121.417 68.8063C107.611 69.7745 96.5321 81.0984 95.8393 94.9205C95.6078 99.5487 96.5189 103.941 98.3111 107.844ZM118.721 124.081C118.642 123.888 117.811 123.686 117.605 123.582L121.201 132.393C121.285 132.599 122.182 132.76 122.321 132.899L118.721 124.081Z" fill="white"/>
<path d="M278.335 203.516L299.001 193.856L291.946 185.424L279.239 198.175L292.914 178.491L281.592 171.609C281.592 171.609 274.994 189.366 269.792 203.515H278.335V203.516Z" fill="url(#paint6_linear_3001_5584)"/>
<path opacity="0.4" d="M269.792 203.516H278.334L284.207 199.921H274.338L274.562 190.584L269.792 203.516Z" fill="url(#paint7_linear_3001_5584)"/>
<path d="M272.38 203.516L274.418 172.523L247.335 180.933L264.513 203.516H272.38Z" fill="url(#paint8_linear_3001_5584)"/>
<path d="M256.895 190.585L251.205 182.241L270.495 175.845L256.177 182.146L256.895 190.585Z" fill="white"/>
<path opacity="0.4" d="M264.513 203.517L263.789 202.567L272.446 202.517L272.38 203.517H264.513Z" fill="#CC1728"/>
<path d="M296.391 203.347H232.655V277.449H296.391V203.347Z" fill="url(#paint9_linear_3001_5584)"/>
<path d="M296.39 277.448H232.654V274.704H296.39V277.448ZM296.39 269.215H232.654V271.959H296.39V269.215ZM296.39 263.726H232.654V266.47H296.39V263.726ZM296.39 258.237H232.654V260.981H296.39V258.237ZM296.39 252.748H232.654V255.493H296.39V252.748ZM296.39 247.259H232.654V250.003H296.39V247.259ZM296.39 241.77H232.654V244.514H296.39V241.77ZM296.39 236.281H232.654V239.025H296.39V236.281ZM296.39 230.792H232.654V233.536H296.39V230.792ZM296.39 225.303H232.654V228.047H296.39V225.303ZM296.39 219.813H232.654V222.558H296.39V219.813ZM296.39 214.325H232.654V217.069H296.39V214.325ZM296.39 208.836H232.654V211.58H296.39V208.836ZM296.39 203.347H232.654V206.092H296.39V203.347Z" fill="#D43A48"/>
<path d="M313.682 203.347H296.39V277.449H313.682V203.347Z" fill="url(#paint10_linear_3001_5584)"/>
<path d="M313.682 277.448H296.39V274.704H313.682V277.448ZM313.682 269.215H296.39V271.959H313.682V269.215ZM313.682 263.726H296.39V266.47H313.682V263.726ZM313.682 258.237H296.39V260.981H313.682V258.237ZM313.682 252.748H296.39V255.493H313.682V252.748ZM313.682 247.259H296.39V250.003H313.682V247.259ZM313.682 241.77H296.39V244.514H313.682V241.77ZM313.682 236.281H296.39V239.025H313.682V236.281ZM313.682 230.792H296.39V233.536H313.682V230.792ZM313.682 225.303H296.39V228.047H313.682V225.303ZM313.682 219.813H296.39V222.558H313.682V219.813ZM313.682 214.325H296.39V217.069H313.682V214.325ZM313.682 208.836H296.39V211.58H313.682V208.836ZM313.682 203.347H296.39V206.092H313.682V203.347Z" fill="#DC5D69"/>
<path opacity="0.4" d="M269.888 203.347H260.701V277.449H269.888V203.347Z" fill="url(#paint11_linear_3001_5584)"/>
<path opacity="0.4" d="M309.67 203.347H305.033V277.449H309.67V203.347Z" fill="url(#paint12_linear_3001_5584)"/>
<path d="M269.117 203.347H259.93V277.449H269.117V203.347Z" fill="url(#paint13_linear_3001_5584)"/>
<path d="M308.898 203.347H304.261V277.449H308.898V203.347Z" fill="url(#paint14_linear_3001_5584)"/>
<path opacity="0.4" d="M232.656 245.763V236.576H296.391V245.763H232.656Z" fill="url(#paint15_linear_3001_5584)"/>
<path d="M232.656 244.992V235.805H296.391V244.992H232.656Z" fill="url(#paint16_linear_3001_5584)"/>
<path d="M233.89 236.887H268.119L233.89 238.093V236.887Z" fill="white"/>
<path opacity="0.4" d="M296.391 245.763V236.576H313.682V245.763H296.391Z" fill="url(#paint17_linear_3001_5584)"/>
<path d="M296.391 244.992V235.805H313.682V244.992H296.391Z" fill="url(#paint18_linear_3001_5584)"/>
<path d="M238.545 181.168V184.254L220.276 176.582V173.496L238.545 181.168ZM224.573 172.357L227.358 171.619L221.235 166.456C220.415 165.845 219.578 165.269 218.713 164.744C215.248 162.645 210.736 161.637 207.528 161.132C205.327 160.785 200.689 160.697 198.791 160.697H181.778V163.783H198.791C200.69 163.783 205.327 163.871 207.528 164.218C210.736 164.724 215.248 165.731 218.713 167.83C219.578 168.355 220.416 168.932 221.235 169.542L224.573 172.357Z" fill="#CC1728"/>
<path d="M238.545 181.168L220.276 173.496L227.358 171.619L221.235 166.457C220.415 165.846 219.578 165.269 218.712 164.744C215.247 162.645 210.736 161.637 207.527 161.132C205.327 160.785 200.689 160.697 198.791 160.697H181.778V159.33C181.778 156.101 184.396 153.482 187.626 153.482H200.185C203.702 153.482 206.55 154.148 208.832 154.819C213.399 156.159 217.606 158.442 221.128 161.427C222.008 162.174 222.841 162.968 223.64 163.789L228.997 169.982L230.876 162.898L238.545 181.168Z" fill="#DC5D69"/>
<path d="M221.235 166.455C220.415 165.844 219.578 165.268 218.712 164.743C215.247 162.644 210.736 161.636 207.527 161.131C205.327 160.784 200.689 160.696 198.791 160.696H181.778V159.925H198.791C200.689 159.925 205.327 160.013 207.527 160.359C210.736 160.864 215.247 161.873 218.712 163.971C219.578 164.497 220.416 165.073 221.235 165.684L228.054 171.433L227.358 171.618L221.235 166.455ZM221.402 173.197L220.276 173.495L238.545 181.167L238.151 180.23L221.402 173.197Z" fill="#DC5D69"/>
<defs>
<linearGradient id="paint0_linear_3001_5584" x1="1362" y1="180.02" x2="-167.248" y2="180.02" gradientUnits="userSpaceOnUse">
<stop stop-color="white"/>
<stop offset="0.1076" stop-color="#FDE5E8"/>
<stop offset="0.303" stop-color="#FBBCC3"/>
<stop offset="0.4944" stop-color="#F99CA6"/>
<stop offset="0.6779" stop-color="#F78591"/>
<stop offset="0.8502" stop-color="#F67784"/>
<stop offset="1" stop-color="#F67280"/>
</linearGradient>
<linearGradient id="paint1_linear_3001_5584" x1="62.5569" y1="63.1976" x2="235.299" y2="468.04" gradientUnits="userSpaceOnUse">
<stop stop-color="#DC5D69"/>
<stop offset="0.9998" stop-color="#CC1728"/>
</linearGradient>
<linearGradient id="paint2_linear_3001_5584" x1="84.9096" y1="77.4779" x2="235.611" y2="583.607" gradientUnits="userSpaceOnUse">
<stop stop-color="white"/>
<stop offset="1" stop-color="#CCEEEE"/>
</linearGradient>
<linearGradient id="paint3_linear_3001_5584" x1="89.3438" y1="163.652" x2="197.869" y2="417.996" gradientUnits="userSpaceOnUse">
<stop stop-color="#FBE8EA"/>
<stop offset="1" stop-color="#F3C5C9"/>
</linearGradient>
<linearGradient id="paint4_linear_3001_5584" x1="122.03" y1="160.745" x2="176.504" y2="379.925" gradientUnits="userSpaceOnUse">
<stop stop-color="#F9E4CE"/>
<stop offset="1" stop-color="#FFD9D8"/>
</linearGradient>
<linearGradient id="paint5_linear_3001_5584" x1="185.742" y1="351.219" x2="108.945" y2="190.169" gradientUnits="userSpaceOnUse">
<stop stop-color="#AC692A"/>
<stop offset="1" stop-color="#FFD9D8"/>
</linearGradient>
<linearGradient id="paint6_linear_3001_5584" x1="268.578" y1="169.323" x2="297.744" y2="218.819" gradientUnits="userSpaceOnUse">
<stop stop-color="#FFB63D"/>
<stop offset="0.9933" stop-color="#AC692A"/>
</linearGradient>
<linearGradient id="paint7_linear_3001_5584" x1="269.471" y1="188.942" x2="283.07" y2="212.019" gradientUnits="userSpaceOnUse">
<stop stop-color="#D43A48"/>
<stop offset="1" stop-color="#CC1728"/>
</linearGradient>
<linearGradient id="paint8_linear_3001_5584" x1="254.223" y1="165.438" x2="287.728" y2="222.298" gradientUnits="userSpaceOnUse">
<stop offset="0.0067" stop-color="#FFD25E"/>
<stop offset="1" stop-color="#FFB63D"/>
</linearGradient>
<linearGradient id="paint9_linear_3001_5584" x1="377.919" y1="447.936" x2="219.852" y2="158.643" gradientUnits="userSpaceOnUse">
<stop stop-color="#DC5D69"/>
<stop offset="1" stop-color="#DC5D69"/>
</linearGradient>
<linearGradient id="paint10_linear_3001_5584" x1="230.845" y1="74.923" x2="382.948" y2="414.172" gradientUnits="userSpaceOnUse">
<stop stop-color="#EBA2A9"/>
<stop offset="1" stop-color="#D43A48"/>
</linearGradient>
<linearGradient id="paint11_linear_3001_5584" x1="237.253" y1="192.809" x2="308.602" y2="313.893" gradientUnits="userSpaceOnUse">
<stop stop-color="#E47F89"/>
<stop offset="1" stop-color="#D43A48"/>
</linearGradient>
<linearGradient id="paint12_linear_3001_5584" x1="273.095" y1="171.009" x2="344.444" y2="315.529" gradientUnits="userSpaceOnUse">
<stop stop-color="#E47F89"/>
<stop offset="1" stop-color="#D43A48"/>
</linearGradient>
<linearGradient id="paint13_linear_3001_5584" x1="236.482" y1="192.809" x2="307.831" y2="313.893" gradientUnits="userSpaceOnUse">
<stop offset="0.0067" stop-color="#FFD25E"/>
<stop offset="1" stop-color="#FFB63D"/>
</linearGradient>
<linearGradient id="paint14_linear_3001_5584" x1="272.323" y1="171.009" x2="343.672" y2="315.529" gradientUnits="userSpaceOnUse">
<stop stop-color="#FFB63D"/>
<stop offset="0.9933" stop-color="#AC692A"/>
</linearGradient>
<linearGradient id="paint15_linear_3001_5584" x1="236.482" y1="193.581" x2="307.83" y2="314.665" gradientUnits="userSpaceOnUse">
<stop stop-color="#DC5D69"/>
<stop offset="1" stop-color="#CC1728"/>
</linearGradient>
<linearGradient id="paint16_linear_3001_5584" x1="236.482" y1="192.81" x2="307.83" y2="313.894" gradientUnits="userSpaceOnUse">
<stop offset="0.0067" stop-color="#FFD25E"/>
<stop offset="1" stop-color="#FFB63D"/>
</linearGradient>
<linearGradient id="paint17_linear_3001_5584" x1="324.834" y1="232.972" x2="286.567" y2="248.818" gradientUnits="userSpaceOnUse">
<stop stop-color="#DC5D69"/>
<stop offset="1" stop-color="#CC1728"/>
</linearGradient>
<linearGradient id="paint18_linear_3001_5584" x1="324.834" y1="232.2" x2="286.567" y2="248.047" gradientUnits="userSpaceOnUse">
<stop stop-color="#FFB63D"/>
<stop offset="0.9933" stop-color="#AC692A"/>
</linearGradient>
</defs>
</svg>
