<svg width="32" height="32" viewBox="0 0 32 32" fill="none" xmlns="http://www.w3.org/2000/svg">
<path d="M29.8713 16.4146C29.7425 16.1511 29.7425 15.849 29.8713 15.5857L31.0647 13.1441C31.7292 11.7847 31.2027 10.1644 29.8661 9.45519L27.4655 8.18144C27.2065 8.04407 27.029 7.79957 26.9783 7.51089L26.5088 4.83409C26.2473 3.34372 24.8687 2.34223 23.3708 2.55416L20.68 2.93479C20.3896 2.97579 20.1024 2.88241 19.8917 2.6786L17.9385 0.789113C16.851 -0.263006 15.1472 -0.263069 14.0597 0.789113L12.1065 2.67879C11.8957 2.88266 11.6085 2.97585 11.3182 2.93498L8.62738 2.55435C7.12895 2.34229 5.75083 3.34391 5.48939 4.83428L5.0199 7.51095C4.96921 7.7997 4.79165 8.04413 4.53271 8.18157L2.1321 9.45531C0.795484 10.1644 0.268987 11.7849 0.933483 13.1443L2.12691 15.5858C2.25566 15.8492 2.25566 16.1513 2.12691 16.4147L0.933421 18.8562C0.268924 20.2156 0.795421 21.8359 2.13204 22.5451L4.53265 23.8189C4.79165 23.9562 4.96921 24.2007 5.0199 24.4894L5.48939 27.1662C5.72739 28.5229 6.89076 29.4744 8.22782 29.4743C8.3595 29.4743 8.49313 29.4651 8.62744 29.4461L11.3182 29.0654C11.6084 29.0243 11.8958 29.1178 12.1065 29.3216L14.0597 31.2111C14.6036 31.7372 15.3012 32.0002 15.9991 32.0002C16.6968 32.0001 17.3948 31.7371 17.9384 31.2111L19.8917 29.3216C20.1024 29.1178 20.3897 29.0247 20.68 29.0654L23.3708 29.4461C24.8694 29.6581 26.2473 28.6565 26.5088 27.1661L26.9783 24.4895C27.029 24.2007 27.2066 23.9563 27.4655 23.8189L29.8661 22.5451C31.2027 21.836 31.7292 20.2156 31.0647 18.8561L29.8713 16.4146ZM12.3078 7.69482C14.1735 7.69482 15.6915 9.21275 15.6915 11.0785C15.6915 12.9442 14.1735 14.4622 12.3078 14.4622C10.4421 14.4622 8.92412 12.9442 8.92412 11.0785C8.92412 9.21275 10.4421 7.69482 12.3078 7.69482ZM10.5613 22.7429C10.3811 22.923 10.1449 23.0132 9.90881 23.0132C9.67268 23.0132 9.43643 22.9231 9.25631 22.7429C8.89594 22.3825 8.89594 21.7982 9.25631 21.4378L21.4368 9.25731C21.7971 8.89694 22.3815 8.89694 22.7419 9.25731C23.1022 9.61769 23.1022 10.202 22.7419 10.5624L10.5613 22.7429ZM19.6902 24.3055C17.8245 24.3055 16.3066 22.7875 16.3066 20.9218C16.3066 19.0561 17.8245 17.5381 19.6902 17.5381C21.556 17.5381 23.0739 19.0561 23.0739 20.9218C23.0739 22.7875 21.556 24.3055 19.6902 24.3055Z" fill="#CC1728"/>
</svg>
