<svg width="21" height="22" viewBox="0 0 21 22" fill="none" xmlns="http://www.w3.org/2000/svg">
<path d="M6.12399 5.76952L6.12397 5.76925C6.0256 4.44347 6.43598 3.23873 7.25644 2.35997L7.25742 2.35891C8.06573 1.4881 9.214 1 10.5003 1C11.7747 1 12.9192 1.49096 13.734 2.36835L13.7341 2.36855C14.5612 3.25825 14.9702 4.45924 14.8721 5.76889L14.872 5.76952C14.6755 8.4372 12.6531 10.5 10.5003 10.5C8.34259 10.5 6.32044 8.43688 6.12399 5.76952ZM4.627 14.7023L4.62744 14.702C6.26368 13.6127 8.34999 13.0046 10.5003 13.0046C12.6506 13.0046 14.7368 13.6126 16.373 14.7019C18.2068 15.9244 19.3617 17.6514 19.7301 19.7038C19.7952 20.0721 19.703 20.4158 19.5017 20.6582C19.317 20.876 19.0548 20.9999 18.7503 20.9999H2.25035C1.94582 20.9999 1.68367 20.876 1.49897 20.6582C1.29757 20.4156 1.20537 20.0718 1.27071 19.7033C1.63929 17.6506 2.79438 15.9197 4.627 14.7023ZM1.79548 20.1856L1.92121 20.4999H2.25972H18.741H19.0795L19.2052 20.1856C19.2605 20.0474 19.2564 19.9098 19.2398 19.802L19.24 19.802L19.2378 19.7894C18.4491 15.4089 14.0743 13.4999 10.5003 13.4999C6.92641 13.4999 2.55155 15.4089 1.76295 19.7894L1.76279 19.7894L1.76085 19.802C1.74426 19.9098 1.74019 20.0474 1.79548 20.1856ZM10.5003 1.5C9.38135 1.5 8.34877 1.9185 7.62189 2.69992L7.62172 2.7001C6.88318 3.49346 6.53814 4.58206 6.62197 5.7347C6.70504 6.8769 7.1739 7.93195 7.86102 8.70675C8.5459 9.47904 9.47948 10.0047 10.4957 10.0047C11.5118 10.0047 12.4454 9.47904 13.1303 8.70675C13.8173 7.93206 14.2861 6.87721 14.3693 5.7352C14.4534 4.59442 14.107 3.51198 13.3618 2.7112C12.6394 1.91894 11.6104 1.5 10.5003 1.5Z" fill="#A8A9A8" stroke="#A8A9A8"/>
</svg>
