<svg width="21" height="22" viewBox="0 0 21 22" fill="none" xmlns="http://www.w3.org/2000/svg">
<path d="M14.8612 5.76844L14.8612 5.76851C14.6641 8.43814 12.6485 10.5 10.5003 10.5C8.35164 10.5 6.33294 8.43736 6.13897 5.76832C6.04307 4.44208 6.45138 3.23704 7.26686 2.35783C8.07415 1.48762 9.21648 1 10.5003 1C11.7744 1 12.9131 1.48942 13.7259 2.36694C14.5487 3.25529 14.958 4.45814 14.8612 5.76844ZM18.7566 21H18.7503H2.25027V21L2.24376 21C2.10211 21.0019 1.96182 20.9721 1.83311 20.9129L1.62419 21.3672L1.83311 20.9129C1.7044 20.8537 1.59051 20.7666 1.49971 20.6578L1.4994 20.6575C1.29774 20.4164 1.20453 20.0723 1.27135 19.7027L1.2714 19.7025C1.64169 17.6483 2.7942 15.92 4.62754 14.6973C6.26266 13.6077 8.34839 13 10.5003 13C12.652 13 14.7377 13.6081 16.3729 14.6973C18.2063 15.9195 19.3588 17.6478 19.7291 19.702L19.7292 19.7022C19.796 20.0718 19.7028 20.4159 19.5011 20.657L19.5007 20.6575C19.4099 20.7663 19.296 20.8535 19.1673 20.9128C19.0386 20.972 18.8983 21.0018 18.7566 21V21Z" fill="#CC1728" stroke="#CC1728"/>
</svg>
