<svg width="32" height="32" viewBox="0 0 32 32" fill="none" xmlns="http://www.w3.org/2000/svg">
<path d="M25.5 21H21.5C21.2239 21 21 21.2239 21 21.5V25.5C21 25.7761 21.2239 26 21.5 26H25.5C25.7761 26 26 25.7761 26 25.5V21.5C26 21.2239 25.7761 21 25.5 21Z" fill="white"/>
<path d="M20.5 17H17.5C17.2239 17 17 17.2239 17 17.5V20.5C17 20.7761 17.2239 21 17.5 21H20.5C20.7761 21 21 20.7761 21 20.5V17.5C21 17.2239 20.7761 17 20.5 17Z" fill="white"/>
<path d="M29.5 26H26.5C26.2239 26 26 26.2239 26 26.5V29.5C26 29.7761 26.2239 30 26.5 30H29.5C29.7761 30 30 29.7761 30 29.5V26.5C30 26.2239 29.7761 26 29.5 26Z" fill="white"/>
<path d="M29.5 17H27.5C27.2239 17 27 17.2239 27 17.5V19.5C27 19.7761 27.2239 20 27.5 20H29.5C29.7761 20 30 19.7761 30 19.5V17.5C30 17.2239 29.7761 17 29.5 17Z" fill="white"/>
<path d="M19.5 27H17.5C17.2239 27 17 27.2239 17 27.5V29.5C17 29.7761 17.2239 30 17.5 30H19.5C19.7761 30 20 29.7761 20 29.5V27.5C20 27.2239 19.7761 27 19.5 27Z" fill="white"/>
<path d="M28 2H19C18.4696 2 17.9609 2.21071 17.5858 2.58579C17.2107 2.96086 17 3.46957 17 4V13C17 13.5304 17.2107 14.0391 17.5858 14.4142C17.9609 14.7893 18.4696 15 19 15H28C28.5304 15 29.0391 14.7893 29.4142 14.4142C29.7893 14.0391 30 13.5304 30 13V4C30 3.46957 29.7893 2.96086 29.4142 2.58579C29.0391 2.21071 28.5304 2 28 2ZM26 10.5C26 10.6326 25.9473 10.7598 25.8536 10.8536C25.7598 10.9473 25.6326 11 25.5 11H21.5C21.3674 11 21.2402 10.9473 21.1464 10.8536C21.0527 10.7598 21 10.6326 21 10.5V6.5C21 6.36739 21.0527 6.24021 21.1464 6.14645C21.2402 6.05268 21.3674 6 21.5 6H25.5C25.6326 6 25.7598 6.05268 25.8536 6.14645C25.9473 6.24021 26 6.36739 26 6.5V10.5Z" fill="white"/>
<path d="M13 2H4C3.46957 2 2.96086 2.21071 2.58579 2.58579C2.21071 2.96086 2 3.46957 2 4V13C2 13.5304 2.21071 14.0391 2.58579 14.4142C2.96086 14.7893 3.46957 15 4 15H13C13.5304 15 14.0391 14.7893 14.4142 14.4142C14.7893 14.0391 15 13.5304 15 13V4C15 3.46957 14.7893 2.96086 14.4142 2.58579C14.0391 2.21071 13.5304 2 13 2ZM11 10.5C11 10.6326 10.9473 10.7598 10.8536 10.8536C10.7598 10.9473 10.6326 11 10.5 11H6.5C6.36739 11 6.24021 10.9473 6.14645 10.8536C6.05268 10.7598 6 10.6326 6 10.5V6.5C6 6.36739 6.05268 6.24021 6.14645 6.14645C6.24021 6.05268 6.36739 6 6.5 6H10.5C10.6326 6 10.7598 6.05268 10.8536 6.14645C10.9473 6.24021 11 6.36739 11 6.5V10.5Z" fill="white"/>
<path d="M13 17H4C3.46957 17 2.96086 17.2107 2.58579 17.5858C2.21071 17.9609 2 18.4696 2 19V28C2 28.5304 2.21071 29.0391 2.58579 29.4142C2.96086 29.7893 3.46957 30 4 30H13C13.5304 30 14.0391 29.7893 14.4142 29.4142C14.7893 29.0391 15 28.5304 15 28V19C15 18.4696 14.7893 17.9609 14.4142 17.5858C14.0391 17.2107 13.5304 17 13 17ZM11 25.5C11 25.6326 10.9473 25.7598 10.8536 25.8536C10.7598 25.9473 10.6326 26 10.5 26H6.5C6.36739 26 6.24021 25.9473 6.14645 25.8536C6.05268 25.7598 6 25.6326 6 25.5V21.5C6 21.3674 6.05268 21.2402 6.14645 21.1464C6.24021 21.0527 6.36739 21 6.5 21H10.5C10.6326 21 10.7598 21.0527 10.8536 21.1464C10.9473 21.2402 11 21.3674 11 21.5V25.5Z" fill="white"/>
</svg>
