<svg width="161" height="160" viewBox="0 0 161 160" fill="none" xmlns="http://www.w3.org/2000/svg">
<path fill-rule="evenodd" clip-rule="evenodd" d="M46.11 139.59C47.9509 139.59 49.445 141.084 49.445 142.925C49.445 144.766 47.9509 146.26 46.11 146.26H22.765C17.2622 146.26 12.76 141.758 12.76 136.255V112.91C12.76 111.069 14.2541 109.575 16.095 109.575C17.9359 109.575 19.43 111.069 19.43 112.91V136.255C19.43 138.089 20.9307 139.59 22.765 139.59H46.11Z" fill="#111111"/>
<path fill-rule="evenodd" clip-rule="evenodd" d="M139.49 112.91C139.49 111.069 140.984 109.575 142.825 109.575C144.666 109.575 146.16 111.069 146.16 112.91V136.255C146.16 141.758 141.658 146.26 136.155 146.26H112.81C110.969 146.26 109.475 144.766 109.475 142.925C109.475 141.084 110.969 139.59 112.81 139.59H136.155C137.989 139.59 139.49 138.089 139.49 136.255V112.91Z" fill="#111111"/>
<path fill-rule="evenodd" clip-rule="evenodd" d="M112.81 19.5301C110.969 19.5301 109.475 18.036 109.475 16.1951C109.475 14.3542 110.969 12.8601 112.81 12.8601H136.155C141.658 12.8601 146.16 17.3624 146.16 22.8651V46.2101C146.16 48.051 144.666 49.5451 142.825 49.5451C140.984 49.5451 139.49 48.051 139.49 46.2101V22.8651C139.49 21.0309 137.989 19.5301 136.155 19.5301H112.81Z" fill="#111111"/>
<path fill-rule="evenodd" clip-rule="evenodd" d="M19.43 46.2101C19.43 48.051 17.9359 49.5451 16.095 49.5451C14.2541 49.5451 12.76 48.051 12.76 46.2101V22.8651C12.76 17.3624 17.2622 12.8601 22.765 12.8601H46.11C47.9509 12.8601 49.445 14.3542 49.445 16.1951C49.445 18.036 47.9509 19.5301 46.11 19.5301H22.765C20.9307 19.5301 19.43 21.0309 19.43 22.8651V46.2101Z" fill="#111111"/>
<path fill-rule="evenodd" clip-rule="evenodd" d="M9.42506 82.8951C7.58414 82.8951 6.09006 81.401 6.09006 79.5601C6.09006 77.7192 7.58414 76.2251 9.42506 76.2251H149.495C151.336 76.2251 152.83 77.7192 152.83 79.5601C152.83 81.401 151.336 82.8951 149.495 82.8951H9.42506Z" fill="#CC1728"/>
</svg>
