<svg width="53" height="47" viewBox="0 0 53 47" fill="none" xmlns="http://www.w3.org/2000/svg">
<path fill-rule="evenodd" clip-rule="evenodd" d="M14.9635 44.3563C15.6078 44.3563 16.1307 44.8793 16.1307 45.5236C16.1307 46.1679 15.6078 46.6908 14.9635 46.6908H6.79274C4.86678 46.6908 3.29099 45.115 3.29099 43.1891V35.0183C3.29099 34.374 3.81392 33.8511 4.45824 33.8511C5.10256 33.8511 5.62549 34.374 5.62549 35.0183V43.1891C5.62549 43.8311 6.15075 44.3563 6.79274 44.3563H14.9635Z" fill="#111111"/>
<path fill-rule="evenodd" clip-rule="evenodd" d="M47.6465 35.0183C47.6465 34.374 48.1694 33.8511 48.8138 33.8511C49.4581 33.8511 49.981 34.374 49.981 35.0183V43.1891C49.981 45.115 48.4052 46.6908 46.4793 46.6908H38.3085C37.6642 46.6908 37.1413 46.1679 37.1413 45.5236C37.1413 44.8793 37.6642 44.3563 38.3085 44.3563H46.4793C47.1213 44.3563 47.6465 43.8311 47.6465 43.1891V35.0183Z" fill="#111111"/>
<path fill-rule="evenodd" clip-rule="evenodd" d="M38.3085 2.33548C37.6642 2.33548 37.1413 1.81255 37.1413 1.16823C37.1413 0.523905 37.6642 0.000976562 38.3085 0.000976562H46.4793C48.4052 0.000976562 49.981 1.57676 49.981 3.50273V11.6735C49.981 12.3178 49.4581 12.8407 48.8138 12.8407C48.1694 12.8407 47.6465 12.3178 47.6465 11.6735V3.50273C47.6465 2.86074 47.1213 2.33548 46.4793 2.33548H38.3085Z" fill="#111111"/>
<path fill-rule="evenodd" clip-rule="evenodd" d="M5.62549 11.6735C5.62549 12.3178 5.10256 12.8407 4.45824 12.8407C3.81392 12.8407 3.29099 12.3178 3.29099 11.6735V3.50273C3.29099 1.57676 4.86678 0.000976562 6.79274 0.000976562H14.9635C15.6078 0.000976562 16.1307 0.523905 16.1307 1.16823C16.1307 1.81255 15.6078 2.33548 14.9635 2.33548H6.79274C6.15075 2.33548 5.62549 2.86074 5.62549 3.50273V11.6735Z" fill="#111111"/>
<path fill-rule="evenodd" clip-rule="evenodd" d="M2.12377 24.5132C1.47945 24.5132 0.95652 23.9903 0.95652 23.346C0.95652 22.7016 1.47945 22.1787 2.12377 22.1787H51.1483C51.7926 22.1787 52.3155 22.7016 52.3155 23.346C52.3155 23.9903 51.7926 24.5132 51.1483 24.5132H2.12377Z" fill="#CC1728"/>
</svg>
