<svg width="18" height="17" viewBox="0 0 18 17" fill="none" xmlns="http://www.w3.org/2000/svg">
<path d="M14.525 7.2C14.525 3.43672 11.4633 0.375 7.7 0.375C3.93672 0.375 0.875 3.43672 0.875 7.2C0.875 10.9633 3.93672 14.025 7.7 14.025C9.17331 14.0266 10.6072 13.5489 11.7852 12.6641L14.525 7.2ZM15.8025 15.9743L12.1387 12.3105L11.8318 12.0036L11.4849 12.2643C10.3936 13.084 9.06536 13.5265 7.70055 13.525H7.7C4.21286 13.525 1.375 10.6871 1.375 7.2C1.375 3.71286 4.21286 0.875 7.7 0.875C11.1871 0.875 14.025 3.71286 14.025 7.2V7.20055C14.0265 8.56536 13.584 9.89362 12.7643 10.9849L12.5036 11.3318L12.8105 11.6387L16.4743 15.3025C16.5505 15.392 16.5911 15.5068 16.5878 15.6247C16.5843 15.7464 16.5345 15.8623 16.4484 15.9484L16.8019 16.3019L16.4484 15.9484C16.3623 16.0345 16.2464 16.0843 16.1247 16.0878C16.0068 16.0911 15.892 16.0505 15.8025 15.9743ZM2.325 7.2L2.325 7.2006C2.32671 8.62546 2.89349 9.99146 3.90101 10.999C4.90854 12.0065 6.27455 12.5733 7.6994 12.575H7.7C8.76308 12.575 9.80228 12.2598 10.6862 11.6692C11.5701 11.0785 12.259 10.2391 12.6659 9.25692C13.0727 8.27477 13.1791 7.19404 12.9717 6.15139C12.7643 5.10874 12.2524 4.15101 11.5007 3.3993C10.749 2.64759 9.79126 2.13567 8.74861 1.92828C7.70596 1.72088 6.62523 1.82733 5.64308 2.23415C4.66092 2.64097 3.82146 3.3299 3.23085 4.21381C2.64024 5.09772 2.325 6.13693 2.325 7.2Z" fill="#111111" stroke="#111111"/>
</svg>
