<svg width="23" height="24" viewBox="0 0 23 24" fill="none" xmlns="http://www.w3.org/2000/svg">
<path d="M18.5312 15.5625C17.1418 15.5625 15.9175 16.246 15.1484 17.2854L8.49953 13.8808C8.60992 13.5045 8.6875 13.1146 8.6875 12.7031C8.6875 12.145 8.57308 11.6145 8.37541 11.1264L15.3338 6.93919C16.1081 7.848 17.2464 8.4375 18.5312 8.4375C20.8576 8.4375 22.75 6.54511 22.75 4.21875C22.75 1.89239 20.8576 0 18.5312 0C16.2049 0 14.3125 1.89239 14.3125 4.21875C14.3125 4.75486 14.4229 5.26341 14.606 5.73553L7.62695 9.93506C6.85323 9.05325 5.73142 8.48438 4.46875 8.48438C2.14239 8.48438 0.25 10.3768 0.25 12.7031C0.25 15.0295 2.14239 16.9219 4.46875 16.9219C5.88109 16.9219 7.12614 16.2183 7.89227 15.1497L14.5193 18.5432C14.3972 18.9373 14.3125 19.3477 14.3125 19.7812C14.3125 22.1076 16.2049 24 18.5312 24C20.8576 24 22.75 22.1076 22.75 19.7812C22.75 17.4549 20.8576 15.5625 18.5312 15.5625Z" fill="url(#paint0_linear_1200_14)"/>
<defs>
<linearGradient id="paint0_linear_1200_14" x1="8.26858" y1="1.5" x2="18.2439" y2="25.6757" gradientUnits="userSpaceOnUse">
<stop stop-color="#CC1728"/>
<stop offset="1" stop-color="#59191F"/>
</linearGradient>
</defs>
</svg>
