<svg width="19" height="24" viewBox="0 0 19 24" fill="none" xmlns="http://www.w3.org/2000/svg">
<path d="M11.3334 2.87497H13.4281C13.4281 2.87497 13.0709 3.23218 13.0682 3.23481C12.7299 3.57322 13.2517 4.11191 13.5985 3.76511L14.5985 2.76511C14.745 2.61863 14.745 2.38132 14.5985 2.23484C14.5985 2.23484 13.6006 1.23685 13.5985 1.23484C13.2706 0.906899 12.7245 1.42139 13.0682 1.76511L13.4281 2.12497C13.4281 2.12497 11.3444 2.12497 11.3334 2.12497C10.8485 2.12497 10.8459 2.87497 11.3334 2.87497Z" fill="url(#paint0_linear_1200_207)"/>
<path d="M2.23877 2.87505H4.33347C4.79758 2.87505 4.81601 2.12505 4.3335 2.12505H2.23877C2.23877 2.12505 2.59552 1.7683 2.59861 1.76518C2.93119 1.4326 2.41416 0.889114 2.06836 1.23491L1.06836 2.23491C0.921875 2.38139 0.921875 2.6187 1.06836 2.76518C1.06836 2.76518 2.06531 3.76213 2.06836 3.76518C2.38642 4.08324 2.95529 3.59154 2.59864 3.23491L2.23877 2.87505Z" fill="url(#paint1_linear_1200_207)"/>
<path d="M4.9585 22C4.9585 22.7583 5.5752 23.375 6.3335 23.375H16.3335C17.0918 23.375 17.7085 22.7583 17.7085 22C17.7085 22 17.7085 20.9234 17.7085 20.375H4.9585V22Z" fill="url(#paint2_linear_1200_207)"/>
<path d="M18.7085 10.5V15.065C18.7085 16.66 18.3335 18.135 17.8485 19.625H4.66849C3.5535 17.735 2.9585 15.6 2.9585 13.395V13C2.9585 11.73 3.9585 10.695 5.2085 10.63V15.5C5.2085 15.705 5.37351 15.875 5.5835 15.875C5.78848 15.875 5.9585 15.705 5.9585 15.5V2.5C5.9585 1.465 6.79849 0.625 7.8335 0.625C8.8685 0.625 9.7085 1.465 9.7085 2.495V7.5C10.0235 7.26499 10.4135 7.125 10.8335 7.125C11.5685 7.125 12.2085 7.54999 12.5135 8.16998C12.8535 7.83499 13.3185 7.625 13.8335 7.625C14.7085 7.625 15.4485 8.22998 15.6535 9.04498C15.9735 8.78 16.3835 8.625 16.8335 8.625C17.8685 8.625 18.7085 9.465 18.7085 10.5Z" fill="url(#paint3_linear_1200_207)"/>
<defs>
<linearGradient id="paint0_linear_1200_207" x1="12.3015" y1="1.30158" x2="13.153" y2="4.29808" gradientUnits="userSpaceOnUse">
<stop stop-color="#CC1728"/>
<stop offset="1" stop-color="#59191F"/>
</linearGradient>
<linearGradient id="paint1_linear_1200_207" x1="2.2878" y1="1.2955" x2="3.13913" y2="4.28751" gradientUnits="userSpaceOnUse">
<stop stop-color="#CC1728"/>
<stop offset="1" stop-color="#59191F"/>
</linearGradient>
<linearGradient id="paint2_linear_1200_207" x1="9.50236" y1="20.5625" x2="9.8216" y2="24.0699" gradientUnits="userSpaceOnUse">
<stop stop-color="#CC1728"/>
<stop offset="1" stop-color="#59191F"/>
</linearGradient>
<linearGradient id="paint3_linear_1200_207" x1="8.5715" y1="1.8125" x2="17.1543" y2="20.2049" gradientUnits="userSpaceOnUse">
<stop stop-color="#CC1728"/>
<stop offset="1" stop-color="#59191F"/>
</linearGradient>
</defs>
</svg>
