<svg width="22" height="22" viewBox="0 0 22 22" fill="none" xmlns="http://www.w3.org/2000/svg">
<path d="M16 21.75H2C1.53604 21.7494 1.09125 21.5649 0.763186 21.2368C0.435119 20.9087 0.250564 20.464 0.25 20V2C0.250564 1.53604 0.435119 1.09125 0.763186 0.763186C1.09125 0.435119 1.53604 0.250564 2 0.25H16C16.464 0.250564 16.9087 0.435119 17.2368 0.763186C17.5649 1.09125 17.7494 1.53604 17.75 2V13C17.75 13.1989 17.671 13.3897 17.5303 13.5303C17.3897 13.671 17.1989 13.75 17 13.75C16.8011 13.75 16.6103 13.671 16.4697 13.5303C16.329 13.3897 16.25 13.1989 16.25 13V2C16.2492 1.93394 16.2226 1.8708 16.1759 1.82408C16.1292 1.77737 16.0661 1.75078 16 1.75H2C1.93394 1.75078 1.8708 1.77737 1.82408 1.82408C1.77737 1.8708 1.75078 1.93394 1.75 2V20C1.75078 20.0661 1.77737 20.1292 1.82408 20.1759C1.8708 20.2226 1.93394 20.2492 2 20.25H16C16.1879 20.1753 16.3976 20.1768 16.5844 20.2542C16.7712 20.3316 16.9205 20.4788 17.0005 20.6646C17.0394 20.754 17.0602 20.8503 17.0615 20.9478C17.0628 21.0453 17.0447 21.1422 17.0082 21.2326C16.9717 21.3231 16.9175 21.4053 16.8489 21.4746C16.7803 21.5439 16.6985 21.5989 16.6084 21.6362C16.4148 21.7128 16.2082 21.7514 16 21.75Z" fill="#CC1728"/>
<path d="M13.5 5.75H4.5C4.30109 5.75 4.11032 5.67098 3.96967 5.53033C3.82902 5.38968 3.75 5.19891 3.75 5C3.75 4.80109 3.82902 4.61032 3.96967 4.46967C4.11032 4.32902 4.30109 4.25 4.5 4.25H13.5C13.6989 4.25 13.8897 4.32902 14.0303 4.46967C14.171 4.61032 14.25 4.80109 14.25 5C14.25 5.19891 14.171 5.38968 14.0303 5.53033C13.8897 5.67098 13.6989 5.75 13.5 5.75Z" fill="#CC1728"/>
<path d="M13.5 9.75H4.5C4.30109 9.75 4.11032 9.67098 3.96967 9.53033C3.82902 9.38968 3.75 9.19891 3.75 9C3.75 8.80109 3.82902 8.61032 3.96967 8.46967C4.11032 8.32902 4.30109 8.25 4.5 8.25H13.5C13.6989 8.25 13.8897 8.32902 14.0303 8.46967C14.171 8.61032 14.25 8.80109 14.25 9C14.25 9.19891 14.171 9.38968 14.0303 9.53033C13.8897 9.67098 13.6989 9.75 13.5 9.75Z" fill="#CC1728"/>
<path d="M11 13.75H4.5C4.30109 13.75 4.11032 13.671 3.96967 13.5303C3.82902 13.3897 3.75 13.1989 3.75 13C3.75 12.8011 3.82902 12.6103 3.96967 12.4697C4.11032 12.329 4.30109 12.25 4.5 12.25H11C11.1989 12.25 11.3897 12.329 11.5303 12.4697C11.671 12.6103 11.75 12.8011 11.75 13C11.75 13.1989 11.671 13.3897 11.5303 13.5303C11.3897 13.671 11.1989 13.75 11 13.75Z" fill="#CC1728"/>
<path d="M10 17.75H4.5C4.30109 17.75 4.11032 17.671 3.96967 17.5303C3.82902 17.3897 3.75 17.1989 3.75 17C3.75 16.8011 3.82902 16.6103 3.96967 16.4697C4.11032 16.329 4.30109 16.25 4.5 16.25H10C10.1989 16.25 10.3897 16.329 10.5303 16.4697C10.671 16.6103 10.75 16.8011 10.75 17C10.75 17.1989 10.671 17.3897 10.5303 17.5303C10.3897 17.671 10.1989 17.75 10 17.75Z" fill="#CC1728"/>
<path d="M17 21.75C16.0605 21.75 15.1422 21.4714 14.361 20.9495C13.5799 20.4275 12.9711 19.6857 12.6116 18.8177C12.2521 17.9498 12.158 16.9947 12.3413 16.0733C12.5246 15.1519 12.9769 14.3055 13.6412 13.6412C14.3055 12.9769 15.1519 12.5246 16.0733 12.3413C16.9947 12.158 17.9498 12.2521 18.8177 12.6116C19.6857 12.9711 20.4275 13.5799 20.9495 14.361C21.4714 15.1422 21.75 16.0605 21.75 17C21.7486 18.2593 21.2477 19.4667 20.3572 20.3572C19.4667 21.2477 18.2593 21.7486 17 21.75ZM17 13.75C16.3572 13.75 15.7289 13.9406 15.1944 14.2977C14.6599 14.6548 14.2434 15.1624 13.9974 15.7563C13.7514 16.3501 13.687 17.0036 13.8124 17.634C13.9379 18.2645 14.2474 18.8436 14.7019 19.2981C15.1564 19.7526 15.7355 20.0622 16.366 20.1876C16.9964 20.313 17.6499 20.2486 18.2437 20.0026C18.8376 19.7566 19.3452 19.3401 19.7023 18.8056C20.0594 18.2711 20.25 17.6428 20.25 17C20.249 16.1384 19.9063 15.3123 19.297 14.703C18.6877 14.0937 17.8616 13.751 17 13.75Z" fill="#CC1728"/>
<path d="M16.4999 18.7499C16.4014 18.7501 16.3038 18.7307 16.2128 18.693C16.1218 18.6553 16.0392 18.6 15.9696 18.5302L14.9696 17.5302C14.8996 17.4607 14.8439 17.378 14.8059 17.2869C14.7679 17.1958 14.7482 17.0981 14.748 16.9994C14.7479 16.9007 14.7672 16.8029 14.8049 16.7117C14.8426 16.6204 14.8979 16.5375 14.9677 16.4677C15.0375 16.3979 15.1204 16.3426 15.2116 16.3049C15.3028 16.2672 15.4006 16.2479 15.4993 16.2481C15.598 16.2483 15.6957 16.2679 15.7868 16.306C15.8779 16.344 15.9606 16.3996 16.0302 16.4697L16.4999 16.9394L17.9696 15.4697C18.1104 15.3299 18.3009 15.2516 18.4993 15.252C18.6977 15.2523 18.8879 15.3313 19.0282 15.4716C19.1685 15.6119 19.2475 15.8021 19.2479 16.0005C19.2482 16.1989 19.17 16.3894 19.0302 16.5302L17.0302 18.5302C16.9606 18.6 16.878 18.6553 16.787 18.693C16.696 18.7307 16.5984 18.7501 16.4999 18.7499Z" fill="#CC1728"/>
</svg>
