<svg width="14" height="18" viewBox="0 0 14 18" fill="none" xmlns="http://www.w3.org/2000/svg">
<path fill-rule="evenodd" clip-rule="evenodd" d="M0.760385 2.30922C0.641816 1.17208 1.57878 0.25 2.68711 0.25H11.3113C12.418 0.25 13.3587 1.17077 13.238 2.30982C12.9713 4.87126 11.9454 6.16298 10.9899 7.07064C10.8276 7.22472 10.6631 7.37174 10.5138 7.50521C10.4555 7.55738 10.3994 7.60747 10.3467 7.65511C10.1509 7.83216 9.99128 7.98405 9.8615 8.13376C9.61664 8.41625 9.49922 8.66473 9.49922 9C9.49922 9.33838 9.61672 9.59071 9.85951 9.87612C9.988 10.0272 10.1461 10.1806 10.3399 10.3588C10.3953 10.4098 10.4546 10.4637 10.5165 10.5199C10.6615 10.6516 10.8208 10.7962 10.9772 10.9465C11.9239 11.8564 12.949 13.145 13.2378 15.6849L13.2378 15.685C13.3679 16.8315 12.4136 17.75 11.3113 17.75H2.68711C1.58497 17.75 0.630435 16.8316 0.761023 15.6849C0.761032 15.6848 0.761041 15.6848 0.761051 15.6847C1.04975 13.144 2.07559 11.8648 3.02262 10.9599C3.20243 10.7881 3.36196 10.6441 3.50581 10.5143C3.75592 10.2886 3.95861 10.1056 4.13792 9.89379C4.3791 9.60884 4.49922 9.35126 4.49922 9C4.49922 8.6518 4.37909 8.39809 4.1359 8.1161C4.00664 7.96622 3.84752 7.8146 3.6522 7.63839C3.59677 7.58838 3.53738 7.53549 3.47537 7.48026C3.32892 7.34983 3.16786 7.20641 3.00991 7.05725C2.05388 6.1545 1.02714 4.87208 0.760404 2.30941M2.68711 1.5C2.24861 1.5 1.96922 1.8497 2.00365 2.17965L2.00367 2.17984C2.23267 4.38033 3.07699 5.40138 3.86811 6.14841C4.0125 6.28476 4.15039 6.40753 4.29049 6.53227C4.35605 6.59064 4.4221 6.64945 4.48953 6.71028C4.69209 6.89303 4.89967 7.08773 5.08251 7.29975C5.46353 7.74156 5.74922 8.27399 5.74922 9C5.74922 9.72296 5.46865 10.2564 5.09203 10.7014C4.86037 10.9751 4.55277 11.2538 4.26074 11.5185C4.13003 11.637 4.00243 11.7526 3.88616 11.8637C3.0963 12.6184 2.25109 13.6426 2.00303 15.826L2.003 15.8263C1.96657 16.1458 2.24244 16.5 2.68711 16.5H11.3113C11.7559 16.5 12.0321 16.1458 11.9958 15.8259C11.7474 13.6417 10.9013 12.6073 10.111 11.8478C9.96753 11.7099 9.8306 11.5856 9.6918 11.4595C9.62645 11.4002 9.56069 11.3405 9.49363 11.2788C9.29288 11.0941 9.08783 10.8981 8.90741 10.6861C8.53239 10.2452 8.24922 9.71631 8.24922 9C8.24922 8.28058 8.5376 7.75269 8.91695 7.31504C9.09927 7.10469 9.30636 6.91056 9.50841 6.72789C9.57162 6.67074 9.6338 6.61517 9.69559 6.55995C9.83947 6.43136 9.98126 6.30464 10.129 6.16433C10.9205 5.41248 11.7657 4.38128 11.9948 2.17984L11.9949 2.17835C12.0298 1.85063 11.7512 1.5 11.3113 1.5H2.68711Z" fill="#D43A48"/>
<path d="M10.4094 15.875H3.60586C2.99648 15.875 2.82461 15.1719 3.25195 14.7359C4.28632 13.6875 6.37422 12.9367 6.37422 11.7344V7.75C6.37422 6.97461 4.88984 6.38281 3.97148 5.125C3.81992 4.91758 3.83515 4.625 4.22031 4.625H9.7957C10.1242 4.625 10.1953 4.91523 10.0457 5.12305C9.14062 6.38281 7.62422 6.9707 7.62422 7.75V11.7344C7.62422 12.927 9.80039 13.5703 10.7648 14.7371C11.1535 15.2074 11.0176 15.875 10.4094 15.875Z" fill="#D43A48"/>
</svg>
