<svg width="21" height="18" viewBox="0 0 21 18" fill="none" xmlns="http://www.w3.org/2000/svg">
<path fill-rule="evenodd" clip-rule="evenodd" d="M3.375 2.25C2.33947 2.25 1.5 3.08947 1.5 4.125V4.59375H19.5V4.125C19.5 3.08947 18.6605 2.25 17.625 2.25H3.375ZM1.5 13.875V7.40625H19.5V13.875C19.5 14.9105 18.6605 15.75 17.625 15.75H3.375C2.33947 15.75 1.5 14.9105 1.5 13.875ZM0 4.125C0 2.26104 1.51104 0.75 3.375 0.75H17.625C19.489 0.75 21 2.26104 21 4.125V13.875C21 15.739 19.489 17.25 17.625 17.25H3.375C1.51104 17.25 0 15.739 0 13.875V4.125ZM4.5 9.65625C3.72335 9.65625 3.09375 10.2858 3.09375 11.0625V12C3.09375 12.7767 3.72335 13.4062 4.5 13.4062H6.75C7.52665 13.4062 8.15625 12.7767 8.15625 12V11.0625C8.15625 10.2858 7.52665 9.65625 6.75 9.65625H4.5Z" fill="#A8A8A8"/>
</svg>
