<svg width="24" height="24" viewBox="0 0 24 24" fill="none" xmlns="http://www.w3.org/2000/svg">
<path d="M9.375 10L12.7557 10.9059L10.0381 21.0481L8.91394 18.4822L6.6574 20.1422L9.375 10Z" fill="#111111"/>
<path d="M11.0059 10.875L14.3866 9.96913L17.1042 20.1114L14.8477 18.4513L13.7235 21.0172L11.0059 10.875Z" fill="#111111"/>
<path d="M12.9525 3.5146C13.2701 3.99885 13.9005 4.16783 14.4177 3.90715C14.9795 3.62408 15.6645 3.84995 15.9476 4.41176C16.0179 4.55127 16.0588 4.70378 16.0676 4.85976C16.1005 5.43803 16.562 5.89946 17.1402 5.93239C17.7683 5.96806 18.2485 6.50619 18.2129 7.13428C18.2041 7.29026 18.1632 7.44277 18.0929 7.58228C17.8322 8.09946 18.0011 8.72987 18.4854 9.04746C19.0115 9.39248 19.1583 10.0986 18.8134 10.6246C18.7277 10.7553 18.6161 10.8669 18.4854 10.9525C18.0011 11.2701 17.8322 11.9005 18.0929 12.4177C18.3759 12.9795 18.15 13.6645 17.5882 13.9476C17.4487 14.0179 17.2962 14.0588 17.1402 14.0676C16.562 14.1005 16.1005 14.562 16.0676 15.1402C16.0319 15.7683 15.4938 16.2485 14.8657 16.2129C14.7097 16.2041 14.5572 16.1632 14.4177 16.0929C13.9005 15.8322 13.2701 16.0011 12.9525 16.4854C12.6075 17.0115 11.9014 17.1583 11.3754 16.8134C11.2447 16.7277 11.1331 16.6161 11.0475 16.4854C10.7299 16.0011 10.0995 15.8322 9.58228 16.0929C9.02048 16.3759 8.33548 16.15 8.05241 15.5882C7.98207 15.4487 7.9412 15.2962 7.93239 15.1402C7.89946 14.562 7.43803 14.1005 6.85976 14.0676C6.23166 14.0319 5.75146 13.4938 5.78713 12.8657C5.79594 12.7097 5.83681 12.5572 5.90715 12.4177C6.16783 11.9005 5.99885 11.2701 5.5146 10.9525C4.98847 10.6075 4.84174 9.90143 5.18662 9.37544C5.27226 9.24474 5.3839 9.1331 5.5146 9.04746C5.99885 8.72987 6.16783 8.09946 5.90715 7.58228C5.62408 7.02048 5.84995 6.33548 6.41176 6.05241C6.55127 5.98207 6.70378 5.9412 6.85976 5.93239C7.43803 5.89946 7.89946 5.43803 7.93239 4.85976C7.96806 4.23166 8.50619 3.75146 9.13428 3.78713C9.29026 3.79594 9.44277 3.83681 9.58228 3.90715C10.0995 4.16783 10.7299 3.99885 11.0475 3.5146C11.3925 2.98847 12.0986 2.84174 12.6246 3.18662C12.7551 3.27241 12.8668 3.38404 12.9525 3.5146Z" fill="url(#paint0_linear_882_7863)"/>
<path d="M11.9999 15.3438C14.9511 15.3438 17.3436 12.9514 17.3436 10.0002C17.3436 7.04893 14.9511 4.65649 11.9999 4.65649C9.04869 4.65649 6.65625 7.04893 6.65625 10.0002C6.65625 12.9514 9.04869 15.3438 11.9999 15.3438Z" fill="#111111"/>
<path d="M12.076 8.25H12.3121C12.4426 8.25 12.5483 8.37048 12.5483 8.51922V11.4807C12.5483 11.6294 12.4426 11.7499 12.3121 11.7499H12.076C11.9455 11.7499 11.8398 11.6294 11.8398 11.4807V8.51922C11.8398 8.37048 11.9455 8.25 12.076 8.25Z" fill="#F0BC37"/>
<path d="M14.4034 8.25012H13.492C13.3615 8.25012 13.2559 8.3706 13.2559 8.51934V11.4808C13.2559 11.6295 13.3615 11.75 13.492 11.75H13.7282C13.8586 11.75 13.9643 11.6295 13.9643 11.4808V10.6731H14.4366C15.0238 10.673 15.4998 10.1302 15.4997 9.46068C15.4997 9.40077 15.4958 9.34101 15.488 9.28191C15.3995 8.67993 14.9389 8.24164 14.4034 8.25012ZM14.4193 9.86545H13.9643V9.05779H14.4366C14.6324 9.05792 14.7911 9.23884 14.791 9.46216C14.791 9.48719 14.789 9.51223 14.7848 9.53686C14.7476 9.73205 14.5944 9.86976 14.4193 9.86545Z" fill="#F0BC37"/>
<path d="M10.2416 11.5696L11.1508 8.6082C11.1939 8.4678 11.1291 8.31421 11.0059 8.26521C10.9808 8.25512 10.9544 8.25 10.9279 8.25H10.6774C10.5771 8.25 10.4877 8.32229 10.4545 8.43038L9.83201 10.4603L9.20952 8.43038C9.17646 8.32229 9.08707 8.25 8.98659 8.25H8.73615C8.60568 8.25 8.5 8.37048 8.5 8.51922C8.5 8.54951 8.50449 8.57953 8.51322 8.6082L9.42241 11.5696C9.45559 11.6776 9.54497 11.7499 9.64533 11.7499H10.0187C10.1191 11.7499 10.2084 11.6776 10.2416 11.5696Z" fill="#F0BC37"/>
<defs>
<linearGradient id="paint0_linear_882_7863" x1="12" y1="3" x2="14" y2="17.5" gradientUnits="userSpaceOnUse">
<stop stop-color="#FFD80A"/>
<stop offset="1" stop-color="#C18E0A"/>
</linearGradient>
</defs>
</svg>
