<svg width="25" height="16" viewBox="0 0 25 16" fill="none" xmlns="http://www.w3.org/2000/svg">
<path d="M23.8077 5.92307C24.1901 5.92307 24.5 5.61308 24.5 5.23077V1.53847C24.5 1.15611 24.19 0.846176 23.8077 0.846176H1.1923C0.809984 0.846176 0.5 1.15611 0.5 1.53847V5.23077C0.5 5.61313 0.809984 5.92307 1.1923 5.92307C2.3375 5.92307 3.26923 6.85475 3.26923 8C3.26923 9.14525 2.33755 10.0769 1.1923 10.0769C0.809984 10.0769 0.5 10.3869 0.5 10.7692V14.4615C0.5 14.8439 0.809984 15.1538 1.1923 15.1538H23.8077C24.1901 15.1538 24.5 14.8438 24.5 14.4615V10.7692C24.5 10.3869 24.19 10.0769 23.8077 10.0769C22.6625 10.0769 21.7308 9.14525 21.7308 8C21.7308 6.85475 22.6625 5.92307 23.8077 5.92307ZM23.1154 11.392V13.7692H8.57694V11.6923C8.57694 11.3099 8.26695 11 7.88464 11C7.50233 11 7.19234 11.31 7.19234 11.6923V13.7692H1.88459V11.392C3.46264 11.0703 4.65383 9.67161 4.65383 8C4.65383 6.32839 3.46264 4.92964 1.88459 4.60804V2.23077H7.1923V4.30771C7.1923 4.69007 7.50228 5 7.88459 5C8.26691 5 8.57689 4.69002 8.57689 4.30771V2.23077H23.1154V4.60804C21.5373 4.92969 20.3461 6.32839 20.3461 8C20.3461 9.67161 21.5374 11.0704 23.1154 11.392Z" fill="#A8A8A8"/>
</svg>
