<svg width="25" height="16" viewBox="0 0 25 16" fill="none" xmlns="http://www.w3.org/2000/svg">
<path d="M23.8077 5.92308C24.1901 5.92308 24.5 5.6131 24.5 5.23079V1.53849C24.5 1.15613 24.19 0.846191 23.8077 0.846191H8.57694V4.30772C8.57694 4.69008 8.26695 5.00002 7.88464 5.00002C7.50233 5.00002 7.19234 4.69004 7.19234 4.30772V0.846191H1.19234C0.809984 0.846191 0.5 1.15613 0.5 1.53849V5.23079C0.5 5.61314 0.809984 5.92308 1.1923 5.92308C2.3375 5.92308 3.26923 6.85477 3.26923 8.00002C3.26923 9.14527 2.33755 10.077 1.1923 10.077C0.809984 10.077 0.5 10.3869 0.5 10.7693V14.4616C0.5 14.8439 0.809984 15.1538 1.1923 15.1538H7.1923V11.6923C7.1923 11.31 7.50228 11 7.88459 11C8.26691 11 8.57689 11.31 8.57689 11.6923V15.1538H23.8077C24.19 15.1538 24.5 14.8439 24.5 14.4616V10.7693C24.5 10.3869 24.19 10.077 23.8077 10.077C22.6625 10.077 21.7307 9.14527 21.7307 8.00002C21.7307 6.85477 22.6625 5.92308 23.8077 5.92308ZM8.57694 8.92308C8.57694 9.30544 8.26695 9.61538 7.88464 9.61538C7.50233 9.61538 7.19234 9.30539 7.19234 8.92308V7.07691C7.19234 6.69455 7.50233 6.38461 7.88464 6.38461C8.26695 6.38461 8.57694 6.6946 8.57694 7.07691V8.92308Z" fill="#CC1728"/>
</svg>
