<svg width="16" height="16" viewBox="0 0 16 16" fill="none" xmlns="http://www.w3.org/2000/svg">
<path d="M9.08862 0.588118C9.45158 1.14155 10.172 1.33466 10.7631 1.03674C11.4052 0.71323 12.188 0.971376 12.5115 1.61344C12.5919 1.77288 12.6386 1.94718 12.6487 2.12544C12.6863 2.78632 13.2137 3.31367 13.8746 3.35131C14.5924 3.39207 15.1412 4.00707 15.1004 4.72489C15.0904 4.90315 15.0436 5.07745 14.9633 5.23689C14.6653 5.82796 14.8585 6.54842 15.4119 6.91138C16.0132 7.3057 16.1809 8.11265 15.7867 8.71378C15.6888 8.86315 15.5613 8.99074 15.4119 9.08862C14.8585 9.45158 14.6653 10.172 14.9633 10.7631C15.2868 11.4052 15.0286 12.188 14.3866 12.5115C14.2271 12.5919 14.0528 12.6386 13.8746 12.6487C13.2137 12.6863 12.6863 13.2137 12.6487 13.8746C12.6079 14.5924 11.9929 15.1412 11.2751 15.1004C11.0968 15.0904 10.9225 15.0436 10.7631 14.9633C10.172 14.6653 9.45158 14.8585 9.08862 15.4119C8.6943 16.0132 7.88735 16.1809 7.28622 15.7867C7.13684 15.6888 7.00926 15.5613 6.91138 15.4119C6.54842 14.8585 5.82796 14.6653 5.23689 14.9633C4.59483 15.2868 3.81197 15.0286 3.48847 14.3866C3.40808 14.2271 3.36137 14.0528 3.35131 13.8746C3.31367 13.2137 2.78632 12.6863 2.12544 12.6487C1.40762 12.6079 0.858808 11.9929 0.899577 11.2751C0.909645 11.0968 0.956356 10.9225 1.03674 10.7631C1.33466 10.172 1.14155 9.45158 0.588118 9.08862C-0.013178 8.6943 -0.180874 7.88735 0.213278 7.28622C0.311155 7.13684 0.438743 7.00926 0.588118 6.91138C1.14155 6.54842 1.33466 5.82796 1.03674 5.23689C0.71323 4.59483 0.971376 3.81197 1.61344 3.48847C1.77288 3.40808 1.94718 3.36137 2.12544 3.35131C2.78632 3.31367 3.31367 2.78632 3.35131 2.12544C3.39207 1.40762 4.00707 0.858808 4.72489 0.899577C4.90315 0.909645 5.07745 0.956356 5.23689 1.03674C5.82796 1.33466 6.54842 1.14155 6.91138 0.588118C7.3057 -0.013178 8.11265 -0.180874 8.71378 0.213278C8.86299 0.31132 8.99058 0.438908 9.08862 0.588118Z" fill="#FFD80A"/>
<path d="M15.4121 6.91121C14.8586 6.54825 14.6655 5.82779 14.9634 5.23672C15.1643 4.84175 15.1488 4.3715 14.9222 3.99072C14.2316 5.59968 11.3291 11.1229 3.26367 13.4759C3.31385 13.6034 3.34339 13.7379 3.35148 13.8746C3.39225 14.5924 4.00725 15.1412 4.72507 15.1004C4.90333 15.0903 5.07763 15.0436 5.23707 14.9633C5.82813 14.6653 6.5486 14.8584 6.91155 15.4119C7.30587 16.0132 8.11282 16.1809 8.71396 15.7867C8.86333 15.6888 8.99092 15.5612 9.0888 15.4119C9.45175 14.8584 10.1722 14.6653 10.7633 14.9633C11.4053 15.2868 12.1882 15.0286 12.5117 14.3866C12.5921 14.2271 12.6388 14.0528 12.6489 13.8746C12.6865 13.2137 13.2139 12.6863 13.8747 12.6487C14.5926 12.6079 15.1414 11.9929 15.1006 11.2751C15.0905 11.0968 15.0438 10.9225 14.9634 10.7631C14.6655 10.172 14.8586 9.45157 15.4121 9.08861C16.0134 8.69446 16.181 7.88734 15.7869 7.28621C15.6889 7.13684 15.5613 7.00925 15.4121 6.91121Z" fill="#FFD80A"/>
<path d="M7.99962 14.1071C11.3724 14.1071 14.1067 11.3729 14.1067 8.0001C14.1067 4.62728 11.3724 1.89307 7.99962 1.89307C4.62679 1.89307 1.89258 4.62728 1.89258 8.0001C1.89258 11.3729 4.62679 14.1071 7.99962 14.1071Z" fill="#FFE352"/>
<path d="M4.56738 13.0512C7.35665 14.9472 11.1549 14.2229 13.0509 11.4336C14.1237 9.85538 14.3971 7.8663 13.7897 6.05713C12.3651 8.21572 9.58522 11.2536 4.56738 13.0512Z" fill="#FFE352"/>
<path d="M8.16507 5.854H8.49518C8.67757 5.854 8.82529 6.00173 8.82529 6.18411V9.81533C8.82529 9.99771 8.67757 10.1454 8.49518 10.1454H8.16507C7.98269 10.1454 7.83496 9.99771 7.83496 9.81533V6.18411C7.83496 6.00173 7.98269 5.854 8.16507 5.854Z" fill="#CC1728"/>
<path d="M11.4196 5.85415H10.1455C9.96315 5.85415 9.81543 6.00188 9.81543 6.18426V9.81547C9.81543 9.99786 9.96315 10.1456 10.1455 10.1456H10.4757C10.658 10.1456 10.8058 9.99786 10.8058 9.81547V8.82514H11.466C12.2868 8.82498 12.9521 8.15948 12.952 7.33849C12.952 7.26504 12.9465 7.19176 12.9356 7.1193C12.812 6.38117 12.1681 5.84375 11.4196 5.85415ZM11.4417 7.83481H10.8058V6.84448H11.466C11.7396 6.84465 11.9615 7.06648 11.9613 7.34031C11.9613 7.37101 11.9585 7.40171 11.9527 7.43191C11.9007 7.67124 11.6865 7.8401 11.4417 7.83481Z" fill="#CC1728"/>
<path d="M5.60155 9.92443L6.87248 6.29322C6.93272 6.12106 6.84211 5.93274 6.66996 5.87265C6.6348 5.86028 6.59799 5.854 6.56085 5.854H6.21077C6.07048 5.854 5.94553 5.94264 5.89915 6.07518L5.02898 8.56421L4.15881 6.07518C4.11259 5.94264 3.98765 5.854 3.84718 5.854H3.4971C3.31472 5.854 3.16699 6.00173 3.16699 6.18411C3.16699 6.22125 3.17326 6.25806 3.18548 6.29322L4.4564 9.92443C4.50278 10.0568 4.62773 10.1454 4.76803 10.1454H5.28993C5.43023 10.1454 5.55517 10.0568 5.60155 9.92443Z" fill="#CC1728"/>
</svg>
