<svg width="32" height="21" viewBox="0 0 32 21" fill="none" xmlns="http://www.w3.org/2000/svg">
    <rect width="32" height="20.48" rx="3" fill="#00579F"/>
    <path d="M14.3787 13.7834H12.4086L13.6408 6.7207H15.6108L14.3787 13.7834Z" fill="white"/>
    <path d="M21.5204 6.89248C21.1319 6.74958 20.5155 6.5918 19.7534 6.5918C17.8079 6.5918 16.4379 7.55348 16.4295 8.92839C16.4133 9.9428 17.4104 10.5062 18.1561 10.8445C18.9183 11.1901 19.1774 11.4157 19.1774 11.7238C19.1696 12.1969 18.5615 12.415 17.9943 12.415C17.2077 12.415 16.7863 12.3026 16.1458 12.0393L15.8864 11.9265L15.6107 13.5119C16.0728 13.707 16.9241 13.8802 17.8079 13.8878C19.8751 13.8878 21.2208 12.941 21.2368 11.4758C21.2447 10.6718 20.7182 10.0557 19.5831 9.55234C18.8941 9.22918 18.4721 9.01128 18.4721 8.68063C18.4802 8.38005 18.829 8.07217 19.6068 8.07217C20.2473 8.05709 20.7178 8.19979 21.0743 8.3426L21.2525 8.41759L21.5204 6.89248Z" fill="white"/>
    <path d="M24.1388 11.2814C24.3011 10.8756 24.9254 9.30526 24.9254 9.30526C24.9172 9.32034 25.0873 8.89203 25.1846 8.62909L25.3222 9.23765C25.3222 9.23765 25.6953 10.9282 25.7763 11.2814C25.4684 11.2814 24.5279 11.2814 24.1388 11.2814ZM26.5706 6.7207H25.0468C24.5768 6.7207 24.2198 6.84833 24.0171 7.3067L21.0908 13.7833H23.1579C23.1579 13.7833 23.4982 12.9116 23.5714 12.7239C23.7982 12.7239 25.8091 12.7239 26.1008 12.7239C26.1574 12.9718 26.3359 13.7833 26.3359 13.7833H28.16L26.5706 6.7207Z" fill="white"/>
    <path d="M10.7631 6.7207L8.83372 11.5368L8.62289 10.56C8.26619 9.43299 7.1475 8.20846 5.89911 7.5996L7.66634 13.7759H9.74966L12.8463 6.7207H10.7631Z" fill="white"/>
    <path d="M7.04214 6.7207H3.87245L3.84003 6.86341C6.31258 7.4495 7.9501 8.86227 8.62288 10.5603L7.93383 7.31439C7.82039 6.86331 7.47177 6.73558 7.04214 6.7207Z" fill="#FAA61A"/>
</svg>
